0
SECTION
2
HEADER
9
$INSUNITS
70
4
9
$ACADVER
1
AC1014
9
$HANDSEED
5
FFFF
0
ENDSEC
0
SECTION
2
TABLES
0
TABLE
2
VPORT
5
8
100
AcDbSymbolTable
0
ENDTAB
0
TABLE
2
LTYPE
5
5
100
AcDbSymbolTable
0
LTYPE
5
14
100
AcDbSymbolTableRecord
100
AcDbLinetypeTableRecord
2
BYBLOCK
70
0
0
LTYPE
5
15
100
AcDbSymbolTableRecord
100
AcDbLinetypeTableRecord
2
BYLAYER
70
0
0
ENDTAB
0
TABLE
2
LAYER
5
2
100
AcDbSymbolTable
70
2
0
LAYER
5
50
100
AcDbSymbolTableRecord
100
AcDbLayerTableRecord
2
0
70
0
6
CONTINUOUS
0
ENDTAB
0
TABLE
2
STYLE
5
3
100
AcDbSymbolTable
70
1
0
STYLE
5
11
100
AcDbSymbolTableRecord
100
AcDbTextStyleTableRecord
2
STANDARD
70
0
0
ENDTAB
0
TABLE
2
VIEW
5
6
100
AcDbSymbolTable
70
0
0
ENDTAB
0
TABLE
2
UCS
5
7
100
AcDbSymbolTable
70
0
0
ENDTAB
0
TABLE
2
APPID
5
9
100
AcDbSymbolTable
70
2
0
APPID
5
12
100
AcDbSymbolTableRecord
100
AcDbRegAppTableRecord
2
ACAD
70
0
0
ENDTAB
0
TABLE
2
DIMSTYLE
5
A
100
AcDbSymbolTable
70
1
0
ENDTAB
0
TABLE
2
BLOCK_RECORD
5
1
100
AcDbSymbolTable
70
1
0
BLOCK_RECORD
5
1F
100
AcDbSymbolTableRecord
100
AcDbBlockTableRecord
2
*MODEL_SPACE
0
BLOCK_RECORD
5
1B
100
AcDbSymbolTableRecord
100
AcDbBlockTableRecord
2
*PAPER_SPACE
0
ENDTAB
0
ENDSEC
0
SECTION
2
BLOCKS
0
BLOCK
5
20
100
AcDbEntity
100
AcDbBlockBegin
2
*MODEL_SPACE
0
ENDBLK
5
21
100
AcDbEntity
100
AcDbBlockEnd
0
BLOCK
5
1C
100
AcDbEntity
100
AcDbBlockBegin
2
*PAPER_SPACE
0
ENDBLK
5
1D
100
AcDbEntity
100
AcDbBlockEnd
0
ENDSEC
0
SECTION
2
ENTITIES
0
LWPOLYLINE
5
100
100
AcDbEntity
8
0
100
AcDbPolyline
90
48
70
1
43
0.0
10
25
20
-13.174999999999999
10
25
20
-3.1749999999999989
10
1.5874999999999995
20
-3.1749999999999989
10
1.587500000000003
20
-13.174999999999999
10
-1.5874999999999926
20
-13.174999999999999
10
-1.5874999999999908
20
-3.1749999999999989
10
-24.999999999999993
20
-3.1749999999999994
10
-24.999999999999993
20
-13.174999999999999
10
-28.17499999999999
20
-13.174999999999999
10
-28.17499999999999
20
-3.1749999999999989
10
-194.5
20
-3.1749999999999989
10
-194.5
20
0
10
-187
20
2.2204460492503131e-15
42
0.41421356237309009
10
-190
20
3.0000000000000302
10
-200.55499999999998
20
3.0000000000000249
10
-200.55499999999998
20
-1.5874999999999773
10
-203.72999999999996
20
-1.5874999999999773
10
-203.72999999999996
20
3.0000000000000249
42
0.41421356237308926
10
-206.72999999999999
20
1.6032130696396837e-14
10
-206.72999999999996
20
-3.1750000000000012
42
0.41421356237309709
10
-196.72999999999996
20
-13.175000000000001
10
-50.660281374238565
20
-13.175000000000001
42
-0.19891236737965834
10
-48.538961030678927
20
-14.053679656440359
10
-30.296320343559643
20
-32.296320343559643
42
0.20411576342525353
10
-28.115000000000059
20
-33.174399939988
10
-28.114999999999995
20
-23.175000000000008
10
-25.059999999999988
20
-23.175000000000008
10
-25.059999999999995
20
-33.175000000000004
10
25.060000000000002
20
-33.175000000000004
10
25.059999999999999
20
-23.175000000000008
10
28.115000000000006
20
-23.175000000000008
10
28.115000000000041
20
-33.174399939989335
42
0.20411576342525489
10
30.296320343559657
20
-32.29632034355965
10
48.538961030678948
20
-14.053679656440359
42
-0.19891236737965776
10
50.660281374238579
20
-13.175000000000004
10
196.72999999999996
20
-13.175000000000017
42
0.41421356237309509
10
206.72999999999996
20
-3.1749999999999998
10
206.72999999999999
20
1.7763568394002505e-14
42
0.41421356237309492
10
203.72999999999996
20
3.000000000000024
10
203.72999999999996
20
-1.5874999999999773
10
200.55499999999998
20
-1.5874999999999773
10
200.55499999999998
20
3.0000000000000249
10
190
20
3.0000000000000249
42
0.41421356237309725
10
187
20
2.5874831815455499e-15
10
194.5
20
0
10
194.5
20
-3.1749999999999989
10
28.17499999999999
20
-3.1749999999999989
10
28.174999999999997
20
-13.174999999999999
0
ENDSEC
0
SECTION
2
OBJECTS
0
DICTIONARY
5
C
100
AcDbDictionary
3
ACAD_GROUP
350
D
3
ACAD_MLINESTYLE
350
17
0
DICTIONARY
5
D
100
AcDbDictionary
0
DICTIONARY
5
1A
330
C
100
AcDbDictionary
0
DICTIONARY
5
17
100
AcDbDictionary
0
ENDSEC
0
EOF
