0
SECTION
2
HEADER
9
$INSUNITS
70
4
9
$ACADVER
1
AC1014
9
$HANDSEED
5
FFFF
0
ENDSEC
0
SECTION
2
TABLES
0
TABLE
2
VPORT
5
8
100
AcDbSymbolTable
0
ENDTAB
0
TABLE
2
LTYPE
5
5
100
AcDbSymbolTable
0
LTYPE
5
14
100
AcDbSymbolTableRecord
100
AcDbLinetypeTableRecord
2
BYBLOCK
70
0
0
LTYPE
5
15
100
AcDbSymbolTableRecord
100
AcDbLinetypeTableRecord
2
BYLAYER
70
0
0
ENDTAB
0
TABLE
2
LAYER
5
2
100
AcDbSymbolTable
70
2
0
LAYER
5
50
100
AcDbSymbolTableRecord
100
AcDbLayerTableRecord
2
0
70
0
6
CONTINUOUS
0
ENDTAB
0
TABLE
2
STYLE
5
3
100
AcDbSymbolTable
70
1
0
STYLE
5
11
100
AcDbSymbolTableRecord
100
AcDbTextStyleTableRecord
2
STANDARD
70
0
0
ENDTAB
0
TABLE
2
VIEW
5
6
100
AcDbSymbolTable
70
0
0
ENDTAB
0
TABLE
2
UCS
5
7
100
AcDbSymbolTable
70
0
0
ENDTAB
0
TABLE
2
APPID
5
9
100
AcDbSymbolTable
70
2
0
APPID
5
12
100
AcDbSymbolTableRecord
100
AcDbRegAppTableRecord
2
ACAD
70
0
0
ENDTAB
0
TABLE
2
DIMSTYLE
5
A
100
AcDbSymbolTable
70
1
0
ENDTAB
0
TABLE
2
BLOCK_RECORD
5
1
100
AcDbSymbolTable
70
1
0
BLOCK_RECORD
5
1F
100
AcDbSymbolTableRecord
100
AcDbBlockTableRecord
2
*MODEL_SPACE
0
BLOCK_RECORD
5
1B
100
AcDbSymbolTableRecord
100
AcDbBlockTableRecord
2
*PAPER_SPACE
0
ENDTAB
0
ENDSEC
0
SECTION
2
BLOCKS
0
BLOCK
5
20
100
AcDbEntity
100
AcDbBlockBegin
2
*MODEL_SPACE
0
ENDBLK
5
21
100
AcDbEntity
100
AcDbBlockEnd
0
BLOCK
5
1C
100
AcDbEntity
100
AcDbBlockBegin
2
*PAPER_SPACE
0
ENDBLK
5
1D
100
AcDbEntity
100
AcDbBlockEnd
0
ENDSEC
0
SECTION
2
ENTITIES
0
LWPOLYLINE
5
100
100
AcDbEntity
8
0
100
AcDbPolyline
90
24
70
1
43
0.0
10
-197.5
20
25.000000000000036
10
-197.5
20
-24.999999999999964
10
-194.5
20
-24.999999999999964
10
-194.5
20
-46.58057535067595
42
0.28233031072794856
10
-46.580575350676114
20
-194.49999999999994
10
-25
20
-194.5
10
-25
20
-197.5
10
25
20
-197.5
10
25
20
-194.5
10
46.580575350675986
20
-194.5
42
0.28233031072794862
10
194.50000000000003
20
-46.580575350676021
10
194.5
20
-25.000000000000014
10
197.5
20
-25.000000000000014
10
197.5
20
24.999999999999986
10
194.5
20
24.999999999999986
10
194.5
20
46.580575350675979
42
0.28233031072794851
10
46.580575350676114
20
194.49999999999994
10
25.000000000000021
20
194.5
10
25.000000000000021
20
197.5
10
-24.999999999999979
20
197.5
10
-24.999999999999972
20
194.5
10
-46.580575350675971
20
194.5
42
0.28233031072794851
10
-194.5
20
46.580575350676085
10
-194.5
20
25.000000000000036
0
LWPOLYLINE
5
101
100
AcDbEntity
8
0
100
AcDbPolyline
90
4
70
1
43
0.0
10
-85.209942224244941
20
-170.35940433724471
10
-88.087826968017595
20
-169.16734544542749
10
-82.347575482541245
20
-155.30915245775819
10
-79.469690738768548
20
-156.50121134957547
0
LWPOLYLINE
5
102
100
AcDbEntity
8
0
100
AcDbPolyline
90
4
70
1
43
0.0
10
-60.209762074489397
20
-180.71481801704414
10
-54.46951058901309
20
-166.85662502937481
10
-51.591625845240408
20
-168.04868392119204
10
-57.331877330716779
20
-181.90687690886139
0
LWPOLYLINE
5
103
100
AcDbEntity
8
0
100
AcDbPolyline
90
4
70
1
43
0.0
10
-143.9174431748981
20
-124.78313367598994
10
-146.12008079829417
20
-122.58049605259387
10
-135.51347908049596
20
-111.97389433479569
10
-133.31084145709985
20
-114.17653195819179
0
LWPOLYLINE
5
104
100
AcDbEntity
8
0
100
AcDbPolyline
90
4
70
1
43
0.0
10
-124.78313367598999
20
-143.91744317489801
10
-114.17653195819183
20
-133.31084145709977
10
-111.97389433479572
20
-135.5134790804959
10
-122.5804960525939
20
-146.12008079829408
0
LWPOLYLINE
5
105
100
AcDbEntity
8
0
100
AcDbPolyline
90
4
70
1
43
0.0
10
-180.71481801704414
20
-60.209762074489326
10
-181.90687690886139
20
-57.331877330716679
10
-168.04868392119207
20
-51.59162584524033
10
-166.85662502937481
20
-54.469510589013012
0
LWPOLYLINE
5
106
100
AcDbEntity
8
0
100
AcDbPolyline
90
4
70
1
43
0.0
10
-170.35940433724477
20
-85.209942224244884
10
-156.50121134957547
20
-79.469690738768463
10
-155.30915245775819
20
-82.34757548254116
10
-169.16734544542749
20
-88.087826968017538
0
LWPOLYLINE
5
107
100
AcDbEntity
8
0
100
AcDbPolyline
90
4
70
1
43
0.0
10
-189.99999999999994
20
13.530000000000108
10
-189.99999999999994
20
16.645000000000113
10
-174.99999999999997
20
16.645000000000099
10
-174.99999999999997
20
13.530000000000049
0
LWPOLYLINE
5
108
100
AcDbEntity
8
0
100
AcDbPolyline
90
4
70
1
43
0.0
10
-189.99999999999997
20
-13.53000000000004
10
-174.99999999999997
20
-13.529999999999987
10
-174.99999999999997
20
-16.645000000000032
10
-189.99999999999997
20
-16.645000000000039
0
LWPOLYLINE
5
109
100
AcDbEntity
8
0
100
AcDbPolyline
90
4
70
1
43
0.0
10
-170.35940433724474
20
85.209942224244926
10
-169.16734544542749
20
88.087826968017595
10
-155.30915245775816
20
82.347575482541231
10
-156.50121134957544
20
79.46969073876852
0
LWPOLYLINE
5
110
100
AcDbEntity
8
0
100
AcDbPolyline
90
4
70
1
43
0.0
10
-180.71481801704408
20
60.209762074489355
10
-166.85662502937481
20
54.469510589013069
10
-168.04868392119204
20
51.591625845240394
10
-181.90687690886134
20
57.331877330716722
0
LWPOLYLINE
5
111
100
AcDbEntity
8
0
100
AcDbPolyline
90
4
70
1
43
0.0
10
-124.78313367598997
20
143.9174431748981
10
-122.58049605259389
20
146.12008079829417
10
-111.97389433479572
20
135.51347908049596
10
-114.17653195819182
20
133.31084145709985
0
LWPOLYLINE
5
112
100
AcDbEntity
8
0
100
AcDbPolyline
90
4
70
1
43
0.0
10
-143.91744317489807
20
124.78313367599
10
-133.31084145709983
20
114.17653195819184
10
-135.51347908049593
20
111.97389433479572
10
-146.12008079829417
20
122.5804960525939
0
LWPOLYLINE
5
113
100
AcDbEntity
8
0
100
AcDbPolyline
90
4
70
1
43
0.0
10
-60.209762074489262
20
180.71481801704419
10
-57.331877330716623
20
181.90687690886142
10
-51.591625845240266
20
168.04868392119209
10
-54.469510589012955
20
166.85662502937487
0
LWPOLYLINE
5
114
100
AcDbEntity
8
0
100
AcDbPolyline
90
4
70
1
43
0.0
10
-85.209942224244799
20
170.35940433724477
10
-79.469690738768392
20
156.50121134957547
10
-82.347575482541117
20
155.30915245775822
10
-88.087826968017453
20
169.16734544542749
0
LWPOLYLINE
5
115
100
AcDbEntity
8
0
100
AcDbPolyline
90
4
70
1
43
0.0
10
13.530000000000088
20
190
10
16.645000000000078
20
190
10
16.645000000000067
20
175
10
13.530000000000031
20
175
0
LWPOLYLINE
5
116
100
AcDbEntity
8
0
100
AcDbPolyline
90
4
70
1
43
0.0
10
-13.530000000000067
20
190
10
-13.530000000000012
20
175
10
-16.645000000000049
20
175
10
-16.645000000000056
20
190
0
LWPOLYLINE
5
117
100
AcDbEntity
8
0
100
AcDbPolyline
90
4
70
1
43
0.0
10
85.209942224244855
20
170.3594043372448
10
88.087826968017538
20
169.16734544542754
10
82.34757548254116
20
155.30915245775822
10
79.469690738768449
20
156.5012113495755
0
LWPOLYLINE
5
118
100
AcDbEntity
8
0
100
AcDbPolyline
90
4
70
1
43
0.0
10
60.209762074489305
20
180.71481801704414
10
54.469510589012998
20
166.85662502937487
10
51.591625845240316
20
168.04868392119209
10
57.331877330716651
20
181.90687690886142
0
LWPOLYLINE
5
119
100
AcDbEntity
8
0
100
AcDbPolyline
90
4
70
1
43
0.0
10
143.91744317489804
20
124.78313367598994
10
146.12008079829414
20
122.58049605259386
10
135.51347908049593
20
111.97389433479566
10
133.3108414570998
20
114.17653195819179
0
LWPOLYLINE
5
120
100
AcDbEntity
8
0
100
AcDbPolyline
90
4
70
1
43
0.0
10
124.78313367598999
20
143.91744317489804
10
114.17653195819182
20
133.31084145709977
10
111.97389433479569
20
135.5134790804959
10
122.5804960525939
20
146.12008079829411
0
LWPOLYLINE
5
121
100
AcDbEntity
8
0
100
AcDbPolyline
90
4
70
1
43
0.0
10
180.71481801704419
20
60.209762074489277
10
181.90687690886142
20
57.33187733071663
10
168.04868392119209
20
51.591625845240273
10
166.85662502937487
20
54.46951058901297
0
LWPOLYLINE
5
122
100
AcDbEntity
8
0
100
AcDbPolyline
90
4
70
1
43
0.0
10
170.3594043372448
20
85.209942224244799
10
156.50121134957547
20
79.469690738768406
10
155.30915245775822
20
82.347575482541117
10
169.16734544542754
20
88.087826968017481
0
LWPOLYLINE
5
123
100
AcDbEntity
8
0
100
AcDbPolyline
90
4
70
1
43
0.0
10
190.00000000000003
20
-13.530000000000079
10
190.00000000000003
20
-16.645000000000078
10
175
20
-16.645000000000067
10
175
20
-13.530000000000022
0
LWPOLYLINE
5
124
100
AcDbEntity
8
0
100
AcDbPolyline
90
4
70
1
43
0.0
10
190
20
13.530000000000058
10
175
20
13.530000000000001
10
175
20
16.64500000000006
10
190
20
16.645000000000067
0
LWPOLYLINE
5
125
100
AcDbEntity
8
0
100
AcDbPolyline
90
4
70
1
43
0.0
10
170.3594043372448
20
-85.209942224244855
10
169.16734544542754
20
-88.087826968017538
10
155.30915245775822
20
-82.34757548254116
10
156.5012113495755
20
-79.469690738768449
0
LWPOLYLINE
5
126
100
AcDbEntity
8
0
100
AcDbPolyline
90
4
70
1
43
0.0
10
180.71481801704414
20
-60.209762074489305
10
166.85662502937487
20
-54.469510589012998
10
168.04868392119209
20
-51.591625845240316
10
181.90687690886142
20
-57.331877330716651
0
LWPOLYLINE
5
127
100
AcDbEntity
8
0
100
AcDbPolyline
90
4
70
1
43
0.0
10
124.78313367598994
20
-143.91744317489804
10
122.58049605259386
20
-146.12008079829414
10
111.97389433479566
20
-135.51347908049593
10
114.17653195819179
20
-133.3108414570998
0
LWPOLYLINE
5
128
100
AcDbEntity
8
0
100
AcDbPolyline
90
4
70
1
43
0.0
10
143.91744317489804
20
-124.78313367598999
10
133.31084145709977
20
-114.17653195819182
10
135.5134790804959
20
-111.97389433479569
10
146.12008079829411
20
-122.5804960525939
0
LWPOLYLINE
5
129
100
AcDbEntity
8
0
100
AcDbPolyline
90
4
70
1
43
0.0
10
60.209762074489291
20
-180.71481801704422
10
57.331877330716637
20
-181.90687690886142
10
51.591625845240287
20
-168.04868392119209
10
54.469510589012977
20
-166.85662502937487
0
LWPOLYLINE
5
130
100
AcDbEntity
8
0
100
AcDbPolyline
90
4
70
1
43
0.0
10
85.209942224244841
20
-170.35940433724477
10
79.469690738768421
20
-156.50121134957547
10
82.347575482541117
20
-155.30915245775819
10
88.087826968017495
20
-169.16734544542754
0
LWPOLYLINE
5
131
100
AcDbEntity
8
0
100
AcDbPolyline
90
4
70
1
43
0.0
10
13.53000000000007
20
-190
10
13.530000000000015
20
-175
10
16.645000000000064
20
-175
10
16.645000000000071
20
-190
0
LWPOLYLINE
5
132
100
AcDbEntity
8
0
100
AcDbPolyline
90
4
70
1
43
0.0
10
-13.53000000000007
20
-190
10
-16.645000000000071
20
-190
10
-16.645000000000064
20
-175
10
-13.530000000000015
20
-175
0
CIRCLE
5
133
100
AcDbEntity
8
0
100
AcDbCircle
10
0
20
0
30
0
40
21
210
0
220
-0
230
1
0
ENDSEC
0
SECTION
2
OBJECTS
0
DICTIONARY
5
C
100
AcDbDictionary
3
ACAD_GROUP
350
D
3
ACAD_MLINESTYLE
350
17
0
DICTIONARY
5
D
100
AcDbDictionary
0
DICTIONARY
5
1A
330
C
100
AcDbDictionary
0
DICTIONARY
5
17
100
AcDbDictionary
0
ENDSEC
0
EOF
