0
SECTION
2
HEADER
9
$INSUNITS
70
4
9
$ACADVER
1
AC1014
9
$HANDSEED
5
FFFF
0
ENDSEC
0
SECTION
2
TABLES
0
TABLE
2
VPORT
5
8
100
AcDbSymbolTable
0
ENDTAB
0
TABLE
2
LTYPE
5
5
100
AcDbSymbolTable
0
LTYPE
5
14
100
AcDbSymbolTableRecord
100
AcDbLinetypeTableRecord
2
BYBLOCK
70
0
0
LTYPE
5
15
100
AcDbSymbolTableRecord
100
AcDbLinetypeTableRecord
2
BYLAYER
70
0
0
ENDTAB
0
TABLE
2
LAYER
5
2
100
AcDbSymbolTable
70
2
0
LAYER
5
50
100
AcDbSymbolTableRecord
100
AcDbLayerTableRecord
2
0
70
0
6
CONTINUOUS
0
ENDTAB
0
TABLE
2
STYLE
5
3
100
AcDbSymbolTable
70
1
0
STYLE
5
11
100
AcDbSymbolTableRecord
100
AcDbTextStyleTableRecord
2
STANDARD
70
0
0
ENDTAB
0
TABLE
2
VIEW
5
6
100
AcDbSymbolTable
70
0
0
ENDTAB
0
TABLE
2
UCS
5
7
100
AcDbSymbolTable
70
0
0
ENDTAB
0
TABLE
2
APPID
5
9
100
AcDbSymbolTable
70
2
0
APPID
5
12
100
AcDbSymbolTableRecord
100
AcDbRegAppTableRecord
2
ACAD
70
0
0
ENDTAB
0
TABLE
2
DIMSTYLE
5
A
100
AcDbSymbolTable
70
1
0
ENDTAB
0
TABLE
2
BLOCK_RECORD
5
1
100
AcDbSymbolTable
70
1
0
BLOCK_RECORD
5
1F
100
AcDbSymbolTableRecord
100
AcDbBlockTableRecord
2
*MODEL_SPACE
0
BLOCK_RECORD
5
1B
100
AcDbSymbolTableRecord
100
AcDbBlockTableRecord
2
*PAPER_SPACE
0
ENDTAB
0
ENDSEC
0
SECTION
2
BLOCKS
0
BLOCK
5
20
100
AcDbEntity
100
AcDbBlockBegin
2
*MODEL_SPACE
0
ENDBLK
5
21
100
AcDbEntity
100
AcDbBlockEnd
0
BLOCK
5
1C
100
AcDbEntity
100
AcDbBlockBegin
2
*PAPER_SPACE
0
ENDBLK
5
1D
100
AcDbEntity
100
AcDbBlockEnd
0
ENDSEC
0
SECTION
2
ENTITIES
0
LWPOLYLINE
5
100
100
AcDbEntity
8
0
100
AcDbPolyline
90
4
70
1
43
0.0
10
-0.50000000003651235
20
53.500000000042547
42
0.99999999999999989
10
0.50000000001483647
20
53.49999999999249
10
0.50000000010736012
20
70.499999999976794
42
0.99999999999999989
10
-0.50000000010212986
20
70.499999999976836
0
LWPOLYLINE
5
101
100
AcDbEntity
8
0
100
AcDbPolyline
90
4
70
1
43
0.0
10
19.499999999988908
20
53.500000000035008
42
0.99999999999999989
10
20.500000000040259
20
53.500000000040764
10
20.500000000107363
20
70.499999999975074
42
0.99999999999999989
10
19.500000000056055
20
70.499999999979039
0
LWPOLYLINE
5
102
100
AcDbEntity
8
0
100
AcDbPolyline
90
4
70
1
43
0.0
10
20.500000000109438
20
94.499999999975074
42
0.99999999999999989
10
19.500000000058144
20
94.499999999978996
10
19.499999999990987
20
77.500000000035001
42
0.99999999999999989
10
20.500000000042338
20
77.499999999996575
0
LWPOLYLINE
5
103
100
AcDbEntity
8
0
100
AcDbPolyline
90
4
70
1
43
0.0
10
30.500000000109804
20
82.500000000012136
42
0.99999999999999989
10
29.500000000136364
20
82.500000000012861
10
29.500000000123979
20
65.499999999979394
42
0.99999999999999989
10
30.500000000096339
20
65.499999999978641
0
LWPOLYLINE
5
104
100
AcDbEntity
8
0
100
AcDbPolyline
90
4
70
1
43
0.0
10
39.499999999988908
20
53.500000000033275
42
0.99999999999999989
10
40.500000000040259
20
53.50000000003903
10
40.500000000107377
20
70.49999999997334
42
0.99999999999999989
10
39.500000000056076
20
70.499999999977305
0
LWPOLYLINE
5
105
100
AcDbEntity
8
0
100
AcDbPolyline
90
4
70
1
43
0.0
10
40.500000000109438
20
94.49999999997334
42
0.99999999999999989
10
39.500000000058144
20
94.499999999977277
10
39.499999999990969
20
77.500000000033268
42
0.99999999999999989
10
40.500000000042334
20
77.499999999994856
0
LWPOLYLINE
5
106
100
AcDbEntity
8
0
100
AcDbPolyline
90
4
70
1
43
0.0
10
50.500000000109807
20
82.500000000010388
42
0.99999999999999989
10
49.500000000136367
20
82.500000000011113
10
49.500000000123983
20
65.499999999977661
42
0.99999999999999989
10
50.500000000096335
20
65.499999999976922
0
LWPOLYLINE
5
107
100
AcDbEntity
8
0
100
AcDbPolyline
90
4
70
1
43
0.0
10
59.499999999988908
20
53.500000000031548
42
0.99999999999999989
10
60.500000000040259
20
53.500000000037303
10
60.500000000107377
20
70.499999999971607
42
0.99999999999999989
10
59.500000000056076
20
70.499999999975572
0
LWPOLYLINE
5
108
100
AcDbEntity
8
0
100
AcDbPolyline
90
4
70
1
43
0.0
10
60.500000000109438
20
94.499999999971621
42
0.99999999999999989
10
59.500000000058144
20
94.499999999975557
10
59.499999999990969
20
77.500000000031534
42
0.99999999999999989
10
60.500000000042334
20
77.499999999993108
0
LWPOLYLINE
5
109
100
AcDbEntity
8
0
100
AcDbPolyline
90
4
70
1
43
0.0
10
70.500000000109807
20
82.500000000008654
42
0.99999999999999989
10
69.500000000136367
20
82.500000000009379
10
69.500000000123975
20
65.499999999975927
42
0.99999999999999989
10
70.500000000096335
20
65.499999999975174
0
LWPOLYLINE
5
110
100
AcDbEntity
8
0
100
AcDbPolyline
90
4
70
1
43
0.0
10
79.499999999988916
20
53.500000000029814
42
0.99999999999999989
10
80.500000000040259
20
53.50000000003557
10
80.500000000107377
20
70.499999999969873
42
0.99999999999999989
10
79.500000000056076
20
70.499999999973838
0
LWPOLYLINE
5
111
100
AcDbEntity
8
0
100
AcDbPolyline
90
4
70
1
43
0.0
10
80.500000000109424
20
94.499999999969887
42
0.99999999999999989
10
79.500000000058137
20
94.499999999973809
10
79.499999999990962
20
77.500000000029814
42
0.99999999999999989
10
80.500000000042334
20
77.499999999991388
0
LWPOLYLINE
5
112
100
AcDbEntity
8
0
100
AcDbPolyline
90
4
70
1
43
0.0
10
90.500000000109807
20
82.500000000006935
42
0.99999999999999989
10
89.500000000136367
20
82.50000000000766
10
89.500000000123975
20
65.499999999974193
42
0.99999999999999989
10
90.500000000096335
20
65.499999999973454
0
LWPOLYLINE
5
113
100
AcDbEntity
8
0
100
AcDbPolyline
90
4
70
1
43
0.0
10
99.499999999988916
20
53.500000000028081
42
0.99999999999999989
10
100.50000000004026
20
53.500000000033836
10
100.50000000010733
20
70.499999999968153
42
0.99999999999999989
10
99.500000000056076
20
70.499999999972104
0
LWPOLYLINE
5
114
100
AcDbEntity
8
0
100
AcDbPolyline
90
4
70
1
43
0.0
10
100.50000000010942
20
94.499999999968139
42
0.99999999999999989
10
99.500000000058151
20
94.499999999972061
10
99.499999999990962
20
77.500000000028081
42
0.99999999999999989
10
100.50000000004233
20
77.49999999998964
0
LWPOLYLINE
5
115
100
AcDbEntity
8
0
100
AcDbPolyline
90
4
70
1
43
0.0
10
110.50000000010981
20
82.500000000005201
42
0.99999999999999989
10
109.50000000013637
20
82.50000000000594
10
109.50000000012398
20
65.499999999972459
42
0.99999999999999989
10
110.50000000009634
20
65.499999999971706
0
LWPOLYLINE
5
116
100
AcDbEntity
8
0
100
AcDbPolyline
90
4
70
1
43
0.0
10
120.50000000010942
20
94.49999999996642
42
0.99999999999999989
10
119.50000000005815
20
94.499999999970342
10
119.49999999999096
20
77.500000000026347
42
0.99999999999999989
10
120.50000000004233
20
77.499999999987921
0
LWPOLYLINE
5
117
100
AcDbEntity
8
0
100
AcDbPolyline
90
4
70
1
43
0.0
10
119.49999999998892
20
53.500000000026347
42
0.99999999999999989
10
120.50000000004026
20
53.500000000032102
10
120.50000000010733
20
70.499999999966406
42
0.99999999999999989
10
119.50000000005608
20
70.499999999970385
0
LWPOLYLINE
5
118
100
AcDbEntity
8
0
100
AcDbPolyline
90
4
70
1
43
0.0
10
-120.50000000003651
20
53.50000000004254
42
0.99999999999999989
10
-119.49999999998516
20
53.499999999992497
10
-119.50000000005085
20
70.49999999998073
42
0.99999999999999989
10
-120.50000000010213
20
70.499999999976836
0
LWPOLYLINE
5
119
100
AcDbEntity
8
0
100
AcDbPolyline
90
4
70
1
43
0.0
10
-119.50000000005085
20
94.499999999980702
42
0.99999999999999989
10
-120.50000000010213
20
94.499999999976865
10
-120.50000000003651
20
77.499999999998352
42
0.99999999999999989
10
-119.49999999998516
20
77.500000000036692
0
LWPOLYLINE
5
120
100
AcDbEntity
8
0
100
AcDbPolyline
90
4
70
1
43
0.0
10
-109.50000000013009
20
82.500000000015433
42
0.99999999999999989
10
-110.5000000001035
20
82.500000000014765
10
-110.50000000009155
20
65.499999999981284
42
0.99999999999999989
10
-109.50000000011919
20
65.499999999981952
0
LWPOLYLINE
5
121
100
AcDbEntity
8
0
100
AcDbPolyline
90
4
70
1
43
0.0
10
-99.500000000050846
20
94.499999999980702
42
0.99999999999999989
10
-100.50000000010213
20
94.499999999976865
10
-100.50000000003651
20
77.499999999998352
42
0.99999999999999989
10
-99.499999999985135
20
77.500000000036692
0
LWPOLYLINE
5
122
100
AcDbEntity
8
0
100
AcDbPolyline
90
4
70
1
43
0.0
10
-100.50000000003651
20
53.50000000004254
42
0.99999999999999989
10
-99.499999999985164
20
53.499999999992497
10
-99.500000000050846
20
70.499999999980716
42
0.99999999999999989
10
-100.50000000010213
20
70.499999999976836
0
LWPOLYLINE
5
123
100
AcDbEntity
8
0
100
AcDbPolyline
90
4
70
1
43
0.0
10
-89.500000000130086
20
82.500000000015433
42
0.99999999999999989
10
-90.500000000103498
20
82.500000000014765
10
-90.500000000091546
20
65.499999999981299
42
0.99999999999999989
10
-89.500000000119186
20
65.499999999981952
0
LWPOLYLINE
5
124
100
AcDbEntity
8
0
100
AcDbPolyline
90
4
70
1
43
0.0
10
-79.500000000050846
20
94.499999999980702
42
0.99999999999999989
10
-80.500000000102148
20
94.499999999976865
10
-80.500000000036508
20
77.499999999998352
42
0.99999999999999989
10
-79.49999999998515
20
77.500000000036692
0
LWPOLYLINE
5
125
100
AcDbEntity
8
0
100
AcDbPolyline
90
4
70
1
43
0.0
10
-80.500000000036508
20
53.50000000004254
42
0.99999999999999989
10
-79.499999999985164
20
53.499999999992497
10
-79.500000000050846
20
70.49999999998073
42
0.99999999999999989
10
-80.500000000102133
20
70.499999999976836
0
LWPOLYLINE
5
126
100
AcDbEntity
8
0
100
AcDbPolyline
90
4
70
1
43
0.0
10
-69.500000000130086
20
82.500000000015433
42
0.99999999999999989
10
-70.500000000103512
20
82.500000000014765
10
-70.500000000091546
20
65.499999999981299
42
0.99999999999999989
10
-69.500000000119186
20
65.499999999981952
0
LWPOLYLINE
5
127
100
AcDbEntity
8
0
100
AcDbPolyline
90
4
70
1
43
0.0
10
-59.500000000050839
20
94.499999999980702
42
0.99999999999999989
10
-60.500000000102141
20
94.499999999976836
10
-60.500000000036501
20
77.499999999998337
42
0.99999999999999989
10
-59.49999999998515
20
77.500000000036692
0
LWPOLYLINE
5
128
100
AcDbEntity
8
0
100
AcDbPolyline
90
4
70
1
43
0.0
10
-60.500000000036501
20
53.50000000004254
42
0.99999999999999989
10
-59.499999999985135
20
53.499999999992497
10
-59.500000000050839
20
70.49999999998073
42
0.99999999999999989
10
-60.500000000102133
20
70.499999999976836
0
LWPOLYLINE
5
129
100
AcDbEntity
8
0
100
AcDbPolyline
90
4
70
1
43
0.0
10
-49.500000000130093
20
82.500000000015433
42
0.99999999999999989
10
-50.500000000103512
20
82.500000000014765
10
-50.500000000091546
20
65.499999999981299
42
0.99999999999999989
10
-49.500000000119186
20
65.499999999981952
0
LWPOLYLINE
5
130
100
AcDbEntity
8
0
100
AcDbPolyline
90
4
70
1
43
0.0
10
-39.500000000050839
20
94.499999999980702
42
0.99999999999999989
10
-40.500000000102141
20
94.499999999976836
10
-40.500000000036493
20
77.499999999998337
42
0.99999999999999989
10
-39.499999999985164
20
77.500000000036692
0
LWPOLYLINE
5
131
100
AcDbEntity
8
0
100
AcDbPolyline
90
4
70
1
43
0.0
10
-40.500000000036493
20
53.50000000004254
42
0.99999999999999989
10
-39.499999999985143
20
53.499999999992497
10
-39.500000000050839
20
70.49999999998073
42
0.99999999999999989
10
-40.500000000102133
20
70.499999999976836
0
LWPOLYLINE
5
132
100
AcDbEntity
8
0
100
AcDbPolyline
90
4
70
1
43
0.0
10
-29.500000000130093
20
82.500000000015433
42
0.99999999999999989
10
-30.500000000103515
20
82.500000000014765
10
-30.500000000091529
20
65.49999999998127
42
0.99999999999999989
10
-29.500000000119186
20
65.499999999981952
0
LWPOLYLINE
5
133
100
AcDbEntity
8
0
100
AcDbPolyline
90
4
70
1
43
0.0
10
-19.500000000050839
20
94.499999999980702
42
0.99999999999999989
10
-20.50000000010213
20
94.499999999976836
10
-20.500000000036511
20
77.499999999998337
42
0.99999999999999989
10
-19.49999999998516
20
77.500000000036692
0
LWPOLYLINE
5
134
100
AcDbEntity
8
0
100
AcDbPolyline
90
4
70
1
43
0.0
10
-20.500000000036511
20
53.50000000004254
42
0.99999999999999989
10
-19.49999999998515
20
53.499999999992497
10
-19.500000000050839
20
70.49999999998073
42
0.99999999999999989
10
-20.50000000010213
20
70.499999999976836
0
LWPOLYLINE
5
135
100
AcDbEntity
8
0
100
AcDbPolyline
90
126
70
1
43
0.0
10
-9.5000000001248885
20
50.000000000004462
10
9.5000000001283347
20
50.000000000003631
10
9.5000000001342659
20
58.500000000014595
42
-0.99999999999999989
10
10.500000000107709
20
58.500000000013856
10
10.500000000101313
20
50.000000000003553
10
29.500000000128335
20
50.000000000001904
10
29.500000000134268
20
58.500000000012868
42
-0.99999999999999989
10
30.500000000107708
20
58.500000000012122
10
30.500000000101313
20
50.000000000001819
10
49.500000000128338
20
50.000000000000171
10
49.500000000134264
20
58.500000000011134
42
-0.99999999999999989
10
50.500000000107704
20
58.500000000010388
10
50.500000000101309
20
50.000000000000085
10
69.500000000128338
20
49.999999999998437
10
69.500000000134264
20
58.5000000000094
42
-0.99999999999999989
10
70.500000000107704
20
58.500000000008654
10
70.500000000101309
20
49.999999999998359
10
89.500000000128338
20
49.999999999996703
10
89.500000000134264
20
58.500000000007674
42
-0.99999999999999989
10
90.500000000107704
20
58.500000000006921
10
90.500000000101309
20
49.999999999996625
10
109.50000000012834
20
49.999999999994969
10
109.50000000013426
20
58.50000000000594
42
-0.99999999999999989
10
110.5000000001077
20
58.500000000005194
10
110.50000000010131
20
49.999999999994891
10
130.00000000000173
20
49.999999999993207
10
130.00000000000225
20
56.349999999993194
10
133.17500000000229
20
56.349999999992932
10
133.17500000000172
20
49.99999999999293
10
158.17500000000175
20
49.999999999990763
10
158.17500000000416
20
77.999999999990763
10
147.67500000000416
20
77.999999999991672
42
-0.41421356237309681
10
144.67500000000442
20
80.999999999991928
10
144.67500000000561
20
94.999999999991928
42
0.41421356237310364
10
141.67500000000589
20
97.999999999992212
10
110.50000000010547
20
97.999999999994884
10
110.50000000009838
20
89.499999999971735
42
-0.99999999999999989
10
109.50000000012605
20
89.499999999972474
10
109.50000000013249
20
97.999999999994998
10
90.500000000105473
20
97.999999999996632
10
90.500000000098382
20
89.499999999973454
42
-0.99999999999999989
10
89.50000000012605
20
89.499999999974193
10
89.500000000132488
20
97.999999999996717
10
70.500000000105473
20
97.99999999999838
10
70.500000000098382
20
89.499999999975174
42
-0.99999999999999989
10
69.50000000012605
20
89.499999999975927
10
69.500000000132488
20
97.999999999998437
10
50.500000000105473
20
98.000000000000099
10
50.500000000098382
20
89.499999999976922
42
-0.99999999999999989
10
49.500000000126043
20
89.499999999977661
10
49.500000000132488
20
98.000000000000185
10
30.500000000105469
20
98.000000000001819
10
30.500000000098385
20
89.499999999978655
42
-0.99999999999999989
10
29.50000000012604
20
89.499999999979408
10
29.500000000132491
20
98.000000000001933
10
16.500000000004231
20
98.000000000003041
42
0.41421356237309637
10
13.500000000003944
20
95.000000000003325
10
13.500000000002315
20
81.000000000003297
42
-0.41421356237309614
10
10.500000000002057
20
78.000000000003553
10
10.500000000096325
20
65.499999999980375
42
-0.99999999999999989
10
9.500000000123979
20
65.499999999981128
10
9.5000000001334328
20
78.000000000003652
10
0.50000000003398881
20
78.00000000000442
10
0.50000000001483635
20
77.500000000036692
42
-0.99999999999999989
10
-0.50000000003651235
20
77.499999999998352
10
-0.50000000002810907
20
78.000000000004462
10
-9.5000000001275531
20
78.000000000004462
10
-9.50000000011919
20
65.499999999981966
42
-0.99999999999999989
10
-10.500000000091529
20
65.49999999998127
10
-10.499999999996188
20
78.000000000004448
42
-0.4142135623730942
10
-13.499999999996186
20
81.000000000004462
10
-13.499999999996621
20
95.000000000004476
42
0.41421356237309509
10
-16.499999999996611
20
98.000000000004491
10
-29.500000000124889
20
98.000000000004462
10
-29.500000000119183
20
89.499999999981966
42
-0.99999999999999989
10
-30.500000000091529
20
89.499999999981284
10
-30.500000000097867
20
98.000000000004462
10
-49.500000000124885
20
98.000000000004462
10
-49.500000000119186
20
89.499999999981995
42
-0.99999999999999989
10
-50.500000000091546
20
89.499999999981284
10
-50.500000000097877
20
98.000000000004462
10
-69.500000000124885
20
98.000000000004462
10
-69.500000000119186
20
89.499999999981995
42
-0.99999999999999989
10
-70.500000000091546
20
89.499999999981284
10
-70.50000000009787
20
98.000000000004462
10
-89.500000000124871
20
98.000000000004462
10
-89.500000000119201
20
89.499999999981966
42
-0.99999999999999989
10
-90.500000000091546
20
89.499999999981284
10
-90.50000000009787
20
98.000000000004462
10
-109.50000000012488
20
98.000000000004462
10
-109.5000000001192
20
89.499999999981966
42
-0.99999999999999989
10
-110.50000000009155
20
89.499999999981284
10
-110.50000000009787
20
98.000000000004462
10
-141.67499999999828
20
98.000000000004462
42
0.41421356237309509
10
-144.67499999999828
20
95.000000000004476
10
-144.67499999999828
20
81.000000000004462
42
-0.41421356237309331
10
-147.67499999999828
20
78.000000000004462
10
-158.17499999999828
20
78.000000000004462
10
-158.17499999999828
20
50.000000000004462
10
-133.17499999999828
20
50.000000000004462
10
-133.17499999999828
20
56.350000000004457
10
-129.99999999999827
20
56.350000000004457
10
-129.99999999999827
20
50.000000000004462
10
-110.50000000009787
20
50.000000000004462
10
-110.50000000010354
20
58.500000000014758
42
-0.99999999999999989
10
-109.50000000013009
20
58.500000000015419
10
-109.50000000012488
20
50.000000000004462
10
-90.50000000009787
20
50.000000000004462
10
-90.50000000010354
20
58.500000000014758
42
-0.99999999999999989
10
-89.500000000130086
20
58.500000000015419
10
-89.500000000124885
20
50.000000000004462
10
-70.50000000009787
20
50.000000000004462
10
-70.50000000010354
20
58.500000000014758
42
-0.99999999999999989
10
-69.500000000130086
20
58.500000000015419
10
-69.500000000124885
20
50.000000000004462
10
-50.50000000009787
20
50.000000000004462
10
-50.500000000103533
20
58.500000000014758
42
-0.99999999999999989
10
-49.500000000130093
20
58.500000000015419
10
-49.500000000124885
20
50.000000000004462
10
-30.500000000097867
20
50.000000000004462
10
-30.50000000010354
20
58.500000000014758
42
-0.99999999999999989
10
-29.500000000130093
20
58.500000000015419
10
-29.500000000124889
20
50.000000000004462
10
-10.500000000097867
20
50.000000000004462
10
-10.500000000103526
20
58.500000000014737
42
-0.99999999999999989
10
-9.5000000001300915
20
58.500000000015433
0
ENDSEC
0
SECTION
2
OBJECTS
0
DICTIONARY
5
C
100
AcDbDictionary
3
ACAD_GROUP
350
D
3
ACAD_MLINESTYLE
350
17
0
DICTIONARY
5
D
100
AcDbDictionary
0
DICTIONARY
5
1A
330
C
100
AcDbDictionary
0
DICTIONARY
5
17
100
AcDbDictionary
0
ENDSEC
0
EOF
