0
SECTION
2
HEADER
9
$INSUNITS
70
4
9
$ACADVER
1
AC1014
9
$HANDSEED
5
FFFF
0
ENDSEC
0
SECTION
2
TABLES
0
TABLE
2
VPORT
5
8
100
AcDbSymbolTable
0
ENDTAB
0
TABLE
2
LTYPE
5
5
100
AcDbSymbolTable
0
LTYPE
5
14
100
AcDbSymbolTableRecord
100
AcDbLinetypeTableRecord
2
BYBLOCK
70
0
0
LTYPE
5
15
100
AcDbSymbolTableRecord
100
AcDbLinetypeTableRecord
2
BYLAYER
70
0
0
ENDTAB
0
TABLE
2
LAYER
5
2
100
AcDbSymbolTable
70
2
0
LAYER
5
50
100
AcDbSymbolTableRecord
100
AcDbLayerTableRecord
2
0
70
0
6
CONTINUOUS
0
ENDTAB
0
TABLE
2
STYLE
5
3
100
AcDbSymbolTable
70
1
0
STYLE
5
11
100
AcDbSymbolTableRecord
100
AcDbTextStyleTableRecord
2
STANDARD
70
0
0
ENDTAB
0
TABLE
2
VIEW
5
6
100
AcDbSymbolTable
70
0
0
ENDTAB
0
TABLE
2
UCS
5
7
100
AcDbSymbolTable
70
0
0
ENDTAB
0
TABLE
2
APPID
5
9
100
AcDbSymbolTable
70
2
0
APPID
5
12
100
AcDbSymbolTableRecord
100
AcDbRegAppTableRecord
2
ACAD
70
0
0
ENDTAB
0
TABLE
2
DIMSTYLE
5
A
100
AcDbSymbolTable
70
1
0
ENDTAB
0
TABLE
2
BLOCK_RECORD
5
1
100
AcDbSymbolTable
70
1
0
BLOCK_RECORD
5
1F
100
AcDbSymbolTableRecord
100
AcDbBlockTableRecord
2
*MODEL_SPACE
0
BLOCK_RECORD
5
1B
100
AcDbSymbolTableRecord
100
AcDbBlockTableRecord
2
*PAPER_SPACE
0
ENDTAB
0
ENDSEC
0
SECTION
2
BLOCKS
0
BLOCK
5
20
100
AcDbEntity
100
AcDbBlockBegin
2
*MODEL_SPACE
0
ENDBLK
5
21
100
AcDbEntity
100
AcDbBlockEnd
0
BLOCK
5
1C
100
AcDbEntity
100
AcDbBlockBegin
2
*PAPER_SPACE
0
ENDBLK
5
1D
100
AcDbEntity
100
AcDbBlockEnd
0
ENDSEC
0
SECTION
2
ENTITIES
0
LWPOLYLINE
5
100
100
AcDbEntity
8
0
100
AcDbPolyline
90
16
70
1
43
0.0
10
17.374999999999954
20
-83.176200120020937
10
-17.37500000000006
20
-83.176200120020937
42
0.31095524143194692
10
-20.177490532338215
20
-85.105664358753558
10
-50.000000000000114
20
-163.17620012002092
10
-50.000000000000135
20
-166.35120012002091
10
-40.000000000000135
20
-166.35120012002091
10
-40.000000000000114
20
-163.17620012002092
10
-1.5275000000000771
20
-163.17620012002092
10
-1.527500000000076
20
-148.17620012002092
10
1.5274999999999679
20
-148.17620012002092
10
1.5274999999999692
20
-163.17620012002092
10
40.000000000000007
20
-163.17620012002092
10
40.000000000000028
20
-166.35120012002091
10
50.000000000000028
20
-166.35120012002091
10
50.000000000000007
20
-163.17620012002092
10
20.177490532338108
20
-85.105664358753558
42
0.31095524143194003
0
CIRCLE
5
101
100
AcDbEntity
8
0
100
AcDbCircle
10
4.9999999999998845
20
-137.17620012002095
30
-8.8817841970012523e-15
40
1.5499999999999989
210
-1.9721522630529565e-31
220
-1.2515060561244113e-60
230
1
0
CIRCLE
5
102
100
AcDbEntity
8
0
100
AcDbCircle
10
4.9999999999999432
20
-89.176200120020923
30
-8.8817841970012523e-15
40
1.5499999999999989
210
-1.9721522630529565e-31
220
-1.2515060561244113e-60
230
1
0
LWPOLYLINE
5
103
100
AcDbEntity
8
0
100
AcDbPolyline
90
12
70
1
43
0.0
10
-0.5000000000000524
20
-85.176200120020951
10
0.49999999999994404
20
-85.176200120020951
10
0.4999999999999174
20
-93.176200120020937
10
9.8499999999999304
20
-93.176200120020923
10
9.8499999999999481
20
-133.17620012002092
10
0.49999999999987277
20
-133.17620012002092
10
0.49999999999987299
20
-141.17620012002092
10
-0.49999999999998135
20
-141.17620012002092
10
-0.49999999999998135
20
-133.17620012002092
10
-9.8500000000000583
20
-133.17620012002092
10
-9.8500000000000405
20
-93.176200120020923
10
-0.50000000000002598
20
-93.176200120020937
0
CIRCLE
5
104
100
AcDbEntity
8
0
100
AcDbCircle
10
-5.0000000000000524
20
-89.176200120020923
30
0
40
1.5499999999999989
210
-1.9721522630529565e-31
220
-1.2515060561244113e-60
230
1
0
CIRCLE
5
105
100
AcDbEntity
8
0
100
AcDbCircle
10
-4.9999999999999929
20
-137.17620012002095
30
0
40
1.5499999999999989
210
-1.9721522630529565e-31
220
-1.2515060561244113e-60
230
1
0
ENDSEC
0
SECTION
2
OBJECTS
0
DICTIONARY
5
C
100
AcDbDictionary
3
ACAD_GROUP
350
D
3
ACAD_MLINESTYLE
350
17
0
DICTIONARY
5
D
100
AcDbDictionary
0
DICTIONARY
5
1A
330
C
100
AcDbDictionary
0
DICTIONARY
5
17
100
AcDbDictionary
0
ENDSEC
0
EOF
