0
SECTION
2
HEADER
9
$INSUNITS
70
4
9
$ACADVER
1
AC1014
9
$HANDSEED
5
FFFF
0
ENDSEC
0
SECTION
2
TABLES
0
TABLE
2
VPORT
5
8
100
AcDbSymbolTable
0
ENDTAB
0
TABLE
2
LTYPE
5
5
100
AcDbSymbolTable
0
LTYPE
5
14
100
AcDbSymbolTableRecord
100
AcDbLinetypeTableRecord
2
BYBLOCK
70
0
0
LTYPE
5
15
100
AcDbSymbolTableRecord
100
AcDbLinetypeTableRecord
2
BYLAYER
70
0
0
ENDTAB
0
TABLE
2
LAYER
5
2
100
AcDbSymbolTable
70
2
0
LAYER
5
50
100
AcDbSymbolTableRecord
100
AcDbLayerTableRecord
2
0
70
0
6
CONTINUOUS
0
ENDTAB
0
TABLE
2
STYLE
5
3
100
AcDbSymbolTable
70
1
0
STYLE
5
11
100
AcDbSymbolTableRecord
100
AcDbTextStyleTableRecord
2
STANDARD
70
0
0
ENDTAB
0
TABLE
2
VIEW
5
6
100
AcDbSymbolTable
70
0
0
ENDTAB
0
TABLE
2
UCS
5
7
100
AcDbSymbolTable
70
0
0
ENDTAB
0
TABLE
2
APPID
5
9
100
AcDbSymbolTable
70
2
0
APPID
5
12
100
AcDbSymbolTableRecord
100
AcDbRegAppTableRecord
2
ACAD
70
0
0
ENDTAB
0
TABLE
2
DIMSTYLE
5
A
100
AcDbSymbolTable
70
1
0
ENDTAB
0
TABLE
2
BLOCK_RECORD
5
1
100
AcDbSymbolTable
70
1
0
BLOCK_RECORD
5
1F
100
AcDbSymbolTableRecord
100
AcDbBlockTableRecord
2
*MODEL_SPACE
0
BLOCK_RECORD
5
1B
100
AcDbSymbolTableRecord
100
AcDbBlockTableRecord
2
*PAPER_SPACE
0
ENDTAB
0
ENDSEC
0
SECTION
2
BLOCKS
0
BLOCK
5
20
100
AcDbEntity
100
AcDbBlockBegin
2
*MODEL_SPACE
0
ENDBLK
5
21
100
AcDbEntity
100
AcDbBlockEnd
0
BLOCK
5
1C
100
AcDbEntity
100
AcDbBlockBegin
2
*PAPER_SPACE
0
ENDBLK
5
1D
100
AcDbEntity
100
AcDbBlockEnd
0
ENDSEC
0
SECTION
2
ENTITIES
0
LWPOLYLINE
5
100
100
AcDbEntity
8
0
100
AcDbPolyline
90
12
70
1
43
0.0
10
0.50000000000000389
20
-91.175600060010623
10
-0.49999999999999256
20
-91.175600060010623
10
-0.49999999999999478
20
-83.175600060010652
10
-9.8499999999999908
20
-83.175600060010652
10
-9.8499999999999943
20
-43.175600060010652
10
-0.49999999999999378
20
-43.175600060010659
10
-0.49999999999999328
20
-35.175600060010659
10
0.50000000000000466
20
-35.175600060010652
10
0.50000000000000511
20
-43.175600060010652
10
9.850000000000005
20
-43.175600060010659
10
9.8500000000000014
20
-83.175600060010666
10
0.500000000000006
20
-83.175600060010652
0
CIRCLE
5
101
100
AcDbEntity
8
0
100
AcDbCircle
10
5.000000000000008
20
-87.175600060010666
30
0
40
1.5500000000000003
210
1.0981837435345798e-47
220
-4.2871890739022407e-79
230
1
0
CIRCLE
5
102
100
AcDbEntity
8
0
100
AcDbCircle
10
5.0000000000000044
20
-39.175600060010638
30
0
40
1.5500000000000003
210
1.0981837435345798e-47
220
-4.2871890739022407e-79
230
1
0
LWPOLYLINE
5
103
100
AcDbEntity
8
0
100
AcDbPolyline
90
18
70
1
43
0.0
10
-41.259999999999991
20
-93.175600060010652
10
41.260000000000012
20
-93.175600060010652
10
41.260000000000062
20
-78.175600060010652
10
44.315000000000062
20
-78.175600060010652
10
44.314999999999984
20
-93.174999999999983
42
0.42008402520840382
10
47.375000000000085
20
-90.175600060010566
10
47.375000000000071
20
-63.175600060010638
42
0.19891236737965881
10
46.496320343559717
20
-61.054279716450999
10
19.496320343559717
20
-34.054279716451006
42
0.1989123673796587
10
17.375000000000075
20
-33.175600060010638
10
-17.375000000000057
20
-33.175600060010645
42
0.19891236737965798
10
-19.496320343559702
20
-34.054279716450999
10
-46.496320343559702
20
-61.054279716451006
42
0.19891236737965823
10
-47.37500000000005
20
-63.175600060010659
10
-47.375000000000071
20
-90.175600060010595
42
0.42008402520840127
10
-44.314999999999991
20
-93.174999999998647
10
-44.31500000000004
20
-78.175600060010652
10
-41.260000000000048
20
-78.175600060010652
0
CIRCLE
5
104
100
AcDbEntity
8
0
100
AcDbCircle
10
-4.9999999999999929
20
-39.175600060010638
30
0
40
1.5500000000000003
210
1.0981837435345798e-47
220
-4.2871890739022407e-79
230
1
0
CIRCLE
5
105
100
AcDbEntity
8
0
100
AcDbCircle
10
-4.9999999999999964
20
-87.175600060010666
30
0
40
1.5500000000000003
210
1.0981837435345798e-47
220
-4.2871890739022407e-79
230
1
0
ENDSEC
0
SECTION
2
OBJECTS
0
DICTIONARY
5
C
100
AcDbDictionary
3
ACAD_GROUP
350
D
3
ACAD_MLINESTYLE
350
17
0
DICTIONARY
5
D
100
AcDbDictionary
0
DICTIONARY
5
1A
330
C
100
AcDbDictionary
0
DICTIONARY
5
17
100
AcDbDictionary
0
ENDSEC
0
EOF
