0
SECTION
2
HEADER
9
$INSUNITS
70
4
9
$ACADVER
1
AC1014
9
$HANDSEED
5
FFFF
0
ENDSEC
0
SECTION
2
TABLES
0
TABLE
2
VPORT
5
8
100
AcDbSymbolTable
0
ENDTAB
0
TABLE
2
LTYPE
5
5
100
AcDbSymbolTable
0
LTYPE
5
14
100
AcDbSymbolTableRecord
100
AcDbLinetypeTableRecord
2
BYBLOCK
70
0
0
LTYPE
5
15
100
AcDbSymbolTableRecord
100
AcDbLinetypeTableRecord
2
BYLAYER
70
0
0
ENDTAB
0
TABLE
2
LAYER
5
2
100
AcDbSymbolTable
70
2
0
LAYER
5
50
100
AcDbSymbolTableRecord
100
AcDbLayerTableRecord
2
0
70
0
6
CONTINUOUS
0
ENDTAB
0
TABLE
2
STYLE
5
3
100
AcDbSymbolTable
70
1
0
STYLE
5
11
100
AcDbSymbolTableRecord
100
AcDbTextStyleTableRecord
2
STANDARD
70
0
0
ENDTAB
0
TABLE
2
VIEW
5
6
100
AcDbSymbolTable
70
0
0
ENDTAB
0
TABLE
2
UCS
5
7
100
AcDbSymbolTable
70
0
0
ENDTAB
0
TABLE
2
APPID
5
9
100
AcDbSymbolTable
70
2
0
APPID
5
12
100
AcDbSymbolTableRecord
100
AcDbRegAppTableRecord
2
ACAD
70
0
0
ENDTAB
0
TABLE
2
DIMSTYLE
5
A
100
AcDbSymbolTable
70
1
0
ENDTAB
0
TABLE
2
BLOCK_RECORD
5
1
100
AcDbSymbolTable
70
1
0
BLOCK_RECORD
5
1F
100
AcDbSymbolTableRecord
100
AcDbBlockTableRecord
2
*MODEL_SPACE
0
BLOCK_RECORD
5
1B
100
AcDbSymbolTableRecord
100
AcDbBlockTableRecord
2
*PAPER_SPACE
0
ENDTAB
0
ENDSEC
0
SECTION
2
BLOCKS
0
BLOCK
5
20
100
AcDbEntity
100
AcDbBlockBegin
2
*MODEL_SPACE
0
ENDBLK
5
21
100
AcDbEntity
100
AcDbBlockEnd
0
BLOCK
5
1C
100
AcDbEntity
100
AcDbBlockBegin
2
*PAPER_SPACE
0
ENDBLK
5
1D
100
AcDbEntity
100
AcDbBlockEnd
0
ENDSEC
0
SECTION
2
ENTITIES
0
CIRCLE
5
100
100
AcDbEntity
8
0
100
AcDbCircle
10
0
20
0
30
0
40
21
210
0
220
0
230
1
0
LWPOLYLINE
5
101
100
AcDbEntity
8
0
100
AcDbPolyline
90
496
70
1
43
0.0
10
-55.855963209097126
20
-9.16484132157386
42
0.035826372332274502
10
-106.94818729579696
20
-14.492253075561194
42
0.037950999802843076
10
-160.25280168596055
20
-23.865777561123164
42
-0.054307678335074792
10
-93.8873685225808
20
-9.416179273746792
42
0.012179376339078103
10
-113.94905753314468
20
-10.969331582118977
42
-0.045923082715781036
10
-50.467253123408469
20
-4.6383248495953922
42
0.050180752659427799
10
-109.46782751055359
20
-7.6772278641615799
42
0.038185565688179809
10
-162.55191807300241
20
-12.307338951556254
42
-0.044047882759188361
10
-92.248157981745351
20
-3.5916116672611409
42
0.063718759904738534
10
-163.65890953533025
20
-6.7421170555468155
10
-163.76926499540556
20
-6.1873226929400804
42
-0.075566785137940573
10
-73.222068084083901
20
-1.5510901865335569
42
0.058609989013829418
10
-164.80712358445209
20
-0.96965522098224843
10
-165
20
-3.8857805861880479e-14
10
-164.9069868027853
20
0.46760891964311158
42
-0.043734911965877636
10
-95.000001415610427
20
2.0000000298023215
42
-0.056818352891067035
10
-42.000000625848728
20
1.0000000149011612
42
0.051876981434976897
10
-92.000001370906759
20
5.000000074505877
42
0.059309894715798228
10
-162.72727435040275
20
11.425763412986427
10
-162.49464905372514
20
12.595249753840614
42
-0.02698407084593871
10
-108.49287497187245
20
10.103755328241917
42
0.026739164204678343
10
-161.47286939767457
20
17.732082970961002
10
-161.20915274197941
20
19.057876128866202
42
-0.040855989841004026
10
-91.295633007836756
20
8.0929682843124979
42
-0.025290904240099762
10
-56.000000834464949
20
6.1713898594066308
42
0.040699991798526465
10
-101.38868233856947
20
10.953609355836633
42
0.028394547166426535
10
-160.32810726823834
20
23.487190833360167
10
-160.08726859238629
20
24.697968619708462
42
-0.03244433904092963
10
-96.152184161980117
20
14.344832931232007
42
-0.035899929328381486
10
-64.999999999999972
20
9.9999999999999645
42
0.047258192717372083
10
-107.45518467843888
20
18.058131611413515
42
0.033135334929380075
10
-158.9419466455623
20
30.455890874170073
42
-0.042792428631800029
10
-93.928268390432081
20
19.124424730377712
42
0.0080701539314129451
10
-107.75836928863916
20
23.564419338592984
42
-0.040034922906453052
10
-51.463618360394321
20
10.000832509504995
42
0.041277702461211124
10
-104.57850040034353
20
26.238521060389814
42
0.041070873717627722
10
-156.95234499398038
20
40.458293830766188
10
-156.75321021373355
20
41.45941197575393
42
-0.031856089901246984
10
-96.470889705965405
20
28.130977411865473
42
-0.060814675279191946
10
-40.337269505553053
20
7.8670121811792271
42
0.059967324617062161
10
-96.013413060454951
20
32.481297333693249
42
0.0056007781594567124
10
-103.53472142116289
20
35.557731996744018
42
-0.046882392177809401
10
-52.073281311344587
20
19.145776773758083
42
0.058873041276433585
10
-96.406813667026682
20
36.858498011861798
42
0.038672961881633217
10
-153.37640731270358
20
58.435746557231255
10
-153.20588758560658
20
59.293007115455282
42
-0.029372378662610939
10
-88.922250240967529
20
36.660748883510266
42
0.0056742464541037572
10
-100.07096417922585
20
42.275904774408218
42
-0.051669021301006042
10
-43.537999998041705
20
18.231282347332716
42
0.047086163799957163
10
-98.050513907500445
20
46.064699427765348
42
0.027673025670617028
10
-148.02618719116953
20
69.748687904772723
42
-0.029357552703552881
10
-88.585028425165973
20
44.629005162958421
42
-0.019839932678303189
10
-57.560247869896415
20
30.576957104074545
42
0.029251598226417024
10
-83.174834372422566
20
46.98015784852636
42
0.035531377408483965
10
-140.92183237971039
20
80.381106255625937
10
-140.25275086909056
20
81.382457500111258
42
-0.040153045877885048
10
-91.712249160851528
20
55.676821540256839
42
-0.053975176250008458
10
-34.24063999605103
20
19.298192511495706
42
0.048078301481416334
10
-89.743478482814751
20
60.22643272944093
42
0.047378164612127426
10
-133.6400095582996
20
91.279124252857073
10
-133.158384896494
20
91.999926497157389
42
-0.050415488368356569
10
-72.059762157623993
20
53.438234754525197
42
-0.029761185295490277
10
-45.976651801842507
20
33.015608907875347
42
0.03582637233227353
10
-85.871358896867704
20
65.376218048065766
42
0.037950999802843076
10
-130.19149592804553
20
96.440189624525601
42
-0.054307678335073453
10
-73.046639167411939
20
59.730150732742686
42
0.012179376339077532
10
-88.33064003830286
20
72.817662544702515
42
-0.045923082715781931
10
-38.96552786591517
20
32.405945956925173
42
0.050180752659427799
10
-82.834063037934726
20
71.976823271008783
42
0.038185565688179435
10
-123.64416639530683
20
106.2389607332932
42
-0.044047882759188139
10
-67.76895102616912
20
62.689645095550972
42
0.063718759904738534
10
-120.4917214235584
20
110.95692804449712
10
-120.17745566175513
20
111.42725999462044
42
-0.07556678513794135
10
-52.872607263888618
20
50.679034485628947
42
0.058609989013829418
10
-117.22188445658514
20
115.85058489224605
10
-116.67261889578027
20
116.67261889578042
10
-116.27619919526705
20
116.93749807131275
42
-0.043734911965876859
10
-65.760931630263158
20
68.589358797156223
42
-0.056818352891065925
10
-28.991378460653578
20
30.405592044100089
42
0.051876981434976634
10
-61.518290879923505
20
68.589358797156109
42
0.059309894715798346
10
-106.98632438761784
20
123.14479396672948
10
-105.99488174073912
20
123.80725476409687
42
-0.026984070845937153
10
-69.571613694985714
20
83.860481511084856
42
0.026739164204678083
10
-101.64008481541572
20
126.71703704207367
10
-100.51613164745723
20
127.46803853892615
42
-0.040855989841004803
10
-58.833168438795184
20
70.278353946325183
42
-0.025290904240104762
10
-35.234148717570193
20
43.961811955434783
42
0.040699991798526292
10
-63.947253363190484
20
79.437996271151235
42
0.028394547166427024
10
-96.761139954884001
20
129.97704377346693
10
-95.734692110780031
20
130.66289429583688
42
-0.032444339040925189
10
-57.846532806170934
20
78.13319008749545
42
-0.035899929328382041
10
-38.890872965260037
20
53.033008588991081
42
0.047258192717372374
10
-63.213262441787492
20
88.751317077766601
42
0.033135334929380075
10
-90.853361323864604
20
133.92449525227065
42
-0.042792428631799474
10
-52.894305110842765
20
79.940325937126246
42
0.0080701539314129451
10
-59.534112944558814
20
92.859234362643718
42
-0.040034922906449492
10
-29.318617042049659
20
43.461930012013177
42
0.041277702461211124
10
-55.394730629295275
20
92.501602969510671
42
0.041070873717627895
10
-82.37373354540162
20
139.59040139134703
10
-81.525026562828984
20
140.15748926695377
42
-0.031856089901247428
10
-48.32361540885217
20
88.106825187523469
42
-0.060814675279192612
10
-22.959939140936925
20
34.085574462914906
42
0.059967324617062161
10
-44.923989853521604
20
90.8594810663038
42
0.0056007781594567124
10
-48.066990186652951
20
98.353217023676152
42
-0.046882392177809401
10
-23.283261746078239
20
50.359478921694716
42
0.058873041276433467
10
-42.10701780800413
20
94.232805585080612
42
0.038672961881633217
10
-67.133185030526022
20
149.77381033915935
10
-66.406434621205335
20
150.25940943776629
42
-0.029372378662607161
10
-36.954462004848025
20
88.800590282662526
42
0.0056742464541037572
10
-40.86727842422583
20
100.65443631778763
42
-0.051669021301007381
10
-17.894551660389517
20
43.677478415440746
42
0.047086163799957316
10
-36.75952194412659
20
101.90484462151311
42
0.027673025670617028
10
-55.350550559737037
20
153.99009095239541
42
-0.029357552703553214
10
-31.081602122701568
20
94.196546499377945
42
-0.019839932678308855
10
-19.080067879241014
20
62.322415311923564
42
0.02925159822641845
10
-25.593501212900662
20
92.033477604716083
42
0.035531377408482785
10
-42.808757980297571
20
156.48480860555605
10
-41.627583651646454
20
156.71975878755597
42
-0.040153045877889267
10
-25.480895233479366
20
104.21981136553731
42
-0.053975176250008458
10
-10.565905943852769
20
37.857671522896965
42
0.048078301481416924
10
-20.871703212804213
20
106.0447411921304
42
0.047378164612128015
10
-29.953669256544117
20
159.04184473647371
10
-29.103425037355336
20
159.21096882696304
42
-0.050415488368357242
10
-13.167408302782299
20
88.740484641909177
42
-0.029761185295495051
10
-9.16484132157386
20
55.855963209097126
42
0.035826372332274113
10
-14.492253075561408
20
106.94818729579693
42
0.037950999802843263
10
-23.865777561123132
20
160.25280168596049
42
-0.054307678335076021
10
-9.416179273746792
20
93.8873685225808
42
0.012179376339078103
10
-10.969331582119167
20
113.94905753314582
42
-0.045923082715780925
10
-4.6383248495953922
20
50.467253123408462
42
0.050180752659427799
10
-7.6772278641615799
20
109.46782751055359
42
0.038185565688179435
10
-12.3073389515563
20
162.55191807300218
42
-0.044047882759188361
10
-3.5916116672611764
20
92.248157981745337
42
0.063718759904738423
10
-6.7421170555468368
20
163.65890953533025
10
-6.1873226929400822
20
163.76926499540534
42
-0.075566785137940573
10
-1.5510901865335569
20
73.222068084083887
42
0.058609989013829418
10
-0.96965522098231283
20
164.80712358445231
10
3.5527136788005009e-14
20
165
10
0.46760891964306273
20
164.90698680278567
42
-0.043734911965877865
10
2.0000000298023379
20
95.000001415609873
42
-0.056818352891065592
10
1.0000000149011257
20
42.000000625848713
42
0.051876981434976897
10
5.000000074505806
20
92.000001370906801
42
0.059309894715798346
10
11.425763412986374
20
162.72727435040287
10
12.595249753840424
20
162.49464905372523
42
-0.026984070845938932
10
10.103755328241846
20
108.49287497187247
42
0.026739164204678083
10
17.732082970960832
20
161.47286939767301
10
19.057876128865864
20
161.20915274197884
42
-0.040855989841001798
10
8.0929682843124215
20
91.295633007837893
42
-0.025290904240096758
10
6.1713898594065952
20
56.000000834464963
42
0.040699991798526465
10
10.953609355836562
20
101.38868233856952
42
0.028394547166427024
10
23.487190833360216
20
160.3281072682388
10
24.697968619708345
20
160.08726859238547
42
-0.032444339040927077
10
14.344832931231943
20
96.152184161979122
42
-0.03589992932838082
10
10.000000000000036
20
64.999999999999943
42
0.047258192717372825
10
18.058131611413728
20
107.45518467843935
42
0.033135334929379867
10
30.455890874170073
20
158.9419466455625
42
-0.042792428631798697
10
19.124424730377783
20
93.928268390431981
42
0.0080701539314146659
10
23.564419338592948
20
107.75836928864013
42
-0.040034922906449381
10
10.000832509504995
20
51.463618360394335
42
0.041277702461211124
10
26.23852106038985
20
104.57850040034357
42
0.041070873717627722
10
40.458293830766188
20
156.95234499398038
10
41.459411975754179
20
156.75321021373489
42
-0.031856089901249759
10
28.130977411865366
20
96.470889705965391
42
-0.060814675279191946
10
7.8670121811791915
20
40.337269505553039
42
0.059967324617062272
10
32.481297333693249
20
96.013413060454923
42
0.0056007781594567124
10
35.557731996744039
20
103.53472142116296
42
-0.046882392177809734
10
19.145776773758172
20
52.073281311344566
42
0.058873041276433585
10
36.858498011861869
20
96.40681366702654
42
0.038672961881633217
10
58.435746557231369
20
153.37640731270386
10
59.293007115455339
20
153.20588758560686
42
-0.029372378662609385
10
36.660748883510266
20
88.922250240967529
42
0.0056742464541049802
10
42.275904774408374
20
100.07096417922611
42
-0.051669021301005598
10
18.231282347332787
20
43.53799999804167
42
0.047086163799957316
10
46.06469942776549
20
98.050513907500829
42
0.027673025670616521
10
69.748687904772495
20
148.02618719116967
42
-0.029357552703555771
10
44.629005162959253
20
88.585028425167962
42
-0.019839932678300077
10
30.576957104074545
20
57.560247869896415
42
0.029251598226417024
10
46.98015784852636
20
83.174834372422566
42
0.035531377408483965
10
80.381106255625937
20
140.92183237971039
10
81.38245750011194
20
140.25275086909176
42
-0.040153045877887157
10
55.67682154025664
20
91.712249160851201
42
-0.053975176250005232
10
19.298192511495742
20
34.24063999605103
42
0.04807830148141648
10
60.226432729440944
20
89.743478482814751
42
0.047378164612127426
10
91.279124252857059
20
133.6400095582996
10
91.99992649715756
20
133.15838489649414
42
-0.050415488368357131
10
53.438234754524991
20
72.059762157623794
42
-0.029761185295490052
10
33.015608907875311
20
45.976651801842507
42
0.03582637233227353
10
65.376218048065795
20
85.871358896867747
42
0.037950999802843076
10
96.440189624525658
20
130.19149592804541
42
-0.05430767833507557
10
59.730150732742722
20
73.046639167411911
42
0.012179376339077532
10
72.817662544702657
20
88.330640038302946
42
-0.045923082715779037
10
32.405945956925102
20
38.965527865915099
42
0.05018075265942766
10
71.976823271008755
20
82.83406303793484
42
0.038185565688179435
10
106.23896073329294
20
123.64416639530631
42
-0.044047882759186918
10
62.689645095550972
20
67.76895102616912
42
0.063718759904738423
10
110.95692804449715
20
120.49172142355837
10
111.42725999462056
20
120.17745566175527
42
-0.075566785137940129
10
50.679034485629053
20
52.872607263888547
42
0.058609989013829661
10
115.8505848922461
20
117.2218844565851
10
116.67261889578036
20
116.67261889578032
10
116.93749807131304
20
116.27619919526691
42
-0.043734911965876859
10
68.589358797156208
20
65.760931630263144
42
-0.056818352891065141
10
30.405592044100125
20
28.991378460653614
42
0.051876981434977043
10
68.589358797156152
20
61.518290879923541
42
0.059309894715798228
10
123.14479396672937
20
106.98632438761763
10
123.80725476409594
20
105.99488174073826
42
-0.026984070845938377
10
83.860481511084856
20
69.571613694985786
42
0.026739164204678083
10
126.71703704207371
20
101.64008481541579
10
127.46803853892541
20
100.51613164745677
42
-0.040855989841004359
10
70.278353946325538
20
58.833168438795539
42
-0.025290904240103874
10
43.96181195543484
20
35.234148717570264
42
0.040699991798525778
10
79.437996271151121
20
63.947253363190626
42
0.02839454716642727
10
129.97704377346696
20
96.761139954884001
10
130.6628942958356
20
95.734692110778994
42
-0.03244433904092963
10
78.133190087495848
20
57.846532806171297
42
-0.035899929328382374
10
53.033008588991052
20
38.890872965260002
42
0.047258192717372527
10
88.751317077766956
20
63.213262441787563
42
0.033135334929379451
10
133.92449525227093
20
90.853361323864604
42
-0.042792428631799807
10
79.940325937126175
20
52.894305110842836
42
0.0080701539314146659
10
92.859234362643761
20
59.534112944558899
42
-0.040034922906448375
10
43.461930012013198
20
29.318617042049553
42
0.041277702461210791
10
92.501602969510714
20
55.394730629295275
42
0.041070873717627555
10
139.59040139134686
20
82.373733545401464
10
140.15748926695346
20
81.525026562828742
42
-0.03185608990124765
10
88.106825187523754
20
48.323615408852277
42
-0.060814675279192057
10
34.085574462914906
20
22.959939140936925
42
0.059967324617061918
10
90.859481066303687
20
44.923989853521675
42
0.0056007781594567124
10
98.353217023676251
20
48.06699018665293
42
-0.046882392177807951
10
50.359478921694738
20
23.283261746078203
42
0.058873041276433467
10
94.232805585080683
20
42.10701780800413
42
0.038672961881633217
10
149.77381033915916
20
67.133185030525837
10
150.25940943776621
20
66.406434621205491
42
-0.029372378662609829
10
88.800590282662483
20
36.954462004848025
42
0.0056742464541049802
10
100.65443631778717
20
40.867278424225532
42
-0.051669021301006597
10
43.677478415440746
20
17.894551660389517
42
0.047086163799957018
10
101.90484462151278
20
36.75952194412659
42
0.027673025670616521
10
153.99009095239416
20
55.350550559736348
42
-0.029357552703552437
10
94.196546499376197
20
31.081602122700943
42
-0.01983993267831085
10
62.322415311923578
20
19.080067879241049
42
0.029251598226417264
10
92.033477604715387
20
25.59350121290052
42
0.035531377408483965
10
156.48480860555668
20
42.808757980297742
10
156.71975878755597
20
41.627583651646617
42
-0.040153045877886269
10
104.21981136553697
20
25.480895233479352
42
-0.053975176250008347
10
37.857671522896965
20
10.56590594385284
42
0.048078301481416778
10
106.04474119213045
20
20.871703212804213
42
0.047378164612128015
10
159.04184473647373
20
29.953669256544117
10
159.2109688269623
20
29.103425037354988
42
-0.050415488368356798
10
88.740484641909745
20
13.167408302782363
42
-0.02976118529549383
10
55.855963209097141
20
9.16484132157386
42
0.035826372332274113
10
106.94818729579691
20
14.492253075561337
42
0.037950999802843076
10
160.25280168596066
20
23.86577756112316
42
-0.054307678335075459
10
93.8873685225808
20
9.416179273746792
42
0.012179376339078103
10
113.94905753314492
20
10.969331582119082
42
-0.04592308271578182
10
50.467253123408469
20
4.6383248495954277
42
0.050180752659427799
10
109.46782751055363
20
7.6772278641615799
42
0.038185565688179435
10
162.55191807300204
20
12.307338951556181
42
-0.044047882759188028
10
92.248157981745337
20
3.5916116672611764
42
0.063718759904738423
10
163.65890953533025
20
6.7421170555468235
10
163.76926499540542
20
6.1873226929401621
42
-0.07556678513794024
10
73.222068084083901
20
1.5510901865335569
42
0.058609989013829418
10
164.80712358445214
20
0.96965522098225065
10
165
20
-1.6653345369377348e-14
10
164.9069868027853
20
-0.46760891964311158
42
-0.043734911965877636
10
95.000001415610427
20
-2.0000000298023215
42
-0.056818352891067035
10
42.000000625848728
20
-1.0000000149011612
42
0.051876981434976897
10
92.000001370906759
20
-5.000000074505877
42
0.059309894715798228
10
162.72727435040275
20
-11.425763412986429
10
162.49464905372514
20
-12.595249753840614
42
-0.02698407084593871
10
108.49287497187245
20
-10.103755328241917
42
0.026739164204678343
10
161.47286939767457
20
-17.732082970961002
10
161.20915274197941
20
-19.057876128866202
42
-0.040855989841004026
10
91.295633007836756
20
-8.0929682843124979
42
-0.025290904240099762
10
56.000000834464949
20
-6.1713898594066308
42
0.040699991798526465
10
101.38868233856947
20
-10.953609355836633
42
0.028394547166426535
10
160.32810726823834
20
-23.487190833360167
10
160.08726859238629
20
-24.697968619708462
42
-0.03244433904092963
10
96.152184161980117
20
-14.344832931232007
42
-0.035899929328381486
10
64.999999999999972
20
-9.9999999999999645
42
0.047258192717372083
10
107.45518467843888
20
-18.058131611413515
42
0.033135334929380075
10
158.9419466455623
20
-30.455890874170073
42
-0.042792428631800029
10
93.928268390432081
20
-19.124424730377712
42
0.0080701539314129451
10
107.75836928863916
20
-23.564419338592984
42
-0.040034922906453052
10
51.463618360394321
20
-10.000832509504995
42
0.041277702461211124
10
104.57850040034353
20
-26.238521060389814
42
0.041070873717627722
10
156.95234499398038
20
-40.458293830766188
10
156.75321021373355
20
-41.45941197575393
42
-0.031856089901246984
10
96.470889705965405
20
-28.130977411865473
42
-0.060814675279191946
10
40.337269505553053
20
-7.8670121811792271
42
0.059967324617062161
10
96.013413060454951
20
-32.481297333693249
42
0.0056007781594567124
10
103.53472142116289
20
-35.557731996744018
42
-0.046882392177809401
10
52.073281311344587
20
-19.145776773758083
42
0.058873041276433585
10
96.406813667026682
20
-36.858498011861798
42
0.038672961881633217
10
153.37640731270358
20
-58.435746557231255
10
153.20588758560658
20
-59.293007115455282
42
-0.029372378662610939
10
88.922250240967529
20
-36.660748883510266
42
0.0056742464541037572
10
100.07096417922585
20
-42.275904774408218
42
-0.051669021301006042
10
43.537999998041705
20
-18.231282347332716
42
0.047086163799957163
10
98.050513907500445
20
-46.064699427765348
42
0.027673025670617028
10
148.02618719116953
20
-69.748687904772723
42
-0.029357552703552881
10
88.585028425165973
20
-44.629005162958421
42
-0.019839932678303189
10
57.560247869896415
20
-30.576957104074545
42
0.029251598226417024
10
83.174834372422566
20
-46.98015784852636
42
0.035531377408483965
10
140.92183237971039
20
-80.381106255625937
10
140.25275086909056
20
-81.382457500111258
42
-0.040153045877885048
10
91.712249160851528
20
-55.676821540256839
42
-0.053975176250008458
10
34.24063999605103
20
-19.298192511495706
42
0.048078301481416334
10
89.743478482814751
20
-60.22643272944093
42
0.047378164612127426
10
133.64000955829962
20
-91.279124252857073
10
133.158384896494
20
-91.999926497157389
42
-0.050415488368356569
10
72.059762157623993
20
-53.438234754525197
42
-0.029761185295490277
10
45.976651801842507
20
-33.015608907875347
42
0.03582637233227353
10
85.871358896867704
20
-65.376218048065766
42
0.037950999802843076
10
130.19149592804553
20
-96.440189624525601
42
-0.054307678335073453
10
73.046639167411939
20
-59.730150732742686
42
0.012179376339077532
10
88.33064003830286
20
-72.817662544702515
42
-0.045923082715781931
10
38.96552786591517
20
-32.405945956925173
42
0.050180752659427799
10
82.834063037934726
20
-71.976823271008783
42
0.038185565688179435
10
123.64416639530683
20
-106.2389607332932
42
-0.044047882759188139
10
67.76895102616912
20
-62.689645095550972
42
0.063718759904738534
10
120.4917214235584
20
-110.95692804449712
10
120.17745566175513
20
-111.42725999462044
42
-0.07556678513794135
10
52.872607263888618
20
-50.679034485628947
42
0.058609989013829418
10
117.22188445658514
20
-115.85058489224605
10
116.67261889578032
20
-116.67261889578036
10
116.27619919526697
20
-116.93749807131283
42
-0.043734911965880086
10
65.760931630263215
20
-68.589358797156223
42
-0.056818352891064919
10
28.991378460653614
20
-30.405592044100125
42
0.051876981434976897
10
61.518290879923505
20
-68.589358797156081
42
0.059309894715798228
10
106.98632438761774
20
-123.14479396672944
10
105.99488174073855
20
-123.80725476409603
42
-0.026984070845933822
10
69.571613694985714
20
-83.860481511084799
42
0.026739164204678083
10
101.64008481541572
20
-126.71703704207363
10
100.51613164745663
20
-127.46803853892544
42
-0.040855989841005136
10
58.833168438795092
20
-70.278353946325154
42
-0.025290904240102316
10
35.234148717570193
20
-43.961811955434804
42
0.040699991798525952
10
63.947253363190697
20
-79.437996271151476
42
0.028394547166427024
10
96.761139954884229
20
-129.97704377346733
10
95.734692110779761
20
-130.66289429583625
42
-0.032444339040927299
10
57.846532806171489
20
-78.13319008749599
42
-0.035899929328383824
10
38.890872965260037
20
-53.033008588991052
42
0.047258192717372374
10
63.213262441787563
20
-88.751317077766885
42
0.033135334929380075
10
90.853361323864576
20
-133.92449525227082
42
-0.042792428631799807
10
52.894305110842694
20
-79.940325937126204
42
0.0080701539314138055
10
59.53411294455875
20
-92.85923436264369
42
-0.040034922906449492
10
29.318617042049517
20
-43.461930012013177
42
0.041277702461211298
10
55.39473062929531
20
-92.501602969510714
42
0.041070873717627895
10
82.373733545401649
20
-139.590401391347
10
81.525026562829993
20
-140.15748926695511
42
-0.031856089901250655
10
48.323615408852056
20
-88.10682518752327
42
-0.060814675279191724
10
22.959939140936925
20
-34.085574462914892
42
0.059967324617062161
10
44.923989853521746
20
-90.859481066303758
42
0.0056007781594567124
10
48.066990186652461
20
-98.353217023675398
42
-0.046882392177809401
10
23.283261746078239
20
-50.359478921694716
42
0.058873041276433585
10
42.107017808004201
20
-94.232805585080712
42
0.038672961881632856
10
67.133185030526079
20
-149.77381033915935
10
66.40643462120552
20
-150.25940943776627
42
-0.02937237866261172
10
36.954462004848097
20
-88.800590282662455
42
0.0056742464541049802
10
40.867278424225894
20
-100.65443631778766
42
-0.051669021301006486
10
17.894551660389517
20
-43.677478415440746
42
0.047086163799957163
10
36.759521944126661
20
-101.90484462151274
42
0.027673025670616521
10
55.350550559736703
20
-153.99009095239464
42
-0.029357552703550994
10
31.081602122701028
20
-94.19654649937641
42
-0.019839932678301409
10
19.080067879241014
20
-62.32241531192355
42
0.029251598226417739
10
25.593501212900378
20
-92.033477604715387
42
0.03553137740848436
10
42.808757980297933
20
-156.4848086055573
10
41.627583651646731
20
-156.71975878755663
42
-0.040153045877889607
10
25.480895233479277
20
-104.21981136553683
42
-0.053975176250006238
10
10.565905943852769
20
-37.857671522896958
42
0.048078301481416778
10
20.871703212804213
20
-106.04474119212995
42
0.047378164612128161
10
29.953669256544035
20
-159.04184473647342
10
29.103425037355368
20
-159.21096882696304
42
-0.05041548836835702
10
13.167408302782233
20
-88.740484641909092
42
-0.029761185295492723
10
9.16484132157386
20
-55.855963209097126
42
0.035826372332274113
10
14.492253075561266
20
-106.94818729579693
42
0.037950999802843263
10
23.865777561123267
20
-160.25280168596072
42
-0.054307678335076132
10
9.416179273746863
20
-93.8873685225808
42
0.012179376339077532
10
10.969331582118897
20
-113.9490575331445
42
-0.045923082715780369
10
4.6383248495954277
20
-50.467253123408469
42
0.050180752659427799
10
7.6772278641615799
20
-109.46782751055359
42
0.038185565688179809
10
12.307338951556313
20
-162.55191807300235
42
-0.04404788275918959
10
3.5916116672611764
20
-92.248157981745337
42
0.063718759904738534
10
6.7421170555468635
20
-163.65890953533039
10
6.1873226929400902
20
-163.76926499540519
42
-0.075566785137937562
10
1.5510901865335569
20
-73.222068084083901
42
0.058609989013829418
10
0.96965522098232171
20
-164.80712358445231
10
-8.8817841970012523e-15
20
-165
10
-0.46760891964292728
20
-164.90698680278553
42
-0.043734911965878975
10
-2.0000000298022993
20
-95.0000014156102
42
-0.056818352891065141
10
-1.0000000149011257
20
-42.000000625848728
42
0.051876981434976634
10
-5.000000074505806
20
-92.000001370906759
42
0.059309894715798346
10
-11.425763412986365
20
-162.72727435040284
10
-12.595249753840418
20
-162.49464905372503
42
-0.026984070845938932
10
-10.103755328241846
20
-108.49287497187247
42
0.026739164204678343
10
-17.732082970960779
20
-161.47286939767352
10
-19.057876128866141
20
-161.20915274197873
42
-0.040855989841004026
10
-8.0929682843124411
20
-91.295633007836784
42
-0.025290904240099204
10
-6.1713898594065952
20
-56.000000834464956
42
0.040699991798526292
10
-10.953609355836491
20
-101.38868233856927
42
0.028394547166427024
10
-23.487190833360224
20
-160.32810726823874
10
-24.697968619708341
20
-160.0872685923849
42
-0.032444339040928187
10
-14.344832931231931
20
-96.152184161979676
42
-0.035899929328383602
10
-9.9999999999999645
20
-64.999999999999972
42
0.047258192717372229
10
-18.058131611413657
20
-107.4551846784392
42
0.03313533492938029
10
-30.455890874170109
20
-158.94194664556255
42
-0.042792428631800355
10
-19.124424730377783
20
-93.928268390432009
42
0.0080701539314146659
10
-23.564419338593137
20
-107.75836928864055
42
-0.040034922906448375
10
-10.000832509504924
20
-51.463618360394335
42
0.041277702461211124
10
-26.238521060389814
20
-104.57850040034353
42
0.041070873717627375
10
-40.458293830766181
20
-156.95234499398038
10
-41.459411975754143
20
-156.75321021373489
42
-0.031856089901250877
10
-28.130977411865391
20
-96.470889705965249
42
-0.06081467527919239
10
-7.8670121811791915
20
-40.337269505553067
42
0.059967324617062161
10
-32.481297333693213
20
-96.013413060454852
42
0.0056007781594591905
10
-35.557731996743996
20
-103.53472142116281
42
-0.046882392177807174
10
-19.145776773758119
20
-52.073281311344587
42
0.058873041276433342
10
-36.858498011861869
20
-96.406813667026512
42
0.038672961881633217
10
-58.435746557231369
20
-153.37640731270386
10
-59.293007115454998
20
-153.20588758560621
42
-0.029372378662608164
10
-36.660748883510195
20
-88.922250240967458
42
0.0056742464541037572
10
-42.27590477440819
20
-100.07096417922583
42
-0.051669021301007048
10
-18.231282347332751
20
-43.53799999804167
42
0.047086163799957906
10
-46.064699427765916
20
-98.050513907501511
42
0.027673025670616018
10
-69.748687904772424
20
-148.02618719116904
42
-0.029357552703555993
10
-44.629005162959281
20
-88.585028425168304
42
-0.019839932678310516
10
-30.576957104074509
20
-57.560247869896429
42
0.029251598226417975
10
-46.980157848526574
20
-83.17483437242295
42
0.035531377408483965
10
-80.38110625562588
20
-140.92183237971045
10
-81.382457500111769
20
-140.2527508690915
42
-0.040153045877889045
10
-55.676821540257066
20
-91.712249160852011
42
-0.053975176250006453
10
-19.298192511495706
20
-34.240639996050994
42
0.048078301481416778
10
-60.226432729440909
20
-89.743478482814794
42
0.047378164612128015
10
-91.279124252857031
20
-133.64000955829968
10
-91.999926497157361
20
-133.15838489649389
42
-0.050415488368356569
10
-53.4382347545248
20
-72.059762157623538
42
-0.029761185295489385
10
-33.015608907875311
20
-45.976651801842507
42
0.035826372332273919
10
-65.376218048065695
20
-85.871358896867889
42
0.037950999802843263
10
-96.440189624525701
20
-130.19149592804567
42
-0.054307678335075237
10
-59.730150732742686
20
-73.046639167411911
42
0.012179376339077532
10
-72.817662544702728
20
-88.330640038303017
42
-0.045923082715778697
10
-32.405945956925208
20
-38.965527865915099
42
0.05018075265942766
10
-71.976823271008669
20
-82.834063037934811
42
0.038185565688179067
10
-106.23896073329271
20
-123.64416639530617
42
-0.044047882759187695
10
-62.689645095551043
20
-67.768951026169219
42
0.063718759904738423
10
-110.95692804449719
20
-120.49172142355854
10
-111.42725999462037
20
-120.1774556617552
42
-0.075566785137938797
10
-50.679034485629018
20
-52.872607263888547
42
0.058609989013829897
10
-115.85058489224629
20
-117.22188445658539
10
-116.67261889578043
20
-116.67261889578027
10
-116.93749807131326
20
-116.27619919526754
42
-0.043734911965879752
10
-68.589358797156265
20
-65.76093163026313
42
-0.056818352891066487
10
-30.405592044100125
20
-28.991378460653614
42
0.051876981434976634
10
-68.589358797156109
20
-61.518290879923505
42
0.059309894715798582
10
-123.14479396672952
20
-106.98632438761784
10
-123.80725476409594
20
-105.99488174073826
42
-0.026984070845938377
10
-83.860481511084899
20
-69.571613694985786
42
0.026739164204678863
10
-126.7170370420744
20
-101.64008481541643
10
-127.46803853892509
20
-100.51613164745645
42
-0.040855989841005025
10
-70.278353946325623
20
-58.833168438795589
42
-0.025290904240102538
10
-43.961811955434804
20
-35.234148717570228
42
0.040699991798526292
10
-79.437996271151547
20
-63.947253363190697
42
0.028394547166427024
10
-129.97704377346741
20
-96.761139954884143
10
-130.66289429583608
20
-95.734692110779505
42
-0.032444339040928409
10
-78.133190087495862
20
-57.846532806171396
42
-0.035899929328384601
10
-53.033008588991031
20
-38.890872965260073
42
0.047258192717372374
10
-88.751317077766672
20
-63.213262441787421
42
0.033135334929379867
10
-133.92449525227107
20
-90.853361323864576
42
-0.042792428631800473
10
-79.940325937126318
20
-52.894305110842623
42
0.0080701539314146659
10
-92.859234362644372
20
-59.534112944559261
42
-0.040034922906450048
10
-43.461930012013177
20
-29.318617042049553
42
0.041277702461211124
10
-92.501602969510728
20
-55.394730629295275
42
0.041070873717627895
10
-139.59040139134689
20
-82.37373354540145
10
-140.15748926695363
20
-81.525026562828842
42
-0.031856089901247428
10
-88.106825187522958
20
-48.323615408851808
42
-0.06081467527919128
10
-34.085574462914906
20
-22.959939140936925
42
0.059967324617062272
10
-90.859481066303772
20
-44.923989853521675
42
0.0056007781594567124
10
-98.353217023675938
20
-48.066990186652802
42
-0.046882392177809734
10
-50.359478921694738
20
-23.283261746078203
42
0.058873041276433703
10
-94.232805585080698
20
-42.107017808004059
42
0.038672961881633217
10
-149.77381033915941
20
-67.133185030525993
10
-150.25940943776615
20
-66.406434621205335
42
-0.029372378662608164
10
-88.800590282662483
20
-36.954462004848025
42
0.0056742464541049802
10
-100.65443631778727
20
-40.867278424225724
42
-0.051669021301005598
10
-43.677478415440774
20
-17.894551660389517
42
0.047086163799957607
10
-101.90484462151311
20
-36.759521944126661
42
0.027673025670617028
10
-153.99009095239546
20
-55.350550559736959
42
-0.029357552703557884
10
-94.196546499376197
20
-31.081602122700936
42
-0.01983993267831085
10
-62.322415311923578
20
-19.080067879241014
42
0.029251598226417739
10
-92.033477604715884
20
-25.593501212900662
42
0.035531377408483576
10
-156.48480860555668
20
-42.808757980297727
10
-156.71975878755683
20
-41.627583651646859
42
-0.040153045877885048
10
-104.21981136553737
20
-25.480895233479398
42
-0.053975176250007792
10
-37.857671522896972
20
-10.565905943852769
42
0.048078301481416924
10
-106.0447411921304
20
-20.871703212804213
42
0.047378164612127724
10
-159.04184473647342
20
-29.953669256544018
10
-159.21096882696293
20
-29.103425037355169
42
-0.050415488368355015
10
-88.740484641909191
20
-13.167408302782242
42
-0.029761185295493608
0
ENDSEC
0
SECTION
2
OBJECTS
0
DICTIONARY
5
C
100
AcDbDictionary
3
ACAD_GROUP
350
D
3
ACAD_MLINESTYLE
350
17
0
DICTIONARY
5
D
100
AcDbDictionary
0
DICTIONARY
5
1A
330
C
100
AcDbDictionary
0
DICTIONARY
5
17
100
AcDbDictionary
0
ENDSEC
0
EOF
