0
SECTION
2
HEADER
9
$INSUNITS
70
4
9
$ACADVER
1
AC1014
9
$HANDSEED
5
FFFF
0
ENDSEC
0
SECTION
2
TABLES
0
TABLE
2
VPORT
5
8
100
AcDbSymbolTable
0
ENDTAB
0
TABLE
2
LTYPE
5
5
100
AcDbSymbolTable
0
LTYPE
5
14
100
AcDbSymbolTableRecord
100
AcDbLinetypeTableRecord
2
BYBLOCK
70
0
0
LTYPE
5
15
100
AcDbSymbolTableRecord
100
AcDbLinetypeTableRecord
2
BYLAYER
70
0
0
ENDTAB
0
TABLE
2
LAYER
5
2
100
AcDbSymbolTable
70
2
0
LAYER
5
50
100
AcDbSymbolTableRecord
100
AcDbLayerTableRecord
2
0
70
0
6
CONTINUOUS
0
ENDTAB
0
TABLE
2
STYLE
5
3
100
AcDbSymbolTable
70
1
0
STYLE
5
11
100
AcDbSymbolTableRecord
100
AcDbTextStyleTableRecord
2
STANDARD
70
0
0
ENDTAB
0
TABLE
2
VIEW
5
6
100
AcDbSymbolTable
70
0
0
ENDTAB
0
TABLE
2
UCS
5
7
100
AcDbSymbolTable
70
0
0
ENDTAB
0
TABLE
2
APPID
5
9
100
AcDbSymbolTable
70
2
0
APPID
5
12
100
AcDbSymbolTableRecord
100
AcDbRegAppTableRecord
2
ACAD
70
0
0
ENDTAB
0
TABLE
2
DIMSTYLE
5
A
100
AcDbSymbolTable
70
1
0
ENDTAB
0
TABLE
2
BLOCK_RECORD
5
1
100
AcDbSymbolTable
70
1
0
BLOCK_RECORD
5
1F
100
AcDbSymbolTableRecord
100
AcDbBlockTableRecord
2
*MODEL_SPACE
0
BLOCK_RECORD
5
1B
100
AcDbSymbolTableRecord
100
AcDbBlockTableRecord
2
*PAPER_SPACE
0
ENDTAB
0
ENDSEC
0
SECTION
2
BLOCKS
0
BLOCK
5
20
100
AcDbEntity
100
AcDbBlockBegin
2
*MODEL_SPACE
0
ENDBLK
5
21
100
AcDbEntity
100
AcDbBlockEnd
0
BLOCK
5
1C
100
AcDbEntity
100
AcDbBlockBegin
2
*PAPER_SPACE
0
ENDBLK
5
1D
100
AcDbEntity
100
AcDbBlockEnd
0
ENDSEC
0
SECTION
2
ENTITIES
0
LWPOLYLINE
5
100
100
AcDbEntity
8
0
100
AcDbPolyline
90
16
70
1
43
0.0
10
63.142766340239817
20
152.44012286436228
10
7.7696170672562526e-15
20
165
10
-63.142766340239795
20
152.44012286436231
10
-116.6726188957803
20
116.67261889578036
10
-152.44012286436228
20
63.142766340239824
10
-165
20
1.7199184995733752e-14
10
-152.44012286436231
20
-63.142766340239795
10
-116.67261889578036
20
-116.67261889578032
10
-63.142766340239824
20
-152.44012286436228
10
-3.4665167975444109e-14
20
-165
10
63.142766340239788
20
-152.44012286436234
10
116.67261889578027
20
-116.67261889578042
10
152.44012286436228
20
-63.142766340239831
10
165
20
3.8596989739811087e-14
10
152.44012286436231
20
63.142766340239774
10
116.67261889578043
20
116.67261889578027
0
LINE
5
101
100
AcDbEntity
8
0
100
AcDbLine
10
0
20
0
30
0
11
7.7696170672562526e-15
21
165
31
0
0
ARC
5
102
100
AcDbEntity
8
0
100
AcDbCircle
10
-397.6081514544955
20
121.2107073298867
30
0
40
400.46682239259496
210
0
220
0
230
1
100
AcDbArc
50
-3.7527131131068203
51
6.2642070369159635
0
LWPOLYLINE
5
103
100
AcDbEntity
8
0
100
AcDbPolyline
90
4
70
1
43
0.0
10
2.0000000298023224
20
95.000001415610313
42
0.043097488758300578
10
6.0878885065273867
20
163.7890436848231
42
-0.038188631139326155
10
5.0000000745058406
20
92.000001370906574
42
-0.051876981434976606
10
1.0000000149011967
20
42.00000062584877
42
0.05681835289106564
0
ARC
5
104
100
AcDbEntity
8
0
100
AcDbCircle
10
-288.86435369368058
20
154.35390523211686
30
0
40
300.4068370432451
210
0
220
0
230
1
100
AcDbArc
50
-11.979685025532698
51
1.5972368014041076
0
ARC
5
105
100
AcDbEntity
8
0
100
AcDbCircle
10
-488.59779538401989
20
158.55996543021544
30
0
40
501.2084897822246
210
0
220
0
230
1
100
AcDbArc
50
-5.7329941319742224
51
0.44979900701851455
0
ARC
5
106
100
AcDbEntity
8
0
100
AcDbCircle
10
-481.06870637061826
20
206.25355084670304
30
0
40
500.80688581410476
210
0
220
0
230
1
100
AcDbArc
50
348.74322274130049
51
354.86992788299403
0
ARC
5
107
100
AcDbEntity
8
0
100
AcDbCircle
10
-501.29381193827169
20
241.12143404280823
30
0
40
530.96389945202668
210
0
220
0
230
1
100
AcDbArc
50
343.60982197853576
51
351.24767441694809
0
ARC
5
108
100
AcDbEntity
8
0
100
AcDbCircle
10
-363.77461847185663
20
226.63467521203356
30
0
40
400.00000000000023
210
0
220
0
230
1
100
AcDbArc
50
340.96133005551405
51
350.25684145514333
0
ARC
5
109
100
AcDbEntity
8
0
100
AcDbCircle
10
-407.06129046613279
20
238.37803876906742
30
0
40
450.00000000000176
210
0
220
0
230
1
100
AcDbArc
50
341.27661944726856
51
349.69804877582311
0
ARC
5
110
100
AcDbEntity
8
0
100
AcDbCircle
10
-323.36380226527911
20
194.0053735683947
30
0
40
360.85862899384887
210
0
220
0
230
1
100
AcDbArc
50
345.65163385856573
51
354.25802950130247
0
ARC
5
111
100
AcDbEntity
8
0
100
AcDbCircle
10
-284.91545442822024
20
217.175726007561
30
0
40
330.90018385732151
210
0
220
0
230
1
100
AcDbArc
50
340.10634008028478
51
349.51380380172407
0
ARC
5
112
100
AcDbEntity
8
0
100
AcDbCircle
10
-437.80788971497986
20
231.10469775735288
30
0
40
485.0002991440993
210
0
220
0
230
1
100
AcDbArc
50
343.8832624570756
51
351.18167230312361
0
ARC
5
113
100
AcDbEntity
8
0
100
AcDbCircle
10
-287.02792879725484
20
224.0477479545352
30
0
40
340.00145723732521
210
0
220
0
230
1
100
AcDbArc
50
337.96181438678917
51
348.42698781087324
0
ARC
5
114
100
AcDbEntity
8
0
100
AcDbCircle
10
-328.53348405202092
20
214.88537757103734
30
0
40
379.22002174743312
210
0
220
0
230
1
100
AcDbArc
50
340.19357612393742
51
351.04214917216967
0
ARC
5
115
100
AcDbEntity
8
0
100
AcDbCircle
10
-301.69599721519069
20
237.09151098081151
30
0
40
362.73612158818321
210
0
220
0
230
1
100
AcDbArc
50
335.45171374473188
51
346.87817178406868
0
ARC
5
116
100
AcDbEntity
8
0
100
AcDbCircle
10
-407.38807203782176
20
250.88360536041307
30
0
40
470.33827632119227
210
0
220
0
230
1
100
AcDbArc
50
340.82602622257576
51
348.17063406714851
0
ARC
5
117
100
AcDbEntity
8
0
100
AcDbCircle
10
-320.08001360542164
20
264.16835972075626
30
0
40
394.39705552894179
210
0
220
0
230
1
100
AcDbArc
50
334.82641689027582
51
343.68519224977376
0
ARC
5
118
100
AcDbEntity
8
0
100
AcDbCircle
10
-498.69469254191614
20
313.5300316935909
30
0
40
580.56360904975998
210
0
220
0
230
1
100
AcDbArc
50
337.2395687975756
51
343.96928724426448
0
ARC
5
119
100
AcDbEntity
8
0
100
AcDbCircle
10
-451.71385359248006
20
341.88518755872121
30
0
40
550.00000000000659
210
0
220
0
230
1
100
AcDbArc
50
332.61724075173902
51
339.76352583822273
0
ARC
5
120
100
AcDbEntity
8
0
100
AcDbCircle
10
-367.36230180317108
20
278.67140863366944
30
0
40
450.00000000000006
210
0
220
0
230
1
100
AcDbArc
50
334.65889752285972
51
343.60330108020543
0
ARC
5
121
100
AcDbEntity
8
0
100
AcDbCircle
10
-393.2312004140565
20
336.83726475889165
30
0
40
500.00000000000028
210
0
220
0
230
1
100
AcDbArc
50
329.89823428873916
51
337.81352896345993
0
ARC
5
122
100
AcDbEntity
8
0
100
AcDbCircle
10
-448.55774155770797
20
332.03283157624293
30
0
40
550.00000000000011
210
0
220
0
230
1
100
AcDbArc
50
333.72804234080706
51
340.45436585542546
0
ARC
5
123
100
AcDbEntity
8
0
100
AcDbCircle
10
-291.55141274349046
20
305.34002056201541
30
0
40
400.00000000000011
210
0
220
0
230
1
100
AcDbArc
50
327.18777952418611
51
336.31787920503825
0
ARC
5
124
100
AcDbEntity
8
0
100
AcDbCircle
10
-177.68530513833511
20
327.22544267034527
30
0
40
349.36846566414181
210
0
220
0
230
1
100
AcDbArc
50
315.61122975279756
51
324.35846685577258
0
ARC
5
125
100
AcDbEntity
8
0
100
AcDbCircle
10
-311.9004336304767
20
375.1092880012759
30
0
40
482.47959075341271
210
0
220
0
230
1
100
AcDbArc
50
322.7151972933176
51
329.00852748441167
0
ARC
5
126
100
AcDbEntity
8
0
100
AcDbCircle
10
-472.61209617722841
20
207.81188469976573
30
0
40
499.59477532389207
210
0
220
0
230
1
100
AcDbArc
50
347.0852800000938
51
354.51836740668347
0
ARC
5
127
100
AcDbEntity
8
0
100
AcDbCircle
10
-413.51507007030636
20
193.23525837658963
30
0
40
433.75687340438606
210
0
220
0
230
1
100
AcDbArc
50
346.4074585397708
51
355.76575700397115
0
ARC
5
128
100
AcDbEntity
8
0
100
AcDbCircle
10
-354.33430303027546
20
192.51406363164494
30
0
40
386.25196486742686
210
0
220
0
230
1
100
AcDbArc
50
345.21237065552316
51
355.01369309613995
0
ARC
5
129
100
AcDbEntity
8
0
100
AcDbCircle
10
-247.4066394628536
20
349.28963530844675
30
0
40
413.08982171996144
210
0
220
0
230
1
100
AcDbArc
50
318.03135651738734
51
327.47865051653571
0
ARC
5
130
100
AcDbEntity
8
0
100
AcDbCircle
10
-184.19964761357735
20
270.11167401636942
30
0
40
313.58631105534118
210
0
220
0
230
1
100
AcDbArc
50
321.06608673093154
51
333.50027523536403
0
ARC
5
131
100
AcDbEntity
8
0
100
AcDbCircle
10
-210.62761818195654
20
312.36880304656353
30
0
40
357.04230816533988
210
0
220
0
230
1
100
AcDbArc
50
317.69672383536846
51
329.32017523059699
0
ARC
5
132
100
AcDbEntity
8
0
100
AcDbCircle
10
-229.48629826757826
20
293.3425163030056
30
0
40
359.18289027728008
210
0
220
0
230
1
100
AcDbArc
50
321.97009782619614
51
333.5147022130331
0
ARC
5
133
100
AcDbEntity
8
0
100
AcDbCircle
10
-446.38985216673666
20
361.37988517323822
30
0
40
565.43201764345417
210
0
220
0
230
1
100
AcDbArc
50
329.41610780734118
51
337.40122369638163
0
ARC
5
134
100
AcDbEntity
8
0
100
AcDbCircle
10
-342.1162850264372
20
346.76186583344071
30
0
40
469.97251516698452
210
0
220
0
230
1
100
AcDbArc
50
324.4761818956523
51
334.02473242344718
0
ARC
5
135
100
AcDbEntity
8
0
100
AcDbCircle
10
-233.20488892645972
20
275.77231824528576
30
0
40
342.53576699892585
210
0
220
0
230
1
100
AcDbArc
50
327.49687910457811
51
336.69433856111891
0
ARC
5
136
100
AcDbEntity
8
0
100
AcDbCircle
10
-149.87619966364434
20
266.86088666813134
30
0
40
270.05386452837053
210
0
220
0
230
1
100
AcDbArc
50
319.56618245515148
51
331.1803318522754
0
ARC
5
137
100
AcDbEntity
8
0
100
AcDbCircle
10
-264.35075483611195
20
315.82988940104423
30
0
40
394.95454251119497
210
0
220
0
230
1
100
AcDbArc
50
324.31049611858936
51
332.95180954373308
0
ARC
5
138
100
AcDbEntity
8
0
100
AcDbCircle
10
-155.35577810105298
20
275.17943975530136
30
0
40
284.36277069900456
210
0
220
0
230
1
100
AcDbArc
50
318.13888117464387
51
330.14924438531489
0
ARC
5
139
100
AcDbEntity
8
0
100
AcDbCircle
10
-232.04810296283677
20
342.3973065807387
30
0
40
402.85366301566216
210
0
220
0
230
1
100
AcDbArc
50
317.02278390353308
51
327.11129376091304
0
ARC
5
140
100
AcDbEntity
8
0
100
AcDbCircle
10
-119.194186898841
20
282.73771799555175
30
0
40
281.5906587820358
210
0
220
0
230
1
100
AcDbArc
50
310.23436747807301
51
324.81791608182692
0
ARC
5
141
100
AcDbEntity
8
0
100
AcDbCircle
10
-204.4856359012465
20
110.79365357990429
30
0
40
219.31973626684481
210
0
220
0
230
1
100
AcDbArc
50
347.94804365104625
51
356.17216950785274
0
ARC
5
142
100
AcDbEntity
8
0
100
AcDbCircle
10
-210.06100999542267
20
128.76061480264903
30
0
40
229.11190305223624
210
0
220
0
230
1
100
AcDbArc
50
343.84155011089251
51
354.66427793210016
0
ARC
5
143
100
AcDbEntity
8
0
100
AcDbCircle
10
-269.77598177151913
20
108.02050106391121
30
0
40
280.80791362448815
210
0
220
0
230
1
100
AcDbArc
50
349.32411849912472
51
358.6467241971327
0
ARC
5
144
100
AcDbEntity
8
0
100
AcDbCircle
10
-303.02454366902811
20
176.19768392273915
30
0
40
336.96212434548698
210
0
220
0
230
1
100
AcDbArc
50
338.27375229947842
51
347.72853745204429
0
ARC
5
145
100
AcDbEntity
8
0
100
AcDbCircle
10
-334.18921253390488
20
164.17370929965739
30
0
40
362.17447688444503
210
0
220
0
230
1
100
AcDbArc
50
341.86820504761295
51
351.03863616208258
0
ARC
5
146
100
AcDbEntity
8
0
100
AcDbCircle
10
-211.90445356758011
20
151.39811183514342
30
0
40
246.23973655020876
210
0
220
0
230
1
100
AcDbArc
50
333.19038673833927
51
347.11093916302048
0
ARC
5
147
100
AcDbEntity
8
0
100
AcDbCircle
10
-211.10149427991018
20
170.42173283892208
30
0
40
254.69427638353156
210
0
220
0
230
1
100
AcDbArc
50
329.28636723980065
51
343.01342689130502
0
ARC
5
148
100
AcDbEntity
8
0
100
AcDbCircle
10
-159.60440468262928
20
149.19510307931216
30
0
40
203.431255303162
210
0
220
0
230
1
100
AcDbArc
50
331.48307189457847
51
344.96022267042906
0
ARC
5
149
100
AcDbEntity
8
0
100
AcDbCircle
10
-246.46282505886734
20
165.12826993798015
30
0
40
288.66825218726575
210
0
220
0
230
1
100
AcDbArc
50
336.9432105902689
51
347.68000167555658
0
ARC
5
150
100
AcDbEntity
8
0
100
AcDbCircle
10
-242.5502906567402
20
187.83353677661091
30
0
40
298.04065285241552
210
0
220
0
230
1
100
AcDbArc
50
331.04338799680096
51
342.87453440129894
0
ARC
5
151
100
AcDbEntity
8
0
100
AcDbCircle
10
-256.63988995415718
20
218.24578612992354
30
0
40
325.69459912239677
210
0
220
0
230
1
100
AcDbArc
50
327.56000956269833
51
338.3433987971037
0
ARC
5
152
100
AcDbEntity
8
0
100
AcDbCircle
10
-353.18171800258153
20
250.07067889609823
30
0
40
429.33784689159427
210
0
220
0
230
1
100
AcDbArc
50
333.35961981193617
51
337.90600098774206
0
ARC
5
153
100
AcDbEntity
8
0
100
AcDbCircle
10
-179.95025376533249
20
210.4382230756791
30
0
40
260.17951844730527
210
0
220
0
230
1
100
AcDbArc
50
324.01407397054157
51
330.71613534305305
0
ARC
5
154
100
AcDbEntity
8
0
100
AcDbCircle
10
-227.93161699423823
20
230.98259561868045
30
0
40
315.95881980166047
210
0
220
0
230
1
100
AcDbArc
50
321.48772618206283
51
333.84593354564612
0
ARC
5
155
100
AcDbEntity
8
0
100
AcDbCircle
10
-248.17705237753029
20
274.3208665607217
30
0
40
359.41831035130639
210
0
220
0
230
1
100
AcDbArc
50
318.08950932734916
51
329.09976610694213
0
ARC
5
156
100
AcDbEntity
8
0
100
AcDbCircle
10
-175.68243570907748
20
230.42046086716596
30
0
40
278.52179902022948
210
0
220
0
230
1
100
AcDbArc
50
318.53029391502969
51
325.34904244742501
0
ARC
5
157
100
AcDbEntity
8
0
100
AcDbCircle
10
-228.83601167626236
20
291.44972325925727
30
0
40
358.91962890496279
210
0
220
0
230
1
100
AcDbArc
50
316.84910360049065
51
325.05639308993801
0
ARC
5
158
100
AcDbEntity
8
0
100
AcDbCircle
10
-215.55946015800035
20
283.18088064525091
30
0
40
348.0344539882156
210
0
220
0
230
1
100
AcDbArc
50
315.43654301297272
51
325.95394896440672
0
ARC
5
159
100
AcDbEntity
8
0
100
AcDbCircle
10
-140.34212177235162
20
286.35268205181029
30
0
40
301.66542304531583
210
0
220
0
230
1
100
AcDbArc
50
309.28823148259778
51
326.57401032254052
0
ARC
5
160
100
AcDbEntity
8
0
100
AcDbCircle
10
-190.27315750270179
20
362.08055834904906
30
0
40
392.00448446193116
210
0
220
0
230
1
100
AcDbArc
50
307.92772262680245
51
321.3447935746284
0
ARC
5
161
100
AcDbEntity
8
0
100
AcDbCircle
10
-341.54115916703114
20
92.630425330279735
30
0
40
349.63667534914924
210
0
220
0
230
1
100
AcDbArc
50
353.98625098137904
51
359.78126392976867
0
ARC
5
162
100
AcDbEntity
8
0
100
AcDbCircle
10
-165.81087295668027
20
257.54508015756784
30
0
40
295.07105581579685
210
0
220
0
230
1
100
AcDbArc
50
312.20301843681494
51
323.69396112099651
0
ARC
5
163
100
AcDbEntity
8
0
100
AcDbCircle
10
-380.98030066399576
20
-45.682270311402497
30
0
40
362.73612158818321
210
0
220
-0
230
1
100
AcDbArc
50
20.451713744731883
51
31.878171784068702
0
ARC
5
164
100
AcDbEntity
8
0
100
AcDbCircle
10
-304.43437208585573
20
84.728123702321483
30
0
40
284.36277069900461
210
0
220
-0
230
1
100
AcDbArc
50
3.1388811746438159
51
15.149244385314859
0
ARC
5
165
100
AcDbEntity
8
0
100
AcDbCircle
10
-465.46836695133521
20
-110.66536967357976
30
0
40
470.33827632119227
210
0
220
-0
230
1
100
AcDbArc
50
25.826026222575752
51
33.17063406714847
0
ARC
5
166
100
AcDbEntity
8
0
100
AcDbCircle
10
-390.57305809236038
20
121.48617819648749
30
0
40
392.00448446193116
210
0
220
0
230
1
100
AcDbArc
50
-7.072277373197573
51
6.3447935746283433
0
LWPOLYLINE
5
167
100
AcDbEntity
8
0
100
AcDbPolyline
90
4
70
1
43
0.0
10
-28.991378460653614
20
30.405592044100178
42
0.05681835289106589
10
-65.760931630263144
20
68.589358797156194
42
0.043097488758300412
10
-111.51155622752495
20
120.12113071967129
42
-0.038188631139326155
10
-61.518290879923683
20
68.589358797156365
42
-0.051876981434977057
0
ARC
5
168
100
AcDbEntity
8
0
100
AcDbCircle
10
-361.38507673069466
20
-44.533712954242191
30
0
40
340.00145723732521
210
0
220
-0
230
1
100
AcDbArc
50
22.961814386789122
51
33.426987810873257
0
ARC
5
169
100
AcDbEntity
8
0
100
AcDbCircle
10
-369.69580018258387
20
45.153164793777343
30
0
40
359.18289027728008
210
0
220
-0
230
1
100
AcDbArc
50
6.9700978261960964
51
18.514702213033122
0
ARC
5
170
100
AcDbEntity
8
0
100
AcDbCircle
10
-429.03727173196506
20
-155.76134860712284
30
0
40
433.75687340438907
210
0
220
-0
230
1
100
AcDbArc
50
31.407458539770801
51
40.765757003971117
0
ARC
5
171
100
AcDbEntity
8
0
100
AcDbCircle
10
-561.15926354115641
20
-77.660594521143551
30
0
40
550.00000000000659
210
0
220
-0
230
1
100
AcDbArc
50
17.617240751739018
51
24.763525838222758
0
ARC
5
172
100
AcDbEntity
8
0
100
AcDbCircle
10
-366.86033325390241
20
-195.44250704314078
30
0
40
400.46682239259496
210
0
220
-0
230
1
100
AcDbArc
50
41.247286886893171
51
51.264207036916012
0
ARC
5
173
100
AcDbEntity
8
0
100
AcDbCircle
10
-481.13241096006823
20
-187.24202519534572
30
0
40
499.59477532389201
210
0
220
-0
230
1
100
AcDbArc
50
32.085280000093789
51
39.518367406683446
0
ARC
5
174
100
AcDbEntity
8
0
100
AcDbCircle
10
-413.12598667615009
20
-39.535509609202144
30
0
40
394.39705552894179
210
0
220
-0
230
1
100
AcDbArc
50
19.82641689027583
51
28.685192249773721
0
ARC
5
175
100
AcDbEntity
8
0
100
AcDbCircle
10
-551.9608875933103
20
-82.395554025045996
30
0
40
550.00000000000011
210
0
220
-0
230
1
100
AcDbArc
50
18.728042340807114
51
25.454365855425493
0
ARC
5
176
100
AcDbEntity
8
0
100
AcDbCircle
10
-352.39580152045323
20
-120.21911524377984
30
0
40
362.17447688444508
210
0
220
-0
230
1
100
AcDbArc
50
26.868205047612921
51
36.038636162082582
0
ARC
5
177
100
AcDbEntity
8
0
100
AcDbCircle
10
-417.48241523943864
20
-96.972583850559317
30
0
40
400.00000000000011
210
0
220
-0
230
1
100
AcDbArc
50
25.96133005551405
51
35.256841455143395
0
ARC
5
178
100
AcDbEntity
8
0
100
AcDbCircle
10
-369.46182163709693
20
18.486468295015648
30
0
40
359.41831035130633
210
0
220
-0
230
1
100
AcDbArc
50
3.089509327349095
51
14.099766106942095
0
ARC
5
179
100
AcDbEntity
8
0
100
AcDbCircle
10
-335.79488184741172
20
-27.148731171695992
30
0
40
325.69459912239677
210
0
220
-0
230
1
100
AcDbArc
50
12.560009562698276
51
23.343398797103717
0
ARC
5
180
100
AcDbEntity
8
0
100
AcDbCircle
10
-456.39452654670669
20
-119.27707114759215
30
0
40
450.00000000000176
210
0
220
-0
230
1
100
AcDbArc
50
26.276619447268537
51
34.698048775823118
0
ARC
5
181
100
AcDbEntity
8
0
100
AcDbCircle
10
-355.03207846009929
20
-47.899221321983291
30
0
40
330.90018385732151
210
0
220
-0
230
1
100
AcDbArc
50
25.106340080284763
51
34.513803801724094
0
ARC
5
182
100
AcDbEntity
8
0
100
AcDbCircle
10
-516.23636245424655
20
-39.876534319564918
30
0
40
500.00000000000034
210
0
220
-0
230
1
100
AcDbArc
50
14.898234288739161
51
22.813528963459891
0
ARC
5
183
100
AcDbEntity
8
0
100
AcDbCircle
10
-486.0102289388123
20
-194.32366004379617
30
0
40
500.80688581410476
210
0
220
-0
230
1
100
AcDbArc
50
33.743222741300457
51
39.869927882994055
0
ARC
5
184
100
AcDbEntity
8
0
100
AcDbCircle
10
-426.56386061409506
20
-72.910514967385723
30
0
40
429.33784689159415
210
0
220
-0
230
1
100
AcDbArc
50
18.35961981193622
51
22.906000987742058
0
ARC
5
185
100
AcDbEntity
8
0
100
AcDbCircle
10
-269.77766107590162
20
-28.764935171973747
30
0
40
254.69427638353159
210
0
220
-0
230
1
100
AcDbArc
50
14.286367239800605
51
28.013426891304981
0
ARC
5
186
100
AcDbEntity
8
0
100
AcDbCircle
10
-304.32732289114341
20
-38.690587713154784
30
0
40
298.04065285241552
210
0
220
-0
230
1
100
AcDbArc
50
16.043387996800945
51
27.874534401298899
0
ARC
5
187
100
AcDbEntity
8
0
100
AcDbCircle
10
-307.00567159655662
20
-176.00646780608679
30
0
40
349.6366753491493
210
0
220
-0
230
1
100
AcDbArc
50
38.98625098137903
51
44.781263929767888
0
ARC
5
188
100
AcDbEntity
8
0
100
AcDbCircle
10
-574.32961035430048
20
-130.93118732195805
30
0
40
580.56360904975998
210
0
220
-0
230
1
100
AcDbArc
50
22.239568797575604
51
28.969287244264446
0
ARC
5
189
100
AcDbEntity
8
0
100
AcDbCircle
10
-571.17945891037255
20
-60.111124129547413
30
0
40
565.43201764345417
210
0
220
-0
230
1
100
AcDbArc
50
14.416107807341199
51
22.401223696381631
0
ARC
5
190
100
AcDbEntity
8
0
100
AcDbCircle
10
-324.50135172147981
20
2.1573676745982695
30
0
40
315.95881980166047
210
0
220
-0
230
1
100
AcDbArc
50
6.4877261820628069
51
18.84593354564602
0
ARC
5
191
100
AcDbEntity
8
0
100
AcDbCircle
10
-239.58306850736057
20
-57.488060753956432
30
0
40
229.11190305223627
210
0
220
-0
230
1
100
AcDbArc
50
28.841550110892516
51
39.664277932100191
0
ARC
5
192
100
AcDbEntity
8
0
100
AcDbCircle
10
-338.86128682546166
20
-89.680132563196139
30
0
40
336.96212434548704
210
0
220
-0
230
1
100
AcDbArc
50
23.273752299478385
51
32.728537452044286
0
ARC
5
193
100
AcDbEntity
8
0
100
AcDbCircle
10
-294.6776197171223
20
82.720665475858524
30
0
40
270.05386452837109
210
0
220
-0
230
1
100
AcDbArc
50
4.5661824551514476
51
16.180331852275408
0
ARC
5
194
100
AcDbEntity
8
0
100
AcDbCircle
10
-457.60964116924754
20
-233.37198760842782
30
0
40
501.2084897822246
210
0
220
-0
230
1
100
AcDbArc
50
39.267005868025791
51
45.449799007018001
0
ARC
5
195
100
AcDbEntity
8
0
100
AcDbCircle
10
-524.96685488950038
20
-183.96965268731134
30
0
40
530.96389945202679
210
0
220
-0
230
1
100
AcDbArc
50
28.609821978535734
51
36.247674416948058
0
ARC
5
196
100
AcDbEntity
8
0
100
AcDbCircle
10
-291.03885434826731
20
-57.512215470770386
30
0
40
288.66825218726569
210
0
220
-0
230
1
100
AcDbArc
50
21.94321059026889
51
32.680001675556547
0
ARC
5
197
100
AcDbEntity
8
0
100
AcDbCircle
10
-267.1424549213599
20
-114.37839730243934
30
0
40
280.80791362448815
210
0
220
-0
230
1
100
AcDbArc
50
34.324118499124737
51
43.64672419713277
0
ARC
5
198
100
AcDbEntity
8
0
100
AcDbCircle
10
-365.83525260888598
20
-91.470222135203443
30
0
40
360.85862899384887
210
0
220
-0
230
1
100
AcDbArc
50
30.651633858565702
51
39.258029501302453
0
ARC
5
199
100
AcDbEntity
8
0
100
AcDbCircle
10
-218.3542259655367
20
-7.3604877511215605
30
0
40
203.43125530316198
210
0
220
-0
230
1
100
AcDbArc
50
16.483071894578423
51
29.960222670429037
0
ARC
5
200
100
AcDbEntity
8
0
100
AcDbCircle
10
-384.25516207833857
20
-80.361346761714316
30
0
40
379.22002174743307
210
0
220
-0
230
1
100
AcDbArc
50
25.193576123937383
51
36.042149172169587
0
ARC
5
201
100
AcDbEntity
8
0
100
AcDbCircle
10
-485.7892329068946
20
44.695409556624988
30
0
40
482.47959075341271
210
0
220
-0
230
1
100
AcDbArc
50
7.7151972933175861
51
14.008527484411628
0
ARC
5
202
100
AcDbEntity
8
0
100
AcDbCircle
10
-472.99262662272611
20
-146.1612287261427
30
0
40
485.0002991440993
210
0
220
-0
230
1
100
AcDbArc
50
28.883262457075578
51
36.181672303123577
0
ARC
5
203
100
AcDbEntity
8
0
100
AcDbCircle
10
-357.02581366948863
20
105.74084530845332
30
0
40
349.36846566414181
210
0
220
-0
230
1
100
AcDbArc
50
0.61122975279721592
51
9.3584668557725301
0
ARC
5
204
100
AcDbEntity
8
0
100
AcDbCircle
10
-222.93612355979826
20
-66.250236042231222
30
0
40
219.31973626684481
210
0
220
-0
230
1
100
AcDbArc
50
32.94804365104622
51
41.172169507852693
0
ARC
5
205
100
AcDbEntity
8
0
100
AcDbCircle
10
-256.89370761873499
20
-42.784444543796596
30
0
40
246.23973655020879
210
0
220
-0
230
1
100
AcDbArc
50
18.190386738339225
51
32.110939163020525
0
ARC
5
206
100
AcDbEntity
8
0
100
AcDbCircle
10
-386.68018834743151
20
-114.42418861200221
30
0
40
386.25196486742686
210
0
220
-0
230
1
100
AcDbArc
50
30.21237065552307
51
40.013693096139839
0
ARC
5
207
100
AcDbEntity
8
0
100
AcDbCircle
10
-284.20877552605162
20
115.64273985767716
30
0
40
281.5906587820358
210
0
220
0
230
1
100
AcDbArc
50
-4.7656325219270785
51
9.8179160818268887
0
ARC
5
208
100
AcDbEntity
8
0
100
AcDbCircle
10
-367.89757132753255
20
44.27458005559437
30
0
40
358.91962890496279
210
0
220
-0
230
1
100
AcDbArc
50
1.8491036004905461
51
10.05639308993802
0
ARC
5
209
100
AcDbEntity
8
0
100
AcDbCircle
10
-456.81481752499633
20
-62.713931989646312
30
0
40
450.00000000000006
210
0
220
-0
230
1
100
AcDbArc
50
19.658897522859785
51
28.603301080205441
0
ARC
5
210
100
AcDbEntity
8
0
100
AcDbCircle
10
-359.90123466053149
20
30.099717929020926
30
0
40
342.53576699892574
210
0
220
-0
230
1
100
AcDbArc
50
12.496879104578081
51
21.694338561118922
0
ARC
5
211
100
AcDbEntity
8
0
100
AcDbCircle
10
-301.71878928112847
20
103.24505729845235
30
0
40
301.66542304531583
210
0
220
0
230
1
100
AcDbArc
50
-5.7117685174022235
51
11.574010322540522
0
ARC
5
212
100
AcDbEntity
8
0
100
AcDbCircle
10
-487.11041188426918
20
3.284921691182241
30
0
40
469.97251516698452
210
0
220
-0
230
1
100
AcDbArc
50
9.476181895652303
51
19.024732423447201
0
ARC
5
213
100
AcDbEntity
8
0
100
AcDbCircle
10
-422.06598012248105
20
9.7500180916008006
30
0
40
400.00000000000006
210
0
220
-0
230
1
100
AcDbArc
50
12.187779524186137
51
21.317879205038235
0
ARC
5
214
100
AcDbEntity
8
0
100
AcDbCircle
10
-313.40263643212643
20
-95.113250247615341
30
0
40
300.40683704324516
210
0
220
-0
230
1
100
AcDbArc
50
33.020314974467311
51
46.59723680140398
0
ARC
5
215
100
AcDbEntity
8
0
100
AcDbCircle
10
-299.35786530277892
20
64.865879978519402
30
0
40
295.0710558157956
210
0
220
0
230
1
100
AcDbArc
50
-2.7969815631850667
51
8.6939611209965175
0
ARC
5
216
100
AcDbEntity
8
0
100
AcDbCircle
10
-410.24966785327297
20
36.401245140478409
30
0
40
394.95454251119492
210
0
220
-0
230
1
100
AcDbArc
50
9.3104961185893451
51
17.951809543733113
0
ARC
5
217
100
AcDbEntity
8
0
100
AcDbCircle
10
-276.04633927136672
20
21.55824984395343
30
0
40
260.17951844730521
210
0
220
-0
230
1
100
AcDbArc
50
9.0140739705415935
51
15.716135343053088
0
ARC
5
218
100
AcDbEntity
8
0
100
AcDbCircle
10
-421.92798219953795
20
72.042157250019756
30
0
40
413.08982171996144
210
0
220
-0
230
1
100
AcDbArc
50
3.0313565173873172
51
12.478650516535689
0
ARC
5
219
100
AcDbEntity
8
0
100
AcDbCircle
10
-321.24661629435798
20
60.748976454891945
30
0
40
313.58631105534118
210
0
220
-0
230
1
100
AcDbArc
50
6.066086730931497
51
18.500275235364015
0
ARC
5
220
100
AcDbEntity
8
0
100
AcDbCircle
10
-406.19424450974566
20
78.028670176753508
30
0
40
402.85366301566216
210
0
220
-0
230
1
100
AcDbArc
50
2.0227839035328872
51
12.111293760913044
0
ARC
5
221
100
AcDbEntity
8
0
100
AcDbCircle
10
-352.66267703326878
20
47.815564980001746
30
0
40
348.0344539882156
210
0
220
-0
230
1
100
AcDbArc
50
0.43654301297230047
51
10.953948964406734
0
ARC
5
222
100
AcDbEntity
8
0
100
AcDbCircle
10
-369.81431598698259
20
71.941881743717687
30
0
40
357.04230816533993
210
0
220
-0
230
1
100
AcDbArc
50
2.696723835368227
51
14.320175230596975
0
ARC
5
223
100
AcDbEntity
8
0
100
AcDbCircle
10
-287.15811202856088
20
38.705628778044172
30
0
40
278.52179902022948
210
0
220
-0
230
1
100
AcDbArc
50
3.5302939150297017
51
10.349042447425035
0
ARC
5
224
100
AcDbEntity
8
0
100
AcDbCircle
10
-237.09151098081156
20
-301.69599721519063
30
0
40
362.73612158818321
210
0
220
-0
230
1
100
AcDbArc
50
65.451713744731876
51
76.878171784068698
0
ARC
5
225
100
AcDbEntity
8
0
100
AcDbCircle
10
-275.17943975530136
20
-155.35577810105292
30
0
40
284.36277069900456
210
0
220
-0
230
1
100
AcDbArc
50
48.138881174643885
51
60.149244385314852
0
ARC
5
226
100
AcDbEntity
8
0
100
AcDbCircle
10
-250.88360536041318
20
-407.38807203782164
30
0
40
470.33827632119227
210
0
220
-0
230
1
100
AcDbArc
50
70.826026222575734
51
78.170634067148441
0
ARC
5
227
100
AcDbEntity
8
0
100
AcDbCircle
10
-362.08055834904911
20
-190.27315750270174
30
0
40
392.00448446193116
210
0
220
-0
230
1
100
AcDbArc
50
37.927722626802407
51
51.344793574628341
0
LWPOLYLINE
5
228
100
AcDbEntity
8
0
100
AcDbPolyline
90
4
70
1
43
0.0
10
-42.00000062584877
20
1.0000000149011967
42
0.05681835289106589
10
-95.000001415610313
20
2.0000000298023224
42
0.043097488758300898
10
-163.78904368482438
20
6.0878885065274453
42
-0.038188631139326822
10
-92.000001370906574
20
5.0000000745058522
42
-0.051876981434976606
0
ARC
5
229
100
AcDbEntity
8
0
100
AcDbCircle
10
-224.04774795453528
20
-287.02792879725484
30
0
40
340.00145723732533
210
0
220
-0
230
1
100
AcDbArc
50
67.961814386789101
51
78.426987810873229
0
ARC
5
230
100
AcDbEntity
8
0
100
AcDbCircle
10
-293.34251630300565
20
-229.48629826757821
30
0
40
359.18289027728008
210
0
220
-0
230
1
100
AcDbArc
50
51.97009782619611
51
63.514702213033118
0
ARC
5
231
100
AcDbEntity
8
0
100
AcDbCircle
10
-193.23525837658974
20
-413.51507007030625
30
0
40
433.75687340438907
210
0
220
-0
230
1
100
AcDbArc
50
76.407458539770786
51
85.765757003971089
0
ARC
5
232
100
AcDbEntity
8
0
100
AcDbCircle
10
-341.88518755872133
20
-451.71385359248001
30
0
40
550.00000000000659
210
0
220
-0
230
1
100
AcDbArc
50
62.617240751739011
51
69.763525838222748
0
ARC
5
233
100
AcDbEntity
8
0
100
AcDbCircle
10
-121.21070732988679
20
-397.6081514544955
30
0
40
400.46682239259496
210
0
220
-0
230
1
100
AcDbArc
50
86.247286886893164
51
96.264207036916005
0
ARC
5
234
100
AcDbEntity
8
0
100
AcDbCircle
10
-207.81188469976584
20
-472.61209617722835
30
0
40
499.59477532389207
210
0
220
-0
230
1
100
AcDbArc
50
77.085280000093761
51
84.518367406683439
0
ARC
5
235
100
AcDbEntity
8
0
100
AcDbCircle
10
-264.16835972075631
20
-320.08001360542158
30
0
40
394.39705552894173
210
0
220
-0
230
1
100
AcDbArc
50
64.826416890275837
51
73.685192249773706
0
ARC
5
236
100
AcDbEntity
8
0
100
AcDbCircle
10
-332.03283157624298
20
-448.55774155770791
30
0
40
550.00000000000011
210
0
220
-0
230
1
100
AcDbArc
50
63.728042340807086
51
70.454365855425493
0
ARC
5
237
100
AcDbEntity
8
0
100
AcDbCircle
10
-164.17370929965745
20
-334.18921253390477
30
0
40
362.17447688444497
210
0
220
-0
230
1
100
AcDbArc
50
71.868205047612918
51
81.038636162082568
0
ARC
5
238
100
AcDbEntity
8
0
100
AcDbCircle
10
-226.63467521203361
20
-363.77461847185657
30
0
40
400.00000000000011
210
0
220
-0
230
1
100
AcDbArc
50
70.96133005551404
51
80.256841455143373
0
ARC
5
239
100
AcDbEntity
8
0
100
AcDbCircle
10
-274.32086656072175
20
-248.1770523775302
30
0
40
359.41831035130639
210
0
220
-0
230
1
100
AcDbArc
50
48.089509327349148
51
59.099766106942099
0
ARC
5
240
100
AcDbEntity
8
0
100
AcDbCircle
10
-218.2457861299236
20
-256.63988995415713
30
0
40
325.69459912239677
210
0
220
-0
230
1
100
AcDbArc
50
57.560009562698284
51
68.343398797103688
0
ARC
5
241
100
AcDbEntity
8
0
100
AcDbCircle
10
-238.3780387690675
20
-407.06129046613273
30
0
40
450.00000000000171
210
0
220
-0
230
1
100
AcDbArc
50
71.27661944726853
51
79.698048775823111
0
ARC
5
242
100
AcDbEntity
8
0
100
AcDbCircle
10
-217.17572600756108
20
-284.91545442822024
30
0
40
330.90018385732151
210
0
220
-0
230
1
100
AcDbArc
50
70.106340080284738
51
79.51380380172408
0
ARC
5
243
100
AcDbEntity
8
0
100
AcDbCircle
10
-336.83726475889171
20
-393.23120041405645
30
0
40
500.00000000000028
210
0
220
-0
230
1
100
AcDbArc
50
59.898234288739168
51
67.813528963459888
0
ARC
5
244
100
AcDbEntity
8
0
100
AcDbCircle
10
-206.25355084670315
20
-481.0687063706182
30
0
40
500.80688581410476
210
0
220
-0
230
1
100
AcDbArc
50
78.743222741300428
51
84.869927882994048
0
ARC
5
245
100
AcDbEntity
8
0
100
AcDbCircle
10
-250.07067889609829
20
-353.18171800258148
30
0
40
429.33784689159415
210
0
220
-0
230
1
100
AcDbArc
50
63.359619811936206
51
67.906000987742047
0
ARC
5
246
100
AcDbEntity
8
0
100
AcDbCircle
10
-170.42173283892211
20
-211.10149427991016
30
0
40
254.69427638353156
210
0
220
-0
230
1
100
AcDbArc
50
59.28636723980064
51
73.013426891304988
0
ARC
5
247
100
AcDbEntity
8
0
100
AcDbCircle
10
-187.83353677661097
20
-242.55029065674017
30
0
40
298.04065285241558
210
0
220
-0
230
1
100
AcDbArc
50
61.043387996800952
51
72.874534401298888
0
ARC
5
248
100
AcDbEntity
8
0
100
AcDbCircle
10
-92.63042533027982
20
-341.54115916703114
30
0
40
349.6366753491493
210
0
220
-0
230
1
100
AcDbArc
50
83.986250981379001
51
89.781263929767888
0
ARC
5
249
100
AcDbEntity
8
0
100
AcDbCircle
10
-313.53003169359101
20
-498.69469254191608
30
0
40
580.56360904975998
210
0
220
-0
230
1
100
AcDbArc
50
67.239568797575586
51
73.969287244264422
0
ARC
5
250
100
AcDbEntity
8
0
100
AcDbCircle
10
-361.37988517323828
20
-446.3898521667366
30
0
40
565.43201764345417
210
0
220
-0
230
1
100
AcDbArc
50
59.416107807341191
51
67.401223696381621
0
ARC
5
251
100
AcDbEntity
8
0
100
AcDbCircle
10
-230.98259561868048
20
-227.9316169942382
30
0
40
315.95881980166047
210
0
220
-0
230
1
100
AcDbArc
50
51.487726182062801
51
63.845933545646027
0
ARC
5
252
100
AcDbEntity
8
0
100
AcDbCircle
10
-128.76061480264909
20
-210.06100999542264
30
0
40
229.11190305223619
210
0
220
-0
230
1
100
AcDbArc
50
73.841550110892513
51
84.664277932100148
0
ARC
5
253
100
AcDbEntity
8
0
100
AcDbCircle
10
-176.19768392273923
20
-303.02454366902805
30
0
40
336.96212434548704
210
0
220
-0
230
1
100
AcDbArc
50
68.273752299478375
51
77.728537452044264
0
ARC
5
254
100
AcDbEntity
8
0
100
AcDbCircle
10
-266.8608866681314
20
-149.87619966364429
30
0
40
270.05386452837115
210
0
220
-0
230
1
100
AcDbArc
50
49.56618245515147
51
61.18033185227538
0
ARC
5
255
100
AcDbEntity
8
0
100
AcDbCircle
10
-158.55996543021556
20
-488.59779538401989
30
0
40
501.20848978222466
210
0
220
-0
230
1
100
AcDbArc
50
84.267005868025777
51
90.449799007017987
0
ARC
5
256
100
AcDbEntity
8
0
100
AcDbCircle
10
-241.12143404280832
20
-501.29381193827163
30
0
40
530.96389945202668
210
0
220
-0
230
1
100
AcDbArc
50
73.60982197853572
51
81.24767441694803
0
ARC
5
257
100
AcDbEntity
8
0
100
AcDbCircle
10
-165.12826993798024
20
-246.46282505886731
30
0
40
288.66825218726581
210
0
220
-0
230
1
100
AcDbArc
50
66.943210590268862
51
77.680001675556525
0
ARC
5
258
100
AcDbEntity
8
0
100
AcDbCircle
10
-108.02050106391127
20
-269.77598177151907
30
0
40
280.80791362448815
210
0
220
-0
230
1
100
AcDbArc
50
79.324118499124722
51
88.646724197132755
0
ARC
5
259
100
AcDbEntity
8
0
100
AcDbCircle
10
-194.00537356839479
20
-323.36380226527899
30
0
40
360.85862899384887
210
0
220
-0
230
1
100
AcDbArc
50
75.651633858565674
51
84.258029501302431
0
ARC
5
260
100
AcDbEntity
8
0
100
AcDbCircle
10
-149.19510307931219
20
-159.60440468262925
30
0
40
203.431255303162
210
0
220
-0
230
1
100
AcDbArc
50
61.483071894578401
51
74.960222670429033
0
ARC
5
261
100
AcDbEntity
8
0
100
AcDbCircle
10
-214.88537757103742
20
-328.53348405202087
30
0
40
379.22002174743307
210
0
220
-0
230
1
100
AcDbArc
50
70.193576123937362
51
81.042149172169587
0
ARC
5
262
100
AcDbEntity
8
0
100
AcDbCircle
10
-375.10928800127596
20
-311.90043363047664
30
0
40
482.47959075341277
210
0
220
-0
230
1
100
AcDbArc
50
52.715197293317573
51
59.008527484411616
0
ARC
5
263
100
AcDbEntity
8
0
100
AcDbCircle
10
-231.10469775735299
20
-437.80788971497975
30
0
40
485.00029914409924
210
0
220
-0
230
1
100
AcDbArc
50
73.88326245707556
51
81.181672303123563
0
ARC
5
264
100
AcDbEntity
8
0
100
AcDbCircle
10
-327.22544267034539
20
-177.68530513833502
30
0
40
349.36846566414192
210
0
220
-0
230
1
100
AcDbArc
50
45.61122975279752
51
54.358466855772562
0
ARC
5
265
100
AcDbEntity
8
0
100
AcDbCircle
10
-110.79365357990434
20
-204.48563590124647
30
0
40
219.31973626684479
210
0
220
-0
230
1
100
AcDbArc
50
77.948043651046206
51
86.172169507852658
0
ARC
5
266
100
AcDbEntity
8
0
100
AcDbCircle
10
-151.39811183514348
20
-211.90445356758008
30
0
40
246.23973655020879
210
0
220
-0
230
1
100
AcDbArc
50
63.190386738339221
51
77.110939163020504
0
ARC
5
267
100
AcDbEntity
8
0
100
AcDbCircle
10
-192.51406363164503
20
-354.33430303027541
30
0
40
386.25196486742681
210
0
220
-0
230
1
100
AcDbArc
50
75.21237065552306
51
85.013693096139832
0
ARC
5
268
100
AcDbEntity
8
0
100
AcDbCircle
10
-282.73771799555175
20
-119.19418689884094
30
0
40
281.5906587820358
210
0
220
-0
230
1
100
AcDbArc
50
40.234367478072961
51
54.817916081826894
0
ARC
5
269
100
AcDbEntity
8
0
100
AcDbCircle
10
-291.44972325925727
20
-228.83601167626227
30
0
40
358.91962890496279
210
0
220
-0
230
1
100
AcDbArc
50
46.84910360049065
51
55.056393089938005
0
ARC
5
270
100
AcDbEntity
8
0
100
AcDbCircle
10
-278.6714086336695
20
-367.36230180317102
30
0
40
450.00000000000006
210
0
220
-0
230
1
100
AcDbArc
50
64.658897522859775
51
73.603301080205412
0
ARC
5
271
100
AcDbEntity
8
0
100
AcDbCircle
10
-275.77231824528576
20
-233.20488892645966
30
0
40
342.53576699892574
210
0
220
-0
230
1
100
AcDbArc
50
57.49687910457807
51
66.694338561118911
0
ARC
5
272
100
AcDbEntity
8
0
100
AcDbCircle
10
-286.35268205181029
20
-140.34212177235156
30
0
40
301.66542304531583
210
0
220
-0
230
1
100
AcDbArc
50
39.288231482597759
51
56.574010322540531
0
ARC
5
273
100
AcDbEntity
8
0
100
AcDbCircle
10
-346.76186583344077
20
-342.11628502643714
30
0
40
469.97251516698452
210
0
220
-0
230
1
100
AcDbArc
50
54.476181895652303
51
64.024732423447205
0
ARC
5
274
100
AcDbEntity
8
0
100
AcDbCircle
10
-305.34002056201552
20
-291.5514127434904
30
0
40
400.00000000000011
210
0
220
-0
230
1
100
AcDbArc
50
57.187779524186119
51
66.317879205038238
0
ARC
5
275
100
AcDbEntity
8
0
100
AcDbCircle
10
-154.35390523211692
20
-288.86435369368053
30
0
40
300.4068370432451
210
0
220
-0
230
1
100
AcDbArc
50
78.020314974467297
51
91.597236801403966
0
ARC
5
276
100
AcDbEntity
8
0
100
AcDbCircle
10
-257.5450801575679
20
-165.81087295668021
30
0
40
295.0710558157956
210
0
220
-0
230
1
100
AcDbArc
50
42.203018436814922
51
53.693961120996512
0
ARC
5
277
100
AcDbEntity
8
0
100
AcDbCircle
10
-315.82988940104434
20
-264.35075483611183
30
0
40
394.95454251119497
210
0
220
-0
230
1
100
AcDbArc
50
54.310496118589342
51
62.951809543733091
0
ARC
5
278
100
AcDbEntity
8
0
100
AcDbCircle
10
-210.43822307567916
20
-179.95025376533246
30
0
40
260.17951844730527
210
0
220
-0
230
1
100
AcDbArc
50
54.014073970541553
51
60.716135343053089
0
ARC
5
279
100
AcDbEntity
8
0
100
AcDbCircle
10
-349.2896353084468
20
-247.40663946285352
30
0
40
413.08982171996144
210
0
220
-0
230
1
100
AcDbArc
50
48.03135651738733
51
57.478650516535673
0
ARC
5
280
100
AcDbEntity
8
0
100
AcDbCircle
10
-270.11167401636948
20
-184.1996476135773
30
0
40
313.58631105534118
210
0
220
-0
230
1
100
AcDbArc
50
51.066086730931502
51
63.500275235364001
0
ARC
5
281
100
AcDbEntity
8
0
100
AcDbCircle
10
-342.39730658073876
20
-232.04810296283668
30
0
40
402.85366301566216
210
0
220
-0
230
1
100
AcDbArc
50
47.022783903533039
51
57.111293760913021
0
ARC
5
282
100
AcDbEntity
8
0
100
AcDbCircle
10
-283.18088064525091
20
-215.55946015800029
30
0
40
348.03445398821555
210
0
220
-0
230
1
100
AcDbArc
50
45.436543012972713
51
55.953948964406749
0
ARC
5
283
100
AcDbEntity
8
0
100
AcDbCircle
10
-312.36880304656358
20
-210.62761818195645
30
0
40
357.04230816533988
210
0
220
-0
230
1
100
AcDbArc
50
47.69672383536841
51
59.320175230596966
0
ARC
5
284
100
AcDbEntity
8
0
100
AcDbCircle
10
-230.42046086716599
20
-175.68243570907742
30
0
40
278.52179902022948
210
0
220
-0
230
1
100
AcDbArc
50
48.530293915029702
51
55.349042447425028
0
ARC
5
285
100
AcDbEntity
8
0
100
AcDbCircle
10
45.682270311402426
20
-380.98030066399576
30
0
40
362.73612158818321
210
0
220
0
230
1
100
AcDbArc
50
110.45171374473188
51
121.8781717840687
0
ARC
5
286
100
AcDbEntity
8
0
100
AcDbCircle
10
-84.72812370232154
20
-304.43437208585573
30
0
40
284.36277069900461
210
0
220
0
230
1
100
AcDbArc
50
93.138881174643899
51
105.14924438531486
0
ARC
5
287
100
AcDbEntity
8
0
100
AcDbCircle
10
110.66536967357965
20
-465.46836695133521
30
0
40
470.33827632119227
210
0
220
0
230
1
100
AcDbArc
50
115.82602622257575
51
123.17063406714847
0
ARC
5
288
100
AcDbEntity
8
0
100
AcDbCircle
10
-121.48617819648757
20
-390.57305809236038
30
0
40
392.00448446193116
210
0
220
-0
230
1
100
AcDbArc
50
82.927722626802407
51
96.344793574628355
0
LWPOLYLINE
5
289
100
AcDbEntity
8
0
100
AcDbPolyline
90
4
70
1
43
0.0
10
-30.405592044100196
20
-28.991378460653614
42
0.05681835289106589
10
-68.589358797156237
20
-65.760931630263073
42
0.043097488758301064
10
-120.1211307196713
20
-111.51155622752484
42
-0.038188631139326155
10
-68.589358797156123
20
-61.518290879923484
42
-0.051876981434976717
0
ARC
5
290
100
AcDbEntity
8
0
100
AcDbCircle
10
44.533712954242105
20
-361.38507673069466
30
0
40
340.00145723732521
210
0
220
0
230
1
100
AcDbArc
50
112.96181438678911
51
123.42698781087326
0
ARC
5
291
100
AcDbEntity
8
0
100
AcDbCircle
10
-45.153164793777449
20
-369.69580018258392
30
0
40
359.18289027728014
210
0
220
0
230
1
100
AcDbArc
50
96.97009782619611
51
108.51470221303312
0
ARC
5
292
100
AcDbEntity
8
0
100
AcDbCircle
10
155.76134860712276
20
-429.03727173196512
30
0
40
433.75687340438913
210
0
220
0
230
1
100
AcDbArc
50
121.4074585397708
51
130.76575700397109
0
ARC
5
293
100
AcDbEntity
8
0
100
AcDbCircle
10
77.660594521143409
20
-561.15926354115641
30
0
40
550.00000000000659
210
0
220
0
230
1
100
AcDbArc
50
107.617240751739
51
114.76352583822278
0
ARC
5
294
100
AcDbEntity
8
0
100
AcDbCircle
10
195.44250704314069
20
-366.86033325390247
30
0
40
400.46682239259496
210
0
220
0
230
1
100
AcDbArc
50
131.24728688689316
51
141.26420703691602
0
ARC
5
295
100
AcDbEntity
8
0
100
AcDbCircle
10
187.2420251953456
20
-481.1324109600684
30
0
40
499.59477532389207
210
0
220
0
230
1
100
AcDbArc
50
122.08528000009376
51
129.51836740668344
0
ARC
5
296
100
AcDbEntity
8
0
100
AcDbCircle
10
39.535509609202037
20
-413.12598667615009
30
0
40
394.39705552894179
210
0
220
0
230
1
100
AcDbArc
50
109.82641689027584
51
118.68519224977373
0
ARC
5
297
100
AcDbEntity
8
0
100
AcDbCircle
10
82.395554025045854
20
-551.9608875933103
30
0
40
550.00000000000011
210
0
220
0
230
1
100
AcDbArc
50
108.72804234080708
51
115.45436585542549
0
ARC
5
298
100
AcDbEntity
8
0
100
AcDbCircle
10
120.21911524377977
20
-352.39580152045323
30
0
40
362.17447688444508
210
0
220
0
230
1
100
AcDbArc
50
116.8682050476129
51
126.03863616208258
0
ARC
5
299
100
AcDbEntity
8
0
100
AcDbCircle
10
96.972583850559204
20
-417.48241523943864
30
0
40
400.00000000000011
210
0
220
0
230
1
100
AcDbArc
50
115.96133005551404
51
125.25684145514337
0
ARC
5
300
100
AcDbEntity
8
0
100
AcDbCircle
10
-18.486468295015754
20
-369.46182163709699
30
0
40
359.41831035130639
210
0
220
0
230
1
100
AcDbArc
50
93.089509327349177
51
104.0997661069421
0
ARC
5
301
100
AcDbEntity
8
0
100
AcDbCircle
10
27.148731171695903
20
-335.79488184741183
30
0
40
325.69459912239688
210
0
220
0
230
1
100
AcDbArc
50
102.56000956269828
51
113.34339879710369
0
ARC
5
302
100
AcDbEntity
8
0
100
AcDbCircle
10
119.27707114759208
20
-456.39452654670674
30
0
40
450.00000000000176
210
0
220
0
230
1
100
AcDbArc
50
116.27661944726853
51
124.6980487758231
0
ARC
5
303
100
AcDbEntity
8
0
100
AcDbCircle
10
47.899221321983219
20
-355.03207846009934
30
0
40
330.90018385732157
210
0
220
0
230
1
100
AcDbArc
50
115.10634008028475
51
124.51380380172408
0
ARC
5
304
100
AcDbEntity
8
0
100
AcDbCircle
10
39.876534319564811
20
-516.23636245424655
30
0
40
500.00000000000034
210
0
220
0
230
1
100
AcDbArc
50
104.89823428873916
51
112.81352896345989
0
ARC
5
305
100
AcDbEntity
8
0
100
AcDbCircle
10
194.32366004379605
20
-486.01022893881242
30
0
40
500.80688581410482
210
0
220
0
230
1
100
AcDbArc
50
123.74322274130044
51
129.86992788299403
0
ARC
5
306
100
AcDbEntity
8
0
100
AcDbCircle
10
72.910514967385581
20
-426.56386061409512
30
0
40
429.33784689159427
210
0
220
0
230
1
100
AcDbArc
50
108.3596198119362
51
112.90600098774206
0
ARC
5
307
100
AcDbEntity
8
0
100
AcDbCircle
10
28.764935171973693
20
-269.77766107590162
30
0
40
254.69427638353159
210
0
220
0
230
1
100
AcDbArc
50
104.28636723980065
51
118.01342689130502
0
ARC
5
308
100
AcDbEntity
8
0
100
AcDbCircle
10
38.690587713154713
20
-304.32732289114347
30
0
40
298.04065285241558
210
0
220
0
230
1
100
AcDbArc
50
106.04338799680096
51
117.87453440129889
0
ARC
5
309
100
AcDbEntity
8
0
100
AcDbCircle
10
176.0064678060867
20
-307.00567159655668
30
0
40
349.6366753491493
210
0
220
0
230
1
100
AcDbArc
50
128.98625098137904
51
134.78126392976787
0
ARC
5
310
100
AcDbEntity
8
0
100
AcDbCircle
10
130.93118732195791
20
-574.3296103543006
30
0
40
580.56360904975998
210
0
220
0
230
1
100
AcDbArc
50
112.2395687975756
51
118.96928724426445
0
ARC
5
311
100
AcDbEntity
8
0
100
AcDbCircle
10
60.111124129547271
20
-571.17945891037266
30
0
40
565.43201764345417
210
0
220
0
230
1
100
AcDbArc
50
104.41610780734119
51
112.40122369638163
0
ARC
5
312
100
AcDbEntity
8
0
100
AcDbCircle
10
-2.1573676745983406
20
-324.50135172147986
30
0
40
315.95881980166047
210
0
220
0
230
1
100
AcDbArc
50
96.487726182062801
51
108.84593354564602
0
ARC
5
313
100
AcDbEntity
8
0
100
AcDbCircle
10
57.488060753956383
20
-239.58306850736062
30
0
40
229.11190305223627
210
0
220
0
230
1
100
AcDbArc
50
118.84155011089251
51
129.66427793210016
0
ARC
5
314
100
AcDbEntity
8
0
100
AcDbCircle
10
89.680132563196068
20
-338.86128682546172
30
0
40
336.96212434548704
210
0
220
0
230
1
100
AcDbArc
50
113.27375229947839
51
122.72853745204429
0
ARC
5
315
100
AcDbEntity
8
0
100
AcDbCircle
10
-82.720665475858581
20
-294.6776197171223
30
0
40
270.05386452837121
210
0
220
0
230
1
100
AcDbArc
50
94.566182455151491
51
106.18033185227539
0
ARC
5
316
100
AcDbEntity
8
0
100
AcDbCircle
10
233.37198760842767
20
-457.6096411692476
30
0
40
501.20848978222466
210
0
220
0
230
1
100
AcDbArc
50
129.26700586802579
51
135.44979900701802
0
ARC
5
317
100
AcDbEntity
8
0
100
AcDbCircle
10
183.96965268731122
20
-524.96685488950038
30
0
40
530.96389945202668
210
0
220
0
230
1
100
AcDbArc
50
118.60982197853573
51
126.24767441694804
0
ARC
5
318
100
AcDbEntity
8
0
100
AcDbCircle
10
57.512215470770315
20
-291.03885434826736
30
0
40
288.66825218726575
210
0
220
0
230
1
100
AcDbArc
50
111.94321059026886
51
122.68000167555655
0
ARC
5
319
100
AcDbEntity
8
0
100
AcDbCircle
10
114.37839730243928
20
-267.14245492135996
30
0
40
280.80791362448821
210
0
220
0
230
1
100
AcDbArc
50
124.32411849912475
51
133.64672419713276
0
ARC
5
320
100
AcDbEntity
8
0
100
AcDbCircle
10
91.470222135203358
20
-365.83525260888609
30
0
40
360.85862899384892
210
0
220
0
230
1
100
AcDbArc
50
120.65163385856569
51
129.25802950130245
0
ARC
5
321
100
AcDbEntity
8
0
100
AcDbCircle
10
7.3604877511215072
20
-218.3542259655367
30
0
40
203.43125530316198
210
0
220
0
230
1
100
AcDbArc
50
106.48307189457842
51
119.96022267042902
0
ARC
5
322
100
AcDbEntity
8
0
100
AcDbCircle
10
80.361346761714259
20
-384.25516207833869
30
0
40
379.22002174743318
210
0
220
0
230
1
100
AcDbArc
50
115.19357612393739
51
126.04214917216957
0
ARC
5
323
100
AcDbEntity
8
0
100
AcDbCircle
10
-44.69540955662513
20
-485.7892329068946
30
0
40
482.47959075341271
210
0
220
0
230
1
100
AcDbArc
50
97.715197293317559
51
104.00852748441163
0
ARC
5
324
100
AcDbEntity
8
0
100
AcDbCircle
10
146.16122872614258
20
-472.99262662272611
30
0
40
485.00029914409924
210
0
220
0
230
1
100
AcDbArc
50
118.88326245707556
51
126.18167230312359
0
ARC
5
325
100
AcDbEntity
8
0
100
AcDbCircle
10
-105.7408453084534
20
-357.02581366948863
30
0
40
349.36846566414181
210
0
220
0
230
1
100
AcDbArc
50
90.611229752797541
51
99.358466855772562
0
ARC
5
326
100
AcDbEntity
8
0
100
AcDbCircle
10
66.25023604223118
20
-222.93612355979829
30
0
40
219.31973626684481
210
0
220
0
230
1
100
AcDbArc
50
122.94804365104622
51
131.17216950785269
0
ARC
5
327
100
AcDbEntity
8
0
100
AcDbCircle
10
42.784444543796539
20
-256.89370761873505
30
0
40
246.23973655020882
210
0
220
0
230
1
100
AcDbArc
50
108.19038673833921
51
122.11093916302052
0
ARC
5
328
100
AcDbEntity
8
0
100
AcDbCircle
10
114.42418861200211
20
-386.68018834743151
30
0
40
386.25196486742686
210
0
220
0
230
1
100
AcDbArc
50
120.21237065552306
51
130.01369309613986
0
ARC
5
329
100
AcDbEntity
8
0
100
AcDbCircle
10
-115.64273985767724
20
-284.20877552605162
30
0
40
281.5906587820358
210
0
220
-0
230
1
100
AcDbArc
50
85.234367478072954
51
99.81791608182688
0
ARC
5
330
100
AcDbEntity
8
0
100
AcDbCircle
10
-44.274580055594406
20
-367.89757132753255
30
0
40
358.91962890496279
210
0
220
0
230
1
100
AcDbArc
50
91.84910360049065
51
100.056393089938
0
ARC
5
331
100
AcDbEntity
8
0
100
AcDbCircle
10
62.713931989646206
20
-456.81481752499633
30
0
40
450.00000000000006
210
0
220
0
230
1
100
AcDbArc
50
109.65889752285977
51
118.60330108020545
0
ARC
5
332
100
AcDbEntity
8
0
100
AcDbCircle
10
-30.099717929021033
20
-359.90123466053149
30
0
40
342.53576699892574
210
0
220
0
230
1
100
AcDbArc
50
102.49687910457807
51
111.69433856111893
0
ARC
5
333
100
AcDbEntity
8
0
100
AcDbCircle
10
-103.24505729845244
20
-301.71878928112847
30
0
40
301.66542304531583
210
0
220
-0
230
1
100
AcDbArc
50
84.288231482597752
51
101.57401032254052
0
ARC
5
334
100
AcDbEntity
8
0
100
AcDbCircle
10
-3.2849216911823476
20
-487.11041188426918
30
0
40
469.97251516698452
210
0
220
0
230
1
100
AcDbArc
50
99.476181895652289
51
109.0247324234472
0
ARC
5
335
100
AcDbEntity
8
0
100
AcDbCircle
10
-9.7500180916009072
20
-422.06598012248116
30
0
40
400.00000000000023
210
0
220
0
230
1
100
AcDbArc
50
102.18777952418613
51
111.31787920503822
0
ARC
5
336
100
AcDbEntity
8
0
100
AcDbCircle
10
95.113250247615269
20
-313.40263643212643
30
0
40
300.40683704324516
210
0
220
0
230
1
100
AcDbArc
50
123.0203149744673
51
136.59723680140397
0
ARC
5
337
100
AcDbEntity
8
0
100
AcDbCircle
10
-64.865879978519487
20
-299.35786530277892
30
0
40
295.0710558157956
210
0
220
-0
230
1
100
AcDbArc
50
87.203018436814929
51
98.693961120996505
0
ARC
5
338
100
AcDbEntity
8
0
100
AcDbCircle
10
-36.40124514047848
20
-410.24966785327297
30
0
40
394.95454251119492
210
0
220
0
230
1
100
AcDbArc
50
99.310496118589356
51
107.95180954373311
0
ARC
5
339
100
AcDbEntity
8
0
100
AcDbCircle
10
-21.558249843953483
20
-276.04633927136678
30
0
40
260.17951844730527
210
0
220
0
230
1
100
AcDbArc
50
99.01407397054156
51
105.7161353430531
0
ARC
5
340
100
AcDbEntity
8
0
100
AcDbCircle
10
-72.042157250019841
20
-421.92798219953795
30
0
40
413.08982171996149
210
0
220
0
230
1
100
AcDbArc
50
93.031356517387337
51
102.47865051653569
0
ARC
5
341
100
AcDbEntity
8
0
100
AcDbCircle
10
-60.748976454892031
20
-321.24661629435798
30
0
40
313.58631105534118
210
0
220
0
230
1
100
AcDbArc
50
96.066086730931502
51
108.50027523536401
0
ARC
5
342
100
AcDbEntity
8
0
100
AcDbCircle
10
-78.028670176753607
20
-406.19424450974566
30
0
40
402.85366301566216
210
0
220
0
230
1
100
AcDbArc
50
92.022783903533053
51
102.11129376091303
0
ARC
5
343
100
AcDbEntity
8
0
100
AcDbCircle
10
-47.815564980001852
20
-352.66267703326878
30
0
40
348.03445398821566
210
0
220
0
230
1
100
AcDbArc
50
90.436543012972706
51
100.95394896440675
0
ARC
5
344
100
AcDbEntity
8
0
100
AcDbCircle
10
-71.941881743717801
20
-369.81431598698259
30
0
40
357.04230816533988
210
0
220
0
230
1
100
AcDbArc
50
92.696723835368417
51
104.32017523059697
0
ARC
5
345
100
AcDbEntity
8
0
100
AcDbCircle
10
-38.705628778044257
20
-287.15811202856088
30
0
40
278.52179902022948
210
0
220
0
230
1
100
AcDbArc
50
93.530293915029688
51
100.34904244742502
0
ARC
5
346
100
AcDbEntity
8
0
100
AcDbCircle
10
301.69599721519063
20
-237.09151098081153
30
0
40
362.73612158818321
210
0
220
0
230
1
100
AcDbArc
50
155.45171374473188
51
166.87817178406871
0
ARC
5
347
100
AcDbEntity
8
0
100
AcDbCircle
10
155.35577810105295
20
-275.17943975530136
30
0
40
284.36277069900456
210
0
220
0
230
1
100
AcDbArc
50
138.13888117464393
51
150.14924438531486
0
ARC
5
348
100
AcDbEntity
8
0
100
AcDbCircle
10
407.38807203782176
20
-250.8836053604131
30
0
40
470.33827632119227
210
0
220
0
230
1
100
AcDbArc
50
160.82602622257576
51
168.17063406714848
0
ARC
5
349
100
AcDbEntity
8
0
100
AcDbCircle
10
190.27315750270176
20
-362.08055834904906
30
0
40
392.00448446193116
210
0
220
0
230
1
100
AcDbArc
50
127.92772262680242
51
141.34479357462834
0
LWPOLYLINE
5
350
100
AcDbEntity
8
0
100
AcDbPolyline
90
4
70
1
43
0.0
10
-1.0000000149011967
20
-42.00000062584877
42
0.05681835289106564
10
-2.0000000298023224
20
-95.000001415610313
42
0.043097488758300898
10
-6.0878885065273796
20
-163.78904368482375
42
-0.038188631139326489
10
-5.0000000745058486
20
-92.000001370906574
42
-0.051876981434976606
0
ARC
5
351
100
AcDbEntity
8
0
100
AcDbCircle
10
287.02792879725484
20
-224.04774795453523
30
0
40
340.00145723732521
210
0
220
0
230
1
100
AcDbArc
50
157.96181438678911
51
168.42698781087324
0
ARC
5
352
100
AcDbEntity
8
0
100
AcDbCircle
10
229.48629826757823
20
-293.34251630300565
30
0
40
359.18289027728014
210
0
220
0
230
1
100
AcDbArc
50
141.97009782619611
51
153.51470221303313
0
ARC
5
353
100
AcDbEntity
8
0
100
AcDbCircle
10
413.51507007030636
20
-193.23525837658966
30
0
40
433.75687340438913
210
0
220
0
230
1
100
AcDbArc
50
166.4074585397708
51
175.76575700397117
0
ARC
5
354
100
AcDbEntity
8
0
100
AcDbCircle
10
451.71385359248001
20
-341.88518755872133
30
0
40
550.00000000000659
210
0
220
0
230
1
100
AcDbArc
50
152.61724075173902
51
159.76352583822276
0
ARC
5
355
100
AcDbEntity
8
0
100
AcDbCircle
10
397.6081514544955
20
-121.21070732988676
30
0
40
400.46682239259496
210
0
220
0
230
1
100
AcDbArc
50
176.24728688689316
51
186.26420703691596
0
ARC
5
356
100
AcDbEntity
8
0
100
AcDbCircle
10
472.61209617722841
20
-207.81188469976581
30
0
40
499.59477532389212
210
0
220
0
230
1
100
AcDbArc
50
167.0852800000938
51
174.5183674066835
0
ARC
5
357
100
AcDbEntity
8
0
100
AcDbCircle
10
320.08001360542164
20
-264.16835972075626
30
0
40
394.39705552894179
210
0
220
0
230
1
100
AcDbArc
50
154.82641689027585
51
163.68519224977373
0
ARC
5
358
100
AcDbEntity
8
0
100
AcDbCircle
10
448.55774155770791
20
-332.03283157624298
30
0
40
550.00000000000011
210
0
220
0
230
1
100
AcDbArc
50
153.72804234080709
51
160.45436585542552
0
ARC
5
359
100
AcDbEntity
8
0
100
AcDbCircle
10
334.18921253390488
20
-164.17370929965742
30
0
40
362.17447688444503
210
0
220
0
230
1
100
AcDbArc
50
161.86820504761292
51
171.03863616208258
0
ARC
5
360
100
AcDbEntity
8
0
100
AcDbCircle
10
363.77461847185663
20
-226.63467521203359
30
0
40
400.00000000000023
210
0
220
0
230
1
100
AcDbArc
50
160.96133005551405
51
170.25684145514339
0
ARC
5
361
100
AcDbEntity
8
0
100
AcDbCircle
10
248.17705237753023
20
-274.3208665607217
30
0
40
359.41831035130639
210
0
220
0
230
1
100
AcDbArc
50
138.08950932734919
51
149.0997661069421
0
ARC
5
362
100
AcDbEntity
8
0
100
AcDbCircle
10
256.63988995415713
20
-218.24578612992357
30
0
40
325.69459912239677
210
0
220
0
230
1
100
AcDbArc
50
147.56000956269833
51
158.3433987971037
0
ARC
5
363
100
AcDbEntity
8
0
100
AcDbCircle
10
407.06129046613279
20
-238.37803876906744
30
0
40
450.00000000000176
210
0
220
0
230
1
100
AcDbArc
50
161.27661944726856
51
169.69804877582314
0
ARC
5
364
100
AcDbEntity
8
0
100
AcDbCircle
10
284.91545442822024
20
-217.17572600756102
30
0
40
330.90018385732151
210
0
220
0
230
1
100
AcDbArc
50
160.10634008028475
51
169.51380380172412
0
ARC
5
365
100
AcDbEntity
8
0
100
AcDbCircle
10
393.23120041405645
20
-336.83726475889171
30
0
40
500.00000000000028
210
0
220
0
230
1
100
AcDbArc
50
149.89823428873916
51
157.81352896345993
0
ARC
5
366
100
AcDbEntity
8
0
100
AcDbCircle
10
481.06870637061826
20
-206.25355084670309
30
0
40
500.80688581410482
210
0
220
0
230
1
100
AcDbArc
50
168.74322274130049
51
174.86992788299406
0
ARC
5
367
100
AcDbEntity
8
0
100
AcDbCircle
10
353.18171800258153
20
-250.07067889609826
30
0
40
429.33784689159427
210
0
220
0
230
1
100
AcDbArc
50
153.35961981193623
51
157.90600098774209
0
ARC
5
368
100
AcDbEntity
8
0
100
AcDbCircle
10
211.10149427991016
20
-170.42173283892211
30
0
40
254.69427638353156
210
0
220
0
230
1
100
AcDbArc
50
149.28636723980063
51
163.01342689130502
0
ARC
5
369
100
AcDbEntity
8
0
100
AcDbCircle
10
242.55029065674017
20
-187.83353677661094
30
0
40
298.04065285241552
210
0
220
0
230
1
100
AcDbArc
50
151.04338799680096
51
162.87453440129892
0
ARC
5
370
100
AcDbEntity
8
0
100
AcDbCircle
10
341.54115916703114
20
-92.630425330279778
30
0
40
349.63667534914924
210
0
220
0
230
1
100
AcDbArc
50
173.98625098137902
51
179.78126392976864
0
ARC
5
371
100
AcDbEntity
8
0
100
AcDbCircle
10
498.69469254191608
20
-313.53003169359096
30
0
40
580.56360904975998
210
0
220
0
230
1
100
AcDbArc
50
157.2395687975756
51
163.96928724426448
0
ARC
5
372
100
AcDbEntity
8
0
100
AcDbCircle
10
446.3898521667366
20
-361.37988517323828
30
0
40
565.43201764345417
210
0
220
0
230
1
100
AcDbArc
50
149.41610780734121
51
157.40122369638163
0
ARC
5
373
100
AcDbEntity
8
0
100
AcDbCircle
10
227.9316169942382
20
-230.98259561868048
30
0
40
315.95881980166047
210
0
220
0
230
1
100
AcDbArc
50
141.4877261820628
51
153.84593354564603
0
ARC
5
374
100
AcDbEntity
8
0
100
AcDbCircle
10
210.06100999542267
20
-128.76061480264906
30
0
40
229.11190305223627
210
0
220
0
230
1
100
AcDbArc
50
163.84155011089254
51
174.66427793210019
0
ARC
5
375
100
AcDbEntity
8
0
100
AcDbCircle
10
303.02454366902805
20
-176.1976839227392
30
0
40
336.96212434548704
210
0
220
0
230
1
100
AcDbArc
50
158.27375229947839
51
167.72853745204426
0
ARC
5
376
100
AcDbEntity
8
0
100
AcDbCircle
10
149.87619966364431
20
-266.8608866681314
30
0
40
270.05386452837115
210
0
220
0
230
1
100
AcDbArc
50
139.56618245515148
51
151.1803318522754
0
ARC
5
377
100
AcDbEntity
8
0
100
AcDbCircle
10
488.59779538401989
20
-158.5599654302155
30
0
40
501.20848978222466
210
0
220
0
230
1
100
AcDbArc
50
174.26700586802576
51
180.44979900701688
0
ARC
5
378
100
AcDbEntity
8
0
100
AcDbCircle
10
501.29381193827169
20
-241.12143404280829
30
0
40
530.96389945202668
210
0
220
0
230
1
100
AcDbArc
50
163.60982197853573
51
171.24767441694806
0
ARC
5
379
100
AcDbEntity
8
0
100
AcDbCircle
10
246.46282505886731
20
-165.12826993798018
30
0
40
288.66825218726575
210
0
220
0
230
1
100
AcDbArc
50
156.9432105902689
51
167.68000167555658
0
ARC
5
380
100
AcDbEntity
8
0
100
AcDbCircle
10
269.77598177151913
20
-108.02050106391124
30
0
40
280.80791362448821
210
0
220
0
230
1
100
AcDbArc
50
169.32411849912478
51
178.6467241971327
0
ARC
5
381
100
AcDbEntity
8
0
100
AcDbCircle
10
323.36380226527911
20
-194.00537356839476
30
0
40
360.85862899384892
210
0
220
0
230
1
100
AcDbArc
50
165.6516338585657
51
174.25802950130253
0
ARC
5
382
100
AcDbEntity
8
0
100
AcDbCircle
10
159.60440468262928
20
-149.19510307931216
30
0
40
203.431255303162
210
0
220
0
230
1
100
AcDbArc
50
151.48307189457844
51
164.96022267042906
0
ARC
5
383
100
AcDbEntity
8
0
100
AcDbCircle
10
328.53348405202092
20
-214.8853775710374
30
0
40
379.22002174743312
210
0
220
0
230
1
100
AcDbArc
50
160.19357612393739
51
171.04214917216959
0
ARC
5
384
100
AcDbEntity
8
0
100
AcDbCircle
10
311.9004336304767
20
-375.10928800127596
30
0
40
482.47959075341271
210
0
220
0
230
1
100
AcDbArc
50
142.71519729331757
51
149.00852748441164
0
ARC
5
385
100
AcDbEntity
8
0
100
AcDbCircle
10
437.80788971497986
20
-231.10469775735297
30
0
40
485.0002991440993
210
0
220
0
230
1
100
AcDbArc
50
163.88326245707557
51
171.18167230312361
0
ARC
5
386
100
AcDbEntity
8
0
100
AcDbCircle
10
177.68530513833508
20
-327.22544267034527
30
0
40
349.36846566414181
210
0
220
0
230
1
100
AcDbArc
50
135.61122975279756
51
144.35846685577255
0
ARC
5
387
100
AcDbEntity
8
0
100
AcDbCircle
10
204.4856359012465
20
-110.79365357990432
30
0
40
219.31973626684481
210
0
220
0
230
1
100
AcDbArc
50
167.94804365104625
51
176.17216950785274
0
ARC
5
388
100
AcDbEntity
8
0
100
AcDbCircle
10
211.90445356758008
20
-151.39811183514345
30
0
40
246.23973655020876
210
0
220
0
230
1
100
AcDbArc
50
153.19038673833921
51
167.11093916302053
0
ARC
5
389
100
AcDbEntity
8
0
100
AcDbCircle
10
354.33430303027546
20
-192.514063631645
30
0
40
386.25196486742686
210
0
220
0
230
1
100
AcDbArc
50
165.21237065552307
51
175.01369309613989
0
ARC
5
390
100
AcDbEntity
8
0
100
AcDbCircle
10
119.19418689884097
20
-282.73771799555175
30
0
40
281.5906587820358
210
0
220
0
230
1
100
AcDbArc
50
130.23436747807298
51
144.81791608182692
0
ARC
5
391
100
AcDbEntity
8
0
100
AcDbCircle
10
228.83601167626233
20
-291.44972325925727
30
0
40
358.91962890496279
210
0
220
0
230
1
100
AcDbArc
50
136.84910360049068
51
145.05639308993801
0
ARC
5
392
100
AcDbEntity
8
0
100
AcDbCircle
10
367.36230180317108
20
-278.67140863366944
30
0
40
450.00000000000006
210
0
220
0
230
1
100
AcDbArc
50
154.6588975228598
51
163.60330108020545
0
ARC
5
393
100
AcDbEntity
8
0
100
AcDbCircle
10
233.20488892645969
20
-275.77231824528576
30
0
40
342.53576699892585
210
0
220
0
230
1
100
AcDbArc
50
147.49687910457806
51
156.69433856111894
0
ARC
5
394
100
AcDbEntity
8
0
100
AcDbCircle
10
140.34212177235159
20
-286.35268205181029
30
0
40
301.66542304531583
210
0
220
0
230
1
100
AcDbArc
50
129.28823148259778
51
146.57401032254052
0
ARC
5
395
100
AcDbEntity
8
0
100
AcDbCircle
10
342.11628502643714
20
-346.76186583344077
30
0
40
469.97251516698452
210
0
220
0
230
1
100
AcDbArc
50
144.47618189565233
51
154.0247324234472
0
ARC
5
396
100
AcDbEntity
8
0
100
AcDbCircle
10
291.55141274349046
20
-305.34002056201547
30
0
40
400.00000000000011
210
0
220
0
230
1
100
AcDbArc
50
147.18777952418614
51
156.31787920503825
0
ARC
5
397
100
AcDbEntity
8
0
100
AcDbCircle
10
288.86435369368053
20
-154.35390523211689
30
0
40
300.4068370432451
210
0
220
0
230
1
100
AcDbArc
50
168.02031497446734
51
181.59723680140388
0
ARC
5
398
100
AcDbEntity
8
0
100
AcDbCircle
10
165.81087295668024
20
-257.5450801575679
30
0
40
295.0710558157956
210
0
220
0
230
1
100
AcDbArc
50
132.20301843681494
51
143.69396112099653
0
ARC
5
399
100
AcDbEntity
8
0
100
AcDbCircle
10
264.35075483611189
20
-315.82988940104428
30
0
40
394.95454251119497
210
0
220
0
230
1
100
AcDbArc
50
144.31049611858936
51
152.95180954373311
0
ARC
5
400
100
AcDbEntity
8
0
100
AcDbCircle
10
179.95025376533246
20
-210.43822307567916
30
0
40
260.17951844730527
210
0
220
0
230
1
100
AcDbArc
50
144.01407397054155
51
150.71613534305314
0
ARC
5
401
100
AcDbEntity
8
0
100
AcDbCircle
10
247.40663946285355
20
-349.28963530844675
30
0
40
413.08982171996144
210
0
220
0
230
1
100
AcDbArc
50
138.03135651738734
51
147.47865051653568
0
ARC
5
402
100
AcDbEntity
8
0
100
AcDbCircle
10
184.19964761357733
20
-270.11167401636948
30
0
40
313.58631105534124
210
0
220
0
230
1
100
AcDbArc
50
141.06608673093152
51
153.500275235364
0
ARC
5
403
100
AcDbEntity
8
0
100
AcDbCircle
10
232.04810296283671
20
-342.3973065807387
30
0
40
402.85366301566216
210
0
220
0
230
1
100
AcDbArc
50
137.02278390353305
51
147.11129376091304
0
ARC
5
404
100
AcDbEntity
8
0
100
AcDbCircle
10
215.55946015800032
20
-283.18088064525091
30
0
40
348.0344539882156
210
0
220
0
230
1
100
AcDbArc
50
135.43654301297272
51
145.95394896440675
0
ARC
5
405
100
AcDbEntity
8
0
100
AcDbCircle
10
210.62761818195651
20
-312.36880304656358
30
0
40
357.04230816533993
210
0
220
0
230
1
100
AcDbArc
50
137.6967238353684
51
149.32017523059696
0
ARC
5
406
100
AcDbEntity
8
0
100
AcDbCircle
10
175.68243570907742
20
-230.42046086716599
30
0
40
278.52179902022948
210
0
220
0
230
1
100
AcDbArc
50
138.53029391502972
51
145.34904244742503
0
ARC
5
407
100
AcDbEntity
8
0
100
AcDbCircle
10
380.98030066399565
20
45.682270311402462
30
0
40
362.73612158818321
210
0
220
0
230
1
100
AcDbArc
50
200.45171374473188
51
211.87817178406868
0
ARC
5
408
100
AcDbEntity
8
0
100
AcDbCircle
10
304.43437208585573
20
-84.728123702321497
30
0
40
284.36277069900461
210
0
220
0
230
1
100
AcDbArc
50
183.13888117464381
51
195.14924438531483
0
ARC
5
409
100
AcDbEntity
8
0
100
AcDbCircle
10
465.46836695133521
20
110.66536967357973
30
0
40
470.33827632119227
210
0
220
0
230
1
100
AcDbArc
50
205.82602622257576
51
213.17063406714846
0
ARC
5
410
100
AcDbEntity
8
0
100
AcDbCircle
10
390.57305809236038
20
-121.4861781964875
30
0
40
392.00448446193116
210
0
220
0
230
1
100
AcDbArc
50
172.92772262680242
51
186.34479357462834
0
LWPOLYLINE
5
411
100
AcDbEntity
8
0
100
AcDbPolyline
90
4
70
1
43
0.0
10
28.991378460653614
20
-30.405592044100178
42
0.05681835289106589
10
65.760931630263073
20
-68.589358797156194
42
0.043097488758300578
10
111.51155622752498
20
-120.12113071967119
42
-0.038188631139326155
10
61.518290879923612
20
-68.589358797156279
42
-0.051876981434976939
0
ARC
5
412
100
AcDbEntity
8
0
100
AcDbCircle
10
361.38507673069466
20
44.533712954242155
30
0
40
340.00145723732521
210
0
220
0
230
1
100
AcDbArc
50
202.96181438678911
51
213.42698781087324
0
ARC
5
413
100
AcDbEntity
8
0
100
AcDbCircle
10
369.69580018258387
20
-45.153164793777378
30
0
40
359.18289027728008
210
0
220
0
230
1
100
AcDbArc
50
186.97009782619608
51
198.51470221303313
0
ARC
5
414
100
AcDbEntity
8
0
100
AcDbCircle
10
429.03727173196506
20
155.76134860712281
30
0
40
433.75687340438913
210
0
220
0
230
1
100
AcDbArc
50
211.4074585397708
51
220.76575700397109
0
ARC
5
415
100
AcDbEntity
8
0
100
AcDbCircle
10
561.15926354115641
20
77.66059452114348
30
0
40
550.00000000000659
210
0
220
0
230
1
100
AcDbArc
50
197.61724075173902
51
204.76352583822276
0
ARC
5
416
100
AcDbEntity
8
0
100
AcDbCircle
10
366.86033325390241
20
195.44250704314072
30
0
40
400.46682239259491
210
0
220
0
230
1
100
AcDbArc
50
221.24728688689316
51
231.26420703691599
0
ARC
5
417
100
AcDbEntity
8
0
100
AcDbCircle
10
481.13241096006823
20
187.24202519534566
30
0
40
499.59477532389201
210
0
220
0
230
1
100
AcDbArc
50
212.08528000009375
51
219.51836740668341
0
ARC
5
418
100
AcDbEntity
8
0
100
AcDbCircle
10
413.12598667614998
20
39.535509609202109
30
0
40
394.39705552894173
210
0
220
0
230
1
100
AcDbArc
50
199.82641689027582
51
208.68519224977371
0
ARC
5
419
100
AcDbEntity
8
0
100
AcDbCircle
10
551.9608875933103
20
82.395554025045925
30
0
40
550.00000000000011
210
0
220
0
230
1
100
AcDbArc
50
198.72804234080706
51
205.45436585542546
0
ARC
5
420
100
AcDbEntity
8
0
100
AcDbCircle
10
352.39580152045323
20
120.21911524377981
30
0
40
362.17447688444508
210
0
220
0
230
1
100
AcDbArc
50
206.86820504761292
51
216.03863616208258
0
ARC
5
421
100
AcDbEntity
8
0
100
AcDbCircle
10
417.48241523943864
20
96.972583850559289
30
0
40
400.00000000000011
210
0
220
0
230
1
100
AcDbArc
50
205.96133005551405
51
215.25684145514339
0
ARC
5
422
100
AcDbEntity
8
0
100
AcDbCircle
10
369.46182163709693
20
-18.486468295015683
30
0
40
359.41831035130633
210
0
220
0
230
1
100
AcDbArc
50
183.08950932734908
51
194.0997661069421
0
ARC
5
423
100
AcDbEntity
8
0
100
AcDbCircle
10
335.79488184741172
20
27.148731171695957
30
0
40
325.69459912239677
210
0
220
0
230
1
100
AcDbArc
50
192.5600095626983
51
203.3433987971037
0
ARC
5
424
100
AcDbEntity
8
0
100
AcDbCircle
10
456.39452654670663
20
119.27707114759212
30
0
40
450.00000000000165
210
0
220
0
230
1
100
AcDbArc
50
206.27661944726856
51
214.69804877582311
0
ARC
5
425
100
AcDbEntity
8
0
100
AcDbCircle
10
355.03207846009929
20
47.899221321983262
30
0
40
330.90018385732151
210
0
220
0
230
1
100
AcDbArc
50
205.10634008028472
51
214.51380380172409
0
ARC
5
426
100
AcDbEntity
8
0
100
AcDbCircle
10
516.23636245424643
20
39.876534319564882
30
0
40
500.00000000000028
210
0
220
0
230
1
100
AcDbArc
50
194.89823428873916
51
202.81352896345987
0
ARC
5
427
100
AcDbEntity
8
0
100
AcDbCircle
10
486.0102289388123
20
194.32366004379611
30
0
40
500.80688581410476
210
0
220
0
230
1
100
AcDbArc
50
213.74322274130046
51
219.86992788299406
0
ARC
5
428
100
AcDbEntity
8
0
100
AcDbCircle
10
426.56386061409506
20
72.910514967385637
30
0
40
429.33784689159415
210
0
220
0
230
1
100
AcDbArc
50
198.3596198119362
51
202.90600098774203
0
ARC
5
429
100
AcDbEntity
8
0
100
AcDbCircle
10
269.77766107590156
20
28.764935171973729
30
0
40
254.69427638353153
210
0
220
0
230
1
100
AcDbArc
50
194.28636723980063
51
208.01342689130502
0
ARC
5
430
100
AcDbEntity
8
0
100
AcDbCircle
10
304.32732289114341
20
38.690587713154741
30
0
40
298.04065285241552
210
0
220
0
230
1
100
AcDbArc
50
196.04338799680093
51
207.87453440129892
0
ARC
5
431
100
AcDbEntity
8
0
100
AcDbCircle
10
307.00567159655662
20
176.0064678060867
30
0
40
349.63667534914924
210
0
220
0
230
1
100
AcDbArc
50
218.98625098137902
51
224.78126392976787
0
ARC
5
432
100
AcDbEntity
8
0
100
AcDbCircle
10
574.32961035430048
20
130.93118732195796
30
0
40
580.56360904975986
210
0
220
0
230
1
100
AcDbArc
50
202.2395687975756
51
208.96928724426445
0
ARC
5
433
100
AcDbEntity
8
0
100
AcDbCircle
10
571.17945891037255
20
60.111124129547377
30
0
40
565.43201764345406
210
0
220
0
230
1
100
AcDbArc
50
194.41610780734118
51
202.40122369638161
0
ARC
5
434
100
AcDbEntity
8
0
100
AcDbCircle
10
324.50135172147981
20
-2.157367674598305
30
0
40
315.95881980166041
210
0
220
0
230
1
100
AcDbArc
50
186.4877261820628
51
198.84593354564598
0
ARC
5
435
100
AcDbEntity
8
0
100
AcDbCircle
10
239.58306850736057
20
57.488060753956404
30
0
40
229.11190305223624
210
0
220
0
230
1
100
AcDbArc
50
208.84155011089251
51
219.66427793210019
0
ARC
5
436
100
AcDbEntity
8
0
100
AcDbCircle
10
338.86128682546166
20
89.680132563196096
30
0
40
336.96212434548698
210
0
220
0
230
1
100
AcDbArc
50
203.27375229947839
51
212.72853745204424
0
ARC
5
437
100
AcDbEntity
8
0
100
AcDbCircle
10
294.67761971712224
20
-82.720665475858539
30
0
40
270.05386452837109
210
0
220
0
230
1
100
AcDbArc
50
184.56618245515142
51
196.18033185227537
0
ARC
5
438
100
AcDbEntity
8
0
100
AcDbCircle
10
457.60964116924748
20
233.37198760842773
30
0
40
501.20848978222455
210
0
220
0
230
1
100
AcDbArc
50
219.26700586802576
51
225.44979900701799
0
ARC
5
439
100
AcDbEntity
8
0
100
AcDbCircle
10
524.96685488950038
20
183.96965268731125
30
0
40
530.96389945202668
210
0
220
0
230
1
100
AcDbArc
50
208.60982197853571
51
216.24767441694806
0
ARC
5
440
100
AcDbEntity
8
0
100
AcDbCircle
10
291.03885434826731
20
57.512215470770357
30
0
40
288.66825218726569
210
0
220
0
230
1
100
AcDbArc
50
201.94321059026888
51
212.68000167555653
0
ARC
5
441
100
AcDbEntity
8
0
100
AcDbCircle
10
267.1424549213599
20
114.3783973024393
30
0
40
280.80791362448815
210
0
220
0
230
1
100
AcDbArc
50
214.32411849912472
51
223.64672419713276
0
ARC
5
442
100
AcDbEntity
8
0
100
AcDbCircle
10
365.83525260888592
20
91.470222135203414
30
0
40
360.85862899384881
210
0
220
0
230
1
100
AcDbArc
50
210.65163385856565
51
219.25802950130245
0
ARC
5
443
100
AcDbEntity
8
0
100
AcDbCircle
10
218.3542259655367
20
7.3604877511215427
30
0
40
203.43125530316198
210
0
220
0
230
1
100
AcDbArc
50
196.48307189457842
51
209.96022267042903
0
ARC
5
444
100
AcDbEntity
8
0
100
AcDbCircle
10
384.25516207833857
20
80.361346761714287
30
0
40
379.22002174743307
210
0
220
0
230
1
100
AcDbArc
50
205.19357612393739
51
216.04214917216959
0
ARC
5
445
100
AcDbEntity
8
0
100
AcDbCircle
10
485.78923290689454
20
-44.695409556625023
30
0
40
482.47959075341271
210
0
220
0
230
1
100
AcDbArc
50
187.71519729331752
51
194.00852748441162
0
ARC
5
446
100
AcDbEntity
8
0
100
AcDbCircle
10
472.99262662272611
20
146.16122872614267
30
0
40
485.00029914409924
210
0
220
0
230
1
100
AcDbArc
50
208.88326245707557
51
216.18167230312358
0
ARC
5
447
100
AcDbEntity
8
0
100
AcDbCircle
10
357.02581366948863
20
-105.74084530845333
30
0
40
349.36846566414181
210
0
220
0
230
1
100
AcDbArc
50
180.61122975279719
51
189.35846685577255
0
ARC
5
448
100
AcDbEntity
8
0
100
AcDbCircle
10
222.93612355979826
20
66.250236042231194
30
0
40
219.31973626684481
210
0
220
0
230
1
100
AcDbArc
50
212.94804365104622
51
221.17216950785266
0
ARC
5
449
100
AcDbEntity
8
0
100
AcDbCircle
10
256.89370761873499
20
42.784444543796582
30
0
40
246.23973655020876
210
0
220
0
230
1
100
AcDbArc
50
198.19038673833924
51
212.11093916302053
0
ARC
5
450
100
AcDbEntity
8
0
100
AcDbCircle
10
386.68018834743145
20
114.42418861200217
30
0
40
386.25196486742686
210
0
220
0
230
1
100
AcDbArc
50
210.21237065552307
51
220.01369309613983
0
ARC
5
451
100
AcDbEntity
8
0
100
AcDbCircle
10
284.20877552605157
20
-115.64273985767716
30
0
40
281.5906587820358
210
0
220
0
230
1
100
AcDbArc
50
175.23436747807293
51
189.81791608182687
0
ARC
5
452
100
AcDbEntity
8
0
100
AcDbCircle
10
367.89757132753255
20
-44.27458005559437
30
0
40
358.91962890496279
210
0
220
0
230
1
100
AcDbArc
50
181.84910360049054
51
190.05639308993801
0
ARC
5
453
100
AcDbEntity
8
0
100
AcDbCircle
10
456.81481752499633
20
62.713931989646277
30
0
40
450.00000000000006
210
0
220
0
230
1
100
AcDbArc
50
199.65889752285977
51
208.60330108020543
0
ARC
5
454
100
AcDbEntity
8
0
100
AcDbCircle
10
359.90123466053149
20
-30.099717929020962
30
0
40
342.53576699892574
210
0
220
0
230
1
100
AcDbArc
50
192.49687910457803
51
201.69433856111891
0
ARC
5
455
100
AcDbEntity
8
0
100
AcDbCircle
10
301.71878928112847
20
-103.24505729845237
30
0
40
301.66542304531583
210
0
220
0
230
1
100
AcDbArc
50
174.28823148259781
51
191.57401032254049
0
ARC
5
456
100
AcDbEntity
8
0
100
AcDbCircle
10
487.11041188426913
20
-3.2849216911822765
30
0
40
469.97251516698441
210
0
220
0
230
1
100
AcDbArc
50
189.4761818956523
51
199.0247324234472
0
ARC
5
457
100
AcDbEntity
8
0
100
AcDbCircle
10
422.06598012248105
20
-9.7500180916008361
30
0
40
400.00000000000011
210
0
220
0
230
1
100
AcDbArc
50
192.18777952418611
51
201.31787920503825
0
ARC
5
458
100
AcDbEntity
8
0
100
AcDbCircle
10
313.40263643212637
20
95.113250247615312
30
0
40
300.4068370432451
210
0
220
0
230
1
100
AcDbArc
50
213.02031497446728
51
226.59723680140397
0
ARC
5
459
100
AcDbEntity
8
0
100
AcDbCircle
10
299.35786530277886
20
-64.865879978519416
30
0
40
295.0710558157956
210
0
220
0
230
1
100
AcDbArc
50
177.20301843681497
51
188.69396112099651
0
ARC
5
460
100
AcDbEntity
8
0
100
AcDbCircle
10
410.24966785327297
20
-36.401245140478409
30
0
40
394.95454251119492
210
0
220
0
230
1
100
AcDbArc
50
189.31049611858933
51
197.95180954373311
0
ARC
5
461
100
AcDbEntity
8
0
100
AcDbCircle
10
276.04633927136672
20
-21.558249843953448
30
0
40
260.17951844730527
210
0
220
0
230
1
100
AcDbArc
50
189.01407397054149
51
195.71613534305305
0
ARC
5
462
100
AcDbEntity
8
0
100
AcDbCircle
10
421.92798219953784
20
-72.042157250019756
30
0
40
413.08982171996138
210
0
220
0
230
1
100
AcDbArc
50
183.03135651738731
51
192.47865051653568
0
ARC
5
463
100
AcDbEntity
8
0
100
AcDbCircle
10
321.24661629435798
20
-60.74897645489196
30
0
40
313.58631105534124
210
0
220
0
230
1
100
AcDbArc
50
186.06608673093149
51
198.500275235364
0
ARC
5
464
100
AcDbEntity
8
0
100
AcDbCircle
10
406.19424450974566
20
-78.028670176753536
30
0
40
402.85366301566216
210
0
220
0
230
1
100
AcDbArc
50
182.02278390353288
51
192.11129376091304
0
ARC
5
465
100
AcDbEntity
8
0
100
AcDbCircle
10
352.66267703326866
20
-47.815564980001781
30
0
40
348.03445398821555
210
0
220
0
230
1
100
AcDbArc
50
180.43654301297229
51
190.95394896440672
0
ARC
5
466
100
AcDbEntity
8
0
100
AcDbCircle
10
369.81431598698248
20
-71.94188174371773
30
0
40
357.04230816533982
210
0
220
0
230
1
100
AcDbArc
50
182.69672383536837
51
194.32017523059696
0
ARC
5
467
100
AcDbEntity
8
0
100
AcDbCircle
10
287.15811202856088
20
-38.705628778044186
30
0
40
278.52179902022948
210
0
220
0
230
1
100
AcDbArc
50
183.53029391502972
51
190.34904244742503
0
ARC
5
468
100
AcDbEntity
8
0
100
AcDbCircle
10
237.09151098081156
20
301.69599721519063
30
0
40
362.73612158818321
210
0
220
0
230
1
100
AcDbArc
50
245.45171374473182
51
256.87817178406868
0
ARC
5
469
100
AcDbEntity
8
0
100
AcDbCircle
10
275.17943975530136
20
155.35577810105292
30
0
40
284.36277069900456
210
0
220
0
230
1
100
AcDbArc
50
228.1388811746439
51
240.1492443853148
0
ARC
5
470
100
AcDbEntity
8
0
100
AcDbCircle
10
250.88360536041318
20
407.38807203782164
30
0
40
470.33827632119227
210
0
220
0
230
1
100
AcDbArc
50
250.82602622257573
51
258.17063406714846
0
ARC
5
471
100
AcDbEntity
8
0
100
AcDbCircle
10
362.08055834904911
20
190.27315750270174
30
0
40
392.00448446193116
210
0
220
0
230
1
100
AcDbArc
50
217.92772262680239
51
231.34479357462834
0
LWPOLYLINE
5
472
100
AcDbEntity
8
0
100
AcDbPolyline
90
4
70
1
43
0.0
10
42.00000062584877
20
-1.0000000149011967
42
0.05681835289106589
10
95.000001415610313
20
-2.0000000298023224
42
0.043097488758300898
10
163.78904368482438
20
-6.0878885065274453
42
-0.038188631139326822
10
92.000001370906574
20
-5.0000000745058522
42
-0.051876981434976606
0
ARC
5
473
100
AcDbEntity
8
0
100
AcDbCircle
10
224.04774795453528
20
287.02792879725484
30
0
40
340.00145723732533
210
0
220
0
230
1
100
AcDbArc
50
247.96181438678909
51
258.42698781087324
0
ARC
5
474
100
AcDbEntity
8
0
100
AcDbCircle
10
293.34251630300565
20
229.48629826757821
30
0
40
359.18289027728008
210
0
220
0
230
1
100
AcDbArc
50
231.97009782619608
51
243.5147022130331
0
ARC
5
475
100
AcDbEntity
8
0
100
AcDbCircle
10
193.23525837658974
20
413.51507007030625
30
0
40
433.75687340438907
210
0
220
0
230
1
100
AcDbArc
50
256.4074585397708
51
265.76575700397109
0
ARC
5
476
100
AcDbEntity
8
0
100
AcDbCircle
10
341.88518755872133
20
451.71385359248001
30
0
40
550.00000000000659
210
0
220
0
230
1
100
AcDbArc
50
242.61724075173902
51
249.76352583822273
0
ARC
5
477
100
AcDbEntity
8
0
100
AcDbCircle
10
121.21070732988679
20
397.6081514544955
30
0
40
400.46682239259496
210
0
220
0
230
1
100
AcDbArc
50
266.24728688689311
51
276.26420703691599
0
ARC
5
478
100
AcDbEntity
8
0
100
AcDbCircle
10
207.81188469976584
20
472.61209617722835
30
0
40
499.59477532389207
210
0
220
0
230
1
100
AcDbArc
50
257.08528000009375
51
264.51836740668341
0
ARC
5
479
100
AcDbEntity
8
0
100
AcDbCircle
10
264.16835972075631
20
320.08001360542158
30
0
40
394.39705552894173
210
0
220
0
230
1
100
AcDbArc
50
244.82641689027579
51
253.68519224977373
0
ARC
5
480
100
AcDbEntity
8
0
100
AcDbCircle
10
332.03283157624298
20
448.55774155770791
30
0
40
550.00000000000011
210
0
220
0
230
1
100
AcDbArc
50
243.72804234080706
51
250.45436585542549
0
ARC
5
481
100
AcDbEntity
8
0
100
AcDbCircle
10
164.17370929965745
20
334.18921253390477
30
0
40
362.17447688444497
210
0
220
0
230
1
100
AcDbArc
50
251.86820504761292
51
261.03863616208253
0
ARC
5
482
100
AcDbEntity
8
0
100
AcDbCircle
10
226.63467521203361
20
363.77461847185657
30
0
40
400.00000000000011
210
0
220
0
230
1
100
AcDbArc
50
250.96133005551405
51
260.25684145514339
0
ARC
5
483
100
AcDbEntity
8
0
100
AcDbCircle
10
274.32086656072175
20
248.1770523775302
30
0
40
359.41831035130639
210
0
220
0
230
1
100
AcDbArc
50
228.08950932734913
51
239.09976610694207
0
ARC
5
484
100
AcDbEntity
8
0
100
AcDbCircle
10
218.2457861299236
20
256.63988995415713
30
0
40
325.69459912239677
210
0
220
0
230
1
100
AcDbArc
50
237.56000956269827
51
248.34339879710367
0
ARC
5
485
100
AcDbEntity
8
0
100
AcDbCircle
10
238.3780387690675
20
407.06129046613273
30
0
40
450.00000000000171
210
0
220
0
230
1
100
AcDbArc
50
251.2766194472685
51
259.69804877582311
0
ARC
5
486
100
AcDbEntity
8
0
100
AcDbCircle
10
217.17572600756108
20
284.91545442822024
30
0
40
330.90018385732151
210
0
220
0
230
1
100
AcDbArc
50
250.10634008028475
51
259.51380380172412
0
ARC
5
487
100
AcDbEntity
8
0
100
AcDbCircle
10
336.83726475889171
20
393.23120041405645
30
0
40
500.00000000000028
210
0
220
0
230
1
100
AcDbArc
50
239.89823428873913
51
247.8135289634599
0
ARC
5
488
100
AcDbEntity
8
0
100
AcDbCircle
10
206.25355084670315
20
481.0687063706182
30
0
40
500.80688581410476
210
0
220
0
230
1
100
AcDbArc
50
258.74322274130043
51
264.86992788299403
0
ARC
5
489
100
AcDbEntity
8
0
100
AcDbCircle
10
250.07067889609829
20
353.18171800258148
30
0
40
429.33784689159415
210
0
220
0
230
1
100
AcDbArc
50
243.3596198119362
51
247.90600098774203
0
ARC
5
490
100
AcDbEntity
8
0
100
AcDbCircle
10
170.42173283892211
20
211.10149427991016
30
0
40
254.69427638353156
210
0
220
0
230
1
100
AcDbArc
50
239.28636723980065
51
253.01342689130496
0
ARC
5
491
100
AcDbEntity
8
0
100
AcDbCircle
10
187.83353677661097
20
242.55029065674017
30
0
40
298.04065285241558
210
0
220
0
230
1
100
AcDbArc
50
241.04338799680096
51
252.87453440129889
0
ARC
5
492
100
AcDbEntity
8
0
100
AcDbCircle
10
92.63042533027982
20
341.54115916703114
30
0
40
349.6366753491493
210
0
220
0
230
1
100
AcDbArc
50
263.98625098137899
51
269.78126392976787
0
ARC
5
493
100
AcDbEntity
8
0
100
AcDbCircle
10
313.53003169359101
20
498.69469254191608
30
0
40
580.56360904975998
210
0
220
0
230
1
100
AcDbArc
50
247.2395687975756
51
253.96928724426442
0
ARC
5
494
100
AcDbEntity
8
0
100
AcDbCircle
10
361.37988517323828
20
446.3898521667366
30
0
40
565.43201764345417
210
0
220
0
230
1
100
AcDbArc
50
239.41610780734118
51
247.40122369638163
0
ARC
5
495
100
AcDbEntity
8
0
100
AcDbCircle
10
230.98259561868048
20
227.9316169942382
30
0
40
315.95881980166047
210
0
220
0
230
1
100
AcDbArc
50
231.4877261820628
51
243.84593354564601
0
ARC
5
496
100
AcDbEntity
8
0
100
AcDbCircle
10
128.76061480264909
20
210.06100999542264
30
0
40
229.11190305223619
210
0
220
0
230
1
100
AcDbArc
50
253.84155011089251
51
264.66427793210011
0
ARC
5
497
100
AcDbEntity
8
0
100
AcDbCircle
10
176.19768392273923
20
303.02454366902805
30
0
40
336.96212434548704
210
0
220
0
230
1
100
AcDbArc
50
248.27375229947839
51
257.72853745204424
0
ARC
5
498
100
AcDbEntity
8
0
100
AcDbCircle
10
266.8608866681314
20
149.87619966364429
30
0
40
270.05386452837115
210
0
220
0
230
1
100
AcDbArc
50
229.56618245515145
51
241.18033185227534
0
ARC
5
499
100
AcDbEntity
8
0
100
AcDbCircle
10
158.55996543021556
20
488.59779538401989
30
0
40
501.20848978222466
210
0
220
0
230
1
100
AcDbArc
50
264.26700586802576
51
270.44979900701793
0
ARC
5
500
100
AcDbEntity
8
0
100
AcDbCircle
10
241.12143404280832
20
501.29381193827163
30
0
40
530.96389945202668
210
0
220
0
230
1
100
AcDbArc
50
253.60982197853571
51
261.24767441694803
0
ARC
5
501
100
AcDbEntity
8
0
100
AcDbCircle
10
165.12826993798024
20
246.46282505886731
30
0
40
288.66825218726581
210
0
220
0
230
1
100
AcDbArc
50
246.94321059026885
51
257.68000167555653
0
ARC
5
502
100
AcDbEntity
8
0
100
AcDbCircle
10
108.02050106391127
20
269.77598177151907
30
0
40
280.80791362448815
210
0
220
0
230
1
100
AcDbArc
50
259.32411849912472
51
268.64672419713276
0
ARC
5
503
100
AcDbEntity
8
0
100
AcDbCircle
10
194.00537356839479
20
323.36380226527899
30
0
40
360.85862899384887
210
0
220
0
230
1
100
AcDbArc
50
255.65163385856567
51
264.25802950130242
0
ARC
5
504
100
AcDbEntity
8
0
100
AcDbCircle
10
149.19510307931219
20
159.60440468262925
30
0
40
203.431255303162
210
0
220
0
230
1
100
AcDbArc
50
241.48307189457839
51
254.960222670429
0
ARC
5
505
100
AcDbEntity
8
0
100
AcDbCircle
10
214.88537757103742
20
328.53348405202087
30
0
40
379.22002174743307
210
0
220
0
230
1
100
AcDbArc
50
250.19357612393736
51
261.04214917216956
0
ARC
5
506
100
AcDbEntity
8
0
100
AcDbCircle
10
375.10928800127596
20
311.90043363047664
30
0
40
482.47959075341277
210
0
220
0
230
1
100
AcDbArc
50
232.71519729331754
51
239.00852748441162
0
ARC
5
507
100
AcDbEntity
8
0
100
AcDbCircle
10
231.10469775735299
20
437.80788971497975
30
0
40
485.00029914409924
210
0
220
0
230
1
100
AcDbArc
50
253.88326245707555
51
261.18167230312361
0
ARC
5
508
100
AcDbEntity
8
0
100
AcDbCircle
10
327.22544267034539
20
177.68530513833502
30
0
40
349.36846566414192
210
0
220
0
230
1
100
AcDbArc
50
225.6112297527975
51
234.35846685577255
0
ARC
5
509
100
AcDbEntity
8
0
100
AcDbCircle
10
110.79365357990434
20
204.48563590124647
30
0
40
219.31973626684479
210
0
220
0
230
1
100
AcDbArc
50
257.94804365104625
51
266.17216950785263
0
ARC
5
510
100
AcDbEntity
8
0
100
AcDbCircle
10
151.39811183514348
20
211.90445356758008
30
0
40
246.23973655020879
210
0
220
0
230
1
100
AcDbArc
50
243.19038673833919
51
257.11093916302048
0
ARC
5
511
100
AcDbEntity
8
0
100
AcDbCircle
10
192.51406363164503
20
354.33430303027541
30
0
40
386.25196486742681
210
0
220
0
230
1
100
AcDbArc
50
255.21237065552305
51
265.01369309613983
0
ARC
5
512
100
AcDbEntity
8
0
100
AcDbCircle
10
282.73771799555175
20
119.19418689884094
30
0
40
281.5906587820358
210
0
220
0
230
1
100
AcDbArc
50
220.23436747807295
51
234.81791608182692
0
ARC
5
513
100
AcDbEntity
8
0
100
AcDbCircle
10
291.44972325925727
20
228.83601167626227
30
0
40
358.91962890496279
210
0
220
0
230
1
100
AcDbArc
50
226.84910360049065
51
235.05639308993798
0
ARC
5
514
100
AcDbEntity
8
0
100
AcDbCircle
10
278.6714086336695
20
367.36230180317102
30
0
40
450.00000000000006
210
0
220
0
230
1
100
AcDbArc
50
244.65889752285975
51
253.60330108020543
0
ARC
5
515
100
AcDbEntity
8
0
100
AcDbCircle
10
275.77231824528576
20
233.20488892645966
30
0
40
342.53576699892574
210
0
220
0
230
1
100
AcDbArc
50
237.49687910457803
51
246.69433856111894
0
ARC
5
516
100
AcDbEntity
8
0
100
AcDbCircle
10
286.35268205181029
20
140.34212177235156
30
0
40
301.66542304531583
210
0
220
0
230
1
100
AcDbArc
50
219.28823148259772
51
236.57401032254052
0
ARC
5
517
100
AcDbEntity
8
0
100
AcDbCircle
10
346.76186583344077
20
342.11628502643714
30
0
40
469.97251516698452
210
0
220
0
230
1
100
AcDbArc
50
234.47618189565227
51
244.0247324234472
0
ARC
5
518
100
AcDbEntity
8
0
100
AcDbCircle
10
305.34002056201552
20
291.5514127434904
30
0
40
400.00000000000011
210
0
220
0
230
1
100
AcDbArc
50
237.18777952418611
51
246.31787920503822
0
ARC
5
519
100
AcDbEntity
8
0
100
AcDbCircle
10
154.35390523211692
20
288.86435369368053
30
0
40
300.4068370432451
210
0
220
0
230
1
100
AcDbArc
50
258.02031497446728
51
271.59723680140399
0
ARC
5
520
100
AcDbEntity
8
0
100
AcDbCircle
10
257.5450801575679
20
165.81087295668021
30
0
40
295.0710558157956
210
0
220
0
230
1
100
AcDbArc
50
222.20301843681492
51
233.69396112099648
0
ARC
5
521
100
AcDbEntity
8
0
100
AcDbCircle
10
315.82988940104434
20
264.35075483611183
30
0
40
394.95454251119497
210
0
220
0
230
1
100
AcDbArc
50
234.31049611858936
51
242.95180954373308
0
ARC
5
522
100
AcDbEntity
8
0
100
AcDbCircle
10
210.43822307567916
20
179.95025376533246
30
0
40
260.17951844730527
210
0
220
0
230
1
100
AcDbArc
50
234.01407397054157
51
240.71613534305308
0
ARC
5
523
100
AcDbEntity
8
0
100
AcDbCircle
10
349.2896353084468
20
247.40663946285352
30
0
40
413.08982171996144
210
0
220
0
230
1
100
AcDbArc
50
228.03135651738731
51
237.47865051653565
0
ARC
5
524
100
AcDbEntity
8
0
100
AcDbCircle
10
270.11167401636948
20
184.1996476135773
30
0
40
313.58631105534118
210
0
220
0
230
1
100
AcDbArc
50
231.06608673093149
51
243.50027523536403
0
ARC
5
525
100
AcDbEntity
8
0
100
AcDbCircle
10
342.39730658073876
20
232.04810296283668
30
0
40
402.85366301566216
210
0
220
0
230
1
100
AcDbArc
50
227.02278390353305
51
237.11129376091301
0
ARC
5
526
100
AcDbEntity
8
0
100
AcDbCircle
10
283.18088064525091
20
215.55946015800029
30
0
40
348.03445398821555
210
0
220
0
230
1
100
AcDbArc
50
225.43654301297272
51
235.95394896440672
0
ARC
5
527
100
AcDbEntity
8
0
100
AcDbCircle
10
312.36880304656358
20
210.62761818195645
30
0
40
357.04230816533988
210
0
220
0
230
1
100
AcDbArc
50
227.6967238353684
51
239.32017523059696
0
ARC
5
528
100
AcDbEntity
8
0
100
AcDbCircle
10
230.42046086716599
20
175.68243570907742
30
0
40
278.52179902022948
210
0
220
0
230
1
100
AcDbArc
50
228.53029391502972
51
235.34904244742503
0
ARC
5
529
100
AcDbEntity
8
0
100
AcDbCircle
10
-45.682270311402391
20
380.98030066399576
30
0
40
362.73612158818321
210
0
220
0
230
1
100
AcDbArc
50
290.45171374473188
51
301.87817178406868
0
ARC
5
530
100
AcDbEntity
8
0
100
AcDbCircle
10
84.728123702321554
20
304.43437208585573
30
0
40
284.36277069900456
210
0
220
0
230
1
100
AcDbArc
50
273.13888117464387
51
285.14924438531489
0
ARC
5
531
100
AcDbEntity
8
0
100
AcDbCircle
10
-110.66536967357962
20
465.46836695133521
30
0
40
470.33827632119227
210
0
220
0
230
1
100
AcDbArc
50
295.82602622257571
51
303.17063406714846
0
ARC
5
532
100
AcDbEntity
8
0
100
AcDbCircle
10
121.4861781964876
20
390.57305809236038
30
0
40
392.00448446193116
210
0
220
0
230
1
100
AcDbArc
50
262.92772262680245
51
276.34479357462834
0
LWPOLYLINE
5
533
100
AcDbEntity
8
0
100
AcDbPolyline
90
4
70
1
43
0.0
10
30.405592044100196
20
28.991378460653614
42
0.05681835289106589
10
68.589358797156194
20
65.760931630263144
42
0.043097488758300578
10
120.1211307196713
20
111.51155622752484
42
-0.038188631139326155
10
68.589358797156365
20
61.518290879923697
42
-0.051876981434977057
0
ARC
5
534
100
AcDbEntity
8
0
100
AcDbCircle
10
-44.533712954242063
20
361.38507673069466
30
0
40
340.00145723732521
210
0
220
0
230
1
100
AcDbArc
50
292.96181438678911
51
303.42698781087324
0
ARC
5
535
100
AcDbEntity
8
0
100
AcDbCircle
10
45.153164793777485
20
369.69580018258387
30
0
40
359.18289027728008
210
0
220
0
230
1
100
AcDbArc
50
276.97009782619614
51
288.51470221303305
0
ARC
5
536
100
AcDbEntity
8
0
100
AcDbCircle
10
-155.76134860712273
20
429.03727173196512
30
0
40
433.75687340438913
210
0
220
0
230
1
100
AcDbArc
50
301.4074585397708
51
310.76575700397109
0
ARC
5
537
100
AcDbEntity
8
0
100
AcDbCircle
10
-77.660594521143366
20
561.15926354115641
30
0
40
550.00000000000659
210
0
220
0
230
1
100
AcDbArc
50
287.61724075173902
51
294.76352583822279
0
ARC
5
538
100
AcDbEntity
8
0
100
AcDbCircle
10
-195.44250704314064
20
366.86033325390247
30
0
40
400.46682239259491
210
0
220
0
230
1
100
AcDbArc
50
311.24728688689316
51
321.26420703691599
0
ARC
5
539
100
AcDbEntity
8
0
100
AcDbCircle
10
-187.2420251953456
20
481.13241096006834
30
0
40
499.59477532389207
210
0
220
0
230
1
100
AcDbArc
50
302.08528000009375
51
309.51836740668341
0
ARC
5
540
100
AcDbEntity
8
0
100
AcDbCircle
10
-39.535509609202002
20
413.12598667615009
30
0
40
394.39705552894179
210
0
220
0
230
1
100
AcDbArc
50
289.82641689027588
51
298.68519224977371
0
ARC
5
541
100
AcDbEntity
8
0
100
AcDbCircle
10
-82.395554025045811
20
551.9608875933103
30
0
40
550.00000000000011
210
0
220
0
230
1
100
AcDbArc
50
288.72804234080706
51
295.45436585542546
0
ARC
5
542
100
AcDbEntity
8
0
100
AcDbCircle
10
-120.21911524377973
20
352.39580152045323
30
0
40
362.17447688444508
210
0
220
0
230
1
100
AcDbArc
50
296.86820504761289
51
306.03863616208258
0
ARC
5
543
100
AcDbEntity
8
0
100
AcDbCircle
10
-96.972583850559175
20
417.48241523943864
30
0
40
400.00000000000011
210
0
220
0
230
1
100
AcDbArc
50
295.96133005551405
51
305.25684145514339
0
ARC
5
544
100
AcDbEntity
8
0
100
AcDbCircle
10
18.48646829501579
20
369.46182163709693
30
0
40
359.41831035130633
210
0
220
0
230
1
100
AcDbArc
50
273.08950932734916
51
284.09976610694213
0
ARC
5
545
100
AcDbEntity
8
0
100
AcDbCircle
10
-27.148731171695868
20
335.79488184741172
30
0
40
325.69459912239677
210
0
220
0
230
1
100
AcDbArc
50
282.56000956269827
51
293.3433987971037
0
ARC
5
546
100
AcDbEntity
8
0
100
AcDbCircle
10
-119.27707114759204
20
456.39452654670669
30
0
40
450.00000000000171
210
0
220
0
230
1
100
AcDbArc
50
296.2766194472685
51
304.69804877582305
0
ARC
5
547
100
AcDbEntity
8
0
100
AcDbCircle
10
-47.899221321983191
20
355.03207846009934
30
0
40
330.90018385732157
210
0
220
0
230
1
100
AcDbArc
50
295.10634008028472
51
304.51380380172407
0
ARC
5
548
100
AcDbEntity
8
0
100
AcDbCircle
10
-39.876534319564776
20
516.23636245424655
30
0
40
500.00000000000028
210
0
220
0
230
1
100
AcDbArc
50
284.89823428873916
51
292.81352896345987
0
ARC
5
549
100
AcDbEntity
8
0
100
AcDbCircle
10
-194.323660043796
20
486.01022893881236
30
0
40
500.80688581410476
210
0
220
0
230
1
100
AcDbArc
50
303.74322274130043
51
309.86992788299403
0
ARC
5
550
100
AcDbEntity
8
0
100
AcDbCircle
10
-72.910514967385538
20
426.56386061409506
30
0
40
429.33784689159415
210
0
220
0
230
1
100
AcDbArc
50
288.35961981193617
51
292.90600098774212
0
ARC
5
551
100
AcDbEntity
8
0
100
AcDbCircle
10
-28.764935171973676
20
269.77766107590162
30
0
40
254.69427638353156
210
0
220
0
230
1
100
AcDbArc
50
284.28636723980065
51
298.01342689130502
0
ARC
5
552
100
AcDbEntity
8
0
100
AcDbCircle
10
-38.69058771315467
20
304.32732289114347
30
0
40
298.04065285241552
210
0
220
0
230
1
100
AcDbArc
50
286.04338799680096
51
297.87453440129889
0
ARC
5
553
100
AcDbEntity
8
0
100
AcDbCircle
10
-176.00646780608668
20
307.00567159655668
30
0
40
349.6366753491493
210
0
220
0
230
1
100
AcDbArc
50
308.98625098137904
51
314.78126392976787
0
ARC
5
554
100
AcDbEntity
8
0
100
AcDbCircle
10
-130.93118732195791
20
574.32961035430048
30
0
40
580.56360904975986
210
0
220
0
230
1
100
AcDbArc
50
292.2395687975756
51
298.96928724426448
0
ARC
5
555
100
AcDbEntity
8
0
100
AcDbCircle
10
-60.1111241295472
20
571.17945891037255
30
0
40
565.43201764345417
210
0
220
0
230
1
100
AcDbArc
50
284.41610780734118
51
292.40122369638158
0
ARC
5
556
100
AcDbEntity
8
0
100
AcDbCircle
10
2.1573676745983761
20
324.50135172147981
30
0
40
315.95881980166047
210
0
220
0
230
1
100
AcDbArc
50
276.48772618206283
51
288.84593354564601
0
ARC
5
557
100
AcDbEntity
8
0
100
AcDbCircle
10
-57.488060753956361
20
239.58306850736057
30
0
40
229.11190305223619
210
0
220
0
230
1
100
AcDbArc
50
298.84155011089251
51
309.66427793210011
0
ARC
5
558
100
AcDbEntity
8
0
100
AcDbCircle
10
-89.680132563196025
20
338.86128682546172
30
0
40
336.96212434548704
210
0
220
0
230
1
100
AcDbArc
50
293.27375229947836
51
302.72853745204429
0
ARC
5
559
100
AcDbEntity
8
0
100
AcDbCircle
10
82.720665475858596
20
294.67761971712224
30
0
40
270.05386452837109
210
0
220
0
230
1
100
AcDbArc
50
274.56618245515148
51
286.1803318522754
0
ARC
5
560
100
AcDbEntity
8
0
100
AcDbCircle
10
-233.37198760842767
20
457.6096411692476
30
0
40
501.20848978222466
210
0
220
0
230
1
100
AcDbArc
50
309.26700586802576
51
315.44979900701799
0
ARC
5
561
100
AcDbEntity
8
0
100
AcDbCircle
10
-183.96965268731117
20
524.96685488950038
30
0
40
530.96389945202668
210
0
220
0
230
1
100
AcDbArc
50
298.60982197853576
51
306.24767441694803
0
ARC
5
562
100
AcDbEntity
8
0
100
AcDbCircle
10
-57.512215470770286
20
291.03885434826736
30
0
40
288.66825218726569
210
0
220
0
230
1
100
AcDbArc
50
291.9432105902689
51
302.68000167555653
0
ARC
5
563
100
AcDbEntity
8
0
100
AcDbCircle
10
-114.37839730243924
20
267.14245492135996
30
0
40
280.80791362448815
210
0
220
0
230
1
100
AcDbArc
50
304.32411849912472
51
313.64672419713276
0
ARC
5
564
100
AcDbEntity
8
0
100
AcDbCircle
10
-91.470222135203315
20
365.83525260888598
30
0
40
360.85862899384887
210
0
220
0
230
1
100
AcDbArc
50
300.65163385856562
51
309.25802950130247
0
ARC
5
565
100
AcDbEntity
8
0
100
AcDbCircle
10
-7.3604877511215072
20
218.3542259655367
30
0
40
203.43125530316198
210
0
220
0
230
1
100
AcDbArc
50
286.48307189457842
51
299.96022267042906
0
ARC
5
566
100
AcDbEntity
8
0
100
AcDbCircle
10
-80.361346761714216
20
384.25516207833869
30
0
40
379.22002174743312
210
0
220
0
230
1
100
AcDbArc
50
295.19357612393736
51
306.04214917216956
0
ARC
5
567
100
AcDbEntity
8
0
100
AcDbCircle
10
44.695409556625165
20
485.7892329068946
30
0
40
482.47959075341271
210
0
220
0
230
1
100
AcDbArc
50
277.71519729331754
51
284.00852748441162
0
ARC
5
568
100
AcDbEntity
8
0
100
AcDbCircle
10
-146.16122872614253
20
472.99262662272611
30
0
40
485.00029914409913
210
0
220
0
230
1
100
AcDbArc
50
298.8832624570756
51
306.18167230312355
0
ARC
5
569
100
AcDbEntity
8
0
100
AcDbCircle
10
105.74084530845342
20
357.02581366948863
30
0
40
349.36846566414181
210
0
220
0
230
1
100
AcDbArc
50
270.61122975279756
51
279.35846685577258
0
ARC
5
570
100
AcDbEntity
8
0
100
AcDbCircle
10
-66.250236042231151
20
222.93612355979829
30
0
40
219.31973626684481
210
0
220
0
230
1
100
AcDbArc
50
302.94804365104625
51
311.17216950785269
0
ARC
5
571
100
AcDbEntity
8
0
100
AcDbCircle
10
-42.784444543796511
20
256.89370761873499
30
0
40
246.23973655020876
210
0
220
0
230
1
100
AcDbArc
50
288.19038673833916
51
302.11093916302053
0
ARC
5
572
100
AcDbEntity
8
0
100
AcDbCircle
10
-114.42418861200208
20
386.68018834743151
30
0
40
386.25196486742686
210
0
220
0
230
1
100
AcDbArc
50
300.21237065552305
51
310.01369309613989
0
ARC
5
573
100
AcDbEntity
8
0
100
AcDbCircle
10
115.64273985767726
20
284.20877552605157
30
0
40
281.59065878203575
210
0
220
0
230
1
100
AcDbArc
50
265.2343674780729
51
279.81791608182687
0
ARC
5
574
100
AcDbEntity
8
0
100
AcDbCircle
10
44.274580055594441
20
367.89757132753255
30
0
40
358.91962890496279
210
0
220
0
230
1
100
AcDbArc
50
271.84910360049065
51
280.05639308993801
0
ARC
5
575
100
AcDbEntity
8
0
100
AcDbCircle
10
-62.71393198964617
20
456.81481752499633
30
0
40
450.00000000000006
210
0
220
0
230
1
100
AcDbArc
50
289.65889752285977
51
298.60330108020548
0
ARC
5
576
100
AcDbEntity
8
0
100
AcDbCircle
10
30.099717929021033
20
359.90123466053149
30
0
40
342.53576699892585
210
0
220
0
230
1
100
AcDbArc
50
282.49687910457806
51
291.69433856111891
0
ARC
5
577
100
AcDbEntity
8
0
100
AcDbCircle
10
103.24505729845245
20
301.71878928112841
30
0
40
301.66542304531583
210
0
220
0
230
1
100
AcDbArc
50
264.28823148259778
51
281.57401032254052
0
ARC
5
578
100
AcDbEntity
8
0
100
AcDbCircle
10
3.2849216911823831
20
487.11041188426918
30
0
40
469.97251516698452
210
0
220
0
230
1
100
AcDbArc
50
279.4761818956523
51
289.02473242344723
0
ARC
5
579
100
AcDbEntity
8
0
100
AcDbCircle
10
9.7500180916009427
20
422.06598012248105
30
0
40
400.00000000000011
210
0
220
0
230
1
100
AcDbArc
50
282.18777952418611
51
291.31787920503825
0
ARC
5
580
100
AcDbEntity
8
0
100
AcDbCircle
10
-95.113250247615241
20
313.40263643212643
30
0
40
300.4068370432451
210
0
220
0
230
1
100
AcDbArc
50
303.02031497446734
51
316.59723680140394
0
ARC
5
581
100
AcDbEntity
8
0
100
AcDbCircle
10
64.865879978519501
20
299.35786530277886
30
0
40
295.0710558157956
210
0
220
0
230
1
100
AcDbArc
50
267.20301843681494
51
278.69396112099651
0
ARC
5
582
100
AcDbEntity
8
0
100
AcDbCircle
10
36.401245140478515
20
410.24966785327297
30
0
40
394.95454251119492
210
0
220
0
230
1
100
AcDbArc
50
279.31049611858936
51
287.95180954373308
0
ARC
5
583
100
AcDbEntity
8
0
100
AcDbCircle
10
21.558249843953501
20
276.04633927136672
30
0
40
260.17951844730527
210
0
220
0
230
1
100
AcDbArc
50
279.01407397054157
51
285.71613534305311
0
ARC
5
584
100
AcDbEntity
8
0
100
AcDbCircle
10
72.042157250019869
20
421.92798219953784
30
0
40
413.08982171996144
210
0
220
0
230
1
100
AcDbArc
50
273.03135651738734
51
282.47865051653565
0
ARC
5
585
100
AcDbEntity
8
0
100
AcDbCircle
10
60.748976454892073
20
321.24661629435798
30
0
40
313.58631105534124
210
0
220
0
230
1
100
AcDbArc
50
276.06608673093149
51
288.50027523536397
0
ARC
5
586
100
AcDbEntity
8
0
100
AcDbCircle
10
78.02867017675365
20
406.19424450974566
30
0
40
402.85366301566216
210
0
220
0
230
1
100
AcDbArc
50
272.02278390353302
51
282.11129376091304
0
ARC
5
587
100
AcDbEntity
8
0
100
AcDbCircle
10
47.815564980001867
20
352.66267703326866
30
0
40
348.0344539882156
210
0
220
0
230
1
100
AcDbArc
50
270.43654301297272
51
280.95394896440678
0
ARC
5
588
100
AcDbEntity
8
0
100
AcDbCircle
10
71.941881743717815
20
369.81431598698248
30
0
40
357.04230816533988
210
0
220
0
230
1
100
AcDbArc
50
272.6967238353684
51
284.32017523059693
0
ARC
5
589
100
AcDbEntity
8
0
100
AcDbCircle
10
38.705628778044279
20
287.15811202856088
30
0
40
278.52179902022948
210
0
220
0
230
1
100
AcDbArc
50
273.53029391502969
51
280.34904244742501
0
ENDSEC
0
SECTION
2
OBJECTS
0
DICTIONARY
5
C
100
AcDbDictionary
3
ACAD_GROUP
350
D
3
ACAD_MLINESTYLE
350
17
0
DICTIONARY
5
D
100
AcDbDictionary
0
DICTIONARY
5
1A
330
C
100
AcDbDictionary
0
DICTIONARY
5
17
100
AcDbDictionary
0
ENDSEC
0
EOF
