0
SECTION
2
HEADER
9
$INSUNITS
70
4
9
$ACADVER
1
AC1014
9
$HANDSEED
5
FFFF
0
ENDSEC
0
SECTION
2
TABLES
0
TABLE
2
VPORT
5
8
100
AcDbSymbolTable
0
ENDTAB
0
TABLE
2
LTYPE
5
5
100
AcDbSymbolTable
0
LTYPE
5
14
100
AcDbSymbolTableRecord
100
AcDbLinetypeTableRecord
2
BYBLOCK
70
0
0
LTYPE
5
15
100
AcDbSymbolTableRecord
100
AcDbLinetypeTableRecord
2
BYLAYER
70
0
0
ENDTAB
0
TABLE
2
LAYER
5
2
100
AcDbSymbolTable
70
2
0
LAYER
5
50
100
AcDbSymbolTableRecord
100
AcDbLayerTableRecord
2
0
70
0
6
CONTINUOUS
0
ENDTAB
0
TABLE
2
STYLE
5
3
100
AcDbSymbolTable
70
1
0
STYLE
5
11
100
AcDbSymbolTableRecord
100
AcDbTextStyleTableRecord
2
STANDARD
70
0
0
ENDTAB
0
TABLE
2
VIEW
5
6
100
AcDbSymbolTable
70
0
0
ENDTAB
0
TABLE
2
UCS
5
7
100
AcDbSymbolTable
70
0
0
ENDTAB
0
TABLE
2
APPID
5
9
100
AcDbSymbolTable
70
2
0
APPID
5
12
100
AcDbSymbolTableRecord
100
AcDbRegAppTableRecord
2
ACAD
70
0
0
ENDTAB
0
TABLE
2
DIMSTYLE
5
A
100
AcDbSymbolTable
70
1
0
ENDTAB
0
TABLE
2
BLOCK_RECORD
5
1
100
AcDbSymbolTable
70
1
0
BLOCK_RECORD
5
1F
100
AcDbSymbolTableRecord
100
AcDbBlockTableRecord
2
*MODEL_SPACE
0
BLOCK_RECORD
5
1B
100
AcDbSymbolTableRecord
100
AcDbBlockTableRecord
2
*PAPER_SPACE
0
ENDTAB
0
ENDSEC
0
SECTION
2
BLOCKS
0
BLOCK
5
20
100
AcDbEntity
100
AcDbBlockBegin
2
*MODEL_SPACE
0
ENDBLK
5
21
100
AcDbEntity
100
AcDbBlockEnd
0
BLOCK
5
1C
100
AcDbEntity
100
AcDbBlockBegin
2
*PAPER_SPACE
0
ENDBLK
5
1D
100
AcDbEntity
100
AcDbBlockEnd
0
ENDSEC
0
SECTION
2
ENTITIES
0
LWPOLYLINE
5
100
100
AcDbEntity
8
0
100
AcDbPolyline
90
4
70
1
43
0.0
10
-97.130137808091092
20
94.725848264247418
10
-95.225376463412687
20
97.114343443187252
10
-83.497904226392237
20
87.761996415306243
10
-85.402665571070656
20
85.373501236366423
0
LWPOLYLINE
5
101
100
AcDbEntity
8
0
100
AcDbPolyline
90
4
70
1
43
0.0
10
127.93143408289941
20
46.180257670272518
10
128.61123553613595
20
43.201852898557043
10
113.98731685340861
20
39.864038889212338
10
113.30751540017206
20
42.842443660927799
0
CIRCLE
5
102
100
AcDbEntity
8
0
100
AcDbCircle
10
0
20
0
30
0
40
20
210
0
220
-0
230
1
0
LWPOLYLINE
5
103
100
AcDbEntity
8
0
100
AcDbPolyline
90
4
70
1
43
0.0
10
-73.489844388994868
20
114.44785186573543
10
-70.737384497552981
20
115.77336668873957
10
-64.229128410789627
20
102.25883367020329
10
-66.981588302231501
20
100.93331884719916
0
LWPOLYLINE
5
104
100
AcDbEntity
8
0
100
AcDbPolyline
90
4
70
1
43
0.0
10
-115.86912380295533
20
71.227903058670819
10
-113.9643624582769
20
73.616398237610639
10
-102.23689022125647
20
64.264051209729629
10
-104.14165156593491
20
61.875556030789809
0
LWPOLYLINE
5
105
100
AcDbEntity
8
0
100
AcDbPolyline
90
4
70
1
43
0.0
10
-70.737384497553023
20
-115.77336668873953
10
-73.489844388994911
20
-114.44785186573539
10
-66.981588302231529
20
-100.93331884719909
10
-64.229128410789656
20
-102.25883367020324
0
LWPOLYLINE
5
106
100
AcDbEntity
8
0
100
AcDbPolyline
90
4
70
1
43
0.0
10
43.658765172745831
20
128.81374246791776
10
46.411225064187718
20
127.48822764491364
10
39.902968977424322
20
113.97369462637735
10
37.150509085982442
20
115.29920944938149
0
LWPOLYLINE
5
107
100
AcDbEntity
8
0
100
AcDbPolyline
90
4
70
1
43
0.0
10
13.5
20
135
10
16.555
20
135
10
16.555
20
120
10
13.500000000000014
20
120
0
LWPOLYLINE
5
108
100
AcDbEntity
8
0
100
AcDbPolyline
90
4
70
1
43
0.0
10
-43.658765172745845
20
-128.81374246791773
10
-46.411225064187732
20
-127.48822764491359
10
-39.902968977424344
20
-113.97369462637732
10
-37.15050908598247
20
-115.29920944938146
0
LWPOLYLINE
5
109
100
AcDbEntity
8
0
100
AcDbPolyline
90
4
70
1
43
0.0
10
135.29910220619297
20
-13.900394497932393
10
134.61930075295643
20
-16.878799269647864
10
119.99538207022907
20
-13.540985260303129
10
120.67518352346561
20
-10.562580488587672
0
LWPOLYLINE
5
110
100
AcDbEntity
8
0
100
AcDbPolyline
90
4
70
1
43
0.0
10
-95.225376463412715
20
-97.114343443187252
10
-97.130137808091149
20
-94.725848264247418
10
-85.402665571070685
20
-85.373501236366408
10
-83.497904226392279
20
-87.761996415306228
0
LWPOLYLINE
5
111
100
AcDbEntity
8
0
100
AcDbPolyline
90
4
70
1
43
0.0
10
-128.61123553613595
20
43.201852898557107
10
-127.93143408289941
20
46.180257670272567
10
-113.30751540017205
20
42.842443660927856
10
-113.9873168534086
20
39.864038889212395
0
LWPOLYLINE
5
112
100
AcDbEntity
8
0
100
AcDbPolyline
90
4
70
1
43
0.0
10
134.61930075295643
20
16.878799269647828
10
135.29910220619297
20
13.900394497932361
10
120.67518352346562
20
10.562580488587642
10
119.9953820702291
20
13.540985260303103
0
LWPOLYLINE
5
113
100
AcDbEntity
8
0
100
AcDbPolyline
90
4
70
1
43
0.0
10
16.554999999999986
20
-135
10
13.499999999999986
20
-135
10
13.5
20
-120
10
16.554999999999986
20
-120
0
LWPOLYLINE
5
114
100
AcDbEntity
8
0
100
AcDbPolyline
90
4
70
1
43
0.0
10
-13.499999999999998
20
-120
10
-13.499999999999986
20
-135
10
-16.554999999999986
20
-135
10
-16.554999999999986
20
-120
0
LWPOLYLINE
5
115
100
AcDbEntity
8
0
100
AcDbPolyline
90
4
70
1
43
0.0
10
97.130137808091121
20
-94.725848264247432
10
95.225376463412701
20
-97.114343443187252
10
83.497904226392251
20
-87.761996415306243
10
85.402665571070656
20
-85.373501236366437
0
LWPOLYLINE
5
116
100
AcDbEntity
8
0
100
AcDbPolyline
90
4
70
1
43
0.0
10
73.489844388994882
20
-114.4478518657354
10
70.737384497552995
20
-115.77336668873954
10
64.229128410789627
20
-102.25883367020327
10
66.981588302231515
20
-100.93331884719913
0
LWPOLYLINE
5
117
100
AcDbEntity
8
0
100
AcDbPolyline
90
4
70
1
43
0.0
10
128.61123553613592
20
-43.201852898557071
10
127.93143408289939
20
-46.180257670272539
10
113.30751540017204
20
-42.84244366092782
10
113.98731685340857
20
-39.864038889212367
0
LWPOLYLINE
5
118
100
AcDbEntity
8
0
100
AcDbPolyline
90
4
70
1
43
0.0
10
-113.96436245827692
20
-73.616398237610625
10
-115.86912380295536
20
-71.22790305867079
10
-104.14165156593491
20
-61.875556030789795
10
-102.23689022125649
20
-64.264051209729601
0
LWPOLYLINE
5
119
100
AcDbEntity
8
0
100
AcDbPolyline
90
4
70
1
43
0.0
10
-16.554999999999968
20
135
10
-13.49999999999997
20
135
10
-13.499999999999986
20
120
10
-16.554999999999971
20
120
0
LWPOLYLINE
5
120
100
AcDbEntity
8
0
100
AcDbPolyline
90
4
70
1
43
0.0
10
46.411225064187704
20
-127.48822764491362
10
43.658765172745817
20
-128.81374246791776
10
37.150509085982442
20
-115.29920944938146
10
39.902968977424315
20
-113.97369462637734
0
LWPOLYLINE
5
121
100
AcDbEntity
8
0
100
AcDbPolyline
90
4
70
1
43
0.0
10
95.225376463412701
20
97.114343443187266
10
97.130137808091135
20
94.725848264247432
10
85.402665571070685
20
85.373501236366437
10
83.497904226392279
20
87.761996415306257
0
LWPOLYLINE
5
122
100
AcDbEntity
8
0
100
AcDbPolyline
90
4
70
1
43
0.0
10
-135.29910220619297
20
13.900394497932423
10
-134.61930075295643
20
16.878799269647892
10
-119.99538207022908
20
13.540985260303152
10
-120.67518352346562
20
10.562580488587695
0
LWPOLYLINE
5
123
100
AcDbEntity
8
0
100
AcDbPolyline
90
4
70
1
43
0.0
10
70.737384497553009
20
115.77336668873956
10
73.489844388994911
20
114.44785186573542
10
66.981588302231529
20
100.93331884719913
10
64.229128410789656
20
102.25883367020329
0
LWPOLYLINE
5
124
100
AcDbEntity
8
0
100
AcDbPolyline
90
4
70
1
43
0.0
10
-134.61930075295643
20
-16.878799269647821
10
-135.29910220619297
20
-13.90039449793235
10
-120.67518352346561
20
-10.562580488587635
10
-119.99538207022907
20
-13.540985260303092
0
LWPOLYLINE
5
125
100
AcDbEntity
8
0
100
AcDbPolyline
90
4
70
1
43
0.0
10
-46.411225064187683
20
127.48822764491362
10
-43.658765172745788
20
128.81374246791776
10
-37.150509085982421
20
115.29920944938146
10
-39.902968977424294
20
113.97369462637734
0
LWPOLYLINE
5
126
100
AcDbEntity
8
0
100
AcDbPolyline
90
4
70
1
43
0.0
10
-127.93143408289939
20
-46.180257670272489
10
-128.61123553613592
20
-43.201852898557021
10
-113.98731685340857
20
-39.864038889212324
10
-113.30751540017204
20
-42.842443660927785
0
LWPOLYLINE
5
127
100
AcDbEntity
8
0
100
AcDbPolyline
90
4
70
1
43
0.0
10
113.96436245827694
20
73.616398237610639
10
115.86912380295536
20
71.227903058670819
10
104.14165156593491
20
61.875556030789802
10
102.23689022125649
20
64.264051209729615
0
LWPOLYLINE
5
128
100
AcDbEntity
8
0
100
AcDbPolyline
90
4
70
1
43
0.0
10
115.86912380295536
20
-71.227903058670819
10
113.96436245827692
20
-73.616398237610639
10
102.23689022125647
20
-64.264051209729629
10
104.14165156593491
20
-61.875556030789809
0
LWPOLYLINE
5
129
100
AcDbEntity
8
0
100
AcDbPolyline
90
16
70
1
43
0.0
10
21
20
145.12839143324095
42
0.37464850549909984
10
20.13651877133103
20
146.1190289174269
42
0.068580428337953359
10
-20.136518771331076
20
146.1190289174269
42
0.37464850549910184
10
-21.000000000000036
20
145.12839143324095
10
-21.000000000000011
20
142.00000000000006
10
-39.903007405457721
20
142
42
0.75772529996156557
10
-39.903007405457714
20
-141.99999999999994
10
-21.000000000000011
20
-142.00000000000006
10
-21
20
-145.12839143324095
42
0.37464850549909418
10
-20.136518771331055
20
-146.11902891742685
42
0.068580428337953261
10
20.136518771331016
20
-146.11902891742687
42
0.37464850549910672
10
20.999999999999996
20
-145.12839143324095
10
20.999999999999993
20
-142.00000000000006
10
39.903007405457693
20
-142
42
0.75772529996156601
10
39.90300740545765
20
141.99999999999997
10
20.999999999999993
20
142.00000000000006
0
ENDSEC
0
SECTION
2
OBJECTS
0
DICTIONARY
5
C
100
AcDbDictionary
3
ACAD_GROUP
350
D
3
ACAD_MLINESTYLE
350
17
0
DICTIONARY
5
D
100
AcDbDictionary
0
DICTIONARY
5
1A
330
C
100
AcDbDictionary
0
DICTIONARY
5
17
100
AcDbDictionary
0
ENDSEC
0
EOF
