0
SECTION
2
HEADER
9
$INSUNITS
70
4
9
$ACADVER
1
AC1014
9
$HANDSEED
5
FFFF
0
ENDSEC
0
SECTION
2
TABLES
0
TABLE
2
VPORT
5
8
100
AcDbSymbolTable
0
ENDTAB
0
TABLE
2
LTYPE
5
5
100
AcDbSymbolTable
0
LTYPE
5
14
100
AcDbSymbolTableRecord
100
AcDbLinetypeTableRecord
2
BYBLOCK
70
0
0
LTYPE
5
15
100
AcDbSymbolTableRecord
100
AcDbLinetypeTableRecord
2
BYLAYER
70
0
0
ENDTAB
0
TABLE
2
LAYER
5
2
100
AcDbSymbolTable
70
2
0
LAYER
5
50
100
AcDbSymbolTableRecord
100
AcDbLayerTableRecord
2
0
70
0
6
CONTINUOUS
0
ENDTAB
0
TABLE
2
STYLE
5
3
100
AcDbSymbolTable
70
1
0
STYLE
5
11
100
AcDbSymbolTableRecord
100
AcDbTextStyleTableRecord
2
STANDARD
70
0
0
ENDTAB
0
TABLE
2
VIEW
5
6
100
AcDbSymbolTable
70
0
0
ENDTAB
0
TABLE
2
UCS
5
7
100
AcDbSymbolTable
70
0
0
ENDTAB
0
TABLE
2
APPID
5
9
100
AcDbSymbolTable
70
2
0
APPID
5
12
100
AcDbSymbolTableRecord
100
AcDbRegAppTableRecord
2
ACAD
70
0
0
ENDTAB
0
TABLE
2
DIMSTYLE
5
A
100
AcDbSymbolTable
70
1
0
ENDTAB
0
TABLE
2
BLOCK_RECORD
5
1
100
AcDbSymbolTable
70
1
0
BLOCK_RECORD
5
1F
100
AcDbSymbolTableRecord
100
AcDbBlockTableRecord
2
*MODEL_SPACE
0
BLOCK_RECORD
5
1B
100
AcDbSymbolTableRecord
100
AcDbBlockTableRecord
2
*PAPER_SPACE
0
ENDTAB
0
ENDSEC
0
SECTION
2
BLOCKS
0
BLOCK
5
20
100
AcDbEntity
100
AcDbBlockBegin
2
*MODEL_SPACE
0
ENDBLK
5
21
100
AcDbEntity
100
AcDbBlockEnd
0
BLOCK
5
1C
100
AcDbEntity
100
AcDbBlockBegin
2
*PAPER_SPACE
0
ENDBLK
5
1D
100
AcDbEntity
100
AcDbBlockEnd
0
ENDSEC
0
SECTION
2
ENTITIES
0
LWPOLYLINE
5
100
100
AcDbEntity
8
0
100
AcDbPolyline
90
22
70
1
43
0.0
10
-24.940000000000001
20
-38.900891062183007
10
-24.940000000000001
20
-28.900891062161818
10
-21.884999999999998
20
-28.900891062161314
10
-21.884999999999998
20
-38.900891062183007
10
21.884999999999998
20
-38.900891062183007
10
21.884999999999998
20
-28.900891062161303
10
24.940000000000001
20
-28.900891062161303
10
24.940000000000001
20
-38.900891062183007
10
128.17499999999998
20
-38.900891062183
42
0.41421356237308854
10
131.17499999999993
20
-35.900891062183021
10
131.17500000000001
20
-21.900891062183021
42
0.4200840252083996
10
128.11500000000007
20
-18.901491122194997
10
128.11499999999998
20
-28.840891062183005
10
125.06
20
-28.840891062183005
10
125.06
20
-18.90089106218301
10
-125.06
20
-18.90089106218301
10
-125.06
20
-28.840891062183005
10
-128.11499999999998
20
-28.840891062183005
10
-128.11500000000001
20
-18.901491122193676
42
0.42008402520840266
10
-131.17500000000001
20
-21.900891062183042
10
-131.17499999999995
20
-35.900891062183042
42
0.41421356237308898
10
-128.17499999999998
20
-38.900891062183042
0
LWPOLYLINE
5
101
100
AcDbEntity
8
0
100
AcDbPolyline
90
6
70
1
43
0.0
10
-113.15769083880497
20
-33.546501082276947
42
0.77459666924147985
10
-117.26561002009385
20
-29.438581900988336
42
-0.45423154129608251
10
-112.36846002715113
20
-21.843512092968819
42
2.510846037909725
10
-105.56262103078581
20
-28.649351089333774
42
-0.16190739924810124
10
-107.26529745028478
20
-32.03145249622974
42
0.88191710368819476
10
-109.8293178752329
20
-33.543131781147338
42
-0.14145733488147097
0
CIRCLE
5
102
100
AcDbEntity
8
0
100
AcDbCircle
10
-110.7922330470337
20
-27.07312410921655
30
-2.2204460492503131e-15
40
3.0000000000000071
210
0
220
-0
230
1
0
CIRCLE
5
103
100
AcDbEntity
8
0
100
AcDbCircle
10
-112.56
20
-28.840891062183005
30
-2.2204460492503131e-15
40
7.5
210
0
220
2.775557561562892e-17
230
1
0
LWPOLYLINE
5
104
100
AcDbEntity
8
0
100
AcDbPolyline
90
6
70
1
43
0.0
10
117.2656100200939
20
-29.43858190098835
42
0.77459666924147985
10
113.15769083880497
20
-33.546501082276954
42
-0.14145733488147211
10
109.82931787523287
20
-33.543131781147345
42
0.88191710368819276
10
107.26529745028479
20
-32.031452496229726
42
-0.16190739924810171
10
105.56262103078583
20
-28.649351089333766
42
2.5108460379097268
10
112.36846002715113
20
-21.843512092968787
42
-0.45423154129608201
0
CIRCLE
5
105
100
AcDbEntity
8
0
100
AcDbCircle
10
110.7922330470337
20
-27.07312410921655
30
-2.2204460492503131e-15
40
3.0000000000000071
210
0
220
-0
230
1
0
CIRCLE
5
106
100
AcDbEntity
8
0
100
AcDbCircle
10
112.56
20
-28.840891062183005
30
-2.2204460492503131e-15
40
7.5
210
0
220
2.775557561562892e-17
230
1
0
ENDSEC
0
SECTION
2
OBJECTS
0
DICTIONARY
5
C
100
AcDbDictionary
3
ACAD_GROUP
350
D
3
ACAD_MLINESTYLE
350
17
0
DICTIONARY
5
D
100
AcDbDictionary
0
DICTIONARY
5
1A
330
C
100
AcDbDictionary
0
DICTIONARY
5
17
100
AcDbDictionary
0
ENDSEC
0
EOF
