0
SECTION
2
HEADER
9
$INSUNITS
70
4
9
$ACADVER
1
AC1014
9
$HANDSEED
5
FFFF
0
ENDSEC
0
SECTION
2
TABLES
0
TABLE
2
VPORT
5
8
100
AcDbSymbolTable
0
ENDTAB
0
TABLE
2
LTYPE
5
5
100
AcDbSymbolTable
0
LTYPE
5
14
100
AcDbSymbolTableRecord
100
AcDbLinetypeTableRecord
2
BYBLOCK
70
0
0
LTYPE
5
15
100
AcDbSymbolTableRecord
100
AcDbLinetypeTableRecord
2
BYLAYER
70
0
0
ENDTAB
0
TABLE
2
LAYER
5
2
100
AcDbSymbolTable
70
2
0
LAYER
5
50
100
AcDbSymbolTableRecord
100
AcDbLayerTableRecord
2
0
70
0
6
CONTINUOUS
0
ENDTAB
0
TABLE
2
STYLE
5
3
100
AcDbSymbolTable
70
1
0
STYLE
5
11
100
AcDbSymbolTableRecord
100
AcDbTextStyleTableRecord
2
STANDARD
70
0
0
ENDTAB
0
TABLE
2
VIEW
5
6
100
AcDbSymbolTable
70
0
0
ENDTAB
0
TABLE
2
UCS
5
7
100
AcDbSymbolTable
70
0
0
ENDTAB
0
TABLE
2
APPID
5
9
100
AcDbSymbolTable
70
2
0
APPID
5
12
100
AcDbSymbolTableRecord
100
AcDbRegAppTableRecord
2
ACAD
70
0
0
ENDTAB
0
TABLE
2
DIMSTYLE
5
A
100
AcDbSymbolTable
70
1
0
ENDTAB
0
TABLE
2
BLOCK_RECORD
5
1
100
AcDbSymbolTable
70
1
0
BLOCK_RECORD
5
1F
100
AcDbSymbolTableRecord
100
AcDbBlockTableRecord
2
*MODEL_SPACE
0
BLOCK_RECORD
5
1B
100
AcDbSymbolTableRecord
100
AcDbBlockTableRecord
2
*PAPER_SPACE
0
ENDTAB
0
ENDSEC
0
SECTION
2
BLOCKS
0
BLOCK
5
20
100
AcDbEntity
100
AcDbBlockBegin
2
*MODEL_SPACE
0
ENDBLK
5
21
100
AcDbEntity
100
AcDbBlockEnd
0
BLOCK
5
1C
100
AcDbEntity
100
AcDbBlockBegin
2
*PAPER_SPACE
0
ENDBLK
5
1D
100
AcDbEntity
100
AcDbBlockEnd
0
ENDSEC
0
SECTION
2
ENTITIES
0
LWPOLYLINE
5
100
100
AcDbEntity
8
0
100
AcDbPolyline
90
36
70
1
43
0.0
10
28.915202618970266
20
-84.939689655729836
42
0.45657267886731673
10
29.905076758534321
20
-83.797741820855407
10
25.000000000045411
20
-49.592157493905368
42
0.37308630665675319
10
9.8499999999972321
20
-36.459689655704722
10
0.5000000002270133
20
-36.459689655708985
10
0.50000000020269486
20
-44.459689655697716
10
9.8500000000202785
20
-44.459689655701354
10
9.8500000000202785
20
-84.459689655787869
10
0.50000000005542167
20
-84.459689655746843
10
0.50000000002028733
20
-92.459689655746828
10
-0.49999999997971273
20
-92.459689655742437
10
-0.49999999994458677
20
-84.459689655742437
10
-9.8499999999797332
20
-84.459689655701382
10
-9.8499999999797208
20
-44.459689655701354
10
-0.49999999985438803
20
-44.459689655696479
10
-0.49999999976522647
20
-36.459689655672193
10
-9.8499999999808878
20
-36.459689655725292
42
0.37308630665531634
10
-24.99999999996643
20
-49.59215749389972
10
-29.90507675855255
20
-83.797741820861518
42
0.45657267886797426
10
-28.915202618988481
20
-84.939689655737851
10
-26.16743596974246
20
-84.939689655732579
10
-26.167435969706307
20
-134.39968965558447
10
-32.490128060514209
20
-134.39968965560365
42
0.41421356237220663
10
-34.490128060508134
20
-136.39968965560368
10
-34.490128060508127
20
-154.45968965560979
10
-20.000000000000206
20
-154.45968965566098
10
-1.5275000000179184
20
-124.36192998159738
10
-1.5275000000206362
20
-104.45968965573165
10
1.5274999999793071
20
-104.45968965573169
10
1.5274999999928767
20
-124.36192998157038
10
19.999999999994074
20
-154.45968965565544
10
34.490128060507715
20
-154.45968965560022
10
34.490128060497554
20
-136.39968965558711
42
0.41421356237204532
10
32.490128060503622
20
-134.39968965558822
10
26.167435969694619
20
-134.39968965556906
10
26.16743596972271
20
-84.939689655725346
0
CIRCLE
5
101
100
AcDbEntity
8
0
100
AcDbCircle
10
4.999999999974662
20
-40.494689655734895
30
0
40
1.5500000000000007
210
0
220
0
230
1
0
CIRCLE
5
102
100
AcDbEntity
8
0
100
AcDbCircle
10
-4.9999999999902798
20
-40.494689655738412
30
0
40
1.5500000000000003
210
0
220
0
230
1
0
CIRCLE
5
103
100
AcDbEntity
8
0
100
AcDbCircle
10
4.9999999998326308
20
-88.424689655733715
30
0
40
1.5500000000000007
210
0
220
0
230
1
0
CIRCLE
5
104
100
AcDbEntity
8
0
100
AcDbCircle
10
-5.000000000166132
20
-88.424689655651804
30
0
40
1.5500000000000003
210
0
220
0
230
1
0
ENDSEC
0
SECTION
2
OBJECTS
0
DICTIONARY
5
C
100
AcDbDictionary
3
ACAD_GROUP
350
D
3
ACAD_MLINESTYLE
350
17
0
DICTIONARY
5
D
100
AcDbDictionary
0
DICTIONARY
5
1A
330
C
100
AcDbDictionary
0
DICTIONARY
5
17
100
AcDbDictionary
0
ENDSEC
0
EOF
