0
SECTION
2
HEADER
9
$INSUNITS
70
4
9
$ACADVER
1
AC1014
9
$HANDSEED
5
FFFF
0
ENDSEC
0
SECTION
2
TABLES
0
TABLE
2
VPORT
5
8
100
AcDbSymbolTable
0
ENDTAB
0
TABLE
2
LTYPE
5
5
100
AcDbSymbolTable
0
LTYPE
5
14
100
AcDbSymbolTableRecord
100
AcDbLinetypeTableRecord
2
BYBLOCK
70
0
0
LTYPE
5
15
100
AcDbSymbolTableRecord
100
AcDbLinetypeTableRecord
2
BYLAYER
70
0
0
ENDTAB
0
TABLE
2
LAYER
5
2
100
AcDbSymbolTable
70
2
0
LAYER
5
50
100
AcDbSymbolTableRecord
100
AcDbLayerTableRecord
2
0
70
0
6
CONTINUOUS
0
ENDTAB
0
TABLE
2
STYLE
5
3
100
AcDbSymbolTable
70
1
0
STYLE
5
11
100
AcDbSymbolTableRecord
100
AcDbTextStyleTableRecord
2
STANDARD
70
0
0
ENDTAB
0
TABLE
2
VIEW
5
6
100
AcDbSymbolTable
70
0
0
ENDTAB
0
TABLE
2
UCS
5
7
100
AcDbSymbolTable
70
0
0
ENDTAB
0
TABLE
2
APPID
5
9
100
AcDbSymbolTable
70
2
0
APPID
5
12
100
AcDbSymbolTableRecord
100
AcDbRegAppTableRecord
2
ACAD
70
0
0
ENDTAB
0
TABLE
2
DIMSTYLE
5
A
100
AcDbSymbolTable
70
1
0
ENDTAB
0
TABLE
2
BLOCK_RECORD
5
1
100
AcDbSymbolTable
70
1
0
BLOCK_RECORD
5
1F
100
AcDbSymbolTableRecord
100
AcDbBlockTableRecord
2
*MODEL_SPACE
0
BLOCK_RECORD
5
1B
100
AcDbSymbolTableRecord
100
AcDbBlockTableRecord
2
*PAPER_SPACE
0
ENDTAB
0
ENDSEC
0
SECTION
2
BLOCKS
0
BLOCK
5
20
100
AcDbEntity
100
AcDbBlockBegin
2
*MODEL_SPACE
0
ENDBLK
5
21
100
AcDbEntity
100
AcDbBlockEnd
0
BLOCK
5
1C
100
AcDbEntity
100
AcDbBlockBegin
2
*PAPER_SPACE
0
ENDBLK
5
1D
100
AcDbEntity
100
AcDbBlockEnd
0
ENDSEC
0
SECTION
2
ENTITIES
0
LWPOLYLINE
5
100
100
AcDbEntity
8
0
100
AcDbPolyline
90
26
70
1
43
0.0
10
47.062387344784106
20
-117.45968965560979
42
0.41421356237309681
10
44.062387344784071
20
-114.45968965560981
10
44.002387344784097
20
-114.45968965560982
10
44.002387344784097
20
-124.39968965560981
10
40.947387344783351
20
-124.39968965560981
10
40.947387344783365
20
-108.45968965570134
10
40.88738734478337
20
-108.45968965570135
42
-0.19258240356725756
10
35.887387344783271
20
-106.45968965570131
10
40.947387344783365
20
-106.45968965570131
10
40.947387344783365
20
-100.95968965570134
10
40.88738734478337
20
-100.95968965570134
42
-0.19258240356725767
10
35.887387344783278
20
-98.959689655701311
10
40.947387344783365
20
-98.959689655701311
10
40.947387344783365
20
-93.459689655701339
10
40.88738734478337
20
-93.459689655701339
42
-0.19258240356725767
10
35.887387344783278
20
-91.459689655701311
10
40.947387344783365
20
-91.459689655701311
10
40.947387344783365
20
-86.459689655701339
42
0.41421356237309437
10
38.947387344783372
20
-84.459689655701339
10
3.7208332873391692
20
-84.459689655701339
42
0.41421356237309515
10
1.7208332873391683
20
-86.459689655701339
10
1.7208332873391738
20
-154.45968965561036
10
39.002323314515507
20
-154.45968965560985
10
39.0023233145155
20
-134.45968965563378
10
44.062387344784099
20
-134.45968965563378
42
0.41421356237309587
10
47.062387344784106
20
-131.45968965563378
0
LWPOLYLINE
5
101
100
AcDbEntity
8
0
100
AcDbPolyline
90
5
70
1
43
0.0
10
17.72083328733919
20
-90.87858123286658
42
0.93232235931250584
10
8.6696921420430542
20
-101.0696012112582
10
16.291358080785383
20
-108.8584762320379
42
0.42058388562371141
10
19.150308493893295
20
-108.85847623203836
10
26.771974331944001
20
-101.06960131415853
42
0.93232236916025013
0
LWPOLYLINE
5
102
100
AcDbEntity
8
0
100
AcDbPolyline
90
5
70
1
43
0.0
10
18.435571459342384
20
-108.15908294393691
10
26.057237297393097
20
-100.37020802605707
42
0.99999999999999989
10
17.720833287339175
20
-92.212767275561731
42
0.99999999999999989
10
9.3844292772851912
20
-100.37020802605699
10
17.006095115336294
20
-108.15908294393644
42
0.42058411968436354
0
ENDSEC
0
SECTION
2
OBJECTS
0
DICTIONARY
5
C
100
AcDbDictionary
3
ACAD_GROUP
350
D
3
ACAD_MLINESTYLE
350
17
0
DICTIONARY
5
D
100
AcDbDictionary
0
DICTIONARY
5
1A
330
C
100
AcDbDictionary
0
DICTIONARY
5
17
100
AcDbDictionary
0
ENDSEC
0
EOF
