0
SECTION
2
HEADER
9
$INSUNITS
70
4
9
$ACADVER
1
AC1014
9
$HANDSEED
5
FFFF
0
ENDSEC
0
SECTION
2
TABLES
0
TABLE
2
VPORT
5
8
100
AcDbSymbolTable
0
ENDTAB
0
TABLE
2
LTYPE
5
5
100
AcDbSymbolTable
0
LTYPE
5
14
100
AcDbSymbolTableRecord
100
AcDbLinetypeTableRecord
2
BYBLOCK
70
0
0
LTYPE
5
15
100
AcDbSymbolTableRecord
100
AcDbLinetypeTableRecord
2
BYLAYER
70
0
0
ENDTAB
0
TABLE
2
LAYER
5
2
100
AcDbSymbolTable
70
2
0
LAYER
5
50
100
AcDbSymbolTableRecord
100
AcDbLayerTableRecord
2
0
70
0
6
CONTINUOUS
0
ENDTAB
0
TABLE
2
STYLE
5
3
100
AcDbSymbolTable
70
1
0
STYLE
5
11
100
AcDbSymbolTableRecord
100
AcDbTextStyleTableRecord
2
STANDARD
70
0
0
ENDTAB
0
TABLE
2
VIEW
5
6
100
AcDbSymbolTable
70
0
0
ENDTAB
0
TABLE
2
UCS
5
7
100
AcDbSymbolTable
70
0
0
ENDTAB
0
TABLE
2
APPID
5
9
100
AcDbSymbolTable
70
2
0
APPID
5
12
100
AcDbSymbolTableRecord
100
AcDbRegAppTableRecord
2
ACAD
70
0
0
ENDTAB
0
TABLE
2
DIMSTYLE
5
A
100
AcDbSymbolTable
70
1
0
ENDTAB
0
TABLE
2
BLOCK_RECORD
5
1
100
AcDbSymbolTable
70
1
0
BLOCK_RECORD
5
1F
100
AcDbSymbolTableRecord
100
AcDbBlockTableRecord
2
*MODEL_SPACE
0
BLOCK_RECORD
5
1B
100
AcDbSymbolTableRecord
100
AcDbBlockTableRecord
2
*PAPER_SPACE
0
ENDTAB
0
ENDSEC
0
SECTION
2
BLOCKS
0
BLOCK
5
20
100
AcDbEntity
100
AcDbBlockBegin
2
*MODEL_SPACE
0
ENDBLK
5
21
100
AcDbEntity
100
AcDbBlockEnd
0
BLOCK
5
1C
100
AcDbEntity
100
AcDbBlockBegin
2
*PAPER_SPACE
0
ENDBLK
5
1D
100
AcDbEntity
100
AcDbBlockEnd
0
ENDSEC
0
SECTION
2
ENTITIES
0
LWPOLYLINE
5
100
100
AcDbEntity
8
0
100
AcDbPolyline
90
64
70
1
43
0.0
10
38.670064030269792
20
-123.3106529192291
42
0.26794919243071835
10
34.67006403028028
20
-116.38244968895967
10
30.99999999996416
20
-114.26353723310606
42
-0.26794919243099863
10
29.999999999966779
20
-112.5314864255366
10
30.000000000003872
20
-108.45968965570135
10
27.900000000003871
20
-108.45968965570131
10
27.900000000003899
20
-106.45968965570133
10
30.000000000003901
20
-106.45968965570135
10
30.000000000003972
20
-100.95968965570135
10
27.900000000003971
20
-100.95968965570131
10
27.900000000003999
20
-98.959689655701311
10
30.000000000003997
20
-98.959689655701339
10
30.000000000004068
20
-93.459689655701368
10
27.90000000000407
20
-93.459689655701339
10
27.900000000004095
20
-91.459689655701339
10
30.000000000004093
20
-91.459689655701368
10
29.999999999996195
20
-84.459689655665002
10
24.999999999897256
20
-49.59215749346793
42
0.37308630664471776
10
9.850000000062769
20
-36.459689655714229
10
0.50000000001190981
20
-36.45968965570264
10
0.50000000000851175
20
-44.459689655704892
10
9.8499999999999961
20
-44.459689655701339
10
9.8499999999999943
20
-84.459689655787855
10
0.50000000000001488
20
-84.459689655701339
10
0.5000000000000111
20
-92.459689655701354
10
-0.4999999999999889
20
-92.459689655701354
10
-0.49999999999999289
20
-84.459689655701339
10
-9.8500000000000014
20
-84.459689655701339
10
-9.8500000000000014
20
-44.459689655701339
10
-0.49999999999548628
20
-44.45968965570448
10
-0.49999999997921662
20
-36.459689655755952
10
-9.8499999999999925
20
-36.45968965570097
42
0.37308630665517767
10
-25.00000000002618
20
-49.592157493908516
10
-30.000000000004185
20
-84.459689655701311
10
-30.000000000004093
20
-91.459689655701368
10
-27.900000000004095
20
-91.459689655701339
10
-27.90000000000407
20
-93.459689655701339
10
-30.000000000004068
20
-93.459689655701368
10
-30.000000000003997
20
-98.959689655701339
10
-27.900000000003999
20
-98.959689655701311
10
-27.900000000003971
20
-100.95968965570131
10
-30.000000000003972
20
-100.95968965570135
10
-30.000000000003901
20
-106.45968965570135
10
-27.900000000003899
20
-106.45968965570133
10
-27.900000000003871
20
-108.45968965570131
10
-30.000000000003872
20
-108.45968965570135
10
-30.000000000003823
20
-112.53148642549702
42
-0.26794919243107052
10
-31.000000000003467
20
-114.2635372330657
10
-34.670064030271199
20
-116.38244968888493
42
0.26794919243106896
10
-38.670064030269799
20
-123.31065291915962
10
-38.670064030269792
20
-154.45968965578953
10
-34.310064030269793
20
-154.45968965579505
10
-34.310064030269793
20
-134.45968965579456
10
-27.364935969734276
20
-134.45968965579456
10
-27.364935969734276
20
-154.45968965580374
10
-1.5275000000262429
20
-154.45968965583629
10
-1.527500000026254
20
-114.45968965583816
10
1.5274999999737453
20
-114.45968965583819
10
1.527499999973758
20
-154.45968965583444
10
27.364935969734276
20
-154.4596896557706
10
27.364935969734276
20
-134.45968965579456
10
34.310064030269793
20
-134.45968965579456
10
34.310064030269793
20
-154.45968965575341
10
38.670064030269792
20
-154.45968965578953
0
CIRCLE
5
101
100
AcDbEntity
8
0
100
AcDbCircle
10
4.999999999974662
20
-40.494689655734895
30
0
40
1.5500000000000007
210
0
220
0
230
1
0
CIRCLE
5
102
100
AcDbEntity
8
0
100
AcDbCircle
10
-5.0000000000142286
20
-40.49468965572845
30
0
40
1.5500000000000003
210
0
220
0
230
1
0
CIRCLE
5
103
100
AcDbEntity
8
0
100
AcDbCircle
10
4.999999999974662
20
-88.424689655667805
30
0
40
1.5500000000000007
210
0
220
0
230
1
0
CIRCLE
5
104
100
AcDbEntity
8
0
100
AcDbCircle
10
-5.0000000000142286
20
-88.424689655674229
30
0
40
1.5500000000000003
210
0
220
0
230
1
0
ENDSEC
0
SECTION
2
OBJECTS
0
DICTIONARY
5
C
100
AcDbDictionary
3
ACAD_GROUP
350
D
3
ACAD_MLINESTYLE
350
17
0
DICTIONARY
5
D
100
AcDbDictionary
0
DICTIONARY
5
1A
330
C
100
AcDbDictionary
0
DICTIONARY
5
17
100
AcDbDictionary
0
ENDSEC
0
EOF
