0
SECTION
2
HEADER
9
$INSUNITS
70
4
9
$ACADVER
1
AC1014
9
$HANDSEED
5
FFFF
0
ENDSEC
0
SECTION
2
TABLES
0
TABLE
2
VPORT
5
8
100
AcDbSymbolTable
0
ENDTAB
0
TABLE
2
LTYPE
5
5
100
AcDbSymbolTable
0
LTYPE
5
14
100
AcDbSymbolTableRecord
100
AcDbLinetypeTableRecord
2
BYBLOCK
70
0
0
LTYPE
5
15
100
AcDbSymbolTableRecord
100
AcDbLinetypeTableRecord
2
BYLAYER
70
0
0
ENDTAB
0
TABLE
2
LAYER
5
2
100
AcDbSymbolTable
70
2
0
LAYER
5
50
100
AcDbSymbolTableRecord
100
AcDbLayerTableRecord
2
0
70
0
6
CONTINUOUS
0
ENDTAB
0
TABLE
2
STYLE
5
3
100
AcDbSymbolTable
70
1
0
STYLE
5
11
100
AcDbSymbolTableRecord
100
AcDbTextStyleTableRecord
2
STANDARD
70
0
0
ENDTAB
0
TABLE
2
VIEW
5
6
100
AcDbSymbolTable
70
0
0
ENDTAB
0
TABLE
2
UCS
5
7
100
AcDbSymbolTable
70
0
0
ENDTAB
0
TABLE
2
APPID
5
9
100
AcDbSymbolTable
70
2
0
APPID
5
12
100
AcDbSymbolTableRecord
100
AcDbRegAppTableRecord
2
ACAD
70
0
0
ENDTAB
0
TABLE
2
DIMSTYLE
5
A
100
AcDbSymbolTable
70
1
0
ENDTAB
0
TABLE
2
BLOCK_RECORD
5
1
100
AcDbSymbolTable
70
1
0
BLOCK_RECORD
5
1F
100
AcDbSymbolTableRecord
100
AcDbBlockTableRecord
2
*MODEL_SPACE
0
BLOCK_RECORD
5
1B
100
AcDbSymbolTableRecord
100
AcDbBlockTableRecord
2
*PAPER_SPACE
0
ENDTAB
0
ENDSEC
0
SECTION
2
BLOCKS
0
BLOCK
5
20
100
AcDbEntity
100
AcDbBlockBegin
2
*MODEL_SPACE
0
ENDBLK
5
21
100
AcDbEntity
100
AcDbBlockEnd
0
BLOCK
5
1C
100
AcDbEntity
100
AcDbBlockBegin
2
*PAPER_SPACE
0
ENDBLK
5
1D
100
AcDbEntity
100
AcDbBlockEnd
0
ENDSEC
0
SECTION
2
ENTITIES
0
LWPOLYLINE
5
100
100
AcDbEntity
8
0
100
AcDbPolyline
90
64
70
1
43
0.0
10
38.420064030267525
20
-122.06631535189314
42
0.26794919243071669
10
34.420064030277999
20
-115.13811212162366
10
30.999999999990347
20
-113.16353723308444
42
-0.26794919243099813
10
29.999999999992966
20
-111.43148642551498
10
29.999999999977874
20
-107.3596896556696
10
27.899999999977876
20
-107.35968965566957
10
27.899999999977897
20
-105.35968965566954
10
29.999999999977899
20
-105.35968965566957
10
29.999999999977955
20
-99.859689655669598
10
27.899999999977958
20
-99.85968965566957
10
27.899999999977972
20
-97.859689655669527
10
29.999999999977973
20
-97.859689655669541
10
29.99999999997803
20
-92.359689655669598
10
27.899999999978032
20
-92.35968965566957
10
27.899999999978053
20
-90.359689655669541
10
29.999999999978051
20
-90.35968965566957
10
30.000000000022382
20
-83.359689655643365
10
24.999999999923439
20
-48.492157493446314
42
0.37308630664471781
10
9.8500000000889614
20
-35.359689655692605
10
0.50000000003809553
20
-35.359689655681017
10
0.50000000003469802
20
-43.359689655683269
10
9.8500000000261814
20
-43.359689655679716
10
9.8500000000261796
20
-83.359689655766232
10
0.5000000000262006
20
-83.359689655679716
10
0.50000000002619738
20
-91.359689655679716
10
-0.49999999997380273
20
-91.359689655679702
10
-0.49999999997380667
20
-83.359689655679716
10
-9.8499999999738161
20
-83.359689655679716
10
-9.8499999999738161
20
-43.359689655679716
10
-0.49999999996930056
20
-43.359689655682857
10
-0.49999999995303046
20
-35.359689655734329
10
-9.849999999973809
20
-35.359689655679354
42
0.37308630665517761
10
-24.999999999999986
20
-48.4921574938869
10
-29.999999999977994
20
-83.359689655679659
10
-29.999999999978051
20
-90.35968965566957
10
-27.899999999978053
20
-90.359689655669541
10
-27.899999999978032
20
-92.35968965566957
10
-29.99999999997803
20
-92.359689655669598
10
-29.999999999977973
20
-97.859689655669541
10
-27.899999999977972
20
-97.859689655669527
10
-27.899999999977958
20
-99.85968965566957
10
-29.999999999977955
20
-99.859689655669598
10
-29.999999999977899
20
-105.35968965566957
10
-27.899999999977897
20
-105.35968965566954
10
-27.899999999977876
20
-107.35968965566957
10
-29.999999999977874
20
-107.3596896556696
10
-29.999999999977632
20
-111.43148642547538
42
-0.26794919243107052
10
-30.999999999977277
20
-113.16353723304408
10
-34.420064030268932
20
-115.13811212157964
42
0.26794919243106791
10
-38.420064030267518
20
-122.06631535185436
10
-38.420064030267518
20
-153.35968965576822
10
-33.895064030267513
20
-153.35968965577391
10
-33.895064030267513
20
-133.35968965577325
10
-27.279935969731611
20
-133.35968965577325
10
-27.279935969731611
20
-153.35968965578223
10
-1.4125000000000565
20
-153.3596896558148
10
-1.4125000000000678
20
-113.35968965581654
10
1.4124999999999319
20
-113.35968965581655
10
1.4124999999999437
20
-153.3596896558131
10
27.279935969731611
20
-153.35968965574915
10
27.279935969731611
20
-133.35968965577325
10
33.895064030267513
20
-133.35968965577325
10
33.895064030267513
20
-153.35968965573281
10
38.420064030267518
20
-153.35968965576822
0
CIRCLE
5
101
100
AcDbEntity
8
0
100
AcDbCircle
10
5.0000000000008482
20
-39.394689655713279
30
0
40
1.5500000000000003
210
0
220
0
230
1
0
CIRCLE
5
102
100
AcDbEntity
8
0
100
AcDbCircle
10
-4.9999999999880425
20
-39.394689655706827
30
0
40
1.5500000000000003
210
0
220
0
230
1
0
CIRCLE
5
103
100
AcDbEntity
8
0
100
AcDbCircle
10
5.0000000000008482
20
-87.324689655646154
30
0
40
1.5500000000000003
210
0
220
0
230
1
0
CIRCLE
5
104
100
AcDbEntity
8
0
100
AcDbCircle
10
-4.9999999999880425
20
-87.324689655652605
30
0
40
1.5500000000000003
210
0
220
0
230
1
0
ENDSEC
0
SECTION
2
OBJECTS
0
DICTIONARY
5
C
100
AcDbDictionary
3
ACAD_GROUP
350
D
3
ACAD_MLINESTYLE
350
17
0
DICTIONARY
5
D
100
AcDbDictionary
0
DICTIONARY
5
1A
330
C
100
AcDbDictionary
0
DICTIONARY
5
17
100
AcDbDictionary
0
ENDSEC
0
EOF
