  0
SECTION
  2
HEADER
  9
$ACADVER
  1
AC1032
  9
$ACADMAINTVER
 90
      261
  9
$DWGCODEPAGE
  3
ANSI_1252
  9
$LASTSAVEDBY
  1
davidlim
  9
$REQUIREDVERSIONS
160
                 0
  9
$INSBASE
 10
0.0
 20
0.0
 30
0.0
  9
$EXTMIN
 10
-0.0000000000000002
 20
-0.0000000000125531
 30
0.0
  9
$EXTMAX
 10
12.0
 20
8.0
 30
0.0
  9
$LIMMIN
 10
0.0
 20
0.0
  9
$LIMMAX
 10
12.0
 20
9.0
  9
$ORTHOMODE
 70
     0
  9
$REGENMODE
 70
     1
  9
$FILLMODE
 70
     1
  9
$QTEXTMODE
 70
     0
  9
$MIRRTEXT
 70
     0
  9
$LTSCALE
 40
1.0
  9
$ATTMODE
 70
     1
  9
$TEXTSIZE
 40
0.2
  9
$TRACEWID
 40
0.05
  9
$TEXTSTYLE
  7
Standard
  9
$CLAYER
  8
0
  9
$CELTYPE
  6
ByLayer
  9
$CECOLOR
 62
   256
  9
$CELTSCALE
 40
1.0
  9
$DISPSILH
 70
     0
  9
$DIMSCALE
 40
1.0
  9
$DIMASZ
 40
0.18
  9
$DIMEXO
 40
0.0625
  9
$DIMDLI
 40
0.38
  9
$DIMRND
 40
0.0
  9
$DIMDLE
 40
0.0
  9
$DIMEXE
 40
0.18
  9
$DIMTP
 40
0.0
  9
$DIMTM
 40
0.0
  9
$DIMTXT
 40
0.18
  9
$DIMCEN
 40
0.09
  9
$DIMTSZ
 40
0.0
  9
$DIMTOL
 70
     0
  9
$DIMLIM
 70
     0
  9
$DIMTIH
 70
     1
  9
$DIMTOH
 70
     1
  9
$DIMSE1
 70
     0
  9
$DIMSE2
 70
     0
  9
$DIMTAD
 70
     0
  9
$DIMZIN
 70
     0
  9
$DIMBLK
  1

  9
$DIMASO
 70
     1
  9
$DIMSHO
 70
     1
  9
$DIMPOST
  1

  9
$DIMAPOST
  1

  9
$DIMALT
 70
     0
  9
$DIMALTD
 70
     2
  9
$DIMALTF
 40
25.4
  9
$DIMLFAC
 40
1.0
  9
$DIMTOFL
 70
     0
  9
$DIMTVP
 40
0.0
  9
$DIMTIX
 70
     0
  9
$DIMSOXD
 70
     0
  9
$DIMSAH
 70
     0
  9
$DIMBLK1
  1

  9
$DIMBLK2
  1

  9
$DIMSTYLE
  2
Standard
  9
$DIMCLRD
 70
     0
  9
$DIMCLRE
 70
     0
  9
$DIMCLRT
 70
     0
  9
$DIMTFAC
 40
1.0
  9
$DIMGAP
 40
0.09
  9
$DIMJUST
 70
     0
  9
$DIMSD1
 70
     0
  9
$DIMSD2
 70
     0
  9
$DIMTOLJ
 70
     1
  9
$DIMTZIN
 70
     0
  9
$DIMALTZ
 70
     0
  9
$DIMALTTZ
 70
     0
  9
$DIMUPT
 70
     0
  9
$DIMDEC
 70
     4
  9
$DIMTDEC
 70
     4
  9
$DIMALTU
 70
     2
  9
$DIMALTTD
 70
     2
  9
$DIMTXSTY
  7
Standard
  9
$DIMAUNIT
 70
     0
  9
$DIMADEC
 70
     0
  9
$DIMALTRND
 40
0.0
  9
$DIMAZIN
 70
     0
  9
$DIMDSEP
 70
    46
  9
$DIMATFIT
 70
     3
  9
$DIMFRAC
 70
     0
  9
$DIMLDRBLK
  1

  9
$DIMLUNIT
 70
     2
  9
$DIMLWD
 70
    -2
  9
$DIMLWE
 70
    -2
  9
$DIMTMOVE
 70
     0
  9
$DIMFXL
 40
1.0
  9
$DIMFXLON
 70
     0
  9
$DIMJOGANG
 40
0.7853981633974483
  9
$DIMTFILL
 70
     0
  9
$DIMTFILLCLR
 70
     0
  9
$DIMARCSYM
 70
     0
  9
$DIMLTYPE
  6

  9
$DIMLTEX1
  6

  9
$DIMLTEX2
  6

  9
$DIMTXTDIRECTION
 70
     0
  9
$LUNITS
 70
     2
  9
$LUPREC
 70
     4
  9
$SKETCHINC
 40
0.1
  9
$FILLETRAD
 40
0.0
  9
$AUNITS
 70
     0
  9
$AUPREC
 70
     0
  9
$MENU
  1
.
  9
$ELEVATION
 40
0.0
  9
$PELEVATION
 40
0.0
  9
$THICKNESS
 40
0.0
  9
$LIMCHECK
 70
     0
  9
$CHAMFERA
 40
0.0
  9
$CHAMFERB
 40
0.0
  9
$CHAMFERC
 40
0.0
  9
$CHAMFERD
 40
0.0
  9
$SKPOLY
 70
     0
  9
$TDCREATE
 40
2460438.694930556
  9
$TDUCREATE
 40
2460438.986597222
  9
$TDUPDATE
 40
2460438.804710648
  9
$TDUUPDATE
 40
2460439.096377315
  9
$TDINDWG
 40
0.1097800926
  9
$TDUSRTIMER
 40
0.1097800926
  9
$USRTIMER
 70
     1
  9
$ANGBASE
 50
0.0
  9
$ANGDIR
 70
     0
  9
$PDMODE
 70
     0
  9
$PDSIZE
 40
0.0
  9
$PLINEWID
 40
0.0
  9
$SPLFRAME
 70
     0
  9
$SPLINETYPE
 70
     6
  9
$SPLINESEGS
 70
     8
  9
$HANDSEED
  5
44D
  9
$SURFTAB1
 70
     6
  9
$SURFTAB2
 70
     6
  9
$SURFTYPE
 70
     6
  9
$SURFU
 70
     6
  9
$SURFV
 70
     6
  9
$UCSBASE
  2

  9
$UCSNAME
  2

  9
$UCSORG
 10
0.0
 20
0.0
 30
0.0
  9
$UCSXDIR
 10
1.0
 20
0.0
 30
0.0
  9
$UCSYDIR
 10
0.0
 20
1.0
 30
0.0
  9
$UCSORTHOREF
  2

  9
$UCSORTHOVIEW
 70
     0
  9
$UCSORGTOP
 10
0.0
 20
0.0
 30
0.0
  9
$UCSORGBOTTOM
 10
0.0
 20
0.0
 30
0.0
  9
$UCSORGLEFT
 10
0.0
 20
0.0
 30
0.0
  9
$UCSORGRIGHT
 10
0.0
 20
0.0
 30
0.0
  9
$UCSORGFRONT
 10
0.0
 20
0.0
 30
0.0
  9
$UCSORGBACK
 10
0.0
 20
0.0
 30
0.0
  9
$PUCSBASE
  2

  9
$PUCSNAME
  2

  9
$PUCSORG
 10
0.0
 20
0.0
 30
0.0
  9
$PUCSXDIR
 10
1.0
 20
0.0
 30
0.0
  9
$PUCSYDIR
 10
0.0
 20
1.0
 30
0.0
  9
$PUCSORTHOREF
  2

  9
$PUCSORTHOVIEW
 70
     0
  9
$PUCSORGTOP
 10
0.0
 20
0.0
 30
0.0
  9
$PUCSORGBOTTOM
 10
0.0
 20
0.0
 30
0.0
  9
$PUCSORGLEFT
 10
0.0
 20
0.0
 30
0.0
  9
$PUCSORGRIGHT
 10
0.0
 20
0.0
 30
0.0
  9
$PUCSORGFRONT
 10
0.0
 20
0.0
 30
0.0
  9
$PUCSORGBACK
 10
0.0
 20
0.0
 30
0.0
  9
$USERI1
 70
     0
  9
$USERI2
 70
     0
  9
$USERI3
 70
     0
  9
$USERI4
 70
     0
  9
$USERI5
 70
     0
  9
$USERR1
 40
0.0
  9
$USERR2
 40
0.0
  9
$USERR3
 40
0.0
  9
$USERR4
 40
0.0
  9
$USERR5
 40
0.0
  9
$WORLDVIEW
 70
     1
  9
$SHADEDGE
 70
     3
  9
$SHADEDIF
 70
    70
  9
$TILEMODE
 70
     1
  9
$MAXACTVP
 70
    64
  9
$PINSBASE
 10
0.0
 20
0.0
 30
0.0
  9
$PLIMCHECK
 70
     0
  9
$PEXTMIN
 10
0.0
 20
0.0
 30
0.0
  9
$PEXTMAX
 10
0.0
 20
0.0
 30
0.0
  9
$PLIMMIN
 10
0.0
 20
0.0
  9
$PLIMMAX
 10
12.0
 20
9.0
  9
$UNITMODE
 70
     0
  9
$VISRETAIN
 70
     1
  9
$PLINEGEN
 70
     0
  9
$PSLTSCALE
 70
     1
  9
$TREEDEPTH
 70
  3020
  9
$CMLSTYLE
  2
Standard
  9
$CMLJUST
 70
     0
  9
$CMLSCALE
 40
1.0
  9
$PROXYGRAPHICS
 70
     1
  9
$MEASUREMENT
 70
     0
  9
$CELWEIGHT
370
    -1
  9
$ENDCAPS
280
     0
  9
$JOINSTYLE
280
     0
  9
$LWDISPLAY
290
     0
  9
$INSUNITS
 70
     1
  9
$HYPERLINKBASE
  1

  9
$STYLESHEET
  1

  9
$XEDIT
290
     1
  9
$CEPSNTYPE
380
     0
  9
$PSTYLEMODE
290
     1
  9
$FINGERPRINTGUID
  2
{AB4F67F7-6B18-E342-A165-619D3FCA3950}
  9
$VERSIONGUID
  2
{144DBA38-DA05-084B-8067-CD781DB0C5CE}
  9
$EXTNAMES
290
     1
  9
$PSVPSCALE
 40
0.0
  9
$OLESTARTUP
290
     0
  9
$SORTENTS
280
   127
  9
$INDEXCTL
280
     0
  9
$HIDETEXT
280
     1
  9
$XCLIPFRAME
280
     2
  9
$HALOGAP
280
     0
  9
$OBSCOLOR
 70
   257
  9
$OBSLTYPE
280
     0
  9
$INTERSECTIONDISPLAY
280
     0
  9
$INTERSECTIONCOLOR
 70
   257
  9
$DIMASSOC
280
     2
  9
$PROJECTNAME
  1

  9
$CAMERADISPLAY
290
     0
  9
$LENSLENGTH
 40
50.0
  9
$CAMERAHEIGHT
 40
0.0
  9
$STEPSPERSEC
 40
2.0
  9
$STEPSIZE
 40
6.0
  9
$3DDWFPREC
 40
2.0
  9
$PSOLWIDTH
 40
0.25
  9
$PSOLHEIGHT
 40
4.0
  9
$LOFTANG1
 40
1.570796326794896
  9
$LOFTANG2
 40
1.570796326794896
  9
$LOFTMAG1
 40
0.0
  9
$LOFTMAG2
 40
0.0
  9
$LOFTPARAM
 70
     7
  9
$LOFTNORMALS
280
     1
  9
$LATITUDE
 40
37.795
  9
$LONGITUDE
 40
-122.394
  9
$NORTHDIRECTION
 40
0.0
  9
$TIMEZONE
 70
 -8000
  9
$LIGHTGLYPHDISPLAY
280
     1
  9
$TILEMODELIGHTSYNCH
280
     1
  9
$CMATERIAL
347
96
  9
$SOLIDHIST
280
     0
  9
$SHOWHIST
280
     1
  9
$DWFFRAME
280
     2
  9
$DGNFRAME
280
     0
  9
$REALWORLDSCALE
290
     1
  9
$INTERFERECOLOR
 62
     1
  9
$INTERFEREOBJVS
345
A3
  9
$INTERFEREVPVS
346
A0
  9
$CSHADOW
280
     0
  9
$SHADOWPLANELOCATION
 40
0.0
  0
ENDSEC
  0
SECTION
  2
CLASSES
  0
CLASS
  1
ACDBDICTIONARYWDFLT
  2
AcDbDictionaryWithDefault
  3
ObjectDBX Classes
 90
        0
 91
        1
280
     0
281
     0
  0
CLASS
  1
DICTIONARYVAR
  2
AcDbDictionaryVar
  3
ObjectDBX Classes
 90
        0
 91
        9
280
     0
281
     0
  0
CLASS
  1
TABLESTYLE
  2
AcDbTableStyle
  3
ObjectDBX Classes
 90
     4095
 91
        1
280
     0
281
     0
  0
CLASS
  1
MATERIAL
  2
AcDbMaterial
  3
ObjectDBX Classes
 90
     1153
 91
        3
280
     0
281
     0
  0
CLASS
  1
VISUALSTYLE
  2
AcDbVisualStyle
  3
ObjectDBX Classes
 90
     4095
 91
       24
280
     0
281
     0
  0
CLASS
  1
SCALE
  2
AcDbScale
  3
ObjectDBX Classes
 90
     1153
 91
       33
280
     0
281
     0
  0
CLASS
  1
MLEADERSTYLE
  2
AcDbMLeaderStyle
  3
ACDB_MLEADERSTYLE_CLASS
 90
     4095
 91
        2
280
     0
281
     0
  0
CLASS
  1
CELLSTYLEMAP
  2
AcDbCellStyleMap
  3
ObjectDBX Classes
 90
     1152
 91
        2
280
     0
281
     0
  0
CLASS
  1
EXACXREFPANELOBJECT
  2
ExAcXREFPanelObject
  3
EXAC_ESW
 90
     1025
 91
        0
280
     0
281
     0
  0
CLASS
  1
NPOCOLLECTION
  2
AcDbImpNonPersistentObjectsCollection
  3
ObjectDBX Classes
 90
     1153
 91
        0
280
     0
281
     0
  0
CLASS
  1
LAYER_INDEX
  2
AcDbLayerIndex
  3
ObjectDBX Classes
 90
        0
 91
        0
280
     0
281
     0
  0
CLASS
  1
SPATIAL_INDEX
  2
AcDbSpatialIndex
  3
ObjectDBX Classes
 90
        0
 91
        0
280
     0
281
     0
  0
CLASS
  1
IDBUFFER
  2
AcDbIdBuffer
  3
ObjectDBX Classes
 90
        0
 91
        0
280
     0
281
     0
  0
CLASS
  1
ACDBSECTIONVIEWSTYLE
  2
AcDbSectionViewStyle
  3
ObjectDBX Classes
 90
     1025
 91
        1
280
     0
281
     0
  0
CLASS
  1
ACDBDETAILVIEWSTYLE
  2
AcDbDetailViewStyle
  3
ObjectDBX Classes
 90
     1025
 91
        1
280
     0
281
     0
  0
CLASS
  1
SORTENTSTABLE
  2
AcDbSortentsTable
  3
ObjectDBX Classes
 90
        0
 91
        1
280
     0
281
     0
  0
ENDSEC
  0
SECTION
  2
TABLES
  0
TABLE
  2
VPORT
  5
8
330
0
100
AcDbSymbolTable
 70
     1
  0
VPORT
  5
94
330
8
100
AcDbSymbolTableRecord
100
AcDbViewportTableRecord
  2
*Active
 70
     0
 10
0.0
 20
0.0
 11
1.0
 21
1.0
 12
1.841434770621781
 22
5.543230030242316
 13
0.0
 23
0.0
 14
0.5
 24
0.5
 15
0.5
 25
0.5
 16
0.0
 26
0.0
 36
1.0
 17
0.0
 27
0.0
 37
0.0
 40
27.55135343527291
 41
1.116071428571428
 42
50.0
 43
0.0
 44
0.0
 50
0.0
 51
0.0
 71
     0
 72
  1000
 73
     1
 74
     3
 75
     0
 76
     1
 77
     0
 78
     0
281
     0
 65
     1
110
0.0
120
0.0
130
0.0
111
1.0
121
0.0
131
0.0
112
0.0
122
1.0
132
0.0
 79
     0
146
0.0
348
9F
 60
     3
 61
     5
292
     1
282
     1
141
0.0
142
0.0
 63
   250
421
  3355443
1001
ACAD_NAV_VCDISPLAY
1070
     3
  0
ENDTAB
  0
TABLE
  2
LTYPE
  5
5
330
0
100
AcDbSymbolTable
 70
     2
  0
LTYPE
  5
14
330
5
100
AcDbSymbolTableRecord
100
AcDbLinetypeTableRecord
  2
ByBlock
 70
     0
  3

 72
    65
 73
     0
 40
0.0
  0
LTYPE
  5
15
330
5
100
AcDbSymbolTableRecord
100
AcDbLinetypeTableRecord
  2
ByLayer
 70
     0
  3

 72
    65
 73
     0
 40
0.0
  0
LTYPE
  5
16
330
5
100
AcDbSymbolTableRecord
100
AcDbLinetypeTableRecord
  2
Continuous
 70
     0
  3
Solid line
 72
    65
 73
     0
 40
0.0
  0
ENDTAB
  0
TABLE
  2
LAYER
  5
2
102
{ACAD_XDICTIONARY
360
18E
102
}
330
0
100
AcDbSymbolTable
 70
     3
  0
LAYER
  5
10
102
{ACAD_XDICTIONARY
360
E6
102
}
330
2
100
AcDbSymbolTableRecord
100
AcDbLayerTableRecord
  2
0
 70
     0
 62
     7
  6
Continuous
370
     0
390
F
347
98
348
0
  0
LAYER
  5
2C1
330
2
100
AcDbSymbolTableRecord
100
AcDbLayerTableRecord
  2
inside
 70
     0
 62
     3
  6
Continuous
370
     0
390
F
347
98
348
0
1001
AcAecLayerStandard
1000

1000

1001
AcCmTransparency
1071
        0
  0
LAYER
  5
2C4
330
2
100
AcDbSymbolTableRecord
100
AcDbLayerTableRecord
  2
outside
 70
     0
 62
     4
  6
Continuous
370
     0
390
F
347
98
348
0
1001
AcAecLayerStandard
1000

1000

1001
AcCmTransparency
1071
        0
  0
ENDTAB
  0
TABLE
  2
STYLE
  5
3
330
0
100
AcDbSymbolTable
 70
     2
  0
STYLE
  5
11
330
3
100
AcDbSymbolTableRecord
100
AcDbTextStyleTableRecord
  2
Standard
 70
     0
 40
0.0
 41
1.0
 50
0.0
 71
     0
 42
0.2
  3
arial.ttf
  4

1001
ACAD
1000
Arial
1071
       34
  0
STYLE
  5
DC
330
3
100
AcDbSymbolTableRecord
100
AcDbTextStyleTableRecord
  2
Annotative
 70
     0
 40
0.0
 41
1.0
 50
0.0
 71
     0
 42
0.2
  3
arial.ttf
  4

1001
AcadAnnotative
1000
AnnotativeData
1002
{
1070
     1
1070
     1
1002
}
1001
ACAD
1000
Arial
1071
       34
  0
ENDTAB
  0
TABLE
  2
VIEW
  5
6
330
0
100
AcDbSymbolTable
 70
     2
  0
ENDTAB
  0
TABLE
  2
UCS
  5
7
330
0
100
AcDbSymbolTable
 70
     0
  0
ENDTAB
  0
TABLE
  2
APPID
  5
9
330
0
100
AcDbSymbolTable
 70
    10
  0
APPID
  5
12
330
9
100
AcDbSymbolTableRecord
100
AcDbRegAppTableRecord
  2
ACAD
 70
     0
  0
APPID
  5
DD
330
9
100
AcDbSymbolTableRecord
100
AcDbRegAppTableRecord
  2
AcadAnnoPO
 70
     0
  0
APPID
  5
DE
330
9
100
AcDbSymbolTableRecord
100
AcDbRegAppTableRecord
  2
AcadAnnotative
 70
     0
  0
APPID
  5
DF
330
9
100
AcDbSymbolTableRecord
100
AcDbRegAppTableRecord
  2
ACAD_DSTYLE_DIMJAG
 70
     0
  0
APPID
  5
E0
330
9
100
AcDbSymbolTableRecord
100
AcDbRegAppTableRecord
  2
ACAD_DSTYLE_DIMTALN
 70
     0
  0
APPID
  5
107
330
9
100
AcDbSymbolTableRecord
100
AcDbRegAppTableRecord
  2
ACAD_MLEADERVER
 70
     0
  0
APPID
  5
1A6
330
9
100
AcDbSymbolTableRecord
100
AcDbRegAppTableRecord
  2
ACAD_NAV_VCDISPLAY
 70
     0
  0
APPID
  5
24D
330
9
100
AcDbSymbolTableRecord
100
AcDbRegAppTableRecord
  2
ACAD_EXEMPT_FROM_CAD_STANDARDS
 70
     0
  0
APPID
  5
2C2
330
9
100
AcDbSymbolTableRecord
100
AcDbRegAppTableRecord
  2
AcAecLayerStandard
 70
     0
  0
APPID
  5
2C3
330
9
100
AcDbSymbolTableRecord
100
AcDbRegAppTableRecord
  2
AcCmTransparency
 70
     0
  0
ENDTAB
  0
TABLE
  2
DIMSTYLE
  5
A
330
0
100
AcDbSymbolTable
 70
     3
100
AcDbDimStyleTable
 71
     2
340
27
340
E1
  0
DIMSTYLE
105
27
330
A
100
AcDbSymbolTableRecord
100
AcDbDimStyleTableRecord
  2
Standard
 70
     0
340
11
  0
DIMSTYLE
105
E1
330
A
100
AcDbSymbolTableRecord
100
AcDbDimStyleTableRecord
  2
Annotative
 70
     0
 40
0.0
340
11
1001
AcadAnnotative
1000
AnnotativeData
1002
{
1070
     1
1070
     1
1002
}
1001
ACAD_DSTYLE_DIMJAG
1070
   388
1040
1.5
1001
ACAD_DSTYLE_DIMTALN
1070
   392
1070
     0
  0
ENDTAB
  0
TABLE
  2
BLOCK_RECORD
  5
1
330
0
100
AcDbSymbolTable
 70
    13
  0
BLOCK_RECORD
  5
1F
102
{ACAD_XDICTIONARY
360
15D
102
}
330
1
100
AcDbSymbolTableRecord
100
AcDbBlockTableRecord
  2
*Model_Space
340
22
 70
     0
280
     1
281
     0
  0
BLOCK_RECORD
  5
58
330
1
100
AcDbSymbolTableRecord
100
AcDbBlockTableRecord
  2
*Paper_Space
340
59
 70
     0
280
     1
281
     0
  0
BLOCK_RECORD
  5
5D
330
1
100
AcDbSymbolTableRecord
100
AcDbBlockTableRecord
  2
*Paper_Space0
340
5E
 70
     0
280
     1
281
     0
  0
BLOCK_RECORD
  5
244
330
1
100
AcDbSymbolTableRecord
100
AcDbBlockTableRecord
  2
body
340
0
 70
     4
280
     1
281
     0
  0
BLOCK_RECORD
  5
255
330
1
100
AcDbSymbolTableRecord
100
AcDbBlockTableRecord
  2
front
340
0
 70
     4
280
     1
281
     0
  0
BLOCK_RECORD
  5
25A
330
1
100
AcDbSymbolTableRecord
100
AcDbBlockTableRecord
  2
back
340
0
 70
     4
280
     1
281
     0
  0
BLOCK_RECORD
  5
25F
330
1
100
AcDbSymbolTableRecord
100
AcDbBlockTableRecord
  2
beam
340
0
 70
     4
280
     1
281
     0
  0
BLOCK_RECORD
  5
264
330
1
100
AcDbSymbolTableRecord
100
AcDbBlockTableRecord
  2
cheek
340
0
 70
     4
280
     1
281
     0
  0
BLOCK_RECORD
  5
269
330
1
100
AcDbSymbolTableRecord
100
AcDbBlockTableRecord
  2
eye
340
0
 70
     4
280
     1
281
     0
  0
BLOCK_RECORD
  5
270
330
1
100
AcDbSymbolTableRecord
100
AcDbBlockTableRecord
  2
mount
340
0
 70
     4
280
     1
281
     0
  0
BLOCK_RECORD
  5
278
330
1
100
AcDbSymbolTableRecord
100
AcDbBlockTableRecord
  2
mouth
340
0
 70
     4
280
     1
281
     0
  0
BLOCK_RECORD
  5
27E
330
1
100
AcDbSymbolTableRecord
100
AcDbBlockTableRecord
  2
side
340
0
 70
     4
280
     1
281
     0
  0
BLOCK_RECORD
  5
296
330
1
100
AcDbSymbolTableRecord
100
AcDbBlockTableRecord
  2
top
340
0
 70
     4
280
     1
281
     0
  0
BLOCK_RECORD
  5
2A1
330
1
100
AcDbSymbolTableRecord
100
AcDbBlockTableRecord
  2
clip
340
0
 70
     4
280
     1
281
     0
  0
ENDTAB
  0
ENDSEC
  0
SECTION
  2
BLOCKS
  0
BLOCK
  5
20
330
1F
100
AcDbEntity
  8
0
100
AcDbBlockBegin
  2
*Model_Space
 70
     0
 10
0.0
 20
0.0
 30
0.0
  3
*Model_Space
  1

  0
ENDBLK
  5
21
330
1F
100
AcDbEntity
  8
0
100
AcDbBlockEnd
  0
BLOCK
  5
5A
330
58
100
AcDbEntity
 67
     1
  8
0
100
AcDbBlockBegin
  2
*Paper_Space
 70
     0
 10
0.0
 20
0.0
 30
0.0
  3
*Paper_Space
  1

  0
ENDBLK
  5
5B
330
58
100
AcDbEntity
 67
     1
  8
0
100
AcDbBlockEnd
  0
BLOCK
  5
5F
330
5D
100
AcDbEntity
 67
     1
  8
0
100
AcDbBlockBegin
  2
*Paper_Space0
 70
     0
 10
0.0
 20
0.0
 30
0.0
  3
*Paper_Space0
  1

  0
ENDBLK
  5
60
330
5D
100
AcDbEntity
 67
     1
  8
0
100
AcDbBlockEnd
  0
BLOCK
  5
24A
330
244
100
AcDbEntity
  8
0
100
AcDbBlockBegin
  2
body
 70
     0
 10
0.0
 20
0.0
 30
0.0
  3
body
  1

  0
LWPOLYLINE
  5
245
330
244
100
AcDbEntity
  8
0
100
AcDbPolyline
 90
       64
 70
     1
 43
0.0
 10
38.42006403026753
 20
-122.0663153518931
 42
0.2679491924307167
 10
34.420064030278
 20
-115.1381121216236
 10
30.99999999999035
 20
-113.1635372330844
 42
-0.2679491924309981
 10
29.99999999999296
 20
-111.431486425515
 10
29.99999999997788
 20
-107.3596896556696
 10
27.89999999997788
 20
-107.3596896556695
 10
27.89999999997789
 20
-105.3596896556695
 10
29.9999999999779
 20
-105.3596896556695
 10
29.99999999997795
 20
-99.85968965566961
 10
27.89999999997796
 20
-99.85968965566955
 10
27.89999999997797
 20
-97.85968965566951
 10
29.99999999997797
 20
-97.85968965566956
 10
29.99999999997804
 20
-92.35968965566959
 10
27.89999999997804
 20
-92.35968965566955
 10
27.89999999997805
 20
-90.35968965566956
 10
29.99999999997805
 20
-90.35968965566956
 10
30.00000000002239
 20
-83.35968965564337
 10
24.99999999992344
 20
-48.49215749344632
 42
0.3730863066447178
 10
9.850000000088959
 20
-35.3596896556926
 10
0.5000000000380956
 20
-35.35968965568102
 10
0.5000000000346981
 20
-43.35968965568326
 10
9.850000000026179
 20
-43.35968965567972
 10
9.850000000026179
 20
-83.35968965576622
 10
0.5000000000262006
 20
-83.35968965567969
 10
0.5000000000261974
 20
-91.35968965567972
 10
-0.4999999999738027
 20
-91.3596896556797
 10
-0.4999999999738067
 20
-83.35968965567969
 10
-9.849999999973816
 20
-83.35968965567969
 10
-9.849999999973816
 20
-43.35968965567972
 10
-0.4999999999693007
 20
-43.35968965568285
 10
-0.4999999999530306
 20
-35.35968965573433
 10
-9.849999999973805
 20
-35.35968965567935
 42
0.3730863066551776
 10
-24.99999999999999
 20
-48.4921574938869
 10
-29.99999999997799
 20
-83.35968965567966
 10
-29.99999999997805
 20
-90.35968965566956
 10
-27.89999999997805
 20
-90.35968965566956
 10
-27.89999999997804
 20
-92.35968965566955
 10
-29.99999999997804
 20
-92.35968965566959
 10
-29.99999999997797
 20
-97.85968965566956
 10
-27.89999999997797
 20
-97.85968965566951
 10
-27.89999999997796
 20
-99.85968965566955
 10
-29.99999999997795
 20
-99.85968965566961
 10
-29.9999999999779
 20
-105.3596896556695
 10
-27.89999999997789
 20
-105.3596896556695
 10
-27.89999999997788
 20
-107.3596896556695
 10
-29.99999999997788
 20
-107.3596896556696
 10
-29.99999999997763
 20
-111.4314864254754
 42
-0.2679491924310705
 10
-30.99999999997729
 20
-113.163537233044
 10
-34.42006403026893
 20
-115.1381121215796
 42
0.2679491924310679
 10
-38.42006403026753
 20
-122.0663153518543
 10
-38.42006403026753
 20
-153.3596896557682
 10
-33.89506403026751
 20
-153.3596896557739
 10
-33.89506403026751
 20
-133.3596896557732
 10
-27.27993596973161
 20
-133.3596896557732
 10
-27.27993596973161
 20
-153.3596896557822
 10
-1.412500000000056
 20
-153.3596896558148
 10
-1.412500000000067
 20
-113.3596896558165
 10
1.412499999999931
 20
-113.3596896558165
 10
1.412499999999943
 20
-153.3596896558131
 10
27.27993596973161
 20
-153.3596896557491
 10
27.27993596973161
 20
-133.3596896557732
 10
33.89506403026751
 20
-133.3596896557732
 10
33.89506403026751
 20
-153.3596896557328
 10
38.42006403026753
 20
-153.3596896557682
  0
CIRCLE
  5
246
330
244
100
AcDbEntity
  8
0
100
AcDbCircle
 10
5.000000000000848
 20
-39.39468965571328
 30
0.0
 40
1.55
  0
CIRCLE
  5
247
330
244
100
AcDbEntity
  8
0
100
AcDbCircle
 10
-4.999999999988042
 20
-39.39468965570683
 30
0.0
 40
1.55
  0
CIRCLE
  5
248
330
244
100
AcDbEntity
  8
0
100
AcDbCircle
 10
5.000000000000848
 20
-87.32468965564613
 30
0.0
 40
1.55
  0
CIRCLE
  5
249
330
244
100
AcDbEntity
  8
0
100
AcDbCircle
 10
-4.999999999988042
 20
-87.32468965565262
 30
0.0
 40
1.55
  0
ENDBLK
  5
24B
330
244
100
AcDbEntity
  8
0
100
AcDbBlockEnd
  0
BLOCK
  5
257
330
255
100
AcDbEntity
  8
0
100
AcDbBlockBegin
  2
front
 70
     0
 10
0.0
 20
0.0
 30
0.0
  3
front
  1

  0
LWPOLYLINE
  5
256
330
255
100
AcDbEntity
  8
0
100
AcDbPolyline
 90
       22
 70
     1
 43
0.0
 10
-44.52023898560372
 20
-133.3596896557732
 42
0.4142135623730934
 10
-47.52023898560373
 20
-136.3596896557732
 10
-47.52023898560373
 20
-153.3596896558266
 10
-44.34523898560371
 20
-153.3596896558194
 10
-44.34523898560372
 20
-143.3596896558126
 10
-41.52023898560281
 20
-143.3596896558126
 10
-41.52023898560281
 20
-153.3596896558131
 10
-1.568832114410616
 20
-153.3596896557231
 10
-1.56883211441062
 20
-85.35968965567978
 42
0.4142135623730954
 10
-3.568832114410616
 20
-83.35968965567976
 10
-37.62517495533547
 20
-83.35968965567973
 42
0.4142135623730951
 10
-39.62517495533547
 20
-85.35968965567972
 10
-39.62517495533548
 20
-90.35968965566956
 10
-34.62517495533548
 20
-90.35968965566956
 42
-0.1925824035672494
 10
-39.62517495533548
 20
-92.35968965566959
 10
-39.62517495533548
 20
-97.85968965566956
 10
-34.62517495533545
 20
-97.85968965566956
 42
-0.1925824035672528
 10
-39.62517495533547
 20
-99.85968965566961
 10
-39.62517495533548
 20
-105.3596896556695
 10
-34.62517495533546
 20
-105.3596896556695
 42
-0.1925824035672566
 10
-39.62517495533548
 20
-107.3596896556695
 10
-39.62517495533547
 20
-133.3596896557732
  0
ENDBLK
  5
258
330
255
100
AcDbEntity
  8
0
100
AcDbBlockEnd
  0
BLOCK
  5
25C
330
25A
100
AcDbEntity
  8
0
100
AcDbBlockBegin
  2
back
 70
     0
 10
0.0
 20
0.0
 30
0.0
  3
back
  1

  0
LWPOLYLINE
  5
25B
330
25A
100
AcDbEntity
  8
0
100
AcDbPolyline
 90
       24
 70
     1
 43
0.0
 10
7.046295946123724
 20
-116.7739032180989
 42
0.6681786379193058
 10
3.632082383750628
 20
-118.188116780472
 10
3.632082383750632
 20
-133.3596896557732
 10
1.737018353483343
 20
-133.3596896557732
 10
1.737018353483344
 20
-143.3596896558126
 10
-1.087981646517063
 20
-143.3596896558126
 10
-1.087981646517069
 20
-133.3596896557732
 10
-2.983045676784895
 20
-133.3596896557732
 10
-2.983045676784907
 20
-107.3596896556797
 42
-0.1316524975873957
 10
-17.98304567678489
 20
-103.3404517692128
 42
0.0670057325475851
 10
-2.983045676784863
 20
-105.3596896556796
 10
-2.983045676784907
 20
-99.8596896556797
 42
-0.1316524975873957
 10
-17.98304567678489
 20
-95.84045176921284
 42
0.0670057325475851
 10
-2.983045676784863
 20
-97.85968965567967
 10
-2.983045676784907
 20
-92.3596896556797
 42
-0.1316524975873957
 10
-17.98304567678489
 20
-88.34045176921284
 42
0.0670057325475851
 10
-2.983045676784865
 20
-90.35968965567965
 10
-2.983045676784898
 20
-85.3596896556797
 42
0.4142135623730953
 10
-4.983045676784893
 20
-83.35968965567969
 10
-39.03938851770922
 20
-83.35968965567966
 42
0.4142135623730879
 10
-41.03938851770921
 20
-85.35968965567963
 10
-41.0393885177092
 20
-153.3596896559165
 10
38.80365525901985
 20
-153.3596896557368
 42
0.6681786379184814
 10
40.21786882138843
 20
-149.9454760933637
  0
ENDBLK
  5
25D
330
25A
100
AcDbEntity
  8
0
100
AcDbBlockEnd
  0
BLOCK
  5
261
330
25F
100
AcDbEntity
  8
0
100
AcDbBlockBegin
  2
beam
 70
     0
 10
0.0
 20
0.0
 30
0.0
  3
beam
  1

  0
LWPOLYLINE
  5
260
330
25F
100
AcDbEntity
  8
0
100
AcDbPolyline
 90
       22
 70
     1
 43
0.0
 10
-24.825
 20
-38.90089106218301
 10
-24.825
 20
-28.90089106216177
 10
-22.0
 20
-28.90089106216136
 10
-22.0
 20
-38.90089106218301
 10
22.0
 20
-38.90089106218301
 10
22.0
 20
-28.92589106216179
 10
24.825
 20
-28.92589106216135
 10
24.825
 20
-38.90089106218301
 10
128.175
 20
-38.90089106218299
 42
0.4142135623730886
 10
131.1749999999999
 20
-35.90089106218302
 10
131.175
 20
-21.90089106218302
 42
0.4314138849496895
 10
128.0
 20
-18.90599957833921
 10
128.0
 20
-28.725891062183
 10
125.175
 20
-28.725891062183
 10
125.175
 20
-18.90089106218301
 10
-125.175
 20
-18.90089106218301
 10
-125.175
 20
-28.725891062183
 10
-128.0
 20
-28.725891062183
 10
-128.0
 20
-18.90599957833923
 42
0.431413884949691
 10
-131.175
 20
-21.90089106218303
 10
-131.1749999999999
 20
-35.90089106218304
 42
0.4142135623730889
 10
-128.175
 20
-38.90089106218304
  0
ENDBLK
  5
262
330
25F
100
AcDbEntity
  8
0
100
AcDbBlockEnd
  0
BLOCK
  5
266
330
264
100
AcDbEntity
  8
0
100
AcDbBlockBegin
  2
cheek
 70
     0
 10
0.0
 20
0.0
 30
0.0
  3
cheek
  1

  0
LWPOLYLINE
  5
295
330
264
100
AcDbEntity
  8
0
100
AcDbPolyline
 90
       26
 70
     1
 43
0.0
 10
-17.61528762763619
 20
-32.69169944726349
 42
0.2118790515282531
 10
-17.23775054313481
 20
-35.09554355394762
 10
-12.50266948815591
 20
-42.42849063736878
 10
-0.9510817530739723
 20
-65.67696162513789
 10
-3.480992879890423
 20
-66.93401162032921
 10
-5.625716620275762
 20
-62.61758786987822
 42
0.4314138849496848
 10
-7.136420868869683
 20
-66.71243495777786
 10
-5.356527070368796
 20
-70.29461000459761
 42
0.2847554115613823
 10
-2.669895785253989
 20
-71.95968965572195
 10
12.54106174326463
 20
-71.95968965572183
 10
12.54106174326463
 20
-54.63468965572341
 10
15.36606174326425
 20
-54.63468965572972
 10
15.36606174322697
 20
-71.95585969715688
 42
0.4270906034234039
 10
19.54106174323566
 20
-67.959689655739
 10
19.5410617432973
 20
-40.27374378358202
 42
0.0655434628157863
 10
19.43883922216454
 20
-39.49728664826791
 10
13.93072995385751
 20
-18.94074300530092
 42
0.431413884949689
 10
10.08878050135569
 20
-16.86965044232335
 10
12.63035543821427
 20
-26.35493723792418
 10
9.901614978947568
 20
-27.0861010403387
 10
8.853638613672488
 20
-23.17499999999999
 10
-8.853638613672492
 20
-23.17499999999999
 10
-9.901614978947561
 20
-27.08610104033867
 10
-12.63035543821417
 20
-26.35493723792418
 10
-10.08878050135569
 20
-16.86965044232335
 42
0.4314138849496879
 10
-13.9307299538575
 20
-18.94074300530092
  0
ENDBLK
  5
267
330
264
100
AcDbEntity
  8
0
100
AcDbBlockEnd
  0
BLOCK
  5
26D
330
269
100
AcDbEntity
  8
0
100
AcDbBlockBegin
  2
eye
 70
     0
 10
0.0
 20
0.0
 30
0.0
  3
eye
  1

  0
CIRCLE
  5
26A
330
269
100
AcDbEntity
  8
0
100
AcDbCircle
 10
10.065
 20
0.0
 30
0.0
 40
1.55
  0
CIRCLE
  5
26B
330
269
100
AcDbEntity
  8
0
100
AcDbCircle
 10
-10.065
 20
0.0
 30
0.0
 40
1.55
  0
LWPOLYLINE
  5
26C
330
269
100
AcDbEntity
  8
0
100
AcDbPolyline
 90
       18
 70
     1
 43
0.0
 10
-9.946908311845952
 20
-27.25513805995974
 10
-12.53509876286932
 20
-36.91439632285095
 10
-0.7764571353069539
 20
-40.06511485104062
 42
0.1316524975872901
 10
0.7764571353069539
 20
-40.06511485104062
 10
12.53509876287071
 20
-36.91439632285057
 10
9.946908311845975
 20
-27.25513805995973
 10
12.67564877111118
 20
-26.52397425754611
 10
15.26251704086092
 20
-36.17829807274806
 42
0.3949621566649087
 10
17.62820294236481
 20
-32.82967317964769
 10
13.0367838359368
 20
0.4104885290293982
 42
1.375666328957461
 10
7.899999999999803
 20
-2.076722176892995
 10
7.899999999999804
 20
-6.275000000000074
 10
-7.900000000000194
 20
-6.275000000000074
 10
-7.899999999999998
 20
-2.076722176893195
 42
1.375666328957529
 10
-13.0367838359368
 20
0.4104885290293959
 10
-17.6282029423648
 20
-32.82967317964769
 42
0.394962156664888
 10
-15.2625170408611
 20
-36.17829807274801
 10
-12.67564877111118
 20
-26.52397425754611
  0
ENDBLK
  5
26E
330
269
100
AcDbEntity
  8
0
100
AcDbBlockEnd
  0
BLOCK
  5
275
330
270
100
AcDbEntity
  8
0
100
AcDbBlockBegin
  2
mount
 70
     0
 10
0.0
 20
0.0
 30
0.0
  3
mount
  1

  0
LWPOLYLINE
  5
271
330
270
100
AcDbEntity
  8
0
100
AcDbPolyline
 90
        8
 70
     1
 43
0.0
 10
-22.0
 20
-54.4596896557301
 10
-25.0
 20
-54.45968965573609
 10
-25.0
 20
-71.95968965572297
 10
25.0
 20
-71.95968965572297
 10
25.0
 20
-54.45968965572976
 10
22.0
 20
-54.45968965573574
 10
22.00000000000002
 20
-36.95968965572297
 10
-22.0
 20
-36.95968965572297
  0
CIRCLE
  5
272
330
270
100
AcDbEntity
  8
0
100
AcDbCircle
 10
10.445
 20
-54.45968965572297
 30
0.0
 40
1.299999999999998
  0
CIRCLE
  5
273
330
270
100
AcDbEntity
  8
0
100
AcDbCircle
 10
-10.445
 20
-54.45968965572297
 30
0.0
 40
1.299999999999998
  0
CIRCLE
  5
274
330
270
100
AcDbEntity
  8
0
100
AcDbCircle
 10
0.0
 20
-54.45968965572297
 30
0.0
 40
4.000000000000001
  0
ENDBLK
  5
276
330
270
100
AcDbEntity
  8
0
100
AcDbBlockEnd
  0
BLOCK
  5
27B
330
278
100
AcDbEntity
  8
0
100
AcDbBlockBegin
  2
mouth
 70
     0
 10
0.0
 20
0.0
 30
0.0
  3
mouth
  1

  0
LWPOLYLINE
  5
279
330
278
100
AcDbEntity
  8
0
100
AcDbPolyline
 90
       12
 70
     1
 43
0.0
 10
-21.825
 20
-32.59838450012397
 10
-25.0
 20
-32.5983845001243
 10
-25.0
 20
-58.56838714258871
 10
-21.99999999999977
 20
-58.56838714258898
 10
-21.99999999999059
 20
-65.38314112209924
 42
0.2318232860799309
 10
21.99999999997517
 20
-65.40838946929105
 10
21.99999999999938
 20
-58.59338714258868
 10
25.0
 20
-58.59338714258902
 10
25.0
 20
-32.57338450012396
 10
21.825
 20
-32.57338450012431
 10
21.82499999997491
 20
-25.49818208801895
 42
0.2297726490702019
 10
-21.82499999999047
 20
-25.52318208801864
  0
LWPOLYLINE
  5
27A
330
278
100
AcDbEntity
  8
0
100
AcDbPolyline
 90
        2
 70
     1
 43
0.0
 10
19.99999999999994
 20
-51.91331012640588
 42
0.6417424305049236
 10
-20.00000000000007
 20
-51.91331012640572
 42
-0.2404082057732813
  0
ENDBLK
  5
27C
330
278
100
AcDbEntity
  8
0
100
AcDbBlockEnd
  0
BLOCK
  5
280
330
27E
100
AcDbEntity
  8
0
100
AcDbBlockBegin
  2
side
 70
     0
 10
0.0
 20
0.0
 30
0.0
  3
side
  1

  0
LWPOLYLINE
  5
27F
330
27E
100
AcDbEntity
  8
0
100
AcDbPolyline
 90
       15
 70
     1
 43
0.0
 10
-101.7143481809113
 20
-149.9454760936742
 42
0.6681786379193994
 10
-100.3001346185278
 20
-153.3596896560432
 10
-0.1285617432646369
 20
-153.3596896557243
 42
0.1770710881313234
 10
0.3564250532216207
 20
-84.68622026792417
 42
0.3168438590640344
 10
-1.526774082227447
 20
-83.35968965567976
 10
-28.71606174326465
 20
-83.35968965567969
 10
-28.71606174326465
 20
-113.3596896558165
 10
-31.54106174326464
 20
-113.3596896558165
 10
-31.54106174326464
 20
-90.35968965567972
 10
-33.94106174326464
 20
-90.35968965567972
 10
-33.94106174326464
 20
-83.35968965567969
 10
-58.5068526904239
 20
-83.35968965567969
 42
0.3551668033147983
 10
-60.46468304911281
 20
-84.95115534060197
 42
0.0209867536999189
 10
-65.04566256395797
 20
-112.676510306535
 42
-0.1674435399909132
 10
-65.61663687270935
 20
-113.8477647852623
  0
ENDBLK
  5
281
330
27E
100
AcDbEntity
  8
0
100
AcDbBlockEnd
  0
BLOCK
  5
298
330
296
100
AcDbEntity
  8
0
100
AcDbBlockBegin
  2
top
 70
     0
 10
0.0
 20
0.0
 30
0.0
  3
top
  1

  0
LWPOLYLINE
  5
297
330
296
100
AcDbEntity
  8
0
100
AcDbPolyline
 90
        4
 70
     1
 43
0.0
 10
125.175
 20
7.996726596132102
 10
-125.175
 20
7.996726596132102
 10
-125.175
 20
-7.996726596132094
 10
125.175
 20
-7.996726596132094
  0
ENDBLK
  5
299
330
296
100
AcDbEntity
  8
0
100
AcDbBlockEnd
  0
BLOCK
  5
2A3
330
2A1
100
AcDbEntity
  8
0
100
AcDbBlockBegin
  2
clip
 70
     0
 10
0.0
 20
0.0
 30
0.0
  3
clip
  1

  0
LWPOLYLINE
  5
2A2
330
2A1
100
AcDbEntity
  8
0
100
AcDbPolyline
 90
       12
 70
     1
 43
0.0
 10
26.29599771299639
 20
-109.3596896557801
 42
0.4142135623730951
 10
23.29599771299639
 20
-112.3596896557801
 10
23.29599771299639
 20
-153.3596896557761
 10
26.29599771299639
 20
-153.3596896557761
 10
27.34412004327907
 20
-113.3335127074722
 42
-0.4065662586440661
 10
28.34377736825463
 20
-112.3596896557801
 10
31.91334611827404
 20
-112.3596896557801
 42
-0.406566258644047
 10
32.91300344324959
 20
-113.3335127074722
 10
33.96112577353227
 20
-153.3596896557761
 10
36.96112577353227
 20
-153.3596896557761
 10
36.96112577353227
 20
-112.3596896557801
 42
0.4142135623730951
 10
33.96112577353227
 20
-109.3596896557801
  0
ENDBLK
  5
2A4
330
2A1
100
AcDbEntity
  8
0
100
AcDbBlockEnd
  0
ENDSEC
  0
SECTION
  2
ENTITIES
  0
CIRCLE
  5
2C7
330
1F
100
AcDbEntity
  8
inside
100
AcDbCircle
 10
5.506665165485957
 20
1.709451339774345
 30
0.0
 40
0.0610236220472441
  0
CIRCLE
  5
2C8
330
1F
100
AcDbEntity
  8
inside
100
AcDbCircle
 10
5.506665165485703
 20
1.315750552373207
 30
0.0
 40
0.0610236220472441
  0
CIRCLE
  5
2C9
330
1F
100
AcDbEntity
  8
inside
100
AcDbCircle
 10
7.393673039499061
 20
1.709451339774344
 30
0.0
 40
0.0610236220472441
  0
CIRCLE
  5
2CA
330
1F
100
AcDbEntity
  8
inside
100
AcDbCircle
 10
7.393673039499317
 20
1.315750552373207
 30
0.0
 40
0.0610236220472441
  0
CIRCLE
  5
2CF
330
1F
100
AcDbEntity
  8
inside
100
AcDbCircle
 10
9.755888215663933
 20
3.179479484157835
 30
0.0
 40
0.0610236220472442
  0
CIRCLE
  5
2D0
330
1F
100
AcDbEntity
  8
inside
100
AcDbCircle
 10
9.867284818331711
 20
3.964131157251687
 30
0.0
 40
0.0610236220472442
  0
CIRCLE
  5
2D3
330
1F
100
AcDbEntity
  8
inside
100
AcDbCircle
 10
10.73390850504353
 20
0.573031496062992
 30
0.0
 40
0.0511811023622047
  0
CIRCLE
  5
2D4
330
1F
100
AcDbEntity
  8
inside
100
AcDbCircle
 10
10.73390850504353
 20
1.395472440944881
 30
0.0
 40
0.0511811023622047
  0
CIRCLE
  5
2D5
330
1F
100
AcDbEntity
  8
inside
100
AcDbCircle
 10
10.73390850504353
 20
0.9842519685039368
 30
0.0
 40
0.15748031496063
  0
CIRCLE
  5
2DD
330
1F
100
AcDbEntity
  8
inside
100
AcDbCircle
 10
8.638205182239381
 20
5.435850219266153
 30
0.0
 40
0.0610236220472441
  0
CIRCLE
  5
2DE
330
1F
100
AcDbEntity
  8
inside
100
AcDbCircle
 10
8.526808579571607
 20
4.651198546172302
 30
0.0
 40
0.0610236220472441
  0
ARC
  5
2E3
330
1F
100
AcDbEntity
  8
outside
100
AcDbCircle
 10
8.761453578721386
 20
2.710241262225787
 30
0.0
 40
0.3149606299212611
100
AcDbArc
 50
90.00000000000033
 51
149.9999999999134
  0
LINE
  5
2E4
330
1F
100
AcDbEntity
  8
outside
100
AcDbLine
 10
8.488689672017862
 20
2.86772157718683
 30
0.0
 11
8.410950503177733
 21
2.733073387018025
 31
0.0
  0
ARC
  5
2E5
330
1F
100
AcDbEntity
  8
outside
100
AcDbCircle
 10
8.342759526501854
 20
2.772443465758284
 30
0.0
 40
0.0787401574803129
100
AcDbArc
 50
269.9999999999405
 51
329.9999999999141
  0
LINE
  5
2E6
330
1F
100
AcDbEntity
  8
outside
100
AcDbLine
 10
8.342759526501772
 20
2.693703308277971
 30
0.0
 11
8.182452567059041
 21
2.693703308277377
 31
0.0
  0
LINE
  5
2E7
330
1F
100
AcDbEntity
  8
outside
100
AcDbLine
 10
8.182452567059041
 20
2.693703308277377
 30
0.0
 11
8.182452567059039
 21
2.611026142923046
 31
0.0
  0
LINE
  5
2E8
330
1F
100
AcDbEntity
  8
outside
100
AcDbLine
 10
8.182452567059039
 20
2.611026142923046
 30
0.0
 11
8.103712409578724
 21
2.611026142923047
 31
0.0
  0
LINE
  5
2E9
330
1F
100
AcDbEntity
  8
outside
100
AcDbLine
 10
8.103712409578724
 20
2.611026142923047
 30
0.0
 11
8.103712409578724
 21
2.693703308277378
 31
0.0
  0
LINE
  5
2EA
330
1F
100
AcDbEntity
  8
outside
100
AcDbLine
 10
8.103712409578724
 20
2.693703308277378
 30
0.0
 11
7.887176976507859
 21
2.69370330827738
 31
0.0
  0
LINE
  5
2EB
330
1F
100
AcDbEntity
  8
outside
100
AcDbLine
 10
7.887176976507859
 20
2.69370330827738
 30
0.0
 11
7.887176976507857
 21
2.61102614292305
 31
0.0
  0
LINE
  5
2EC
330
1F
100
AcDbEntity
  8
outside
100
AcDbLine
 10
7.887176976507857
 20
2.61102614292305
 30
0.0
 11
7.808436819027541
 21
2.61102614292305
 31
0.0
  0
LINE
  5
2ED
330
1F
100
AcDbEntity
  8
outside
100
AcDbLine
 10
7.808436819027541
 20
2.61102614292305
 30
0.0
 11
7.808436819027543
 21
2.69370330827738
 31
0.0
  0
LINE
  5
2EE
330
1F
100
AcDbEntity
  8
outside
100
AcDbLine
 10
7.808436819027543
 20
2.69370330827738
 30
0.0
 11
7.591901385956679
 21
2.693703308277383
 31
0.0
  0
LINE
  5
2EF
330
1F
100
AcDbEntity
  8
outside
100
AcDbLine
 10
7.591901385956679
 20
2.693703308277383
 30
0.0
 11
7.591901385956677
 21
2.611026142923052
 31
0.0
  0
LINE
  5
2F0
330
1F
100
AcDbEntity
  8
outside
100
AcDbLine
 10
7.591901385956677
 20
2.611026142923052
 30
0.0
 11
7.513161228476362
 21
2.611026142923053
 31
0.0
  0
LINE
  5
2F1
330
1F
100
AcDbEntity
  8
outside
100
AcDbLine
 10
7.513161228476362
 20
2.611026142923053
 30
0.0
 11
7.513161228476362
 21
2.693703308277384
 31
0.0
  0
LINE
  5
2F2
330
1F
100
AcDbEntity
  8
outside
100
AcDbLine
 10
7.513161228476362
 20
2.693703308277384
 30
0.0
 11
7.237570677294229
 21
2.693703308279129
 31
0.0
  0
LINE
  5
2F3
330
1F
100
AcDbEntity
  8
outside
100
AcDbLine
 10
7.237570677294229
 20
2.693703308279129
 30
0.0
 11
5.864833190593557
 21
2.496852914574446
 31
0.0
  0
ARC
  5
2F4
330
1F
100
AcDbEntity
  8
outside
100
AcDbCircle
 10
5.950365010032807
 20
1.900396221663045
 30
0.0
 40
0.6025581122641986
100
AcDbArc
 50
98.16057477032558
 51
179.999999999569
  0
LINE
  5
2F5
330
1F
100
AcDbEntity
  8
outside
100
AcDbLine
 10
5.347806897768608
 20
1.900396221667578
 30
0.0
 11
5.347806897768151
 21
1.532285985445103
 31
0.0
  0
LINE
  5
2F6
330
1F
100
AcDbEntity
  8
outside
100
AcDbLine
 10
5.347806897768151
 20
1.532285985445103
 30
0.0
 11
5.6627675276895
 21
1.532285985444969
 31
0.0
  0
LINE
  5
2F7
330
1F
100
AcDbEntity
  8
outside
100
AcDbLine
 10
5.6627675276895
 20
1.532285985444969
 30
0.0
 11
5.662767527689361
 21
1.900396221665106
 31
0.0
  0
LINE
  5
2F8
330
1F
100
AcDbEntity
  8
outside
100
AcDbLine
 10
5.662767527689361
 20
1.900396221665106
 30
0.0
 11
7.237570677299064
 21
1.900396221665106
 31
0.0
  0
LINE
  5
2F9
330
1F
100
AcDbEntity
  8
outside
100
AcDbLine
 10
7.237570677299064
 20
1.900396221665106
 30
0.0
 11
7.237570677295659
 21
1.532285985444634
 31
0.0
  0
LINE
  5
2FA
330
1F
100
AcDbEntity
  8
outside
100
AcDbLine
 10
7.237570677295659
 20
1.532285985444634
 30
0.0
 11
7.552531307216919
 21
1.532285985444634
 31
0.0
  0
LINE
  5
2FB
330
1F
100
AcDbEntity
  8
outside
100
AcDbLine
 10
7.552531307216919
 20
1.532285985444634
 30
0.0
 11
7.552531307216918
 21
1.492915906704476
 31
0.0
  0
LINE
  5
2FC
330
1F
100
AcDbEntity
  8
outside
100
AcDbLine
 10
7.552531307216918
 20
1.492915906704476
 30
0.0
 11
7.237570677295659
 21
1.492915906704476
 31
0.0
  0
LINE
  5
2FD
330
1F
100
AcDbEntity
  8
outside
100
AcDbLine
 10
7.237570677295659
 20
1.492915906704476
 30
0.0
 11
7.237570677295659
 21
1.124805670484003
 31
0.0
  0
LINE
  5
2FE
330
1F
100
AcDbEntity
  8
outside
100
AcDbLine
 10
7.237570677295659
 20
1.124805670484003
 30
0.0
 11
5.662767527689361
 21
1.124805670484004
 31
0.0
  0
LINE
  5
2FF
330
1F
100
AcDbEntity
  8
outside
100
AcDbLine
 10
5.662767527689361
 20
1.124805670484004
 30
0.0
 11
5.662767527689483
 21
1.492915906704654
 31
0.0
  0
LINE
  5
300
330
1F
100
AcDbEntity
  8
outside
100
AcDbLine
 10
5.662767527689483
 20
1.492915906704654
 30
0.0
 11
5.347806897770251
 21
1.492915906705294
 31
0.0
  0
LINE
  5
301
330
1F
100
AcDbEntity
  8
outside
100
AcDbLine
 10
5.347806897770251
 20
1.492915906705294
 30
0.0
 11
5.347806897768085
 21
1.124805670484004
 31
0.0
  0
ARC
  5
302
330
1F
100
AcDbEntity
  8
outside
100
AcDbCircle
 10
5.950365010032807
 20
1.124805670484004
 30
0.0
 40
0.6025581122647213
100
AcDbArc
 50
180.0
 51
261.8394252313477
  0
LINE
  5
303
330
1F
100
AcDbEntity
  8
outside
100
AcDbLine
 10
5.864833190610903
 20
0.5283489775695879
 30
0.0
 11
7.237570677295657
 21
0.331498583869666
 31
0.0
  0
LINE
  5
304
330
1F
100
AcDbEntity
  8
outside
100
AcDbLine
 10
7.237570677295657
 20
0.331498583869666
 30
0.0
 11
7.513161228476361
 21
0.3314985838696636
 31
0.0
  0
LINE
  5
305
330
1F
100
AcDbEntity
  8
outside
100
AcDbLine
 10
7.513161228476361
 20
0.3314985838696636
 30
0.0
 11
7.513161228476361
 21
0.4141757492239944
 31
0.0
  0
LINE
  5
306
330
1F
100
AcDbEntity
  8
outside
100
AcDbLine
 10
7.513161228476361
 20
0.4141757492239944
 30
0.0
 11
7.591901385956676
 21
0.4141757492239951
 31
0.0
  0
LINE
  5
307
330
1F
100
AcDbEntity
  8
outside
100
AcDbLine
 10
7.591901385956676
 20
0.4141757492239951
 30
0.0
 11
7.591901385956678
 21
0.3314985838696642
 31
0.0
  0
LINE
  5
308
330
1F
100
AcDbEntity
  8
outside
100
AcDbLine
 10
7.591901385956678
 20
0.3314985838696642
 30
0.0
 11
7.808436819027543
 21
0.3314985838696669
 31
0.0
  0
LINE
  5
309
330
1F
100
AcDbEntity
  8
outside
100
AcDbLine
 10
7.808436819027543
 20
0.3314985838696669
 30
0.0
 11
7.808436819027541
 21
0.4141757492239976
 31
0.0
  0
LINE
  5
30A
330
1F
100
AcDbEntity
  8
outside
100
AcDbLine
 10
7.808436819027541
 20
0.4141757492239976
 30
0.0
 11
7.887176976507857
 21
0.4141757492239979
 31
0.0
  0
LINE
  5
30B
330
1F
100
AcDbEntity
  8
outside
100
AcDbLine
 10
7.887176976507857
 20
0.4141757492239979
 30
0.0
 11
7.887176976507859
 21
0.3314985838696676
 31
0.0
  0
LINE
  5
30C
330
1F
100
AcDbEntity
  8
outside
100
AcDbLine
 10
7.887176976507859
 20
0.3314985838696676
 30
0.0
 11
8.103712409578724
 21
0.3314985838696698
 31
0.0
  0
LINE
  5
30D
330
1F
100
AcDbEntity
  8
outside
100
AcDbLine
 10
8.103712409578724
 20
0.3314985838696698
 30
0.0
 11
8.103712409578724
 21
0.4141757492240006
 31
0.0
  0
LINE
  5
30E
330
1F
100
AcDbEntity
  8
outside
100
AcDbLine
 10
8.103712409578724
 20
0.4141757492240006
 30
0.0
 11
8.182452567059039
 21
0.4141757492240011
 31
0.0
  0
LINE
  5
30F
330
1F
100
AcDbEntity
  8
outside
100
AcDbLine
 10
8.182452567059039
 20
0.4141757492240011
 30
0.0
 11
8.182452567059041
 21
0.3314985838696707
 31
0.0
  0
LINE
  5
310
330
1F
100
AcDbEntity
  8
outside
100
AcDbLine
 10
8.182452567059041
 20
0.3314985838696707
 30
0.0
 11
8.342759526500213
 21
0.3314985838696802
 31
0.0
  0
ARC
  5
311
330
1F
100
AcDbEntity
  8
outside
100
AcDbCircle
 10
8.342759526500213
 20
0.2527584263893653
 30
0.0
 40
0.0787401574803149
100
AcDbArc
 50
30.0000000000113
 51
90.0
  0
LINE
  5
312
330
1F
100
AcDbEntity
  8
outside
100
AcDbLine
 10
8.410950503176145
 20
0.2921285051295363
 30
0.0
 11
8.488689672016128
 21
0.1574803149605737
 31
0.0
  0
ARC
  5
313
330
1F
100
AcDbEntity
  8
outside
100
AcDbCircle
 10
8.761453578719859
 20
0.3149606299212611
 30
0.0
 40
0.3149606299212626
100
AcDbArc
 50
210.0000000000118
 51
270.0
  0
LINE
  5
314
330
1F
100
AcDbEntity
  8
outside
100
AcDbLine
 10
8.761453578719859
 20
-0.0000000000000009
 30
0.0
 11
9.993476189110168
 21
-0.0000000000000011
 31
0.0
  0
LINE
  5
315
330
1F
100
AcDbEntity
  8
outside
100
AcDbLine
 10
9.993476189110168
 20
-0.0000000000000011
 30
0.0
 11
9.993476189110392
 21
0.1781496062992121
 31
0.0
  0
LINE
  5
316
330
1F
100
AcDbEntity
  8
outside
100
AcDbLine
 10
9.993476189110392
 20
0.1781496062992121
 30
0.0
 11
9.206074614307215
 21
0.1781496062992123
 31
0.0
  0
LINE
  5
317
330
1F
100
AcDbEntity
  8
outside
100
AcDbLine
 10
9.206074614307215
 20
0.1781496062992123
 30
0.0
 11
9.206074614307215
 21
0.438587718918736
 31
0.0
  0
LINE
  5
318
330
1F
100
AcDbEntity
  8
outside
100
AcDbLine
 10
9.206074614307215
 20
0.438587718918736
 30
0.0
 11
9.993476189110719
 21
0.4385877189187358
 31
0.0
  0
LINE
  5
319
330
1F
100
AcDbEntity
  8
outside
100
AcDbLine
 10
9.993476189110719
 20
0.4385877189187358
 30
0.0
 11
9.993476189112001
 21
1.456990709853048
 31
0.0
  0
LINE
  5
31A
330
1F
100
AcDbEntity
  8
outside
100
AcDbLine
 10
9.993476189112001
 20
1.456990709853048
 30
0.0
 11
8.418673039505771
 21
1.456990709853048
 31
0.0
  0
LINE
  5
31B
330
1F
100
AcDbEntity
  8
outside
100
AcDbLine
 10
8.418673039505771
 20
1.456990709853048
 30
0.0
 11
8.418673039505771
 21
1.568211182293993
 31
0.0
  0
LINE
  5
31C
330
1F
100
AcDbEntity
  8
outside
100
AcDbLine
 10
8.418673039505771
 20
1.568211182293993
 30
0.0
 11
9.993476189111934
 21
1.568211182293993
 31
0.0
  0
LINE
  5
31D
330
1F
100
AcDbEntity
  8
outside
100
AcDbLine
 10
9.993476189111934
 20
1.568211182293993
 30
0.0
 11
9.993476189109417
 21
2.586614173228311
 31
0.0
  0
LINE
  5
31E
330
1F
100
AcDbEntity
  8
outside
100
AcDbLine
 10
9.993476189109417
 20
2.586614173228311
 30
0.0
 11
9.206074614307215
 21
2.586614173228311
 31
0.0
  0
LINE
  5
31F
330
1F
100
AcDbEntity
  8
outside
100
AcDbLine
 10
9.206074614307215
 20
2.586614173228311
 30
0.0
 11
9.206074614307215
 21
2.847052285847834
 31
0.0
  0
LINE
  5
320
330
1F
100
AcDbEntity
  8
outside
100
AcDbLine
 10
9.206074614307215
 20
2.847052285847834
 30
0.0
 11
9.993476189108772
 21
2.847052285847834
 31
0.0
  0
LINE
  5
321
330
1F
100
AcDbEntity
  8
outside
100
AcDbLine
 10
9.993476189108772
 20
2.847052285847834
 30
0.0
 11
9.993476189110168
 21
3.025201892147047
 31
0.0
  0
LINE
  5
322
330
1F
100
AcDbEntity
  8
outside
100
AcDbLine
 10
9.993476189110168
 20
3.025201892147047
 30
0.0
 11
8.761453578721384
 21
3.025201892147048
 31
0.0
  0
ARC
  5
323
330
1F
100
AcDbEntity
  8
outside
100
AcDbCircle
 10
1.674169495519317
 20
3.466378291213358
 30
0.0
 40
0.1181102362204731
100
AcDbArc
 50
90.00000000000044
 51
180.0
  0
LINE
  5
324
330
1F
100
AcDbEntity
  8
outside
100
AcDbLine
 10
1.556059259298844
 20
3.466378291213358
 30
0.0
 11
1.556059259298844
 21
2.797086952628583
 31
0.0
  0
LINE
  5
325
330
1F
100
AcDbEntity
  8
outside
100
AcDbLine
 10
1.556059259298844
 20
2.797086952628583
 30
0.0
 11
1.681059259298844
 21
2.797086952628863
 31
0.0
  0
LINE
  5
326
330
1F
100
AcDbEntity
  8
outside
100
AcDbLine
 10
1.681059259298844
 20
2.797086952628863
 30
0.0
 11
1.681059259298844
 21
3.190787740030707
 31
0.0
  0
LINE
  5
327
330
1F
100
AcDbEntity
  8
outside
100
AcDbLine
 10
1.681059259298844
 20
3.190787740030707
 30
0.0
 11
1.792279731739825
 21
3.190787740030707
 31
0.0
  0
LINE
  5
328
330
1F
100
AcDbEntity
  8
outside
100
AcDbLine
 10
1.792279731739825
 20
3.190787740030707
 30
0.0
 11
1.792279731739825
 21
2.797086952629113
 31
0.0
  0
LINE
  5
329
330
1F
100
AcDbEntity
  8
outside
100
AcDbLine
 10
1.792279731739825
 20
2.797086952629113
 30
0.0
 11
3.36516976603873
 21
2.797086952632654
 31
0.0
  0
LINE
  5
32A
330
1F
100
AcDbEntity
  8
outside
100
AcDbLine
 10
3.36516976603873
 20
2.797086952632654
 30
0.0
 11
3.36516976603873
 21
5.474252306965071
 31
0.0
  0
ARC
  5
32B
330
1F
100
AcDbEntity
  8
outside
100
AcDbCircle
 10
3.286429608558415
 20
5.474252306965071
 30
0.0
 40
0.0787401574803148
100
AcDbArc
 50
0.0
 51
90.0
  0
LINE
  5
32C
330
1F
100
AcDbEntity
  8
outside
100
AcDbLine
 10
3.286429608558415
 20
5.552992464445385
 30
0.0
 11
1.945628709309405
 21
5.552992464445387
 31
0.0
  0
ARC
  5
32D
330
1F
100
AcDbEntity
  8
outside
100
AcDbCircle
 10
1.945628709309405
 20
5.474252306965072
 30
0.0
 40
0.0787401574803148
100
AcDbArc
 50
89.99999999999984
 51
180.0
  0
LINE
  5
32E
330
1F
100
AcDbEntity
  8
outside
100
AcDbLine
 10
1.86688855182909
 20
5.474252306965072
 30
0.0
 11
1.86688855182909
 21
5.277401913264686
 31
0.0
  0
LINE
  5
32F
330
1F
100
AcDbEntity
  8
outside
100
AcDbLine
 10
1.86688855182909
 20
5.277401913264686
 30
0.0
 11
2.063738945529877
 21
5.277401913264686
 31
0.0
  0
ARC
  5
330
330
1F
100
AcDbEntity
  8
outside
100
AcDbCircle
 10
1.866888551829086
 20
5.484094826650515
 30
0.0
 40
0.2854330708661459
100
AcDbArc
 50
270.0000000000007
 51
313.6028189727038
  0
LINE
  5
331
330
1F
100
AcDbEntity
  8
outside
100
AcDbLine
 10
1.86688855182909
 20
5.198661755784369
 30
0.0
 11
1.86688855182909
 21
4.982126322713504
 31
0.0
  0
LINE
  5
332
330
1F
100
AcDbEntity
  8
outside
100
AcDbLine
 10
1.86688855182909
 20
4.982126322713504
 30
0.0
 11
2.063738945529878
 21
4.982126322713504
 31
0.0
  0
ARC
  5
333
330
1F
100
AcDbEntity
  8
outside
100
AcDbCircle
 10
1.866888551829089
 20
5.18881923609933
 30
0.0
 40
0.2854330708661425
100
AcDbArc
 50
270.0000000000002
 51
313.602818972704
  0
LINE
  5
334
330
1F
100
AcDbEntity
  8
outside
100
AcDbLine
 10
1.86688855182909
 20
4.903386165233188
 30
0.0
 11
1.86688855182909
 21
4.686850732162323
 31
0.0
  0
LINE
  5
335
330
1F
100
AcDbEntity
  8
outside
100
AcDbLine
 10
1.86688855182909
 20
4.686850732162323
 30
0.0
 11
2.063738945529878
 21
4.686850732162323
 31
0.0
  0
ARC
  5
336
330
1F
100
AcDbEntity
  8
outside
100
AcDbCircle
 10
1.866888551829093
 20
4.893543645548144
 30
0.0
 40
0.2854330708661361
100
AcDbArc
 50
269.9999999999993
 51
313.602818972704
  0
LINE
  5
337
330
1F
100
AcDbEntity
  8
outside
100
AcDbLine
 10
1.86688855182909
 20
4.608110574682008
 30
0.0
 11
1.86688855182909
 21
3.584488527433832
 31
0.0
  0
LINE
  5
338
330
1F
100
AcDbEntity
  8
outside
100
AcDbLine
 10
1.86688855182909
 20
3.584488527433832
 30
0.0
 11
1.674169495519316
 21
3.584488527433832
 31
0.0
  0
ARC
  5
339
330
1F
100
AcDbEntity
  8
outside
100
AcDbCircle
 10
5.255178614162764
 20
4.187897318106148
 30
0.0
 40
0.0787401574803145
100
AcDbArc
 50
44.99999999999954
 51
180.0000000000006
  0
LINE
  5
33A
330
1F
100
AcDbEntity
  8
outside
100
AcDbLine
 10
5.176438456682449
 20
4.187897318106148
 30
0.0
 11
5.176438456682449
 21
3.590591299393503
 31
0.0
  0
LINE
  5
33B
330
1F
100
AcDbEntity
  8
outside
100
AcDbLine
 10
5.176438456682449
 20
3.590591299393503
 30
0.0
 11
5.101829636593185
 21
3.590591299393503
 31
0.0
  0
LINE
  5
33C
330
1F
100
AcDbEntity
  8
outside
100
AcDbLine
 10
5.101829636593185
 20
3.590591299393503
 30
0.0
 11
5.101829636593185
 21
3.196890511990378
 31
0.0
  0
LINE
  5
33D
330
1F
100
AcDbEntity
  8
outside
100
AcDbLine
 10
5.101829636593185
 20
3.196890511990378
 30
0.0
 11
4.990609164152225
 21
3.196890511990378
 31
0.0
  0
LINE
  5
33E
330
1F
100
AcDbEntity
  8
outside
100
AcDbLine
 10
4.990609164152225
 20
3.196890511990378
 30
0.0
 11
4.990609164152225
 21
3.590591299393503
 31
0.0
  0
LINE
  5
33F
330
1F
100
AcDbEntity
  8
outside
100
AcDbLine
 10
4.990609164152225
 20
3.590591299393503
 30
0.0
 11
4.91600034406294
 21
3.590591299393503
 31
0.0
  0
LINE
  5
340
330
1F
100
AcDbEntity
  8
outside
100
AcDbLine
 10
4.91600034406294
 20
3.590591299393503
 30
0.0
 11
4.91600034406294
 21
4.61421334664128
 31
0.0
  0
ARC
  5
341
330
1F
100
AcDbEntity
  8
outside
100
AcDbCircle
 10
4.916000344062942
 20
5.795315708846006
 30
0.0
 40
1.181102362204725
100
AcDbArc
 50
239.9999999999999
 51
269.9999999999999
  0
ARC
  5
342
330
1F
100
AcDbEntity
  8
outside
100
AcDbCircle
 10
4.916000344062943
 20
6.926170365562406
 30
0.0
 40
2.233216861440808
100
AcDbArc
 50
254.6663380724454
 51
269.9999999999999
  0
LINE
  5
343
330
1F
100
AcDbEntity
  8
outside
100
AcDbLine
 10
4.916000344062942
 20
4.692953504121597
 30
0.0
 11
4.91600034406294
 21
4.909488937192461
 31
0.0
  0
ARC
  5
344
330
1F
100
AcDbEntity
  8
outside
100
AcDbCircle
 10
4.916000344062942
 20
6.090591299397187
 30
0.0
 40
1.181102362204725
100
AcDbArc
 50
239.9999999999999
 51
269.9999999999999
  0
ARC
  5
345
330
1F
100
AcDbEntity
  8
outside
100
AcDbCircle
 10
4.916000344062943
 20
7.221445956113587
 30
0.0
 40
2.233216861440808
100
AcDbArc
 50
254.6663380724454
 51
269.9999999999999
  0
LINE
  5
346
330
1F
100
AcDbEntity
  8
outside
100
AcDbLine
 10
4.916000344062942
 20
4.988229094672778
 30
0.0
 11
4.91600034406294
 21
5.204764527743643
 31
0.0
  0
ARC
  5
347
330
1F
100
AcDbEntity
  8
outside
100
AcDbCircle
 10
4.916000344062941
 20
6.385866889948369
 30
0.0
 40
1.181102362204725
100
AcDbArc
 50
240.0
 51
269.9999999999999
  0
ARC
  5
348
330
1F
100
AcDbEntity
  8
outside
100
AcDbCircle
 10
4.916000344062941
 20
7.516721546664768
 30
0.0
 40
2.233216861440808
100
AcDbArc
 50
254.6663380724455
 51
270.0
  0
LINE
  5
349
330
1F
100
AcDbEntity
  8
outside
100
AcDbLine
 10
4.916000344062942
 20
5.283504685223959
 30
0.0
 11
4.91600034406294
 21
5.480355078924745
 31
0.0
  0
ARC
  5
34A
330
1F
100
AcDbEntity
  8
outside
100
AcDbCircle
 10
4.837260186582625
 20
5.480355078924745
 30
0.0
 40
0.0787401574803148
100
AcDbArc
 50
0.0
 51
90.0
  0
LINE
  5
34B
330
1F
100
AcDbEntity
  8
outside
100
AcDbLine
 10
4.837260186582625
 20
5.55909523640506
 30
0.0
 11
3.496459287333636
 21
5.559095236405061
 31
0.0
  0
ARC
  5
34C
330
1F
100
AcDbEntity
  8
outside
100
AcDbCircle
 10
3.496459287333636
 20
5.480355078924747
 30
0.0
 40
0.0787401574803148
100
AcDbArc
 50
90.0
 51
179.9999999999987
  0
LINE
  5
34D
330
1F
100
AcDbEntity
  8
outside
100
AcDbLine
 10
3.417719129853321
 20
5.480355078924748
 30
0.0
 11
3.417719129853321
 21
2.803189724584713
 31
0.0
  0
LINE
  5
34E
330
1F
100
AcDbEntity
  8
outside
100
AcDbLine
 10
3.417719129853321
 20
2.803189724584713
 30
0.0
 11
6.561146050196985
 21
2.803189724591788
 31
0.0
  0
ARC
  5
34F
330
1F
100
AcDbEntity
  8
outside
100
AcDbCircle
 10
6.561146050196806
 20
2.881929882072104
 30
0.0
 40
0.0787401574803162
100
AcDbArc
 50
270.00000000013
 51
44.99999999999977
  0
LINE
  5
350
330
1F
100
AcDbEntity
  8
outside
100
AcDbLine
 10
6.616823749502835
 20
2.937607581378132
 30
0.0
 11
5.310856313468791
 21
4.243575017412175
 31
0.0
  0
LINE
  5
351
330
1F
100
AcDbEntity
  8
outside
100
AcDbLine
 10
4.187007874015749
 20
6.414775929506938
 30
0.0
 11
4.187007874015749
 21
6.808476716909349
 31
0.0
  0
LINE
  5
352
330
1F
100
AcDbEntity
  8
outside
100
AcDbLine
 10
4.187007874015749
 20
6.808476716909349
 30
0.0
 11
4.298228346456693
 21
6.808476716909365
 31
0.0
  0
LINE
  5
353
330
1F
100
AcDbEntity
  8
outside
100
AcDbLine
 10
4.298228346456693
 20
6.808476716909365
 30
0.0
 11
4.298228346456693
 21
6.414775929506938
 31
0.0
  0
LINE
  5
354
330
1F
100
AcDbEntity
  8
outside
100
AcDbLine
 10
4.298228346456693
 20
6.414775929506938
 30
0.0
 11
6.030511811023623
 21
6.414775929506938
 31
0.0
  0
LINE
  5
355
330
1F
100
AcDbEntity
  8
outside
100
AcDbLine
 10
6.030511811023623
 20
6.414775929506938
 30
0.0
 11
6.030511811023623
 21
6.807492464940844
 31
0.0
  0
LINE
  5
356
330
1F
100
AcDbEntity
  8
outside
100
AcDbLine
 10
6.030511811023623
 20
6.807492464940844
 30
0.0
 11
6.141732283464567
 21
6.807492464940861
 31
0.0
  0
LINE
  5
357
330
1F
100
AcDbEntity
  8
outside
100
AcDbLine
 10
6.141732283464567
 20
6.807492464940861
 30
0.0
 11
6.141732283464567
 21
6.414775929506938
 31
0.0
  0
LINE
  5
358
330
1F
100
AcDbEntity
  8
outside
100
AcDbLine
 10
6.141732283464567
 20
6.414775929506938
 30
0.0
 11
10.21062992125984
 21
6.414775929506939
 31
0.0
  0
ARC
  5
359
330
1F
100
AcDbEntity
  8
outside
100
AcDbCircle
 10
10.21062992125984
 20
6.53288616572741
 30
0.0
 40
0.1181102362204713
100
AcDbArc
 50
270.0000000000009
 51
359.9999999999996
  0
LINE
  5
35A
330
1F
100
AcDbEntity
  8
outside
100
AcDbLine
 10
10.32874015748031
 20
6.532886165727409
 30
0.0
 11
10.32874015748031
 21
7.084067268089615
 31
0.0
  0
ARC
  5
35B
330
1F
100
AcDbEntity
  8
outside
100
AcDbCircle
 10
10.21062992125984
 20
7.084067268089615
 30
0.0
 40
0.118110236220474
100
AcDbArc
 50
0.0
 51
93.34415220445574
  0
LINE
  5
35C
330
1F
100
AcDbEntity
  8
outside
100
AcDbLine
 10
10.20374015748031
 20
7.201976381626773
 30
0.0
 11
10.20374015748031
 21
6.815366480688041
 31
0.0
  0
LINE
  5
35D
330
1F
100
AcDbEntity
  8
outside
100
AcDbLine
 10
10.20374015748031
 20
6.815366480688041
 30
0.0
 11
10.09251968503937
 21
6.815366480688041
 31
0.0
  0
LINE
  5
35E
330
1F
100
AcDbEntity
  8
outside
100
AcDbLine
 10
10.09251968503937
 20
6.815366480688041
 30
0.0
 11
10.09251968503937
 21
7.202177504310087
 31
0.0
  0
LINE
  5
35F
330
1F
100
AcDbEntity
  8
outside
100
AcDbLine
 10
10.09251968503937
 20
7.202177504310087
 30
0.0
 11
0.2362204724409462
 21
7.202177504310087
 31
0.0
  0
LINE
  5
360
330
1F
100
AcDbEntity
  8
outside
100
AcDbLine
 10
0.2362204724409462
 20
7.202177504310087
 30
0.0
 11
0.2362204724409462
 21
6.815366480688041
 31
0.0
  0
LINE
  5
361
330
1F
100
AcDbEntity
  8
outside
100
AcDbLine
 10
0.2362204724409462
 20
6.815366480688041
 30
0.0
 11
0.1250000000000009
 21
6.815366480688041
 31
0.0
  0
LINE
  5
362
330
1F
100
AcDbEntity
  8
outside
100
AcDbLine
 10
0.1250000000000009
 20
6.815366480688041
 30
0.0
 11
0.1250000000000009
 21
7.201976381626772
 31
0.0
  0
ARC
  5
363
330
1F
100
AcDbEntity
  8
outside
100
AcDbCircle
 10
0.1181102362204726
 20
7.084067268089615
 30
0.0
 40
0.1181102362204724
100
AcDbArc
 50
86.65584779554402
 51
180.0000000000004
  0
LINE
  5
364
330
1F
100
AcDbEntity
  8
outside
100
AcDbLine
 10
0.0
 20
7.084067268089614
 30
0.0
 11
0.0000000000000027
 21
6.532886165727409
 31
0.0
  0
ARC
  5
365
330
1F
100
AcDbEntity
  8
outside
100
AcDbCircle
 10
0.1181102362204757
 20
6.53288616572741
 30
0.0
 40
0.118110236220473
100
AcDbArc
 50
180.0000000000004
 51
269.9999999999992
  0
LINE
  5
366
330
1F
100
AcDbEntity
  8
outside
100
AcDbLine
 10
0.118110236220474
 20
6.414775929506937
 30
0.0
 11
4.187007874015749
 21
6.414775929506938
 31
0.0
  0
ARC
  5
367
330
1F
100
AcDbEntity
  8
outside
100
AcDbCircle
 10
11.37965900399859
 20
3.543315133143244
 30
0.0
 40
0.1181102362204732
100
AcDbArc
 50
327.1485822718496
 51
14.99999999999801
  0
LINE
  5
368
330
1F
100
AcDbEntity
  8
outside
100
AcDbLine
 10
11.4788810667689
 20
3.479244779939438
 30
0.0
 11
11.29246055279335
 21
3.190546075867739
 31
0.0
  0
LINE
  5
369
330
1F
100
AcDbEntity
  8
outside
100
AcDbLine
 10
11.29246055279335
 20
3.190546075867739
 30
0.0
 11
10.83767363408934
 21
2.275251942491002
 31
0.0
  0
LINE
  5
36A
330
1F
100
AcDbEntity
  8
outside
100
AcDbLine
 10
10.83767363408934
 20
2.275251942491002
 30
0.0
 11
10.9372764343577
 21
2.225761785200005
 31
0.0
  0
LINE
  5
36B
330
1F
100
AcDbEntity
  8
outside
100
AcDbLine
 10
10.9372764343577
 20
2.225761785200005
 30
0.0
 11
11.02171437689256
 21
2.395699728131146
 31
0.0
  0
ARC
  5
36C
330
1F
100
AcDbEntity
  8
outside
100
AcDbCircle
 10
10.97541803687205
 20
2.287041195098709
 30
0.0
 40
0.118110236220472
100
AcDbArc
 50
333.5783599066735
 51
66.92251211112893
  0
LINE
  5
36D
330
1F
100
AcDbEntity
  8
outside
100
AcDbLine
 10
11.08119092211279
 20
2.234485275851634
 30
0.0
 11
11.01111636311669
 21
2.093454762197312
 31
0.0
  0
ARC
  5
36E
330
1F
100
AcDbEntity
  8
outside
100
AcDbCircle
 10
10.90534347787595
 20
2.146010681444387
 30
0.0
 40
0.118110236220475
100
AcDbArc
 50
270.0000000000009
 51
333.5783599066742
  0
LINE
  5
36F
330
1F
100
AcDbEntity
  8
outside
100
AcDbLine
 10
10.90534347787595
 20
2.027900445223913
 30
0.0
 11
10.30648688226498
 21
2.027900445223918
 31
0.0
  0
LINE
  5
370
330
1F
100
AcDbEntity
  8
outside
100
AcDbLine
 10
10.30648688226498
 20
2.027900445223918
 30
0.0
 11
10.30648688226498
 21
2.709987059397084
 31
0.0
  0
LINE
  5
371
330
1F
100
AcDbEntity
  8
outside
100
AcDbLine
 10
10.30648688226498
 20
2.709987059397084
 30
0.0
 11
10.19526640982405
 21
2.709987059396836
 31
0.0
  0
LINE
  5
372
330
1F
100
AcDbEntity
  8
outside
100
AcDbLine
 10
10.19526640982405
 20
2.709987059396836
 30
0.0
 11
10.19526640982552
 21
2.028051230994192
 31
0.0
  0
ARC
  5
373
330
1F
100
AcDbEntity
  8
outside
100
AcDbCircle
 10
10.18837664604565
 20
2.185380760184224
 30
0.0
 40
0.157480314960631
100
AcDbArc
 50
180.000000000128
 51
272.5074907037115
  0
LINE
  5
374
330
1F
100
AcDbEntity
  8
outside
100
AcDbLine
 10
10.03089633108502
 20
2.185380760183872
 30
0.0
 11
10.0308963310826
 21
3.27537862916643
 31
0.0
  0
ARC
  5
375
330
1F
100
AcDbEntity
  8
outside
100
AcDbCircle
 10
10.14900656730307
 20
3.275378629166695
 30
0.0
 40
0.1181102362204722
100
AcDbArc
 50
165.0000000000036
 51
180.0000000001286
  0
LINE
  5
376
330
1F
100
AcDbEntity
  8
outside
100
AcDbLine
 10
10.03492083978861
 20
3.305947807722104
 30
0.0
 11
10.25177553539125
 21
4.115260549571198
 31
0.0
  0
ARC
  5
377
330
1F
100
AcDbEntity
  8
outside
100
AcDbCircle
 10
10.36586126290571
 20
4.084691371015788
 30
0.0
 40
0.118110236220471
100
AcDbArc
 50
71.65584779554672
 51
165.0000000000026
  0
LINE
  5
378
330
1F
100
AcDbEntity
  8
outside
100
AcDbLine
 10
10.40303338785195
 20
4.196799626853779
 30
0.0
 11
10.30297138246382
 21
3.823363138837999
 31
0.0
  0
LINE
  5
379
330
1F
100
AcDbEntity
  8
outside
100
AcDbLine
 10
10.30297138246382
 20
3.823363138837999
 30
0.0
 11
10.4104021092066
 21
3.794577162364986
 31
0.0
  0
LINE
  5
37A
330
1F
100
AcDbEntity
  8
outside
100
AcDbLine
 10
10.4104021092066
 20
3.794577162364986
 30
0.0
 11
10.4516610212253
 21
3.948557518283833
 31
0.0
  0
LINE
  5
37B
330
1F
100
AcDbEntity
  8
outside
100
AcDbLine
 10
10.4516610212253
 20
3.948557518283833
 30
0.0
 11
11.14879791993967
 21
3.948557518283833
 31
0.0
  0
LINE
  5
37C
330
1F
100
AcDbEntity
  8
outside
100
AcDbLine
 10
11.14879791993967
 20
3.948557518283833
 30
0.0
 11
11.19005683195838
 21
3.794577162364987
 31
0.0
  0
LINE
  5
37D
330
1F
100
AcDbEntity
  8
outside
100
AcDbLine
 10
11.19005683195838
 20
3.794577162364987
 30
0.0
 11
11.29748755870116
 21
3.823363138837999
 31
0.0
  0
LINE
  5
37E
330
1F
100
AcDbEntity
  8
outside
100
AcDbLine
 10
11.29748755870116
 20
3.823363138837999
 30
0.0
 11
11.19742555331303
 21
4.196799626853779
 31
0.0
  0
ARC
  5
37F
330
1F
100
AcDbEntity
  8
outside
100
AcDbCircle
 10
11.23459767825927
 20
4.084691371015788
 30
0.0
 40
0.1181102362204723
100
AcDbArc
 50
14.9999999999974
 51
108.3441522044533
  0
LINE
  5
380
330
1F
100
AcDbEntity
  8
outside
100
AcDbLine
 10
11.34868340577373
 20
4.115260549571198
 30
0.0
 11
11.49374473151305
 21
3.573884311698656
 31
0.0
  0
LINE
  5
381
330
1F
100
AcDbEntity
  8
outside
100
AcDbLine
 10
8.804247327421874
 20
4.11035415498801
 30
0.0
 11
8.442059670515664
 21
4.264692780048008
 31
0.0
  0
LINE
  5
382
330
1F
100
AcDbEntity
  8
outside
100
AcDbLine
 10
8.442059670515664
 20
4.264692780048008
 30
0.0
 11
8.254176446775467
 21
3.823785751415366
 31
0.0
  0
ARC
  5
383
330
1F
100
AcDbEntity
  8
outside
100
AcDbCircle
 10
8.362832743847329
 20
3.777484163897369
 30
0.0
 40
0.1181102362204711
100
AcDbArc
 50
156.9197450707105
 51
186.9197450706868
  0
LINE
  5
384
330
1F
100
AcDbEntity
  8
outside
100
AcDbLine
 10
8.245582836542943
 20
3.76325436638762
 30
0.0
 11
8.303324706155144
 21
3.28747606701446
 31
0.0
  0
LINE
  5
385
330
1F
100
AcDbEntity
  8
outside
100
AcDbLine
 10
8.303324706155144
 20
3.28747606701446
 30
0.0
 11
8.694157730503096
 21
3.334908725380352
 31
0.0
  0
LINE
  5
386
330
1F
100
AcDbEntity
  8
outside
100
AcDbLine
 10
8.694157730503096
 20
3.334908725380352
 30
0.0
 11
8.707557456491436
 21
3.224498396002118
 31
0.0
  0
LINE
  5
387
330
1F
100
AcDbEntity
  8
outside
100
AcDbLine
 10
8.707557456491436
 20
3.224498396002118
 30
0.0
 11
8.316924089825404
 21
3.177089968686448
 31
0.0
  0
ARC
  5
388
330
1F
100
AcDbEntity
  8
outside
100
AcDbCircle
 10
8.434804410969265
 20
3.184455957219948
 30
0.0
 40
0.1181102362204712
100
AcDbArc
 50
183.5755928662309
 51
269.7841699719218
  0
LINE
  5
389
330
1F
100
AcDbEntity
  8
outside
100
AcDbLine
 10
8.434359497303214
 20
3.066346558983036
 30
0.0
 11
9.755443301997882
 21
3.061370085920923
 31
0.0
  0
ARC
  5
38A
330
1F
100
AcDbEntity
  8
outside
100
AcDbCircle
 10
9.755888215663933
 20
3.179479484157835
 30
0.0
 40
0.1181102362204724
100
AcDbArc
 50
269.7841699719218
 51
125.7274895628892
  0
LINE
  5
38B
330
1F
100
AcDbEntity
  8
outside
100
AcDbLine
 10
9.68692001467663
 20
3.275361782589979
 30
0.0
 11
9.523274425108136
 21
3.29859446448514
 31
0.0
  0
LINE
  5
38C
330
1F
100
AcDbEntity
  8
outside
100
AcDbLine
 10
9.523274425108136
 20
3.29859446448514
 30
0.0
 11
9.610709413789251
 21
3.914466120465411
 31
0.0
  0
LINE
  5
38D
330
1F
100
AcDbEntity
  8
outside
100
AcDbLine
 10
9.610709413789251
 20
3.914466120465411
 30
0.0
 11
9.774355003357737
 21
3.891233438570244
 31
0.0
  0
ARC
  5
38E
330
1F
100
AcDbEntity
  8
outside
100
AcDbCircle
 10
9.867284818331711
 20
3.964131157251687
 30
0.0
 40
0.1181102362204732
100
AcDbArc
 50
218.1120005785022
 51
74.05532016947635
  0
LINE
  5
38F
330
1F
100
AcDbEntity
  8
outside
100
AcDbLine
 10
9.899730776318552
 20
4.077697383350699
 30
0.0
 11
8.629463513092339
 21
4.440613715700822
 31
0.0
  0
ARC
  5
390
330
1F
100
AcDbEntity
  8
outside
100
AcDbCircle
 10
8.597017555105498
 20
4.32704748960181
 30
0.0
 40
0.1181102362204714
100
AcDbArc
 50
74.05532016947628
 51
160.2638972751632
  0
LINE
  5
391
330
1F
100
AcDbEntity
  8
outside
100
AcDbLine
 10
8.485845356244777
 20
4.36693194898799
 30
0.0
 11
8.847847989001298
 21
4.212672168063957
 31
0.0
  0
LINE
  5
392
330
1F
100
AcDbEntity
  8
outside
100
AcDbLine
 10
8.847847989001298
 20
4.212672168063957
 30
0.0
 11
8.804247327421874
 21
4.11035415498801
 31
0.0
  0
LINE
  5
393
330
1F
100
AcDbEntity
  8
outside
100
AcDbLine
 10
10.73390850504325
 20
1.850393700787401
 30
0.0
 11
10.73390850504301
 21
1.968503937007873
 31
0.0
  0
LINE
  5
394
330
1F
100
AcDbEntity
  8
outside
100
AcDbLine
 10
10.73390850504301
 20
1.968503937007873
 30
0.0
 11
10.04493212709077
 21
1.968503937007874
 31
0.0
  0
LINE
  5
395
330
1F
100
AcDbEntity
  8
outside
100
AcDbLine
 10
10.04493212709077
 20
1.968503937007874
 30
0.0
 11
10.04493212709077
 21
0.0
 31
0.0
  0
LINE
  5
396
330
1F
100
AcDbEntity
  8
outside
100
AcDbLine
 10
10.04493212709077
 20
0.0
 30
0.0
 11
10.73390850504326
 21
-0.0000000000000002
 31
0.0
  0
LINE
  5
397
330
1F
100
AcDbEntity
  8
outside
100
AcDbLine
 10
10.73390850504326
 20
-0.0000000000000002
 30
0.0
 11
10.73390850504303
 21
0.1181102362204722
 31
0.0
  0
LINE
  5
398
330
1F
100
AcDbEntity
  8
outside
100
AcDbLine
 10
10.73390850504303
 20
0.1181102362204722
 30
0.0
 11
11.42288488299629
 21
0.1181102362204711
 31
0.0
  0
LINE
  5
399
330
1F
100
AcDbEntity
  8
outside
100
AcDbLine
 10
11.42288488299629
 20
0.1181102362204711
 30
0.0
 11
11.42288488299629
 21
1.850393700787401
 31
0.0
  0
LINE
  5
39A
330
1F
100
AcDbEntity
  8
outside
100
AcDbLine
 10
11.42288488299629
 20
1.850393700787401
 30
0.0
 11
10.73390850504325
 21
1.850393700787401
 31
0.0
  0
LINE
  5
39B
330
1F
100
AcDbEntity
  8
outside
100
AcDbLine
 10
3.470429125445726
 20
2.274517243559158
 30
0.0
 11
3.345429125445726
 21
2.274517243559145
 31
0.0
  0
LINE
  5
39C
330
1F
100
AcDbEntity
  8
outside
100
AcDbLine
 10
3.345429125445726
 20
2.274517243559145
 30
0.0
 11
3.345429125445726
 21
1.252076194643223
 31
0.0
  0
LINE
  5
39D
330
1F
100
AcDbEntity
  8
outside
100
AcDbLine
 10
3.345429125445726
 20
1.252076194643223
 30
0.0
 11
3.463539361666207
 21
1.252076194643213
 31
0.0
  0
LINE
  5
39E
330
1F
100
AcDbEntity
  8
outside
100
AcDbLine
 10
3.463539361666207
 20
1.252076194643213
 30
0.0
 11
3.463539361666568
 21
0.9837787938750924
 31
0.0
  0
ARC
  5
39F
330
1F
100
AcDbEntity
  8
outside
100
AcDbCircle
 10
4.330695453063388
 20
2.750993569494886
 30
0.0
 40
1.96850393700788
100
AcDbArc
 50
243.8632364321527
 51
296.0710079508023
  0
LINE
  5
3A0
330
1F
100
AcDbEntity
  8
outside
100
AcDbLine
 10
5.195822826232149
 20
0.9827847644580923
 30
0.0
 11
5.195822826233102
 21
1.251091942674721
 31
0.0
  0
LINE
  5
3A1
330
1F
100
AcDbEntity
  8
outside
100
AcDbLine
 10
5.195822826233102
 20
1.251091942674721
 30
0.0
 11
5.3139330624536
 21
1.251091942674707
 31
0.0
  0
LINE
  5
3A2
330
1F
100
AcDbEntity
  8
outside
100
AcDbLine
 10
5.3139330624536
 20
1.251091942674707
 30
0.0
 11
5.3139330624536
 21
2.275501495527662
 31
0.0
  0
LINE
  5
3A3
330
1F
100
AcDbEntity
  8
outside
100
AcDbLine
 10
5.3139330624536
 20
2.275501495527662
 30
0.0
 11
5.1889330624536
 21
2.275501495527649
 31
0.0
  0
LINE
  5
3A4
330
1F
100
AcDbEntity
  8
outside
100
AcDbLine
 10
5.1889330624536
 20
2.275501495527649
 30
0.0
 11
5.188933062452612
 21
2.554052771594789
 31
0.0
  0
ARC
  5
3A5
330
1F
100
AcDbEntity
  8
outside
100
AcDbCircle
 10
4.330695453063391
 20
0.7824896324870543
 30
0.0
 40
1.968503937007842
100
AcDbArc
 50
64.15203121338153
 51
115.9135996838092
  0
LINE
  5
3A6
330
1F
100
AcDbEntity
  8
outside
100
AcDbLine
 10
3.470429125446101
 20
2.553068519626297
 30
0.0
 11
3.470429125445726
 21
2.274517243559158
 31
0.0
  0
ARC
  5
3A7
330
1F
100
AcDbEntity
  8
inside
100
AcDbCircle
 10
4.329681093949659
 20
1.153254368906555
 30
0.0
 40
0.8661417322831791
100
AcDbArc
 50
24.61997732861569
 51
155.3800226713839
  0
ARC
  5
3A8
330
1F
100
AcDbEntity
  8
inside
100
AcDbCircle
 10
4.329681093949655
 20
-0.0288985639544215
 30
0.0
 40
1.73228346456806
100
AcDbArc
 50
62.9643082106066
 51
117.035691789393
  0
ARC
  5
3A9
330
1F
100
AcDbEntity
  8
outside
100
AcDbCircle
 10
4.19866635160527
 20
0.0787401574677614
 30
0.0
 40
0.0787401574803145
100
AcDbArc
 50
269.999999999819
 51
44.99999999983407
  0
LINE
  5
3AA
330
1F
100
AcDbEntity
  8
outside
100
AcDbLine
 10
4.198666351605021
 20
-0.0000000000125526
 30
0.0
 11
0.254903639980488
 21
0.0000000000000009
 31
0.0
  0
ARC
  5
3AB
330
1F
100
AcDbEntity
  8
outside
100
AcDbCircle
 10
3.942894583916107
 20
1.377952755906389
 30
0.0
 40
3.93700787401564
100
AcDbArc
 50
160.3219416433806
 51
200.4873151147369
  0
ARC
  5
3AC
330
1F
100
AcDbEntity
  8
outside
100
AcDbCircle
 10
0.3099513698609133
 20
2.677165354332463
 30
0.0
 40
0.0787401574803148
100
AcDbArc
 50
89.99999999999969
 51
160.3219416433797
  0
LINE
  5
3AD
330
1F
100
AcDbEntity
  8
outside
100
AcDbLine
 10
0.3099513698609137
 20
2.755905511812778
 30
0.0
 11
1.38039576596474
 21
2.755905511812781
 31
0.0
  0
LINE
  5
3AE
330
1F
100
AcDbEntity
  8
outside
100
AcDbLine
 10
1.38039576596474
 20
2.755905511812781
 30
0.0
 11
1.38039576596474
 21
1.574803149602669
 31
0.0
  0
LINE
  5
3AF
330
1F
100
AcDbEntity
  8
outside
100
AcDbLine
 10
1.38039576596474
 20
1.574803149602669
 30
0.0
 11
1.491616238405685
 21
1.574803149602669
 31
0.0
  0
LINE
  5
3B0
330
1F
100
AcDbEntity
  8
outside
100
AcDbLine
 10
1.491616238405685
 20
1.574803149602669
 30
0.0
 11
1.491616238405685
 21
2.480314960631678
 31
0.0
  0
LINE
  5
3B1
330
1F
100
AcDbEntity
  8
outside
100
AcDbLine
 10
1.491616238405685
 20
2.480314960631678
 30
0.0
 11
1.586104427382062
 21
2.480314960631678
 31
0.0
  0
LINE
  5
3B2
330
1F
100
AcDbEntity
  8
outside
100
AcDbLine
 10
1.586104427382062
 20
2.480314960631678
 30
0.0
 11
1.586104427382062
 21
2.755905511812781
 31
0.0
  0
LINE
  5
3B3
330
1F
100
AcDbEntity
  8
outside
100
AcDbLine
 10
1.586104427382062
 20
2.755905511812781
 30
0.0
 11
2.553261551285971
 21
2.755905511812781
 31
0.0
  0
ARC
  5
3B4
330
1F
100
AcDbEntity
  8
outside
100
AcDbCircle
 10
2.553261551285971
 20
2.677165354332467
 30
0.0
 40
0.0787401574803139
100
AcDbArc
 50
11.78660251892436
 51
90.00000000000033
  0
ARC
  5
3B5
330
1F
100
AcDbEntity
  8
outside
100
AcDbCircle
 10
-10.27659242286377
 20
0.0000000000334963
 30
0.0
 40
13.1849359187325
100
AcDbArc
 50
6.977498831958139
 51
11.78660251892542
  0
ARC
  5
3B6
330
1F
100
AcDbEntity
  8
outside
100
AcDbCircle
 10
2.888852013674263
 20
1.611265292631143
 30
0.0
 40
0.0787401574803143
100
AcDbArc
 50
186.9774988319612
 51
224.999999999834
  0
LINE
  5
3B7
330
1F
100
AcDbEntity
  8
outside
100
AcDbLine
 10
2.833174314368075
 20
1.555587593325277
 30
0.0
 11
4.254344050911458
 21
0.1344178567736272
 31
0.0
  0
LINE
  5
3B8
330
1F
100
AcDbEntity
  8
outside
100
AcDbLine
 10
4.187007874015749
 20
5.588832482622459
 30
0.0
 11
4.187007874015749
 21
5.98253327002487
 31
0.0
  0
LINE
  5
3B9
330
1F
100
AcDbEntity
  8
outside
100
AcDbLine
 10
4.187007874015749
 20
5.98253327002487
 30
0.0
 11
4.298228346456693
 21
5.982533270024886
 31
0.0
  0
LINE
  5
3BA
330
1F
100
AcDbEntity
  8
outside
100
AcDbLine
 10
4.298228346456693
 20
5.982533270024886
 30
0.0
 11
4.298228346456693
 21
5.588832482622459
 31
0.0
  0
LINE
  5
3BB
330
1F
100
AcDbEntity
  8
outside
100
AcDbLine
 10
4.298228346456693
 20
5.588832482622459
 30
0.0
 11
6.030511811023623
 21
5.588832482622459
 31
0.0
  0
LINE
  5
3BC
330
1F
100
AcDbEntity
  8
outside
100
AcDbLine
 10
6.030511811023623
 20
5.588832482622459
 30
0.0
 11
6.030511811023623
 21
5.981549018056365
 31
0.0
  0
LINE
  5
3BD
330
1F
100
AcDbEntity
  8
outside
100
AcDbLine
 10
6.030511811023623
 20
5.981549018056365
 30
0.0
 11
6.141732283464567
 21
5.981549018056382
 31
0.0
  0
LINE
  5
3BE
330
1F
100
AcDbEntity
  8
outside
100
AcDbLine
 10
6.141732283464567
 20
5.981549018056382
 30
0.0
 11
6.141732283464567
 21
5.588832482622459
 31
0.0
  0
LINE
  5
3BF
330
1F
100
AcDbEntity
  8
outside
100
AcDbLine
 10
6.141732283464567
 20
5.588832482622459
 30
0.0
 11
10.21062992125984
 21
5.588832482622459
 31
0.0
  0
ARC
  5
3C0
330
1F
100
AcDbEntity
  8
outside
100
AcDbCircle
 10
10.21062992125984
 20
5.706942718842931
 30
0.0
 40
0.1181102362204722
100
AcDbArc
 50
270.0000000000009
 51
0.0
  0
LINE
  5
3C1
330
1F
100
AcDbEntity
  8
outside
100
AcDbLine
 10
10.32874015748031
 20
5.706942718842931
 30
0.0
 11
10.32874015748031
 21
6.258123821205136
 31
0.0
  0
ARC
  5
3C2
330
1F
100
AcDbEntity
  8
outside
100
AcDbCircle
 10
10.21062992125984
 20
6.258123821205136
 30
0.0
 40
0.118110236220474
100
AcDbArc
 50
0.0
 51
93.34415220445574
  0
LINE
  5
3C3
330
1F
100
AcDbEntity
  8
outside
100
AcDbLine
 10
10.20374015748031
 20
6.376032934742293
 30
0.0
 11
10.20374015748031
 21
5.989423033803561
 31
0.0
  0
LINE
  5
3C4
330
1F
100
AcDbEntity
  8
outside
100
AcDbLine
 10
10.20374015748031
 20
5.989423033803561
 30
0.0
 11
10.09251968503937
 21
5.989423033803561
 31
0.0
  0
LINE
  5
3C5
330
1F
100
AcDbEntity
  8
outside
100
AcDbLine
 10
10.09251968503937
 20
5.989423033803561
 30
0.0
 11
10.09251968503937
 21
6.376234057425608
 31
0.0
  0
LINE
  5
3C6
330
1F
100
AcDbEntity
  8
outside
100
AcDbLine
 10
10.09251968503937
 20
6.376234057425608
 30
0.0
 11
0.2362204724409462
 21
6.376234057425608
 31
0.0
  0
LINE
  5
3C7
330
1F
100
AcDbEntity
  8
outside
100
AcDbLine
 10
0.2362204724409462
 20
6.376234057425608
 30
0.0
 11
0.2362204724409462
 21
5.989423033803561
 31
0.0
  0
LINE
  5
3C8
330
1F
100
AcDbEntity
  8
outside
100
AcDbLine
 10
0.2362204724409462
 20
5.989423033803561
 30
0.0
 11
0.1250000000000009
 21
5.989423033803561
 31
0.0
  0
LINE
  5
3C9
330
1F
100
AcDbEntity
  8
outside
100
AcDbLine
 10
0.1250000000000009
 20
5.989423033803561
 30
0.0
 11
0.1250000000000009
 21
6.376032934742292
 31
0.0
  0
ARC
  5
3CA
330
1F
100
AcDbEntity
  8
outside
100
AcDbCircle
 10
0.1181102362204726
 20
6.258123821205136
 30
0.0
 40
0.1181102362204724
100
AcDbArc
 50
86.65584779554402
 51
180.0000000000004
  0
LINE
  5
3CB
330
1F
100
AcDbEntity
  8
outside
100
AcDbLine
 10
0.0
 20
6.258123821205135
 30
0.0
 11
0.0000000000000027
 21
5.70694271884293
 31
0.0
  0
ARC
  5
3CC
330
1F
100
AcDbEntity
  8
outside
100
AcDbCircle
 10
0.1181102362204761
 20
5.706942718842931
 30
0.0
 40
0.1181102362204735
100
AcDbArc
 50
180.0000000000004
 51
269.999999999999
  0
LINE
  5
3CD
330
1F
100
AcDbEntity
  8
outside
100
AcDbLine
 10
0.118110236220474
 20
5.588832482622457
 30
0.0
 11
4.187007874015749
 21
5.588832482622459
 31
0.0
  0
ARC
  5
3CE
330
1F
100
AcDbEntity
  8
outside
100
AcDbCircle
 10
1.691000270519412
 20
4.883701125861143
 30
0.0
 40
0.1181102362204722
100
AcDbArc
 50
270.0000000000004
 51
0.0000000000004309
  0
LINE
  5
3CF
330
1F
100
AcDbEntity
  8
outside
100
AcDbLine
 10
1.809110506739886
 20
4.883701125861144
 30
0.0
 11
1.809110506739886
 21
5.552992464445919
 31
0.0
  0
LINE
  5
3D0
330
1F
100
AcDbEntity
  8
outside
100
AcDbLine
 10
1.809110506739886
 20
5.552992464445919
 30
0.0
 11
1.684110506739885
 21
5.552992464445638
 31
0.0
  0
LINE
  5
3D1
330
1F
100
AcDbEntity
  8
outside
100
AcDbLine
 10
1.684110506739885
 20
5.552992464445638
 30
0.0
 11
1.684110506739886
 21
5.159291677043795
 31
0.0
  0
LINE
  5
3D2
330
1F
100
AcDbEntity
  8
outside
100
AcDbLine
 10
1.684110506739886
 20
5.159291677043795
 30
0.0
 11
1.572890034298905
 21
5.159291677043795
 31
0.0
  0
LINE
  5
3D3
330
1F
100
AcDbEntity
  8
outside
100
AcDbLine
 10
1.572890034298905
 20
5.159291677043795
 30
0.0
 11
1.572890034298905
 21
5.552992464445389
 31
0.0
  0
LINE
  5
3D4
330
1F
100
AcDbEntity
  8
outside
100
AcDbLine
 10
1.572890034298905
 20
5.552992464445389
 30
0.0
 11
0.0
 21
5.552992464441848
 31
0.0
  0
LINE
  5
3D5
330
1F
100
AcDbEntity
  8
outside
100
AcDbLine
 10
0.0
 20
5.552992464441848
 30
0.0
 11
-0.0000000000000002
 21
2.875827110109431
 31
0.0
  0
ARC
  5
3D6
330
1F
100
AcDbEntity
  8
outside
100
AcDbCircle
 10
0.0787401574803146
 20
2.875827110109431
 30
0.0
 40
0.0787401574803148
100
AcDbArc
 50
180.0
 51
270.0
  0
LINE
  5
3D7
330
1F
100
AcDbEntity
  8
outside
100
AcDbLine
 10
0.0787401574803146
 20
2.797086952629117
 30
0.0
 11
1.419541056729324
 21
2.797086952629115
 31
0.0
  0
ARC
  5
3D8
330
1F
100
AcDbEntity
  8
outside
100
AcDbCircle
 10
1.419541056729324
 20
2.87582711010943
 30
0.0
 40
0.0787401574803148
100
AcDbArc
 50
270.0
 51
0.0
  0
LINE
  5
3D9
330
1F
100
AcDbEntity
  8
outside
100
AcDbLine
 10
1.498281214209639
 20
2.87582711010943
 30
0.0
 11
1.49828121420964
 21
3.072677503809817
 31
0.0
  0
LINE
  5
3DA
330
1F
100
AcDbEntity
  8
outside
100
AcDbLine
 10
1.49828121420964
 20
3.072677503809817
 30
0.0
 11
1.301430820508852
 21
3.072677503809817
 31
0.0
  0
ARC
  5
3DB
330
1F
100
AcDbEntity
  8
outside
100
AcDbCircle
 10
1.498281214209643
 20
2.865984590423987
 30
0.0
 40
0.2854330708661461
100
AcDbArc
 50
90.00000000000067
 51
133.6028189727037
  0
LINE
  5
3DC
330
1F
100
AcDbEntity
  8
outside
100
AcDbLine
 10
1.49828121420964
 20
3.151417661290133
 30
0.0
 11
1.49828121420964
 21
3.367953094360998
 31
0.0
  0
LINE
  5
3DD
330
1F
100
AcDbEntity
  8
outside
100
AcDbLine
 10
1.49828121420964
 20
3.367953094360998
 30
0.0
 11
1.301430820508851
 21
3.367953094360998
 31
0.0
  0
ARC
  5
3DE
330
1F
100
AcDbEntity
  8
outside
100
AcDbCircle
 10
1.49828121420964
 20
3.161260180975172
 30
0.0
 40
0.2854330708661421
100
AcDbArc
 50
90.00000000000026
 51
133.6028189727041
  0
LINE
  5
3DF
330
1F
100
AcDbEntity
  8
outside
100
AcDbLine
 10
1.498281214209639
 20
3.446693251841314
 30
0.0
 11
1.49828121420964
 21
3.663228684912179
 31
0.0
  0
LINE
  5
3E0
330
1F
100
AcDbEntity
  8
outside
100
AcDbLine
 10
1.49828121420964
 20
3.663228684912179
 30
0.0
 11
1.301430820508851
 21
3.663228684912179
 31
0.0
  0
ARC
  5
3E1
330
1F
100
AcDbEntity
  8
outside
100
AcDbCircle
 10
1.498281214209637
 20
3.456535771526358
 30
0.0
 40
0.2854330708661364
100
AcDbArc
 50
89.99999999999937
 51
133.602818972704
  0
LINE
  5
3E2
330
1F
100
AcDbEntity
  8
outside
100
AcDbLine
 10
1.49828121420964
 20
3.741968842392494
 30
0.0
 11
1.498281214209639
 21
4.76559088964067
 31
0.0
  0
LINE
  5
3E3
330
1F
100
AcDbEntity
  8
outside
100
AcDbLine
 10
1.498281214209639
 20
4.76559088964067
 30
0.0
 11
1.691000270519413
 21
4.76559088964067
 31
0.0
  0
ARC
  5
3E4
330
1F
100
AcDbEntity
  8
outside
100
AcDbCircle
 10
6.348287107354222
 20
4.174387642890697
 30
0.0
 40
0.0787401574803145
100
AcDbArc
 50
224.9999999999996
 51
0.0000000000006463
  0
LINE
  5
3E5
330
1F
100
AcDbEntity
  8
outside
100
AcDbLine
 10
6.427027264834537
 20
4.174387642890698
 30
0.0
 11
6.427027264834537
 21
4.771693661603342
 31
0.0
  0
LINE
  5
3E6
330
1F
100
AcDbEntity
  8
outside
100
AcDbLine
 10
6.427027264834537
 20
4.771693661603342
 30
0.0
 11
6.501636084923799
 21
4.771693661603342
 31
0.0
  0
LINE
  5
3E7
330
1F
100
AcDbEntity
  8
outside
100
AcDbLine
 10
6.501636084923799
 20
4.771693661603342
 30
0.0
 11
6.501636084923799
 21
5.165394449006467
 31
0.0
  0
LINE
  5
3E8
330
1F
100
AcDbEntity
  8
outside
100
AcDbLine
 10
6.501636084923799
 20
5.165394449006467
 30
0.0
 11
6.612856557364761
 21
5.165394449006467
 31
0.0
  0
LINE
  5
3E9
330
1F
100
AcDbEntity
  8
outside
100
AcDbLine
 10
6.612856557364761
 20
5.165394449006467
 30
0.0
 11
6.612856557364761
 21
4.771693661603342
 31
0.0
  0
LINE
  5
3EA
330
1F
100
AcDbEntity
  8
outside
100
AcDbLine
 10
6.612856557364761
 20
4.771693661603342
 30
0.0
 11
6.687465377454046
 21
4.771693661603342
 31
0.0
  0
LINE
  5
3EB
330
1F
100
AcDbEntity
  8
outside
100
AcDbLine
 10
6.687465377454046
 20
4.771693661603342
 30
0.0
 11
6.687465377454046
 21
3.748071614355565
 31
0.0
  0
ARC
  5
3EC
330
1F
100
AcDbEntity
  8
outside
100
AcDbCircle
 10
6.687465377454042
 20
2.566969252150841
 30
0.0
 40
1.181102362204724
100
AcDbArc
 50
59.99999999999986
 51
89.99999999999984
  0
ARC
  5
3ED
330
1F
100
AcDbEntity
  8
outside
100
AcDbCircle
 10
6.687465377454042
 20
1.436114595434443
 30
0.0
 40
2.233216861440805
100
AcDbArc
 50
74.6663380724454
 51
89.99999999999996
  0
LINE
  5
3EE
330
1F
100
AcDbEntity
  8
outside
100
AcDbLine
 10
6.687465377454044
 20
3.669331456875249
 30
0.0
 11
6.687465377454046
 21
3.452796023804384
 31
0.0
  0
ARC
  5
3EF
330
1F
100
AcDbEntity
  8
outside
100
AcDbCircle
 10
6.687465377454042
 20
2.271693661599659
 30
0.0
 40
1.181102362204724
100
AcDbArc
 50
59.99999999999986
 51
89.99999999999984
  0
ARC
  5
3F0
330
1F
100
AcDbEntity
  8
outside
100
AcDbCircle
 10
6.687465377454042
 20
1.140839004883262
 30
0.0
 40
2.233216861440805
100
AcDbArc
 50
74.6663380724454
 51
89.99999999999996
  0
LINE
  5
3F1
330
1F
100
AcDbEntity
  8
outside
100
AcDbLine
 10
6.687465377454044
 20
3.374055866324067
 30
0.0
 11
6.687465377454046
 21
3.157520433253203
 31
0.0
  0
ARC
  5
3F2
330
1F
100
AcDbEntity
  8
outside
100
AcDbCircle
 10
6.687465377454042
 20
1.976418071048478
 30
0.0
 40
1.181102362204724
100
AcDbArc
 50
59.99999999999986
 51
89.99999999999984
  0
ARC
  5
3F3
330
1F
100
AcDbEntity
  8
outside
100
AcDbCircle
 10
6.687465377454042
 20
0.8455634143320814
 30
0.0
 40
2.233216861440805
100
AcDbArc
 50
74.6663380724454
 51
89.99999999999996
  0
LINE
  5
3F4
330
1F
100
AcDbEntity
  8
outside
100
AcDbLine
 10
6.687465377454044
 20
3.078780275772886
 30
0.0
 11
6.687465377454045
 21
2.881929882072101
 31
0.0
  0
ARC
  5
3F5
330
1F
100
AcDbEntity
  8
outside
100
AcDbCircle
 10
6.76620553493436
 20
2.881929882072101
 30
0.0
 40
0.0787401574803148
100
AcDbArc
 50
180.0
 51
270.0
  0
LINE
  5
3F6
330
1F
100
AcDbEntity
  8
outside
100
AcDbLine
 10
6.76620553493436
 20
2.803189724591785
 30
0.0
 11
8.107006434183348
 21
2.803189724591784
 31
0.0
  0
ARC
  5
3F7
330
1F
100
AcDbEntity
  8
outside
100
AcDbCircle
 10
8.107006434183348
 20
2.881929882072099
 30
0.0
 40
0.0787401574803148
100
AcDbArc
 50
270.0
 51
359.999999999999
  0
LINE
  5
3F8
330
1F
100
AcDbEntity
  8
outside
100
AcDbLine
 10
8.185746591663663
 20
2.881929882072098
 30
0.0
 11
8.185746591663663
 21
5.559095236412132
 31
0.0
  0
LINE
  5
3F9
330
1F
100
AcDbEntity
  8
outside
100
AcDbLine
 10
8.185746591663663
 20
5.559095236412132
 30
0.0
 11
5.042319671320001
 21
5.559095236405058
 31
0.0
  0
ARC
  5
3FA
330
1F
100
AcDbEntity
  8
outside
100
AcDbCircle
 10
5.042319671320179
 20
5.480355078924742
 30
0.0
 40
0.0787401574803157
100
AcDbArc
 50
90.00000000012992
 51
225.0
  0
LINE
  5
3FB
330
1F
100
AcDbEntity
  8
outside
100
AcDbLine
 10
4.986641972014151
 20
5.424677379618714
 30
0.0
 11
6.292609408048194
 21
4.11870994358467
 31
0.0
  0
ARC
  5
3FC
330
1F
100
AcDbEntity
  8
outside
100
AcDbCircle
 10
10.29626068213632
 20
4.880743219775417
 30
0.0
 40
0.1181102362204725
100
AcDbArc
 50
147.1485822718484
 51
194.9999999999967
  0
LINE
  5
3FD
330
1F
100
AcDbEntity
  8
outside
100
AcDbLine
 10
10.19703861936601
 20
4.944813572979224
 30
0.0
 11
10.38345913334156
 21
5.233512277050924
 31
0.0
  0
LINE
  5
3FE
330
1F
100
AcDbEntity
  8
outside
100
AcDbLine
 10
10.38345913334156
 20
5.233512277050924
 30
0.0
 11
10.83824605204557
 21
6.148806410427661
 31
0.0
  0
LINE
  5
3FF
330
1F
100
AcDbEntity
  8
outside
100
AcDbLine
 10
10.83824605204557
 20
6.148806410427661
 30
0.0
 11
10.73864325177721
 21
6.198296567718658
 31
0.0
  0
LINE
  5
400
330
1F
100
AcDbEntity
  8
outside
100
AcDbLine
 10
10.73864325177721
 20
6.198296567718658
 30
0.0
 11
10.65420530924235
 21
6.028358624787516
 31
0.0
  0
ARC
  5
401
330
1F
100
AcDbEntity
  8
outside
100
AcDbCircle
 10
10.70050164926286
 20
6.137017157819954
 30
0.0
 40
0.1181102362204726
100
AcDbArc
 50
153.5783599066738
 51
246.9225121111281
  0
LINE
  5
402
330
1F
100
AcDbEntity
  8
outside
100
AcDbLine
 10
10.59472876402212
 20
6.189573077067029
 30
0.0
 11
10.66480332301822
 21
6.33060359072135
 31
0.0
  0
ARC
  5
403
330
1F
100
AcDbEntity
  8
outside
100
AcDbCircle
 10
10.77057620825896
 20
6.278047671474276
 30
0.0
 40
0.1181102362204735
100
AcDbArc
 50
90.0
 51
153.5783599066738
  0
LINE
  5
404
330
1F
100
AcDbEntity
  8
outside
100
AcDbLine
 10
10.77057620825896
 20
6.39615790769475
 30
0.0
 11
11.36943280386993
 21
6.396157907694745
 31
0.0
  0
LINE
  5
405
330
1F
100
AcDbEntity
  8
outside
100
AcDbLine
 10
11.36943280386993
 20
6.396157907694745
 30
0.0
 11
11.36943280386993
 21
5.714071293521579
 31
0.0
  0
LINE
  5
406
330
1F
100
AcDbEntity
  8
outside
100
AcDbLine
 10
11.36943280386993
 20
5.714071293521579
 30
0.0
 11
11.48065327631086
 21
5.714071293521827
 31
0.0
  0
LINE
  5
407
330
1F
100
AcDbEntity
  8
outside
100
AcDbLine
 10
11.48065327631086
 20
5.714071293521827
 30
0.0
 11
11.48065327630939
 21
6.396007121924471
 31
0.0
  0
ARC
  5
408
330
1F
100
AcDbEntity
  8
outside
100
AcDbCircle
 10
11.48754304008926
 20
6.238677592734439
 30
0.0
 40
0.157480314960631
100
AcDbArc
 50
0.0000000001282883
 51
92.50749070371149
  0
LINE
  5
409
330
1F
100
AcDbEntity
  8
outside
100
AcDbLine
 10
11.64502335504989
 20
6.238677592734791
 30
0.0
 11
11.64502335505232
 21
5.148679723752233
 31
0.0
  0
ARC
  5
40A
330
1F
100
AcDbEntity
  8
outside
100
AcDbCircle
 10
11.52691311883184
 20
5.148679723751967
 30
0.0
 40
0.118110236220474
100
AcDbArc
 50
345.0000000000043
 51
0.0000000001292577
  0
LINE
  5
40B
330
1F
100
AcDbEntity
  8
outside
100
AcDbLine
 10
11.6409988463463
 20
5.118110545196559
 30
0.0
 11
11.42414415074366
 21
4.308797803347465
 31
0.0
  0
ARC
  5
40C
330
1F
100
AcDbEntity
  8
outside
100
AcDbCircle
 10
11.3100584232292
 20
4.339366981902875
 30
0.0
 40
0.1181102362204727
100
AcDbArc
 50
251.6558477955475
 51
345.0000000000029
  0
LINE
  5
40D
330
1F
100
AcDbEntity
  8
outside
100
AcDbLine
 10
11.27288629828296
 20
4.227258726064883
 30
0.0
 11
11.37294830367109
 21
4.600695214080664
 31
0.0
  0
LINE
  5
40E
330
1F
100
AcDbEntity
  8
outside
100
AcDbLine
 10
11.37294830367109
 20
4.600695214080664
 30
0.0
 11
11.26551757692831
 21
4.629481190553677
 31
0.0
  0
LINE
  5
40F
330
1F
100
AcDbEntity
  8
outside
100
AcDbLine
 10
11.26551757692831
 20
4.629481190553677
 30
0.0
 11
11.22425866490961
 21
4.47550083463483
 31
0.0
  0
LINE
  5
410
330
1F
100
AcDbEntity
  8
outside
100
AcDbLine
 10
11.22425866490961
 20
4.47550083463483
 30
0.0
 11
10.52712176619524
 21
4.47550083463483
 31
0.0
  0
LINE
  5
411
330
1F
100
AcDbEntity
  8
outside
100
AcDbLine
 10
10.52712176619524
 20
4.47550083463483
 30
0.0
 11
10.48586285417653
 21
4.629481190553676
 31
0.0
  0
LINE
  5
412
330
1F
100
AcDbEntity
  8
outside
100
AcDbLine
 10
10.48586285417653
 20
4.629481190553676
 30
0.0
 11
10.37843212743375
 21
4.600695214080664
 31
0.0
  0
LINE
  5
413
330
1F
100
AcDbEntity
  8
outside
100
AcDbLine
 10
10.37843212743375
 20
4.600695214080664
 30
0.0
 11
10.47849413282188
 21
4.227258726064883
 31
0.0
  0
ARC
  5
414
330
1F
100
AcDbEntity
  8
outside
100
AcDbCircle
 10
10.44132200787564
 20
4.339366981902875
 30
0.0
 40
0.1181102362204717
100
AcDbArc
 50
194.9999999999967
 51
288.3441522044525
  0
LINE
  5
415
330
1F
100
AcDbEntity
  8
outside
100
AcDbLine
 10
10.32723628036118
 20
4.308797803347466
 30
0.0
 11
10.18217495462186
 21
4.850174041220007
 31
0.0
  0
LINE
  5
416
330
1F
100
AcDbEntity
  8
outside
100
AcDbLine
 10
9.589846070481442
 20
4.504975548435981
 30
0.0
 11
9.952033727387652
 21
4.350636923375984
 31
0.0
  0
LINE
  5
417
330
1F
100
AcDbEntity
  8
outside
100
AcDbLine
 10
9.952033727387652
 20
4.350636923375984
 30
0.0
 11
10.13991695112784
 21
4.791543952008625
 31
0.0
  0
ARC
  5
418
330
1F
100
AcDbEntity
  8
outside
100
AcDbCircle
 10
10.03126065405598
 20
4.837845539526622
 30
0.0
 40
0.1181102362204709
100
AcDbArc
 50
336.9197450707107
 51
6.919745070687062
  0
LINE
  5
419
330
1F
100
AcDbEntity
  8
outside
100
AcDbLine
 10
10.14851056136037
 20
4.852075337036371
 30
0.0
 11
10.09076869174817
 21
5.32785363640953
 31
0.0
  0
LINE
  5
41A
330
1F
100
AcDbEntity
  8
outside
100
AcDbLine
 10
10.09076869174817
 20
5.32785363640953
 30
0.0
 11
9.699935667400218
 21
5.280420978043638
 31
0.0
  0
LINE
  5
41B
330
1F
100
AcDbEntity
  8
outside
100
AcDbLine
 10
9.699935667400218
 20
5.280420978043638
 30
0.0
 11
9.686535941411881
 21
5.390831307421873
 31
0.0
  0
LINE
  5
41C
330
1F
100
AcDbEntity
  8
outside
100
AcDbLine
 10
9.686535941411881
 20
5.390831307421873
 30
0.0
 11
10.07716930807791
 21
5.438239734737542
 31
0.0
  0
ARC
  5
41D
330
1F
100
AcDbEntity
  8
outside
100
AcDbCircle
 10
9.959288986934049
 20
5.430873746204042
 30
0.0
 40
0.1181102362204712
100
AcDbArc
 50
3.575592866230902
 51
89.78416997192177
  0
LINE
  5
41E
330
1F
100
AcDbEntity
  8
outside
100
AcDbLine
 10
9.959733900600101
 20
5.548983144440954
 30
0.0
 11
8.638650095905434
 21
5.553959617503066
 31
0.0
  0
ARC
  5
41F
330
1F
100
AcDbEntity
  8
outside
100
AcDbCircle
 10
8.638205182239383
 20
5.435850219266154
 30
0.0
 40
0.1181102362204715
100
AcDbArc
 50
89.78416997192177
 51
305.7274895628891
  0
LINE
  5
420
330
1F
100
AcDbEntity
  8
outside
100
AcDbLine
 10
8.707173383226686
 20
5.33996792083401
 30
0.0
 11
8.870818972795181
 21
5.316735238938849
 31
0.0
  0
LINE
  5
421
330
1F
100
AcDbEntity
  8
outside
100
AcDbLine
 10
8.870818972795181
 20
5.316735238938849
 30
0.0
 11
8.783383984114065
 21
4.700863582958578
 31
0.0
  0
LINE
  5
422
330
1F
100
AcDbEntity
  8
outside
100
AcDbLine
 10
8.783383984114065
 20
4.700863582958578
 30
0.0
 11
8.61973839454558
 21
4.724096264853746
 31
0.0
  0
ARC
  5
423
330
1F
100
AcDbEntity
  8
outside
100
AcDbCircle
 10
8.526808579571605
 20
4.651198546172303
 30
0.0
 40
0.1181102362204726
100
AcDbArc
 50
38.11200057850183
 51
254.0553201694765
  0
LINE
  5
424
330
1F
100
AcDbEntity
  8
outside
100
AcDbLine
 10
8.494362621584764
 20
4.53763232007329
 30
0.0
 11
9.764629884810977
 21
4.17471598772317
 31
0.0
  0
ARC
  5
425
330
1F
100
AcDbEntity
  8
outside
100
AcDbCircle
 10
9.797075842797818
 20
4.288282213822182
 30
0.0
 40
0.1181102362204723
100
AcDbArc
 50
254.0553201694764
 51
340.2638972751628
  0
LINE
  5
426
330
1F
100
AcDbEntity
  8
outside
100
AcDbLine
 10
9.90824804165854
 20
4.248397754436002
 30
0.0
 11
9.546245408902018
 21
4.402657535360034
 31
0.0
  0
LINE
  5
427
330
1F
100
AcDbEntity
  8
outside
100
AcDbLine
 10
9.546245408902018
 20
4.402657535360034
 30
0.0
 11
9.589846070481442
 21
4.504975548435981
 31
0.0
  0
LINE
  5
428
330
1F
100
AcDbEntity
  8
outside
100
AcDbLine
 10
9.856299212598424
 20
7.865479557487319
 30
0.0
 11
0.0
 21
7.865479557487319
 31
0.0
  0
LINE
  5
429
330
1F
100
AcDbEntity
  8
outside
100
AcDbLine
 10
0.0
 20
7.865479557487319
 30
0.0
 11
0.0
 21
7.235816045980854
 31
0.0
  0
LINE
  5
42A
330
1F
100
AcDbEntity
  8
outside
100
AcDbLine
 10
0.0
 20
7.235816045980854
 30
0.0
 11
9.856299212598424
 21
7.235816045980854
 31
0.0
  0
LINE
  5
42B
330
1F
100
AcDbEntity
  8
outside
100
AcDbLine
 10
9.856299212598424
 20
7.235816045980854
 30
0.0
 11
9.856299212598424
 21
7.865479557487319
 31
0.0
  0
ARC
  5
42C
330
1F
100
AcDbEntity
  8
outside
100
AcDbCircle
 10
10.11831963819185
 20
7.476850660115033
 30
0.0
 40
0.1181102362204725
100
AcDbArc
 50
143.6884774841421
 51
233.6884774841422
  0
LINE
  5
42D
330
1F
100
AcDbEntity
  8
outside
100
AcDbLine
 10
10.04837768027328
 20
7.381676344133399
 30
0.0
 11
11.34909333202216
 21
6.425802919246295
 31
0.0
  0
LINE
  5
42E
330
1F
100
AcDbEntity
  8
outside
100
AcDbLine
 10
11.34909333202216
 20
6.425802919246295
 30
0.0
 11
11.41903528994073
 21
6.520977235227929
 31
0.0
  0
LINE
  5
42F
330
1F
100
AcDbEntity
  8
outside
100
AcDbLine
 10
11.41903528994073
 20
6.520977235227929
 30
0.0
 11
10.17364986177522
 21
7.487398405097748
 31
0.0
  0
ARC
  5
430
330
1F
100
AcDbEntity
  8
outside
100
AcDbCircle
 10
10.19778631634393
 20
7.518502016798945
 30
0.0
 40
0.0393700787401571
100
AcDbArc
 50
143.6884774841406
 51
232.1884774841419
  0
LINE
  5
431
330
1F
100
AcDbEntity
  8
outside
100
AcDbLine
 10
10.16606154435005
 20
7.541816002771804
 30
0.0
 11
10.24928242011716
 21
7.655059757482643
 31
0.0
  0
ARC
  5
432
330
1F
100
AcDbEntity
  8
outside
100
AcDbCircle
 10
10.28100719211103
 20
7.631745771509784
 30
0.0
 40
0.039370078740157
100
AcDbArc
 50
55.18847748414251
 51
143.6884774841416
  0
LINE
  5
433
330
1F
100
AcDbEntity
  8
outside
100
AcDbLine
 10
10.30348273124662
 20
7.664069961222305
 30
0.0
 11
11.59773997802423
 21
6.764151675252308
 31
0.0
  0
LINE
  5
434
330
1F
100
AcDbEntity
  8
outside
100
AcDbLine
 10
11.59773997802423
 20
6.764151675252308
 30
0.0
 11
11.66768193594281
 21
6.859325991233943
 31
0.0
  0
LINE
  5
435
330
1F
100
AcDbEntity
  8
outside
100
AcDbLine
 10
11.66768193594281
 20
6.859325991233943
 30
0.0
 11
10.36696628419393
 21
7.815199416121046
 31
0.0
  0
ARC
  5
436
330
1F
100
AcDbEntity
  8
outside
100
AcDbCircle
 10
10.29702432627535
 20
7.720025100139412
 30
0.0
 40
0.1181102362204725
100
AcDbArc
 50
53.68847748414211
 51
143.6884774841425
  0
LINE
  5
437
330
1F
100
AcDbEntity
  8
outside
100
AcDbLine
 10
10.20185001029372
 20
7.789967058057988
 30
0.0
 11
10.02314532221022
 21
7.54679261803361
 31
0.0
  0
ARC
  5
438
330
1F
100
AcDbEntity
  8
outside
100
AcDbCircle
 10
5.106703980952942
 20
4.659569122138105
 30
0.0
 40
0.1181102362204721
100
AcDbArc
 50
134.9999999999997
 51
225.0
  0
LINE
  5
439
330
1F
100
AcDbEntity
  8
outside
100
AcDbLine
 10
5.023187431993902
 20
4.576052573179064
 30
0.0
 11
6.164580267767352
 21
3.434659737405615
 31
0.0
  0
LINE
  5
43A
330
1F
100
AcDbEntity
  8
outside
100
AcDbLine
 10
6.164580267767352
 20
3.434659737405615
 30
0.0
 11
6.248096816726393
 21
3.518176286364655
 31
0.0
  0
LINE
  5
43B
330
1F
100
AcDbEntity
  8
outside
100
AcDbLine
 10
6.248096816726393
 20
3.518176286364655
 30
0.0
 11
5.162992614448345
 21
4.661637528584115
 31
0.0
  0
ARC
  5
43C
330
1F
100
AcDbEntity
  8
outside
100
AcDbCircle
 10
5.19155066055119
 20
4.688738102430326
 30
0.0
 40
0.0393700787401562
100
AcDbArc
 50
134.9999999999982
 51
223.5000000000011
  0
LINE
  5
43D
330
1F
100
AcDbEntity
  8
outside
100
AcDbLine
 10
5.163711810898178
 20
4.71657695208334
 30
0.0
 11
5.263084498656064
 21
4.815949639841226
 31
0.0
  0
ARC
  5
43E
330
1F
100
AcDbEntity
  8
outside
100
AcDbCircle
 10
5.290923348309076
 20
4.788110790188213
 30
0.0
 40
0.039370078740157
100
AcDbArc
 50
46.49999999999885
 51
134.9999999999991
  0
LINE
  5
43F
330
1F
100
AcDbEntity
  8
outside
100
AcDbLine
 10
5.318023922155288
 20
4.816668836291058
 30
0.0
 11
6.461485164374748
 21
3.731564634013011
 31
0.0
  0
LINE
  5
440
330
1F
100
AcDbEntity
  8
outside
100
AcDbLine
 10
6.461485164374748
 20
3.731564634013011
 30
0.0
 11
6.545001713333789
 21
3.815081182972051
 31
0.0
  0
LINE
  5
441
330
1F
100
AcDbEntity
  8
outside
100
AcDbLine
 10
6.545001713333789
 20
3.815081182972051
 30
0.0
 11
5.403608877560339
 21
4.956474018745501
 31
0.0
  0
ARC
  5
442
330
1F
100
AcDbEntity
  8
outside
100
AcDbCircle
 10
5.320092328601297
 20
4.87295746978646
 30
0.0
 40
0.1181102362204721
100
AcDbArc
 50
44.99999999999969
 51
135.0
  0
LINE
  5
443
330
1F
100
AcDbEntity
  8
outside
100
AcDbLine
 10
5.236575779642257
 20
4.956474018745501
 30
0.0
 11
5.023187431993902
 21
4.743085671097146
 31
0.0
  0
ENDSEC
  0
SECTION
  2
OBJECTS
  0
DICTIONARY
  5
C
330
0
100
AcDbDictionary
281
     1
  3
ACAD_CIP_PREVIOUS_PRODUCT_INFO
350
1A5
  3
ACAD_COLOR
350
73
  3
ACAD_DETAILVIEWSTYLE
350
1AB
  3
ACAD_GROUP
350
D
  3
ACAD_LAYOUT
350
1A
  3
ACAD_MATERIAL
350
72
  3
ACAD_MLEADERSTYLE
350
D7
  3
ACAD_MLINESTYLE
350
17
  3
ACAD_PLOTSETTINGS
350
19
  3
ACAD_PLOTSTYLENAME
350
E
  3
ACAD_SCALELIST
350
B6
  3
ACAD_SECTIONVIEWSTYLE
350
1A8
  3
ACAD_TABLESTYLE
350
86
  3
ACAD_VISUALSTYLE
350
99
  3
ACDB_RECOMPOSE_DATA
350
44C
  3
AcDbVariableDictionary
350
66
  0
DICTIONARY
  5
18E
330
2
100
AcDbDictionary
280
     1
281
     1
  3
ACAD_LAYERSTATES
360
18F
  0
DICTIONARY
  5
E6
330
10
100
AcDbDictionary
280
     1
281
     1
  0
DICTIONARY
  5
15D
330
1F
100
AcDbDictionary
280
     1
281
     1
  3
ACAD_SORTENTS
360
2C5
  0
XRECORD
  5
1A5
102
{ACAD_REACTORS
330
C
102
}
330
C
100
AcDbXrecord
280
     1
300
ACDMAC
300
2024
300

  0
DICTIONARY
  5
73
102
{ACAD_REACTORS
330
C
102
}
330
C
100
AcDbDictionary
281
     1
  0
DICTIONARY
  5
1AB
102
{ACAD_REACTORS
330
C
102
}
330
C
100
AcDbDictionary
281
     1
  3
Imperial24
350
1AC
  0
DICTIONARY
  5
D
102
{ACAD_REACTORS
330
C
102
}
330
C
100
AcDbDictionary
281
     1
  0
DICTIONARY
  5
1A
102
{ACAD_REACTORS
330
C
102
}
330
C
100
AcDbDictionary
281
     1
  3
Layout1
350
59
  3
Layout2
350
5E
  3
Model
350
22
  0
DICTIONARY
  5
72
102
{ACAD_REACTORS
330
C
102
}
330
C
100
AcDbDictionary
281
     1
  3
ByBlock
350
97
  3
ByLayer
350
96
  3
Global
350
98
  0
DICTIONARY
  5
D7
102
{ACAD_REACTORS
330
C
102
}
330
C
100
AcDbDictionary
281
     1
  3
Annotative
350
E5
  3
Standard
350
D8
  0
DICTIONARY
  5
17
102
{ACAD_REACTORS
330
C
102
}
330
C
100
AcDbDictionary
281
     1
  3
Standard
350
18
  0
DICTIONARY
  5
19
102
{ACAD_REACTORS
330
C
102
}
330
C
100
AcDbDictionary
281
     1
  0
ACDBDICTIONARYWDFLT
  5
E
102
{ACAD_REACTORS
330
C
102
}
330
C
100
AcDbDictionary
281
     1
  3
Normal
350
F
100
AcDbDictionaryWithDefault
340
F
  0
DICTIONARY
  5
B6
102
{ACAD_REACTORS
330
C
102
}
330
C
100
AcDbDictionary
281
     1
  3
A0
350
B7
  3
A1
350
124
  3
A2
350
125
  3
A3
350
126
  3
A4
350
127
  3
A5
350
128
  3
A6
350
129
  3
A7
350
12A
  3
A8
350
12B
  3
A9
350
12C
  3
B0
350
12D
  3
B1
350
12E
  3
B2
350
12F
  3
B3
350
130
  3
B4
350
131
  3
B5
350
132
  3
B6
350
133
  3
B7
350
134
  3
B8
350
135
  3
B9
350
136
  3
C0
350
137
  3
C1
350
138
  3
C2
350
139
  3
C3
350
13A
  3
C4
350
13B
  3
C5
350
13C
  3
C6
350
13D
  3
C7
350
13E
  3
C8
350
13F
  3
C9
350
140
  3
D0
350
141
  3
D1
350
142
  3
D2
350
143
  0
DICTIONARY
  5
1A8
102
{ACAD_REACTORS
330
C
102
}
330
C
100
AcDbDictionary
281
     1
  3
Imperial24
350
1AA
  0
DICTIONARY
  5
86
102
{ACAD_REACTORS
330
C
102
}
330
C
100
AcDbDictionary
281
     1
  3
Standard
350
87
  0
DICTIONARY
  5
99
102
{ACAD_REACTORS
330
C
102
}
330
C
100
AcDbDictionary
281
     1
  3
2dWireframe
350
9F
  3
Basic
350
9E
  3
Brighten
350
A5
  3
ColorChange
350
A9
  3
Conceptual
350
A2
  3
Dim
350
A4
  3
EdgeColorOff
350
175
  3
Facepattern
350
A8
  3
Flat
350
9A
  3
FlatWithEdges
350
9B
  3
Gouraud
350
9C
  3
GouraudWithEdges
350
9D
  3
Hidden
350
A1
  3
JitterOff
350
173
  3
Linepattern
350
A7
  3
OverhangOff
350
174
  3
Realistic
350
A3
  3
Shaded
350
182
  3
Shaded with edges
350
181
  3
Shades of Gray
350
17E
  3
Sketchy
350
17F
  3
Thicken
350
A6
  3
Wireframe
350
A0
  3
X-Ray
350
180
  0
XRECORD
  5
44C
102
{ACAD_REACTORS
330
C
102
}
330
C
100
AcDbXrecord
280
     1
 90
        1
330
87
  0
DICTIONARY
  5
66
102
{ACAD_REACTORS
330
C
102
}
330
C
100
AcDbDictionary
281
     1
  3
CANNOSCALE
350
F0
  3
CMLEADERSTYLE
350
EF
  3
CTABLESTYLE
350
89
  3
CVIEWDETAILSTYLE
350
1B7
  3
CVIEWSECTIONSTYLE
350
1B8
  3
DIMASSOC
350
67
  3
HIDETEXT
350
6B
  3
LAYEREVAL
350
14D
  3
LAYERNOTIFY
350
14E
  0
DICTIONARY
  5
18F
102
{ACAD_REACTORS
330
18E
102
}
330
18E
100
AcDbDictionary
281
     1
  0
SORTENTSTABLE
  5
2C5
102
{ACAD_REACTORS
330
15D
102
}
330
15D
100
AcDbSortentsTable
330
1F
331
2C7
  5
318
331
2C8
  5
319
331
2C9
  5
31A
331
2CA
  5
31B
331
2CF
  5
37A
331
2D0
  5
37B
331
2D3
  5
396
331
2D4
  5
397
331
2D5
  5
398
331
2DD
  5
414
331
2DE
  5
415
331
2E3
  5
2C7
331
2E4
  5
2C8
331
2E5
  5
2C9
331
2E6
  5
2CA
331
2E7
  5
2CF
331
2E8
  5
2D0
331
2E9
  5
2D3
331
2EA
  5
2D4
331
2EB
  5
2D5
331
2EC
  5
2DD
331
2ED
  5
2DE
331
2EE
  5
2E3
331
2EF
  5
2E4
331
2F0
  5
2E5
331
2F1
  5
2E6
331
2F2
  5
2E7
331
2F3
  5
2E8
331
2F4
  5
2E9
331
2F5
  5
2EA
331
2F6
  5
2EB
331
2F7
  5
2EC
331
2F8
  5
2ED
331
2F9
  5
2EE
331
2FA
  5
2EF
331
2FB
  5
2F0
331
2FC
  5
2F1
331
2FD
  5
2F2
331
2FE
  5
2F3
331
2FF
  5
2F4
331
300
  5
2F5
331
301
  5
2F6
331
302
  5
2F7
331
303
  5
2F8
331
304
  5
2F9
331
305
  5
2FA
331
306
  5
2FB
331
307
  5
2FC
331
308
  5
2FD
331
309
  5
2FE
331
30A
  5
2FF
331
30B
  5
300
331
30C
  5
301
331
30D
  5
302
331
30E
  5
303
331
30F
  5
304
331
310
  5
305
331
311
  5
306
331
312
  5
307
331
313
  5
308
331
314
  5
309
331
315
  5
30A
331
316
  5
30B
331
317
  5
30C
331
318
  5
30D
331
319
  5
30E
331
31A
  5
30F
331
31B
  5
310
331
31C
  5
311
331
31D
  5
312
331
31E
  5
313
331
31F
  5
314
331
320
  5
315
331
321
  5
316
331
322
  5
317
331
323
  5
31C
331
324
  5
31D
331
325
  5
31E
331
326
  5
31F
331
327
  5
320
331
328
  5
321
331
329
  5
322
331
32A
  5
323
331
32B
  5
324
331
32C
  5
325
331
32D
  5
326
331
32E
  5
327
331
32F
  5
328
331
330
  5
329
331
331
  5
32A
331
332
  5
32B
331
333
  5
32C
331
334
  5
32D
331
335
  5
32E
331
336
  5
32F
331
337
  5
330
331
338
  5
331
331
339
  5
332
331
33A
  5
333
331
33B
  5
334
331
33C
  5
335
331
33D
  5
336
331
33E
  5
337
331
33F
  5
338
331
340
  5
339
331
341
  5
33A
331
342
  5
33B
331
343
  5
33C
331
344
  5
33D
331
345
  5
33E
331
346
  5
33F
331
347
  5
340
331
348
  5
341
331
349
  5
342
331
34A
  5
343
331
34B
  5
344
331
34C
  5
345
331
34D
  5
346
331
34E
  5
347
331
34F
  5
348
331
350
  5
349
331
351
  5
34A
331
352
  5
34B
331
353
  5
34C
331
354
  5
34D
331
355
  5
34E
331
356
  5
34F
331
357
  5
350
331
358
  5
351
331
359
  5
352
331
35A
  5
353
331
35B
  5
354
331
35C
  5
355
331
35D
  5
356
331
35E
  5
357
331
35F
  5
358
331
360
  5
359
331
361
  5
35A
331
362
  5
35B
331
363
  5
35C
331
364
  5
35D
331
365
  5
35E
331
366
  5
35F
331
367
  5
360
331
368
  5
361
331
369
  5
362
331
36A
  5
363
331
36B
  5
364
331
36C
  5
365
331
36D
  5
366
331
36E
  5
367
331
36F
  5
368
331
370
  5
369
331
371
  5
36A
331
372
  5
36B
331
373
  5
36C
331
374
  5
36D
331
375
  5
36E
331
376
  5
36F
331
377
  5
370
331
378
  5
371
331
379
  5
372
331
37A
  5
373
331
37B
  5
374
331
37C
  5
375
331
37D
  5
376
331
37E
  5
377
331
37F
  5
378
331
380
  5
379
331
381
  5
37C
331
382
  5
37D
331
383
  5
37E
331
384
  5
37F
331
385
  5
380
331
386
  5
381
331
387
  5
382
331
388
  5
383
331
389
  5
384
331
38A
  5
385
331
38B
  5
386
331
38C
  5
387
331
38D
  5
388
331
38E
  5
389
331
38F
  5
38A
331
390
  5
38B
331
391
  5
38C
331
392
  5
38D
331
393
  5
38E
331
394
  5
38F
331
395
  5
390
331
396
  5
391
331
397
  5
392
331
398
  5
393
331
399
  5
394
331
39A
  5
395
331
39B
  5
399
331
39C
  5
39A
331
39D
  5
39B
331
39E
  5
39C
331
39F
  5
39D
331
3A0
  5
39E
331
3A1
  5
39F
331
3A2
  5
3A0
331
3A3
  5
3A1
331
3A4
  5
3A2
331
3A5
  5
3A3
331
3A6
  5
3A4
331
3A7
  5
3A5
331
3A8
  5
3A6
331
3A9
  5
3A7
331
3AA
  5
3A8
331
3AB
  5
3A9
331
3AC
  5
3AA
331
3AD
  5
3AB
331
3AE
  5
3AC
331
3AF
  5
3AD
331
3B0
  5
3AE
331
3B1
  5
3AF
331
3B2
  5
3B0
331
3B3
  5
3B1
331
3B4
  5
3B2
331
3B5
  5
3B3
331
3B6
  5
3B4
331
3B7
  5
3B5
331
3B8
  5
3B6
331
3B9
  5
3B7
331
3BA
  5
3B8
331
3BB
  5
3B9
331
3BC
  5
3BA
331
3BD
  5
3BB
331
3BE
  5
3BC
331
3BF
  5
3BD
331
3C0
  5
3BE
331
3C1
  5
3BF
331
3C2
  5
3C0
331
3C3
  5
3C1
331
3C4
  5
3C2
331
3C5
  5
3C3
331
3C6
  5
3C4
331
3C7
  5
3C5
331
3C8
  5
3C6
331
3C9
  5
3C7
331
3CA
  5
3C8
331
3CB
  5
3C9
331
3CC
  5
3CA
331
3CD
  5
3CB
331
3CE
  5
3CC
331
3CF
  5
3CD
331
3D0
  5
3CE
331
3D1
  5
3CF
331
3D2
  5
3D0
331
3D3
  5
3D1
331
3D4
  5
3D2
331
3D5
  5
3D3
331
3D6
  5
3D4
331
3D7
  5
3D5
331
3D8
  5
3D6
331
3D9
  5
3D7
331
3DA
  5
3D8
331
3DB
  5
3D9
331
3DC
  5
3DA
331
3DD
  5
3DB
331
3DE
  5
3DC
331
3DF
  5
3DD
331
3E0
  5
3DE
331
3E1
  5
3DF
331
3E2
  5
3E0
331
3E3
  5
3E1
331
3E4
  5
3E2
331
3E5
  5
3E3
331
3E6
  5
3E4
331
3E7
  5
3E5
331
3E8
  5
3E6
331
3E9
  5
3E7
331
3EA
  5
3E8
331
3EB
  5
3E9
331
3EC
  5
3EA
331
3ED
  5
3EB
331
3EE
  5
3EC
331
3EF
  5
3ED
331
3F0
  5
3EE
331
3F1
  5
3EF
331
3F2
  5
3F0
331
3F3
  5
3F1
331
3F4
  5
3F2
331
3F5
  5
3F3
331
3F6
  5
3F4
331
3F7
  5
3F5
331
3F8
  5
3F6
331
3F9
  5
3F7
331
3FA
  5
3F8
331
3FB
  5
3F9
331
3FC
  5
3FA
331
3FD
  5
3FB
331
3FE
  5
3FC
331
3FF
  5
3FD
331
400
  5
3FE
331
401
  5
3FF
331
402
  5
400
331
403
  5
401
331
404
  5
402
331
405
  5
403
331
406
  5
404
331
407
  5
405
331
408
  5
406
331
409
  5
407
331
40A
  5
408
331
40B
  5
409
331
40C
  5
40A
331
40D
  5
40B
331
40E
  5
40C
331
40F
  5
40D
331
410
  5
40E
331
411
  5
40F
331
412
  5
410
331
413
  5
411
331
414
  5
412
331
415
  5
413
  0
ACDBDETAILVIEWSTYLE
  5
1AC
102
{ACAD_REACTORS
330
1AB
102
}
330
1AB
100
AcDbModelDocViewStyle
 70
     0
  3
Imperial24
290
     0
300
Imperial24
 90
        0
100
AcDbDetailViewStyle
 70
     0
 71
     0
 90
        3
 71
     1
340
11
 62
   256
 40
0.24
340
0
 62
   256
 40
0.24
300

 40
0.36
280
     3
 71
     2
340
16
 90
       25
 62
   256
 71
     3
340
11
 62
   256
 40
0.24
 90
        1
 40
0.75
 90
        1
300
%<\AcVar ViewType \f "%tc1">% %<\AcVar ViewDetailId>%\PSCALE %<\AcVar ViewScale \f "%sn">%
 71
     4
340
16
 90
       25
 62
   256
340
16
 90
       25
 62
   256
280
     0
  0
LAYOUT
  5
59
102
{ACAD_REACTORS
330
1A
102
}
330
1A
100
AcDbPlotSettings
  1

  2
None
  4

  6

 40
0.0
 41
0.0
 42
0.0
 43
0.0
 44
0.0
 45
0.0
 46
0.0
 47
0.0
 48
0.0
 49
0.0
140
0.0
141
0.0
142
1.0
143
1.0
 70
   688
 72
     0
 73
     0
 74
     5
  7

 75
    16
147
1.0
 76
     0
 77
     2
 78
   300
148
0.0
149
0.0
100
AcDbLayout
  1
Layout1
 70
     1
 71
     1
 10
0.0
 20
0.0
 11
12.0
 21
9.0
 12
0.0
 22
0.0
 32
0.0
 14
0.0
 24
0.0
 34
0.0
 15
0.0
 25
0.0
 35
0.0
146
0.0
 13
0.0
 23
0.0
 33
0.0
 16
1.0
 26
0.0
 36
0.0
 17
0.0
 27
1.0
 37
0.0
 76
     0
330
58
  0
LAYOUT
  5
5E
102
{ACAD_REACTORS
330
1A
102
}
330
1A
100
AcDbPlotSettings
  1

  2
None
  4

  6

 40
0.0
 41
0.0
 42
0.0
 43
0.0
 44
0.0
 45
0.0
 46
0.0
 47
0.0
 48
0.0
 49
0.0
140
0.0
141
0.0
142
1.0
143
1.0
 70
   688
 72
     0
 73
     0
 74
     5
  7

 75
    16
147
1.0
 76
     0
 77
     2
 78
   300
148
0.0
149
0.0
100
AcDbLayout
  1
Layout2
 70
     1
 71
     2
 10
0.0
 20
0.0
 11
12.0
 21
9.0
 12
0.0
 22
0.0
 32
0.0
 14
0.0
 24
0.0
 34
0.0
 15
0.0
 25
0.0
 35
0.0
146
0.0
 13
0.0
 23
0.0
 33
0.0
 16
1.0
 26
0.0
 36
0.0
 17
0.0
 27
1.0
 37
0.0
 76
     0
330
5D
  0
LAYOUT
  5
22
102
{ACAD_XDICTIONARY
360
194
102
}
102
{ACAD_REACTORS
330
1A
102
}
330
1A
100
AcDbPlotSettings
  1

  2
none_device
  4
ANSI_A_(8.50_x_11.00_Inches)
  6

 40
6.349999904632568
 41
19.04999923706055
 42
6.350006103515625
 43
19.04998779296875
 44
215.8999938964844
 45
279.3999938964844
 46
0.0
 47
0.0
 48
0.0
 49
0.0
140
0.0
141
0.0
142
1.0
143
2.584895464708373
 70
 11952
 72
     0
 73
     1
 74
     0
  7

 75
     0
147
0.3868628397755418
 76
     0
 77
     2
 78
   300
148
0.0
149
0.0
100
AcDbLayout
  1
Model
 70
     1
 71
     0
 10
0.0
 20
0.0
 11
12.0
 21
9.0
 12
0.0
 22
0.0
 32
0.0
 14
0.0
 24
0.0
 34
0.0
 15
0.0
 25
0.0
 35
0.0
146
0.0
 13
0.0
 23
0.0
 33
0.0
 16
1.0
 26
0.0
 36
0.0
 17
0.0
 27
1.0
 37
0.0
 76
     0
330
1F
331
94
  0
MATERIAL
  5
97
102
{ACAD_XDICTIONARY
360
188
102
}
102
{ACAD_REACTORS
330
72
102
}
330
72
100
AcDbMaterial
  1
ByBlock
 94
       63
  0
MATERIAL
  5
96
102
{ACAD_XDICTIONARY
360
186
102
}
102
{ACAD_REACTORS
330
72
102
}
330
72
100
AcDbMaterial
  1
ByLayer
 94
       63
  0
MATERIAL
  5
98
102
{ACAD_XDICTIONARY
360
110
102
}
102
{ACAD_REACTORS
330
72
102
}
330
72
100
AcDbMaterial
  1
Global
 43
0.0208000000566244
 43
0.0
 43
0.0
 43
0.0
 43
0.0
 43
0.0208000000566244
 43
0.0
 43
0.0
 43
0.0
 43
0.0
 43
1.0
 43
0.0
 43
0.0
 43
0.0
 43
0.0
 43
1.0
 49
0.0208000000566244
 49
0.0
 49
0.0
 49
0.0
 49
0.0
 49
0.0208000000566244
 49
0.0
 49
0.0
 49
0.0
 49
0.0
 49
1.0
 49
0.0
 49
0.0
 49
0.0
 49
0.0
 49
1.0
142
0.0208000000566244
142
0.0
142
0.0
142
0.0
142
0.0
142
0.0208000000566244
142
0.0
142
0.0
142
0.0
142
0.0
142
1.0
142
0.0
142
0.0
142
0.0
142
0.0
142
1.0
144
0.0208000000566244
144
0.0
144
0.0
144
0.0
144
0.0
144
0.0208000000566244
144
0.0
144
0.0
144
0.0
144
0.0
144
1.0
144
0.0
144
0.0
144
0.0
144
0.0
144
1.0
 94
       63
1001
ACAD
1070
    -1
1070
     3
1070
     0
1000

1071
        0
1070
     0
  0
MLEADERSTYLE
  5
E5
102
{ACAD_REACTORS
330
D7
102
}
330
D7
100
AcDbMLeaderStyle
179
     2
170
     2
171
     1
172
     0
 90
        2
 40
0.0
 41
0.0
173
     1
 91
-1056964608
340
14
 92
       -2
290
     1
 42
0.09
291
     1
 43
0.36
  3
Standard
 44
0.18
300

342
11
174
     1
178
     1
175
     1
176
     0
 93
-1056964608
 45
0.18
292
     0
297
     0
 46
0.18
 94
-1056964608
 47
1.0
 49
1.0
140
1.0
293
     1
141
0.0
294
     1
177
     0
142
1.0
295
     0
296
     1
143
0.125
271
     0
272
     9
273
     9
298
     0
  0
MLEADERSTYLE
  5
D8
102
{ACAD_REACTORS
330
D7
102
}
330
D7
100
AcDbMLeaderStyle
179
     2
170
     2
171
     1
172
     0
 90
        2
 40
0.0
 41
0.0
173
     1
 91
-1056964608
340
14
 92
       -2
290
     1
 42
0.09
291
     1
 43
0.36
  3
Standard
 44
0.18
300

342
11
174
     1
178
     1
175
     1
176
     0
 93
-1056964608
 45
0.18
292
     0
297
     0
 46
0.18
 94
-1056964608
 47
1.0
 49
1.0
140
1.0
293
     1
141
0.0
294
     1
177
     0
142
1.0
295
     0
296
     0
143
0.125
271
     0
272
     9
273
     9
298
     0
  0
MLINESTYLE
  5
18
102
{ACAD_REACTORS
330
17
102
}
330
17
100
AcDbMlineStyle
  2
STANDARD
 70
     0
  3

 62
   256
 51
90.0
 52
90.0
 71
     2
 49
0.5
 62
   256
  6
BYLAYER
 49
-0.5
 62
   256
  6
BYLAYER
  0
ACDBPLACEHOLDER
  5
F
102
{ACAD_REACTORS
330
E
102
}
330
E
  0
SCALE
  5
B7
102
{ACAD_REACTORS
330
B6
102
}
330
B6
100
AcDbScale
 70
     0
300
1:1
140
1.0
141
1.0
290
     1
  0
SCALE
  5
124
102
{ACAD_REACTORS
330
B6
102
}
330
B6
100
AcDbScale
 70
     0
300
1:2
140
1.0
141
2.0
290
     0
  0
SCALE
  5
125
102
{ACAD_REACTORS
330
B6
102
}
330
B6
100
AcDbScale
 70
     0
300
1:4
140
1.0
141
4.0
290
     0
  0
SCALE
  5
126
102
{ACAD_REACTORS
330
B6
102
}
330
B6
100
AcDbScale
 70
     0
300
1:5
140
1.0
141
5.0
290
     0
  0
SCALE
  5
127
102
{ACAD_REACTORS
330
B6
102
}
330
B6
100
AcDbScale
 70
     0
300
1:8
140
1.0
141
8.0
290
     0
  0
SCALE
  5
128
102
{ACAD_REACTORS
330
B6
102
}
330
B6
100
AcDbScale
 70
     0
300
1:10
140
1.0
141
10.0
290
     0
  0
SCALE
  5
129
102
{ACAD_REACTORS
330
B6
102
}
330
B6
100
AcDbScale
 70
     0
300
1:16
140
1.0
141
16.0
290
     0
  0
SCALE
  5
12A
102
{ACAD_REACTORS
330
B6
102
}
330
B6
100
AcDbScale
 70
     0
300
1:20
140
1.0
141
20.0
290
     0
  0
SCALE
  5
12B
102
{ACAD_REACTORS
330
B6
102
}
330
B6
100
AcDbScale
 70
     0
300
1:30
140
1.0
141
30.0
290
     0
  0
SCALE
  5
12C
102
{ACAD_REACTORS
330
B6
102
}
330
B6
100
AcDbScale
 70
     0
300
1:40
140
1.0
141
40.0
290
     0
  0
SCALE
  5
12D
102
{ACAD_REACTORS
330
B6
102
}
330
B6
100
AcDbScale
 70
     0
300
1:50
140
1.0
141
50.0
290
     0
  0
SCALE
  5
12E
102
{ACAD_REACTORS
330
B6
102
}
330
B6
100
AcDbScale
 70
     0
300
1:100
140
1.0
141
100.0
290
     0
  0
SCALE
  5
12F
102
{ACAD_REACTORS
330
B6
102
}
330
B6
100
AcDbScale
 70
     0
300
2:1
140
2.0
141
1.0
290
     0
  0
SCALE
  5
130
102
{ACAD_REACTORS
330
B6
102
}
330
B6
100
AcDbScale
 70
     0
300
4:1
140
4.0
141
1.0
290
     0
  0
SCALE
  5
131
102
{ACAD_REACTORS
330
B6
102
}
330
B6
100
AcDbScale
 70
     0
300
8:1
140
8.0
141
1.0
290
     0
  0
SCALE
  5
132
102
{ACAD_REACTORS
330
B6
102
}
330
B6
100
AcDbScale
 70
     0
300
10:1
140
10.0
141
1.0
290
     0
  0
SCALE
  5
133
102
{ACAD_REACTORS
330
B6
102
}
330
B6
100
AcDbScale
 70
     0
300
100:1
140
100.0
141
1.0
290
     0
  0
SCALE
  5
134
102
{ACAD_REACTORS
330
B6
102
}
330
B6
100
AcDbScale
 70
     0
300
1/128" = 1'-0"
140
0.0078125
141
12.0
290
     0
  0
SCALE
  5
135
102
{ACAD_REACTORS
330
B6
102
}
330
B6
100
AcDbScale
 70
     0
300
1/64" = 1'-0"
140
0.015625
141
12.0
290
     0
  0
SCALE
  5
136
102
{ACAD_REACTORS
330
B6
102
}
330
B6
100
AcDbScale
 70
     0
300
1/32" = 1'-0"
140
0.03125
141
12.0
290
     0
  0
SCALE
  5
137
102
{ACAD_REACTORS
330
B6
102
}
330
B6
100
AcDbScale
 70
     0
300
1/16" = 1'-0"
140
0.0625
141
12.0
290
     0
  0
SCALE
  5
138
102
{ACAD_REACTORS
330
B6
102
}
330
B6
100
AcDbScale
 70
     0
300
3/32" = 1'-0"
140
0.09375
141
12.0
290
     0
  0
SCALE
  5
139
102
{ACAD_REACTORS
330
B6
102
}
330
B6
100
AcDbScale
 70
     0
300
1/8" = 1'-0"
140
0.125
141
12.0
290
     0
  0
SCALE
  5
13A
102
{ACAD_REACTORS
330
B6
102
}
330
B6
100
AcDbScale
 70
     0
300
3/16" = 1'-0"
140
0.1875
141
12.0
290
     0
  0
SCALE
  5
13B
102
{ACAD_REACTORS
330
B6
102
}
330
B6
100
AcDbScale
 70
     0
300
1/4" = 1'-0"
140
0.25
141
12.0
290
     0
  0
SCALE
  5
13C
102
{ACAD_REACTORS
330
B6
102
}
330
B6
100
AcDbScale
 70
     0
300
3/8" = 1'-0"
140
0.375
141
12.0
290
     0
  0
SCALE
  5
13D
102
{ACAD_REACTORS
330
B6
102
}
330
B6
100
AcDbScale
 70
     0
300
1/2" = 1'-0"
140
0.5
141
12.0
290
     0
  0
SCALE
  5
13E
102
{ACAD_REACTORS
330
B6
102
}
330
B6
100
AcDbScale
 70
     0
300
3/4" = 1'-0"
140
0.75
141
12.0
290
     0
  0
SCALE
  5
13F
102
{ACAD_REACTORS
330
B6
102
}
330
B6
100
AcDbScale
 70
     0
300
1" = 1'-0"
140
1.0
141
12.0
290
     0
  0
SCALE
  5
140
102
{ACAD_REACTORS
330
B6
102
}
330
B6
100
AcDbScale
 70
     0
300
1-1/2" = 1'-0"
140
1.5
141
12.0
290
     0
  0
SCALE
  5
141
102
{ACAD_REACTORS
330
B6
102
}
330
B6
100
AcDbScale
 70
     0
300
3" = 1'-0"
140
3.0
141
12.0
290
     0
  0
SCALE
  5
142
102
{ACAD_REACTORS
330
B6
102
}
330
B6
100
AcDbScale
 70
     0
300
6" = 1'-0"
140
6.0
141
12.0
290
     0
  0
SCALE
  5
143
102
{ACAD_REACTORS
330
B6
102
}
330
B6
100
AcDbScale
 70
     0
300
1'-0" = 1'-0"
140
12.0
141
12.0
290
     0
  0
ACDBSECTIONVIEWSTYLE
  5
1AA
102
{ACAD_REACTORS
330
1A8
102
}
330
1A8
100
AcDbModelDocViewStyle
 70
     0
  3
Imperial24
290
     0
300
Imperial24
 90
        0
100
AcDbSectionViewStyle
 70
     0
 71
     0
 90
       78
 71
     1
340
11
 62
   256
 40
0.24
340
0
340
0
 62
   256
 40
0.24
300
I, O, Q, S, X, Z
 40
0.48
 90
        3
 40
0.18
 90
        1
 71
     2
340
16
 90
       25
 62
   256
340
16
 90
       50
 62
   256
 40
0.24
 40
0.0
 40
0.24
 71
     3
340
11
 62
   256
 40
0.24
 90
        1
 40
0.75
 90
        1
300
%<\AcVar ViewType \f "%tc1">% %<\AcVar ViewSectionStartId>%-%<\AcVar ViewSectionEndId>%\PSCALE %<\AcVar ViewScale \f "%sn">%
 71
     4
 62
   256
 62
   257
300
ANSI31
 40
1.0
 90
        0
290
     0
290
     0
 90
        6
 40
0.0
 40
1.570796326794896
 40
0.2617993877991494
 40
1.308996938995747
 40
-0.2617993877991494
 40
1.832595714594046
  0
TABLESTYLE
  5
87
102
{ACAD_XDICTIONARY
360
104
102
}
102
{ACAD_REACTORS
330
86
102
}
330
86
100
AcDbTableStyle
280
     0
  3
Standard
 70
     0
 71
     0
 40
0.06
 41
0.06
280
     0
281
     0
  7
Standard
140
0.18
170
     2
 62
     0
 63
     7
283
     0
 90
      512
 91
        0
  1

274
    -2
284
     1
 64
     0
275
    -2
285
     1
 65
     0
276
    -2
286
     1
 66
     0
277
    -2
287
     1
 67
     0
278
    -2
288
     1
 68
     0
279
    -2
289
     1
 69
     0
  7
Standard
140
0.25
170
     5
 62
     0
 63
     7
283
     0
 90
      512
 91
        0
  1

274
    -2
284
     1
 64
     0
275
    -2
285
     1
 65
     0
276
    -2
286
     1
 66
     0
277
    -2
287
     1
 67
     0
278
    -2
288
     1
 68
     0
279
    -2
289
     1
 69
     0
  7
Standard
140
0.18
170
     5
 62
     0
 63
     7
283
     0
 90
      512
 91
        0
  1

274
    -2
284
     1
 64
     0
275
    -2
285
     1
 65
     0
276
    -2
286
     1
 66
     0
277
    -2
287
     1
 67
     0
278
    -2
288
     1
 68
     0
279
    -2
289
     1
 69
     0
  0
VISUALSTYLE
  5
9F
102
{ACAD_REACTORS
330
99
102
}
330
99
100
AcDbVisualStyle
  2
2dWireframe
 70
     4
177
     3
291
     0
 70
    58
 90
        0
176
     1
 90
        2
176
     1
 90
        1
176
     1
 90
        0
176
     1
 40
0.6
176
     1
 40
30.0
176
     1
 62
     7
420
 16777215
176
     1
 90
        1
176
     1
 90
        4
176
     1
 62
     7
176
     1
 62
   257
176
     1
 90
        1
176
     1
 90
        1
176
     1
 40
1.0
176
     1
 90
        0
176
     1
 62
   257
176
     1
 40
1.0
176
     1
 90
        1
176
     1
 90
        6
176
     1
 90
        2
176
     1
 62
     7
176
     1
 90
        5
176
     1
 90
        0
176
     1
 90
        0
176
     1
290
     0
176
     1
 90
        1
176
     1
 40
0.0
176
     1
 90
        0
176
     1
290
     1
176
     1
290
     1
176
     1
290
     0
176
     1
290
     0
176
     1
290
     0
176
     1
290
     0
176
     1
290
     0
176
     1
290
     0
176
     1
290
     0
176
     1
 90
       50
176
     1
 40
0.0
176
     1
 40
1.0
176
     1
 90
        0
176
     1
 62
    18
420
        0
176
     1
 90
       50
176
     1
 90
        3
176
     1
 62
     5
420
      255
176
     1
290
     0
176
     1
 90
       50
176
     1
 90
       50
176
     1
 90
       50
176
     1
290
     0
176
     1
 90
       50
176
     1
 62
   256
176
     0
 40
1.0
176
     0
 90
        2
176
     1
  1
strokes_ogs.tif
176
     1
290
     0
176
     1
 40
1.0
176
     1
 40
1.0
176
     1
  0
VISUALSTYLE
  5
9E
102
{ACAD_REACTORS
330
99
102
}
330
99
100
AcDbVisualStyle
  2
Basic
 70
     7
177
     3
291
     1
 70
    58
 90
        1
176
     1
 90
        0
176
     1
 90
        1
176
     1
 90
        0
176
     1
 40
0.6
176
     1
 40
30.0
176
     1
 62
     7
420
 16777215
176
     1
 90
        0
176
     1
 90
        4
176
     1
 62
     7
176
     1
 62
   257
176
     1
 90
        1
176
     1
 90
        1
176
     1
 40
1.0
176
     1
 90
        8
176
     1
 62
     7
176
     1
 40
1.0
176
     1
 90
        1
176
     1
 90
        6
176
     1
 90
        2
176
     1
 62
     7
176
     1
 90
        5
176
     1
 90
        0
176
     1
 90
        0
176
     1
290
     0
176
     1
 90
        1
176
     1
 40
0.0
176
     1
 90
        0
176
     1
290
     0
176
     1
290
     1
176
     1
290
     1
176
     1
290
     0
176
     1
290
     0
176
     1
290
     0
176
     1
290
     0
176
     1
290
     0
176
     1
290
     0
176
     1
 90
       50
176
     1
 40
0.0
176
     1
 40
1.0
176
     1
 90
        0
176
     1
 62
    18
420
        0
176
     1
 90
       50
176
     1
 90
        3
176
     1
 62
     5
420
      255
176
     1
290
     0
176
     1
 90
       50
176
     1
 90
       50
176
     1
 90
       50
176
     1
290
     0
176
     1
 90
       50
176
     1
 62
   256
176
     0
 40
1.0
176
     0
 90
        2
176
     1
  1
strokes_ogs.tif
176
     1
290
     0
176
     1
 40
1.0
176
     1
 40
1.0
176
     1
  0
VISUALSTYLE
  5
A5
102
{ACAD_REACTORS
330
99
102
}
330
99
100
AcDbVisualStyle
  2
Brighten
 70
    12
177
     3
291
     1
 70
    58
 90
        2
176
     1
 90
        2
176
     1
 90
        1
176
     1
 90
        0
176
     1
 40
0.6
176
     1
 40
30.0
176
     1
 62
     7
420
 16777215
176
     1
 90
        1
176
     1
 90
        4
176
     1
 62
     7
176
     1
 62
   257
176
     1
 90
        1
176
     1
 90
        1
176
     1
 40
1.0
176
     1
 90
        8
176
     1
 62
     7
176
     1
 40
1.0
176
     1
 90
        1
176
     1
 90
        6
176
     1
 90
        2
176
     1
 62
     7
176
     1
 90
        5
176
     1
 90
        0
176
     1
 90
        0
176
     1
290
     0
176
     1
 90
        1
176
     1
 40
50.0
176
     1
 90
        0
176
     1
290
     0
176
     1
290
     1
176
     1
290
     1
176
     1
290
     0
176
     1
290
     0
176
     1
290
     0
176
     1
290
     0
176
     1
290
     0
176
     1
290
     0
176
     1
 90
       50
176
     1
 40
0.0
176
     1
 40
1.0
176
     1
 90
        0
176
     1
 62
    18
420
        0
176
     1
 90
       50
176
     1
 90
        3
176
     1
 62
     5
420
      255
176
     1
290
     0
176
     1
 90
       50
176
     1
 90
       50
176
     1
 90
       50
176
     1
290
     0
176
     1
 90
       50
176
     1
 62
   256
176
     0
 40
1.0
176
     0
 90
        2
176
     1
  1
strokes_ogs.tif
176
     1
290
     0
176
     1
 40
1.0
176
     1
 40
1.0
176
     1
  0
VISUALSTYLE
  5
A9
102
{ACAD_REACTORS
330
99
102
}
330
99
100
AcDbVisualStyle
  2
ColorChange
 70
    16
177
     3
291
     1
 70
    58
 90
        2
176
     1
 90
        2
176
     1
 90
        3
176
     1
 90
        0
176
     1
 40
0.6
176
     1
 40
30.0
176
     1
 62
     8
420
  8421504
176
     1
 90
        1
176
     1
 90
        4
176
     1
 62
     7
176
     1
 62
   257
176
     1
 90
        1
176
     1
 90
        1
176
     1
 40
1.0
176
     1
 90
        8
176
     1
 62
     8
420
  8421504
176
     1
 40
1.0
176
     1
 90
        1
176
     1
 90
        6
176
     1
 90
        2
176
     1
 62
     7
176
     1
 90
        5
176
     1
 90
        0
176
     1
 90
        0
176
     1
290
     0
176
     1
 90
        1
176
     1
 40
0.0
176
     1
 90
        0
176
     1
290
     0
176
     1
290
     1
176
     1
290
     1
176
     1
290
     0
176
     1
290
     0
176
     1
290
     0
176
     1
290
     0
176
     1
290
     0
176
     1
290
     0
176
     1
 90
       50
176
     1
 40
0.0
176
     1
 40
1.0
176
     1
 90
        0
176
     1
 62
    18
420
        0
176
     1
 90
       50
176
     1
 90
        3
176
     1
 62
     5
420
      255
176
     1
290
     0
176
     1
 90
       50
176
     1
 90
       50
176
     1
 90
       50
176
     1
290
     0
176
     1
 90
       50
176
     1
 62
   256
176
     0
 40
1.0
176
     0
 90
        2
176
     1
  1
strokes_ogs.tif
176
     1
290
     0
176
     1
 40
1.0
176
     1
 40
1.0
176
     1
  0
VISUALSTYLE
  5
A2
102
{ACAD_REACTORS
330
99
102
}
330
99
100
AcDbVisualStyle
  2
Conceptual
 70
     9
177
     3
291
     0
 70
    58
 90
        3
176
     1
 90
        2
176
     1
 90
        1
176
     1
 90
        0
176
     1
 40
0.6
176
     1
 40
30.0
176
     1
 62
     7
420
 16777215
176
     1
 90
        2
176
     1
 90
        2
176
     1
 62
     7
176
     1
 62
   257
176
     1
 90
        1
176
     1
 90
        1
176
     1
 40
40.0
176
     1
 90
        8
176
     1
 62
     7
176
     1
 40
1.0
176
     1
 90
        1
176
     1
 90
        6
176
     1
 90
        2
176
     1
 62
     7
176
     1
 90
        3
176
     1
 90
        0
176
     1
 90
        0
176
     1
290
     0
176
     1
 90
        1
176
     1
 40
0.0
176
     1
 90
        0
176
     1
290
     0
176
     1
290
     1
176
     1
290
     1
176
     1
290
     0
176
     1
290
     0
176
     1
290
     0
176
     1
290
     0
176
     1
290
     0
176
     1
290
     0
176
     1
 90
       50
176
     1
 40
0.0
176
     1
 40
1.0
176
     1
 90
        0
176
     1
 62
    18
420
        0
176
     1
 90
       50
176
     1
 90
        3
176
     1
 62
     5
420
      255
176
     1
290
     0
176
     1
 90
       50
176
     1
 90
       50
176
     1
 90
       50
176
     1
290
     0
176
     1
 90
       50
176
     1
 62
   256
176
     0
 40
1.0
176
     0
 90
        2
176
     1
  1
strokes_ogs.tif
176
     1
290
     0
176
     1
 40
1.0
176
     1
 40
1.0
176
     1
  0
VISUALSTYLE
  5
A4
102
{ACAD_REACTORS
330
99
102
}
330
99
100
AcDbVisualStyle
  2
Dim
 70
    11
177
     3
291
     1
 70
    58
 90
        2
176
     1
 90
        2
176
     1
 90
        1
176
     1
 90
        0
176
     1
 40
0.6
176
     1
 40
30.0
176
     1
 62
     7
420
 16777215
176
     1
 90
        1
176
     1
 90
        4
176
     1
 62
     7
176
     1
 62
   257
176
     1
 90
        1
176
     1
 90
        1
176
     1
 40
1.0
176
     1
 90
        8
176
     1
 62
     7
176
     1
 40
1.0
176
     1
 90
        1
176
     1
 90
        6
176
     1
 90
        2
176
     1
 62
     7
176
     1
 90
        5
176
     1
 90
        0
176
     1
 90
        0
176
     1
290
     0
176
     1
 90
        1
176
     1
 40
-50.0
176
     1
 90
        0
176
     1
290
     0
176
     1
290
     1
176
     1
290
     1
176
     1
290
     0
176
     1
290
     0
176
     1
290
     0
176
     1
290
     0
176
     1
290
     0
176
     1
290
     0
176
     1
 90
       50
176
     1
 40
0.0
176
     1
 40
1.0
176
     1
 90
        0
176
     1
 62
    18
420
        0
176
     1
 90
       50
176
     1
 90
        3
176
     1
 62
     5
420
      255
176
     1
290
     0
176
     1
 90
       50
176
     1
 90
       50
176
     1
 90
       50
176
     1
290
     0
176
     1
 90
       50
176
     1
 62
   256
176
     0
 40
1.0
176
     0
 90
        2
176
     1
  1
strokes_ogs.tif
176
     1
290
     0
176
     1
 40
1.0
176
     1
 40
1.0
176
     1
  0
VISUALSTYLE
  5
175
102
{ACAD_REACTORS
330
99
102
}
330
99
100
AcDbVisualStyle
  2
EdgeColorOff
 70
    22
177
     3
291
     1
 70
    58
 90
        2
176
     0
 90
        2
176
     0
 90
        0
176
     0
 90
        0
176
     0
 40
0.6
176
     0
 40
30.0
176
     0
 62
     7
420
 16777215
176
     0
 90
        1
176
     0
 90
        4
176
     0
 62
     7
176
     0
 62
   257
176
     0
 90
        1
176
     0
 90
        1
176
     0
 40
1.0
176
     0
 90
        8
176
     2
 62
     7
176
     0
 40
1.0
176
     0
 90
        1
176
     0
 90
        6
176
     0
 90
        2
176
     0
 62
     7
176
     0
 90
        5
176
     0
 90
        0
176
     0
 90
        0
176
     0
290
     0
176
     0
 90
        1
176
     0
 40
0.0
176
     0
 90
        0
176
     0
290
     0
176
     1
290
     1
176
     1
290
     1
176
     1
290
     0
176
     1
290
     0
176
     1
290
     0
176
     1
290
     0
176
     1
290
     0
176
     1
290
     0
176
     1
 90
       50
176
     1
 40
0.0
176
     1
 40
1.0
176
     1
 90
        0
176
     1
 62
    18
420
        0
176
     1
 90
       50
176
     1
 90
        3
176
     1
 62
     5
420
      255
176
     1
290
     0
176
     1
 90
       50
176
     1
 90
       50
176
     1
 90
       50
176
     1
290
     0
176
     1
 90
       50
176
     1
 62
   256
176
     0
 40
1.0
176
     0
 90
        2
176
     1
  1
strokes_ogs.tif
176
     1
290
     0
176
     1
 40
1.0
176
     1
 40
1.0
176
     1
  0
VISUALSTYLE
  5
A8
102
{ACAD_REACTORS
330
99
102
}
330
99
100
AcDbVisualStyle
  2
Facepattern
 70
    15
177
     3
291
     1
 70
    58
 90
        2
176
     1
 90
        2
176
     1
 90
        1
176
     1
 90
        0
176
     1
 40
0.6
176
     1
 40
30.0
176
     1
 62
     7
420
 16777215
176
     1
 90
        1
176
     1
 90
        4
176
     1
 62
     7
176
     1
 62
   257
176
     1
 90
        1
176
     1
 90
        1
176
     1
 40
1.0
176
     1
 90
        8
176
     1
 62
     7
176
     1
 40
1.0
176
     1
 90
        1
176
     1
 90
        6
176
     1
 90
        2
176
     1
 62
     7
176
     1
 90
        5
176
     1
 90
        0
176
     1
 90
        0
176
     1
290
     0
176
     1
 90
        1
176
     1
 40
0.0
176
     1
 90
        0
176
     1
290
     0
176
     1
290
     1
176
     1
290
     1
176
     1
290
     0
176
     1
290
     0
176
     1
290
     0
176
     1
290
     0
176
     1
290
     0
176
     1
290
     0
176
     1
 90
       50
176
     1
 40
0.0
176
     1
 40
1.0
176
     1
 90
        0
176
     1
 62
    18
420
        0
176
     1
 90
       50
176
     1
 90
        3
176
     1
 62
     5
420
      255
176
     1
290
     0
176
     1
 90
       50
176
     1
 90
       50
176
     1
 90
       50
176
     1
290
     0
176
     1
 90
       50
176
     1
 62
   256
176
     0
 40
1.0
176
     0
 90
        2
176
     1
  1
strokes_ogs.tif
176
     1
290
     0
176
     1
 40
1.0
176
     1
 40
1.0
176
     1
  0
VISUALSTYLE
  5
9A
102
{ACAD_REACTORS
330
99
102
}
330
99
100
AcDbVisualStyle
  2
Flat
 70
     0
177
     3
291
     1
 70
    58
 90
        2
176
     1
 90
        1
176
     1
 90
        1
176
     1
 90
        2
176
     1
 40
0.6
176
     1
 40
30.0
176
     1
 62
     7
420
 16777215
176
     1
 90
        0
176
     1
 90
        0
176
     1
 62
     7
176
     1
 62
   257
176
     1
 90
        1
176
     1
 90
        1
176
     1
 40
1.0
176
     1
 90
        8
176
     1
 62
     7
176
     1
 40
1.0
176
     1
 90
        1
176
     1
 90
        6
176
     1
 90
        2
176
     1
 62
     7
176
     1
 90
        5
176
     1
 90
        0
176
     1
 90
        0
176
     1
290
     0
176
     1
 90
       13
176
     1
 40
0.0
176
     1
 90
        0
176
     1
290
     0
176
     1
290
     1
176
     1
290
     1
176
     1
290
     0
176
     1
290
     0
176
     1
290
     0
176
     1
290
     0
176
     1
290
     0
176
     1
290
     0
176
     1
 90
       50
176
     1
 40
0.0
176
     1
 40
1.0
176
     1
 90
        0
176
     1
 62
    18
420
        0
176
     1
 90
       50
176
     1
 90
        3
176
     1
 62
     5
420
      255
176
     1
290
     0
176
     1
 90
       50
176
     1
 90
       50
176
     1
 90
       50
176
     1
290
     0
176
     1
 90
       50
176
     1
 62
   256
176
     0
 40
1.0
176
     0
 90
        2
176
     1
  1
strokes_ogs.tif
176
     1
290
     0
176
     1
 40
1.0
176
     1
 40
1.0
176
     1
  0
VISUALSTYLE
  5
9B
102
{ACAD_REACTORS
330
99
102
}
330
99
100
AcDbVisualStyle
  2
FlatWithEdges
 70
     1
177
     3
291
     1
 70
    58
 90
        2
176
     1
 90
        1
176
     1
 90
        1
176
     1
 90
        2
176
     1
 40
0.6
176
     1
 40
30.0
176
     1
 62
     7
420
 16777215
176
     1
 90
        1
176
     1
 90
        0
176
     1
 62
     7
176
     1
 62
   257
176
     1
 90
        1
176
     1
 90
        1
176
     1
 40
1.0
176
     1
 90
        0
176
     1
 62
   257
176
     1
 40
1.0
176
     1
 90
        1
176
     1
 90
        6
176
     1
 90
        2
176
     1
 62
     7
176
     1
 90
        5
176
     1
 90
        0
176
     1
 90
        0
176
     1
290
     0
176
     1
 90
       13
176
     1
 40
0.0
176
     1
 90
        0
176
     1
290
     0
176
     1
290
     1
176
     1
290
     1
176
     1
290
     0
176
     1
290
     0
176
     1
290
     0
176
     1
290
     0
176
     1
290
     0
176
     1
290
     0
176
     1
 90
       50
176
     1
 40
0.0
176
     1
 40
1.0
176
     1
 90
        0
176
     1
 62
    18
420
        0
176
     1
 90
       50
176
     1
 90
        3
176
     1
 62
     5
420
      255
176
     1
290
     0
176
     1
 90
       50
176
     1
 90
       50
176
     1
 90
       50
176
     1
290
     0
176
     1
 90
       50
176
     1
 62
   256
176
     0
 40
1.0
176
     0
 90
        2
176
     1
  1
strokes_ogs.tif
176
     1
290
     0
176
     1
 40
1.0
176
     1
 40
1.0
176
     1
  0
VISUALSTYLE
  5
9C
102
{ACAD_REACTORS
330
99
102
}
330
99
100
AcDbVisualStyle
  2
Gouraud
 70
     2
177
     3
291
     1
 70
    58
 90
        2
176
     1
 90
        2
176
     1
 90
        1
176
     1
 90
        2
176
     1
 40
0.6
176
     1
 40
30.0
176
     1
 62
     7
420
 16777215
176
     1
 90
        0
176
     1
 90
        0
176
     1
 62
     7
176
     1
 62
   257
176
     1
 90
        1
176
     1
 90
        1
176
     1
 40
1.0
176
     1
 90
        0
176
     1
 62
     7
176
     1
 40
1.0
176
     1
 90
        1
176
     1
 90
        6
176
     1
 90
        2
176
     1
 62
     7
176
     1
 90
        5
176
     1
 90
        0
176
     1
 90
        0
176
     1
290
     0
176
     1
 90
       13
176
     1
 40
0.0
176
     1
 90
        0
176
     1
290
     0
176
     1
290
     1
176
     1
290
     1
176
     1
290
     0
176
     1
290
     0
176
     1
290
     0
176
     1
290
     0
176
     1
290
     0
176
     1
290
     0
176
     1
 90
       50
176
     1
 40
0.0
176
     1
 40
1.0
176
     1
 90
        0
176
     1
 62
    18
420
        0
176
     1
 90
       50
176
     1
 90
        3
176
     1
 62
     5
420
      255
176
     1
290
     0
176
     1
 90
       50
176
     1
 90
       50
176
     1
 90
       50
176
     1
290
     0
176
     1
 90
       50
176
     1
 62
   256
176
     0
 40
1.0
176
     0
 90
        2
176
     1
  1
strokes_ogs.tif
176
     1
290
     0
176
     1
 40
1.0
176
     1
 40
1.0
176
     1
  0
VISUALSTYLE
  5
9D
102
{ACAD_REACTORS
330
99
102
}
330
99
100
AcDbVisualStyle
  2
GouraudWithEdges
 70
     3
177
     3
291
     1
 70
    58
 90
        2
176
     1
 90
        2
176
     1
 90
        1
176
     1
 90
        2
176
     1
 40
0.6
176
     1
 40
30.0
176
     1
 62
     7
420
 16777215
176
     1
 90
        1
176
     1
 90
        0
176
     1
 62
     7
176
     1
 62
   257
176
     1
 90
        1
176
     1
 90
        1
176
     1
 40
1.0
176
     1
 90
        0
176
     1
 62
   257
176
     1
 40
1.0
176
     1
 90
        1
176
     1
 90
        6
176
     1
 90
        2
176
     1
 62
     7
176
     1
 90
        5
176
     1
 90
        0
176
     1
 90
        0
176
     1
290
     0
176
     1
 90
       13
176
     1
 40
0.0
176
     1
 90
        0
176
     1
290
     0
176
     1
290
     1
176
     1
290
     1
176
     1
290
     0
176
     1
290
     0
176
     1
290
     0
176
     1
290
     0
176
     1
290
     0
176
     1
290
     0
176
     1
 90
       50
176
     1
 40
0.0
176
     1
 40
1.0
176
     1
 90
        0
176
     1
 62
    18
420
        0
176
     1
 90
       50
176
     1
 90
        3
176
     1
 62
     5
420
      255
176
     1
290
     0
176
     1
 90
       50
176
     1
 90
       50
176
     1
 90
       50
176
     1
290
     0
176
     1
 90
       50
176
     1
 62
   256
176
     0
 40
1.0
176
     0
 90
        2
176
     1
  1
strokes_ogs.tif
176
     1
290
     0
176
     1
 40
1.0
176
     1
 40
1.0
176
     1
  0
VISUALSTYLE
  5
A1
102
{ACAD_REACTORS
330
99
102
}
330
99
100
AcDbVisualStyle
  2
Hidden
 70
     6
177
     3
291
     0
 70
    58
 90
        1
176
     1
 90
        2
176
     1
 90
        2
176
     1
 90
        0
176
     1
 40
0.6
176
     1
 40
30.0
176
     1
 62
     7
420
 16777215
176
     1
 90
        2
176
     1
 90
        2
176
     1
 62
     7
176
     1
 62
   257
176
     1
 90
        2
176
     1
 90
        1
176
     1
 40
40.0
176
     1
 90
        0
176
     1
 62
   257
176
     1
 40
1.0
176
     1
 90
        1
176
     1
 90
        6
176
     1
 90
        2
176
     1
 62
     7
176
     1
 90
        3
176
     1
 90
        0
176
     1
 90
        0
176
     1
290
     0
176
     1
 90
        1
176
     1
 40
0.0
176
     1
 90
        0
176
     1
290
     0
176
     1
290
     1
176
     1
290
     1
176
     1
290
     0
176
     1
290
     0
176
     1
290
     0
176
     1
290
     0
176
     1
290
     0
176
     1
290
     0
176
     1
 90
       50
176
     1
 40
0.0
176
     1
 40
1.0
176
     1
 90
        0
176
     1
 62
    18
420
        0
176
     1
 90
       50
176
     1
 90
        3
176
     1
 62
     5
420
      255
176
     1
290
     0
176
     1
 90
       50
176
     1
 90
       50
176
     1
 90
       50
176
     1
290
     0
176
     1
 90
       50
176
     1
 62
   256
176
     0
 40
1.0
176
     0
 90
        2
176
     1
  1
strokes_ogs.tif
176
     1
290
     0
176
     1
 40
1.0
176
     1
 40
1.0
176
     1
  0
VISUALSTYLE
  5
173
102
{ACAD_REACTORS
330
99
102
}
330
99
100
AcDbVisualStyle
  2
JitterOff
 70
    20
177
     3
291
     1
 70
    58
 90
        2
176
     0
 90
        2
176
     0
 90
        0
176
     0
 90
        0
176
     0
 40
0.6
176
     0
 40
30.0
176
     0
 62
     7
420
 16777215
176
     0
 90
        1
176
     0
 90
        4
176
     0
 62
     7
176
     0
 62
   257
176
     0
 90
        1
176
     0
 90
        1
176
     0
 40
1.0
176
     0
 90
       10
176
     2
 62
     7
176
     0
 40
1.0
176
     0
 90
        1
176
     0
 90
        6
176
     0
 90
        2
176
     0
 62
     7
176
     0
 90
        5
176
     0
 90
        0
176
     0
 90
        0
176
     0
290
     0
176
     0
 90
        1
176
     0
 40
0.0
176
     0
 90
        0
176
     0
290
     0
176
     1
290
     1
176
     1
290
     1
176
     1
290
     0
176
     1
290
     0
176
     1
290
     0
176
     1
290
     0
176
     1
290
     0
176
     1
290
     0
176
     1
 90
       50
176
     1
 40
0.0
176
     1
 40
1.0
176
     1
 90
        0
176
     1
 62
    18
420
        0
176
     1
 90
       50
176
     1
 90
        3
176
     1
 62
     5
420
      255
176
     1
290
     0
176
     1
 90
       50
176
     1
 90
       50
176
     1
 90
       50
176
     1
290
     0
176
     1
 90
       50
176
     1
 62
   256
176
     0
 40
1.0
176
     0
 90
        2
176
     1
  1
strokes_ogs.tif
176
     1
290
     0
176
     1
 40
1.0
176
     1
 40
1.0
176
     1
  0
VISUALSTYLE
  5
A7
102
{ACAD_REACTORS
330
99
102
}
330
99
100
AcDbVisualStyle
  2
Linepattern
 70
    14
177
     3
291
     1
 70
    58
 90
        2
176
     1
 90
        2
176
     1
 90
        1
176
     1
 90
        0
176
     1
 40
0.6
176
     1
 40
30.0
176
     1
 62
     7
420
 16777215
176
     1
 90
        1
176
     1
 90
        4
176
     1
 62
     7
176
     1
 62
   257
176
     1
 90
        7
176
     1
 90
        7
176
     1
 40
1.0
176
     1
 90
        8
176
     1
 62
     7
176
     1
 40
1.0
176
     1
 90
        1
176
     1
 90
        6
176
     1
 90
        2
176
     1
 62
     7
176
     1
 90
        5
176
     1
 90
        0
176
     1
 90
        0
176
     1
290
     0
176
     1
 90
        1
176
     1
 40
0.0
176
     1
 90
        0
176
     1
290
     0
176
     1
290
     1
176
     1
290
     1
176
     1
290
     0
176
     1
290
     0
176
     1
290
     0
176
     1
290
     0
176
     1
290
     0
176
     1
290
     0
176
     1
 90
       50
176
     1
 40
0.0
176
     1
 40
1.0
176
     1
 90
        0
176
     1
 62
    18
420
        0
176
     1
 90
       50
176
     1
 90
        3
176
     1
 62
     5
420
      255
176
     1
290
     0
176
     1
 90
       50
176
     1
 90
       50
176
     1
 90
       50
176
     1
290
     0
176
     1
 90
       50
176
     1
 62
   256
176
     0
 40
1.0
176
     0
 90
        2
176
     1
  1
strokes_ogs.tif
176
     1
290
     0
176
     1
 40
1.0
176
     1
 40
1.0
176
     1
  0
VISUALSTYLE
  5
174
102
{ACAD_REACTORS
330
99
102
}
330
99
100
AcDbVisualStyle
  2
OverhangOff
 70
    21
177
     3
291
     1
 70
    58
 90
        2
176
     0
 90
        2
176
     0
 90
        0
176
     0
 90
        0
176
     0
 40
0.6
176
     0
 40
30.0
176
     0
 62
     7
420
 16777215
176
     0
 90
        1
176
     0
 90
        4
176
     0
 62
     7
176
     0
 62
   257
176
     0
 90
        1
176
     0
 90
        1
176
     0
 40
1.0
176
     0
 90
        9
176
     2
 62
     7
176
     0
 40
1.0
176
     0
 90
        1
176
     0
 90
        6
176
     0
 90
        2
176
     0
 62
     7
176
     0
 90
        5
176
     0
 90
        0
176
     0
 90
        0
176
     0
290
     0
176
     0
 90
        1
176
     0
 40
0.0
176
     0
 90
        0
176
     0
290
     0
176
     1
290
     1
176
     1
290
     1
176
     1
290
     0
176
     1
290
     0
176
     1
290
     0
176
     1
290
     0
176
     1
290
     0
176
     1
290
     0
176
     1
 90
       50
176
     1
 40
0.0
176
     1
 40
1.0
176
     1
 90
        0
176
     1
 62
    18
420
        0
176
     1
 90
       50
176
     1
 90
        3
176
     1
 62
     5
420
      255
176
     1
290
     0
176
     1
 90
       50
176
     1
 90
       50
176
     1
 90
       50
176
     1
290
     0
176
     1
 90
       50
176
     1
 62
   256
176
     0
 40
1.0
176
     0
 90
        2
176
     1
  1
strokes_ogs.tif
176
     1
290
     0
176
     1
 40
1.0
176
     1
 40
1.0
176
     1
  0
VISUALSTYLE
  5
A3
102
{ACAD_REACTORS
330
99
102
}
330
99
100
AcDbVisualStyle
  2
Realistic
 70
     8
177
     3
291
     0
 70
    58
 90
        2
176
     1
 90
        3
176
     1
 90
        0
176
     1
 90
        2
176
     1
 40
0.6
176
     1
 40
30.0
176
     1
 62
     7
420
 16777215
176
     1
 90
        0
176
     1
 90
        0
176
     1
 62
     7
176
     1
 62
   257
176
     1
 90
        1
176
     1
 90
        1
176
     1
 40
1.0
176
     1
 90
        8
176
     1
 62
   257
176
     1
 40
1.0
176
     1
 90
        1
176
     1
 90
        6
176
     1
 90
        2
176
     1
 62
     7
176
     1
 90
        3
176
     1
 90
        0
176
     1
 90
        0
176
     1
290
     0
176
     1
 90
       13
176
     1
 40
0.0
176
     1
 90
        0
176
     1
290
     0
176
     1
290
     1
176
     1
290
     1
176
     1
290
     0
176
     1
290
     0
176
     1
290
     0
176
     1
290
     0
176
     1
290
     0
176
     1
290
     0
176
     1
 90
       50
176
     1
 40
0.0
176
     1
 40
1.0
176
     1
 90
        0
176
     1
 62
    18
420
        0
176
     1
 90
       50
176
     1
 90
        3
176
     1
 62
     5
420
      255
176
     1
290
     0
176
     1
 90
       50
176
     1
 90
       50
176
     1
 90
       50
176
     1
290
     0
176
     1
 90
       50
176
     1
 62
   256
176
     0
 40
1.0
176
     0
 90
        2
176
     1
  1
strokes_ogs.tif
176
     1
290
     0
176
     1
 40
1.0
176
     1
 40
1.0
176
     1
  0
VISUALSTYLE
  5
182
102
{ACAD_REACTORS
330
99
102
}
330
99
100
AcDbVisualStyle
  2
Shaded
 70
    27
177
     3
291
     0
 70
    58
 90
        2
176
     1
 90
        2
176
     1
 90
        1
176
     1
 90
        2
176
     1
 40
0.6
176
     1
 40
30.0
176
     1
 62
     7
420
 16777215
176
     1
 90
        0
176
     1
 90
        4
176
     1
 62
     7
176
     1
 62
   257
176
     1
 90
        1
176
     1
 90
        1
176
     1
 40
1.0
176
     1
 90
        8
176
     1
 62
   257
176
     1
 40
1.0
176
     1
 90
        1
176
     1
 90
        6
176
     1
 90
        2
176
     1
 62
     8
420
  7895160
176
     1
 90
        3
176
     1
 90
        0
176
     1
 90
        0
176
     1
290
     0
176
     1
 90
        5
176
     1
 40
0.0
176
     1
 90
        0
176
     1
290
     0
176
     1
290
     1
176
     1
290
     1
176
     1
290
     0
176
     1
290
     0
176
     1
290
     0
176
     1
290
     0
176
     1
290
     0
176
     1
290
     0
176
     1
 90
       50
176
     1
 40
0.0
176
     1
 40
1.0
176
     1
 90
        0
176
     1
 62
    18
420
        0
176
     1
 90
       50
176
     1
 90
        3
176
     1
 62
     5
420
      255
176
     1
290
     0
176
     1
 90
       50
176
     1
 90
       50
176
     1
 90
       50
176
     1
290
     0
176
     1
 90
       50
176
     1
 62
   256
176
     0
 40
1.0
176
     0
 90
        2
176
     1
  1
strokes_ogs.tif
176
     1
290
     0
176
     1
 40
1.0
176
     1
 40
1.0
176
     1
  0
VISUALSTYLE
  5
181
102
{ACAD_REACTORS
330
99
102
}
330
99
100
AcDbVisualStyle
  2
Shaded with edges
 70
    26
177
     3
291
     0
 70
    58
 90
        2
176
     1
 90
        2
176
     1
 90
        1
176
     1
 90
        2
176
     1
 40
0.6
176
     1
 40
30.0
176
     1
 62
     7
420
 16777215
176
     1
 90
        1
176
     1
 90
        2
176
     1
 62
     7
176
     1
 62
   257
176
     1
 90
        2
176
     1
 90
        1
176
     1
 40
1.0
176
     1
 90
        8
176
     1
 62
   257
176
     1
 40
1.0
176
     1
 90
        1
176
     1
 90
        6
176
     1
 90
        2
176
     1
 62
     7
176
     1
 90
        3
176
     1
 90
        0
176
     1
 90
        0
176
     1
290
     0
176
     1
 90
        5
176
     1
 40
0.0
176
     1
 90
        0
176
     1
290
     0
176
     1
290
     1
176
     1
290
     1
176
     1
290
     0
176
     1
290
     0
176
     1
290
     0
176
     1
290
     0
176
     1
290
     0
176
     1
290
     0
176
     1
 90
       50
176
     1
 40
0.0
176
     1
 40
1.0
176
     1
 90
        0
176
     1
 62
    18
420
        0
176
     1
 90
       50
176
     1
 90
        3
176
     1
 62
     5
420
      255
176
     1
290
     0
176
     1
 90
       50
176
     1
 90
       50
176
     1
 90
       50
176
     1
290
     0
176
     1
 90
       50
176
     1
 62
   256
176
     0
 40
1.0
176
     0
 90
        2
176
     1
  1
strokes_ogs.tif
176
     1
290
     0
176
     1
 40
1.0
176
     1
 40
1.0
176
     1
  0
VISUALSTYLE
  5
17E
102
{ACAD_REACTORS
330
99
102
}
330
99
100
AcDbVisualStyle
  2
Shades of Gray
 70
    23
177
     3
291
     0
 70
    58
 90
        2
176
     1
 90
        2
176
     1
 90
        3
176
     1
 90
        0
176
     1
 40
0.6
176
     1
 40
30.0
176
     1
 62
     7
420
 16777215
176
     1
 90
        2
176
     1
 90
        2
176
     1
 62
     7
176
     1
 62
     7
176
     1
 90
        1
176
     1
 90
        1
176
     1
 40
40.0
176
     1
 90
        8
176
     1
 62
     7
176
     1
 40
1.0
176
     1
 90
        1
176
     1
 90
        6
176
     1
 90
        2
176
     1
 62
     7
176
     1
 90
        3
176
     1
 90
        0
176
     1
 90
        0
176
     1
290
     0
176
     1
 90
        1
176
     1
 40
0.0
176
     1
 90
        0
176
     1
290
     0
176
     1
290
     1
176
     1
290
     1
176
     1
290
     0
176
     1
290
     0
176
     1
290
     0
176
     1
290
     0
176
     1
290
     0
176
     1
290
     0
176
     1
 90
       50
176
     1
 40
0.0
176
     1
 40
1.0
176
     1
 90
        0
176
     1
 62
    18
420
        0
176
     1
 90
       50
176
     1
 90
        3
176
     1
 62
     5
420
      255
176
     1
290
     0
176
     1
 90
       50
176
     1
 90
       50
176
     1
 90
       50
176
     1
290
     0
176
     1
 90
       50
176
     1
 62
   256
176
     0
 40
1.0
176
     0
 90
        2
176
     1
  1
strokes_ogs.tif
176
     1
290
     0
176
     1
 40
1.0
176
     1
 40
1.0
176
     1
  0
VISUALSTYLE
  5
17F
102
{ACAD_REACTORS
330
99
102
}
330
99
100
AcDbVisualStyle
  2
Sketchy
 70
    24
177
     3
291
     0
 70
    58
 90
        1
176
     1
 90
        2
176
     1
 90
        2
176
     1
 90
        0
176
     1
 40
0.6
176
     1
 40
30.0
176
     1
 62
     7
420
 16777215
176
     1
 90
        2
176
     1
 90
        2
176
     1
 62
     7
176
     1
 62
     7
176
     1
 90
        1
176
     1
 90
        1
176
     1
 40
40.0
176
     1
 90
       11
176
     1
 62
     7
176
     1
 40
1.0
176
     1
 90
        1
176
     1
 90
        6
176
     1
 90
        2
176
     1
 62
     7
176
     1
 90
        6
176
     1
 90
        0
176
     1
 90
        0
176
     1
290
     0
176
     1
 90
        1
176
     1
 40
0.0
176
     1
 90
        0
176
     1
290
     0
176
     1
290
     1
176
     1
290
     1
176
     1
290
     0
176
     1
290
     0
176
     1
290
     0
176
     1
290
     0
176
     1
290
     0
176
     1
290
     0
176
     1
 90
       50
176
     1
 40
0.0
176
     1
 40
1.0
176
     1
 90
        0
176
     1
 62
    18
420
        0
176
     1
 90
       50
176
     1
 90
        3
176
     1
 62
     5
420
      255
176
     1
290
     0
176
     1
 90
       50
176
     1
 90
       50
176
     1
 90
       50
176
     1
290
     0
176
     1
 90
       50
176
     1
 62
   256
176
     0
 40
1.0
176
     0
 90
        2
176
     1
  1
strokes_ogs.tif
176
     1
290
     0
176
     1
 40
1.0
176
     1
 40
1.0
176
     1
  0
VISUALSTYLE
  5
A6
102
{ACAD_REACTORS
330
99
102
}
330
99
100
AcDbVisualStyle
  2
Thicken
 70
    13
177
     3
291
     1
 70
    58
 90
        2
176
     1
 90
        2
176
     1
 90
        1
176
     1
 90
        0
176
     1
 40
0.6
176
     1
 40
30.0
176
     1
 62
     7
420
 16777215
176
     1
 90
        1
176
     1
 90
        4
176
     1
 62
     7
176
     1
 62
   257
176
     1
 90
        1
176
     1
 90
        1
176
     1
 40
1.0
176
     1
 90
       12
176
     1
 62
     7
176
     1
 40
1.0
176
     1
 90
        1
176
     1
 90
        6
176
     1
 90
        2
176
     1
 62
     7
176
     1
 90
        5
176
     1
 90
        0
176
     1
 90
        0
176
     1
290
     0
176
     1
 90
        1
176
     1
 40
0.0
176
     1
 90
        0
176
     1
290
     0
176
     1
290
     1
176
     1
290
     1
176
     1
290
     0
176
     1
290
     0
176
     1
290
     0
176
     1
290
     0
176
     1
290
     0
176
     1
290
     0
176
     1
 90
       50
176
     1
 40
0.0
176
     1
 40
1.0
176
     1
 90
        0
176
     1
 62
    18
420
        0
176
     1
 90
       50
176
     1
 90
        3
176
     1
 62
     5
420
      255
176
     1
290
     0
176
     1
 90
       50
176
     1
 90
       50
176
     1
 90
       50
176
     1
290
     0
176
     1
 90
       50
176
     1
 62
   256
176
     0
 40
1.0
176
     0
 90
        2
176
     1
  1
strokes_ogs.tif
176
     1
290
     0
176
     1
 40
1.0
176
     1
 40
1.0
176
     1
  0
VISUALSTYLE
  5
A0
102
{ACAD_REACTORS
330
99
102
}
330
99
100
AcDbVisualStyle
  2
Wireframe
 70
     5
177
     3
291
     0
 70
    58
 90
        0
176
     1
 90
        2
176
     1
 90
        0
176
     1
 90
        0
176
     1
 40
0.6
176
     1
 40
30.0
176
     1
 62
     7
420
 16777215
176
     1
 90
        1
176
     1
 90
        4
176
     1
 62
     7
176
     1
 62
   257
176
     1
 90
        1
176
     1
 90
        1
176
     1
 40
1.0
176
     1
 90
        0
176
     1
 62
   257
176
     1
 40
1.0
176
     1
 90
        1
176
     1
 90
        6
176
     1
 90
        2
176
     1
 62
     7
176
     1
 90
        3
176
     1
 90
        0
176
     1
 90
        0
176
     1
290
     0
176
     1
 90
        1
176
     1
 40
0.0
176
     1
 90
        0
176
     1
290
     0
176
     1
290
     1
176
     1
290
     1
176
     1
290
     0
176
     1
290
     0
176
     1
290
     0
176
     1
290
     0
176
     1
290
     0
176
     1
290
     0
176
     1
 90
       50
176
     1
 40
0.0
176
     1
 40
1.0
176
     1
 90
        0
176
     1
 62
    18
420
        0
176
     1
 90
       50
176
     1
 90
        3
176
     1
 62
     5
420
      255
176
     1
290
     0
176
     1
 90
       50
176
     1
 90
       50
176
     1
 90
       50
176
     1
290
     0
176
     1
 90
       50
176
     1
 62
   256
176
     0
 40
1.0
176
     0
 90
        2
176
     1
  1
strokes_ogs.tif
176
     1
290
     0
176
     1
 40
1.0
176
     1
 40
1.0
176
     1
  0
VISUALSTYLE
  5
180
102
{ACAD_REACTORS
330
99
102
}
330
99
100
AcDbVisualStyle
  2
X-Ray
 70
    25
177
     3
291
     0
 70
    58
 90
        2
176
     1
 90
        2
176
     1
 90
        1
176
     1
 90
        1
176
     1
 40
0.5
176
     1
 40
30.0
176
     1
 62
     7
420
 16777215
176
     1
 90
        1
176
     1
 90
        0
176
     1
 62
     7
176
     1
 62
   257
176
     1
 90
        1
176
     1
 90
        1
176
     1
 40
1.0
176
     1
 90
        8
176
     1
 62
     7
176
     1
 40
1.0
176
     1
 90
        1
176
     1
 90
        6
176
     1
 90
        2
176
     1
 62
     7
176
     1
 90
        3
176
     1
 90
        0
176
     1
 90
        0
176
     1
290
     0
176
     1
 90
       13
176
     1
 40
0.0
176
     1
 90
        0
176
     1
290
     0
176
     1
290
     1
176
     1
290
     1
176
     1
290
     0
176
     1
290
     0
176
     1
290
     0
176
     1
290
     0
176
     1
290
     0
176
     1
290
     0
176
     1
 90
       50
176
     1
 40
0.0
176
     1
 40
1.0
176
     1
 90
        0
176
     1
 62
    18
420
        0
176
     1
 90
       50
176
     1
 90
        3
176
     1
 62
     5
420
      255
176
     1
290
     0
176
     1
 90
       50
176
     1
 90
       50
176
     1
 90
       50
176
     1
290
     0
176
     1
 90
       50
176
     1
 62
   256
176
     0
 40
1.0
176
     0
 90
        2
176
     1
  1
strokes_ogs.tif
176
     1
290
     0
176
     1
 40
1.0
176
     1
 40
1.0
176
     1
  0
DICTIONARYVAR
  5
F0
102
{ACAD_REACTORS
330
66
102
}
330
66
100
DictionaryVariables
280
     0
  1
1:1
  0
DICTIONARYVAR
  5
EF
102
{ACAD_REACTORS
330
66
102
}
330
66
100
DictionaryVariables
280
     0
  1
STANDARD
  0
DICTIONARYVAR
  5
89
102
{ACAD_REACTORS
330
66
102
}
330
66
100
DictionaryVariables
280
     0
  1
STANDARD
  0
DICTIONARYVAR
  5
1B7
102
{ACAD_REACTORS
330
66
102
}
330
66
100
DictionaryVariables
280
     0
  1
Imperial24
  0
DICTIONARYVAR
  5
1B8
102
{ACAD_REACTORS
330
66
102
}
330
66
100
DictionaryVariables
280
     0
  1
Imperial24
  0
DICTIONARYVAR
  5
67
102
{ACAD_REACTORS
330
66
102
}
330
66
100
DictionaryVariables
280
     0
  1
2
  0
DICTIONARYVAR
  5
6B
102
{ACAD_REACTORS
330
66
102
}
330
66
100
DictionaryVariables
280
     0
  1
1
  0
DICTIONARYVAR
  5
14D
102
{ACAD_REACTORS
330
66
102
}
330
66
100
DictionaryVariables
280
     0
  1
0
  0
DICTIONARYVAR
  5
14E
102
{ACAD_REACTORS
330
66
102
}
330
66
100
DictionaryVariables
280
     0
  1
0
  0
DICTIONARY
  5
194
330
22
100
AcDbDictionary
280
     1
281
     1
  0
DICTIONARY
  5
188
330
97
100
AcDbDictionary
280
     1
281
     1
  3
FBXASSET
360
189
  0
DICTIONARY
  5
186
330
96
100
AcDbDictionary
280
     1
281
     1
  3
FBXASSET
360
187
  0
DICTIONARY
  5
110
330
98
100
AcDbDictionary
280
     1
281
     1
  3
BUMPTILE
360
112
  3
DIFFUSETILE
360
111
  3
FBXASSET
360
18A
  3
OPACITYTILE
360
113
  3
REFLECTIONTILE
360
114
  0
DICTIONARY
  5
104
330
87
100
AcDbDictionary
280
     1
281
     1
  3
ACAD_ROUNDTRIP_2008_TABLESTYLE_CELLSTYLEMAP
360
44B
  0
XRECORD
  5
189
102
{ACAD_REACTORS
330
188
102
}
330
188
100
AcDbXrecord
280
     1
 70
     1
 90
429727718
  1
508B35C9-AEE7-456F-BE74-D52651303AC6
310
504B03040A0000080000B670623B3DEE336E79000000790000001B0000006175746F6465736B2D64657369676E2D7061636B6167652E786D6C3C3F786D6C2076657273696F6E3D22312E302220656E636F64696E673D227574662D3822203F3E3C666F726D6174733E3C666F726D61743E687474703A2F2F736368656D612E
310
6175746F6465736B2E636F6D2F64657369676E2D7061636B6167652F323030393C2F666F726D61743E3C2F666F726D6174733E504B0304140006080800B670623BD486FD9CA0000000F4000000130000005B436F6E74656E745F54797065735D2E786D6C7D8EC10E82300C865F65E91D8A1E8C310C0EEA1BF002731658846E
310
D98AC1B77784ABF1D8FE5FBFBF75BBCE937A534CCEB38643598122B6FEE978D0B0485F9C41B54DDD7D022595594E1A469170414C76A4D9A4D207E29CF43ECE46F218070CC6BECC4078ACAA135ACF422C856C0E68EA1BF5669944DDD7BCDE7B1F8E415D77AECB980613C2E4AC91FC167A2B244592486606FC29C8FD7F045B9A
310
EF7053A7E60B504B0304140006080800B670623B28ED286BEB0000007C01000008000000636F72652E786D6C8D90416EC3201045AF82665B6183218D6D61A254764FD00B204C5C94182C03558F5F9C3852BBEB6A467FFE9B197D71FA9E6FE8CBACC17AD7012D0820E3B41FAD9B3A48F1826B40272956EFE32F1B20A766D3C1
310
268314D3EAD3B24BDABB685CCCAAF3A3D94515828980F42D371D04FD696655A814B3235C8B45E9AB9A4C419F5D8653B2237A1CB163DE672FD6AC209BF3C08E0D1B30EB19C3FC9D72FCC6EB231EFA33EDE96BDD341517E5064B11EDFCBCAF57A3A2194156843498524CAA0FCA5B7268F9E185D42D21A2DCEC7FA0B48CFF8492
310
759155FBBB0F2C80A4F991FB408A72CB22977B50B96EB9C91F504B0304140006080800B670623B55019EA25F0000007C00000007000000636E782E786D6C4DCB3B0E80201045D1AD90E915ED2CF8AC45050C11660C8261F98AB1B07AC9C97D42D718D865D3E909258CFD00CCE24AC6E326A164D74DC0B4128928FF32603847
310
2BA13128B1252AC747C6BAB984FC68F0B87FE8960A5C09FE86CFB69FBA01504B0304140006080800B670623B7BC41AC871010000D40300000C0000006662782F636F72652E786D6CC553ED6E8320147D15C2DF4501B56B6D90A64BBB27D80B50A5CE54C120983EFEAE1F4DD7A56BBA5FF3879273EEE59E7310BE393735EA95
310
ED2AA333CC428A91D2B9292A5D66D8BB63B0C26823B835C67D2BC348CB46657880B1E0A535BE9DA1DC68A7B403549B42CDA0EC3AE530CA6B5864B8CB3F552343E91D5474A7B095F949962A6421D0502778E72C0840D390E18DC5F170E664C205F7BE2A66B62A605A75AC94C522DDEEE3651AEF837817C741F2CE92E02D592D
310
83FD6ECB76EC7595A651C2C9D02CB8AB9A8BBADC2AE954814544691A3016D0E883256BBA58278B17BA5A53CAC9507ED3E4DBE2C9265F691747B3DCA9ADC382819091F8E1162272A8933DE82182932144F88C09DF060D8140C84E1EEA8B8F1340BDCA9DB1093085F157AA97B557309586747CD0EF0B4EA64E983A6E0EAEEFCE
310
889E9EF17847386AA94B30211D2C0FDE0D3AF9A4610EAD5536E8DD1969631B593F67E381C33F5157F17725E5A636F6BF1491F980C8FC7B90E13E8A2F504B0304140006080800B670623B70102A487D0000009D0000000B0000006662782F636E782E786D6C4DCCD10A83201886E15B91FFDC95A5C30335ACCDFB886521330D
310
A76397BF1A1DECE883878F57749FD5A3B74D2F17830472A901D9F088930B8B849267CC01754AA418F3DF0D5018572BE160506249B16C274D761E8BCFBB7A179E27F65CB39A0F14D396184C9921B81F34C3ACA1B4B99ABB6E6F062A25AA5F69DF23ACBE504B0304140006080800B670623B3610CA3329010000120200003100
310
00006662782F42384135303843342D343331462D343546312D424341352D3532343432364645413344462F636F72652E786D6C8D515B6EC32010BC0AE22B55850D0E446E848992B43E412FE000495162B07854397EA176A4F62F3F2C9A9D991D58BEBB8F37F0AD7D30CE76905418026DA553C65E3A98E219B510EC04F7CEC5
310
3F3408EC30EA0E16180A7EF12E4D0B249D8DDAC68C5AA7F4020E21E80881BCE54B0783FCD2E3500D296646B856D320AFC34557A4CAEDCC133C449F0380794839A138B47B86DB2345744D7A44594FD0E1B867883594369BFE63BF7EEF793D0B054FC9A8456E548E63CE46FB674D8A58F068C6477CE9F510B582A2C1F80D1182
310
70F349E816B32D65AFB8DD62CCEB42FF274A937A52948C8DEB66893BCB021484D7734370E5D2E9F608A3EF93F3119479ABA0E50B14B8C298119A43CCC4FCFCECB8A18B6388CEE7EF5D5D4F994BD86CBBA182D76543B9FCAE2FD7B24DF103504B0304140006080800B670623B1B8617914E0100003303000030000000666278
310
2F42384135303843342D343331462D343546312D424341352D3532343432364645413344462F636E782E786D6CD593C16EC32010447F0571AD6CE3D489D20813A9877E410FBD62D82434182CC055F3F75D1292E692438FBD206B7698593D61BEFD1E2DF982108D773D6D6B460938E5B571FB9ECE6957AD29D90A1EBC4F7736
310
4A9C1CA1A759A682EF839FA72269D8C9D92654AD71C72206887E0E0A22CAF926B15E498B01E0AA19451807D01A34B919F16B070157417138917400F2F6FA41FCF0092A45DEE414C19BDC21783E4BD39D891265658C3D8DEA00A3ACE59CBC8678ACB54CB26EEB6BD7839D7E9348BE70AD9C8321B9BCA7F9A4A26C542347DEE0
310
50F09802D22BA6749A800A394DD62899107273365E3C82CFC6A55557BC06C10774B7ABE7AEC3B0F34CF06446280E154026D0542C187BA9DAB6628BF7B6DBB0E5A65B3EB1F58631DE64BBE083F7B65CC218087E22CABB042E51D1F2268F1FE12B3EA24D40D63E9CFE00120194D60B9D5BC67FE6D39CDF37E20AF817881F504B
310
0304140006080800B670623BBFEF2E3B690500003C100000340000006662782F42384135303843342D343331462D343546312D424341352D3532343432364645413344462F6F626A656374732E786D6CAD575D739B3814FD2B0CFB0C98D84E931D4227B6938EA793B6534F3BFB90198F0099B001899144EAECAFDF231018B0
310
D37A3FFC609090EEE7B94757C1FB7D915B2F54C88CB31BDB7727B64559CC938CA53776A576CE956DBD0F03C1B9EA2DB32D460A7A63EB693B0C52C1ABD24C257447AA5C8D66EF177F5832A68CDA569C13296F6C193FD182B8A4523CA1F2D94D88226EBADBBBBEDB2C1C8A4D05299F46424B222853B014F30C52ACC6287F389C
310
D85E1878FA7B18E87FB36AFAF62AAFF667A83F635211161F291B8999FAB3D5DDC5FCDA99CF6653677679E13B8BFBC5CAF1DF4D27CBCBE5F2FAF6EE1A8AA51290642C117467871F101B91C581D77CEA2C36869F3229E68CD1B8F61F1ED6361B89092D294B90C78C4A68EB793D190E7D1D9BDEE7A91E1B95FDE9F3BCEAEFE809
310
6A6D6F9F7D4B79F4275C90E7A04248AA51D5C4C738DAE06F72885AC4796EBE65D22A88A22223B995679120E2D50EB1542F098381188D4EA111AE3DB043FF20AF6F2B4AE3D7D83D65E5AECA730D4D3BAC91BD05FEA992B565D95F549CD6069B90AB2A63EACA38A45E4B6A87D781574F86817E4C2FCCC72690D62E2729520E37
310
9BAF234797BAF6D62B3BFC781FED37BA1E4F2B2F052FA9501A3E80569BB8F6A9A364D4FA67654E6F803383981F82F21591FF84F23D9882BC896C3FDBCF8C162508933B2E0AE4C69DD43F6BD2BE38DDDBF10BF86CB4FA784D37F3AF16075E67EC9030DECA1FC0A55373F5DFF3378C591FA9BDF485C10B0A8C8BA909E5262639
310
A8E72163488806A595734C81CB77D1DE0ED7604A303B76913CEC0272F412782FF88EFF4636D8AA56DF7B322474C4B767303F625997056C7B032C473C592B36CEBD15F3F9FF5233B7ABCDC74D257624A60F8658567497B14CE1EC3C80B76FD02011038F9EE9EB0F2E12387A9C844D3F09855125116D1D731DF8B43D2CF4E0A0
310
79A020C6BE946BCE0B7EA1E1219331CD73C228AF5A2DDD31A4B1DA918CE91350854D40A71723140BFA92E94E62B0626016CEFA5864A50E5977E8753CEDBEE1CBB7F52780D20E17AF0BA0F5F9B02A3AD07DCC732EB6D1EBB661421BE0C39E21BABF0FE16D22EA6929407C8DE596724C88B749B6DB5512BC7B228ADFD7CB7EA6
310
3A22397E690BA8D5D8D4E40CEC8CDA23C2C0B7D5898640101CEC9C6D331CE328CB93CAFBBAC70A642DF70DF95155945B52F08AA973C23469FD69ADEF84F7BB18F983A8F8C90E37F5D35980B2139A1C523540813E824EF83448CF7C72B598CE97D7CEEDDDDD3B6736BFBC771677EF66CE6A7E7139F7A793E9EDF2B2B3A8B624
310
0CDA13AA5F8388264EC4A0129909F3B7F5A16CEDF08128E97D680ACA4B9BE7B7B58BB638F0B00700EF36AE8B32A705658A68F83EE897FC2B41573190D1CCAF0B92D233A47CFEB019D9809933F67DD1A5467F8CF69AD9A5AE859342D45355448C64F968A371DC2D596ADC6E43D93D1B466F877A64E2893E54F23C4B40388995
310
525E5005DA3983ED45412510D3EFCA13737B3863F74BD30F2A12E5B4B5E489A025CE25500DB855B11ACE5BBFA185D35DD48D8DC3CE7DC69F2944DB42AA6F6CF09BCA622ADD08C7A36E7C6AE18000BAB08E040135C2D21C9D75B3A91B77BB746C403F38018DFE6EC939DD92F16B40BC05294B9CDA035AAD6D330AE27FE4786B
310
8E45145EA34A75BE1C263A676A35A8ACC6297337400BF16C54EF515F3F77CB77EB3583889C754FFA29081AA98E2222ADEF05DA3E63D2EDEA8B8756C05A7FB6CABC4A91CBF325398202CC952E70A008A830324BA200D5E5EF8F5F04C75DB4B0EE3340E071C98B823333B83577596BF3849B69F2085AA0FAFA212F26BEFF5877
310
FDE622B28D88A42E49E43326DA82D31E8CB006401E1DA726059ECEC168F97A6599036306A135688F9AD2E61A6EA178F4CD51974A9F2CCB9F36FE5EBD14601068D9C3BF01504B0304140006080000B670623B000000000000000000000000350000006662782F42384135303843342D343331462D343546312D424341352D35
310
32343432364645413344462F76657274696365732E62696E504B0304140006080800B670623BF270F1330600000004000000360000006662782F42384135303843342D343331462D343546312D424341352D3532343432364645413344462F747269616E676C65732E62696E636660600000504B0304140006080000B67062
310
3B000000000000000000000000370000006662782F42384135303843342D343331462D343546312D424341352D3532343432364645413344462F617474726962757465732E62696E504B0304140006080800B670623B08DA0BD19000000041010000360000006662782F42384135303843342D343331462D343546312D4243
310
41352D3532343432364645413344462F6469726563746F72792E786D6C858F410AC3201045AF22B36F53E9A60B35CBEEBAE80D244E44489C6234F4F835464A48035D0DF398FF9F8AF63D0E6CC63039F212F8F9020C7D47C6792B21C5FE7403D62A1188E2E60C98D7234A5830286103A55745067B9D86B8A3CF9C7F90C11DE6
310
07FB144396D7B6A82D282E9A152AD114D5EF2CB866EEE831B8EEA07A7BB5A8D7D61A2BAAEB7FD5F70921FF497D00504B0304140006080800B670623B3B4606F3FE000000A00100003B0000006662782F42384135303843342D343331462D343546312D424341352D3532343432364645413344462F7265736F75726365732F
310
636F72652E786D6C8D504B6E833010BD0A9A6D65B08134808CA354A427E8052C332156828DFCA97AFC9A40A576D7CDCCE87D344F8F9FBEE647F689CE6B6B7A6039850C8DB2A336530F315C4903D94970676DF82583CCC8197B5861107C72362E3BA4AC096842428D1D7107A5F71820538F74F4E0D50D6799CB1892C2DFF345
310
AABB9C306779A2934E701F5C0A906D4FD609C2A1B7D129F4BCD858C163D4E3AED163FAA9AF1A1D88F67CA98E6D35906AA82A52BFB39ABCD5CD915C86331BD86BD3B665CD8BD52C78D0F34F46E550061C419494B6843142CB0F5677F4D0D58717DA7494F26295FF31C565FCA7296A13AA728FBBD93C0896823C09C18BB5AFB4
310
9E65A6BD762BBE01504B010214000A0000080000B670623B3DEE336E79000000790000001B00000000000000000000000000000000006175746F6465736B2D64657369676E2D7061636B6167652E786D6C504B01021400140006080800B670623BD486FD9CA0000000F40000001300000000000000000000000000B2000000
310
5B436F6E74656E745F54797065735D2E786D6C504B01021400140006080800B670623B28ED286BEB0000007C010000080000000000000000000000000083010000636F72652E786D6C504B01021400140006080800B670623B55019EA25F0000007C000000070000000000000000000000000094020000636E782E786D6C50
310
4B01021400140006080800B670623B7BC41AC871010000D40300000C00000000000000000000000000180300006662782F636F72652E786D6C504B01021400140006080800B670623B70102A487D0000009D0000000B00000000000000000000000000B30400006662782F636E782E786D6C504B01021400140006080800B6
310
70623B3610CA3329010000120200003100000000000000000000000000590500006662782F42384135303843342D343331462D343546312D424341352D3532343432364645413344462F636F72652E786D6C504B01021400140006080800B670623B1B8617914E010000330300003000000000000000000000000000D10600
310
006662782F42384135303843342D343331462D343546312D424341352D3532343432364645413344462F636E782E786D6C504B01021400140006080800B670623BBFEF2E3B690500003C10000034000000000000000000000000006D0800006662782F42384135303843342D343331462D343546312D424341352D35323434
310
32364645413344462F6F626A656374732E786D6C504B01021400140006080000B670623B0000000000000000000000003500000000000000000000000000280E00006662782F42384135303843342D343331462D343546312D424341352D3532343432364645413344462F76657274696365732E62696E504B010214001400
310
06080800B670623BF270F133060000000400000036000000000000000000000000007B0E00006662782F42384135303843342D343331462D343546312D424341352D3532343432364645413344462F747269616E676C65732E62696E504B01021400140006080000B670623B00000000000000000000000037000000000000
310
00000000000000D50E00006662782F42384135303843342D343331462D343546312D424341352D3532343432364645413344462F617474726962757465732E62696E504B01021400140006080800B670623B08DA0BD1900000004101000036000000000000000000000000002A0F00006662782F42384135303843342D3433
310
31462D343546312D424341352D3532343432364645413344462F6469726563746F72792E786D6C504B01021400140006080800B670623B3B4606F3FE000000A00100003B000000000000000000000000000E1000006662782F42384135303843342D343331462D343546312D424341352D3532343432364645413344462F72
310
65736F75726365732F636F72652E786D6C504B0506000000000E000E0080040000651100000000
  0
XRECORD
  5
187
102
{ACAD_REACTORS
330
186
102
}
330
186
100
AcDbXrecord
280
     1
 70
     1
 90
429727718
  1
887D55A9-D0DD-414E-B741-A7DCD4DA2B4C
310
504B03040A0000080000B670623B3DEE336E79000000790000001B0000006175746F6465736B2D64657369676E2D7061636B6167652E786D6C3C3F786D6C2076657273696F6E3D22312E302220656E636F64696E673D227574662D3822203F3E3C666F726D6174733E3C666F726D61743E687474703A2F2F736368656D612E
310
6175746F6465736B2E636F6D2F64657369676E2D7061636B6167652F323030393C2F666F726D61743E3C2F666F726D6174733E504B0304140006080800B670623BD486FD9CA0000000F4000000130000005B436F6E74656E745F54797065735D2E786D6C7D8EC10E82300C865F65E91D8A1E8C310C0EEA1BF002731658846E
310
D98AC1B77784ABF1D8FE5FBFBF75BBCE937A534CCEB38643598122B6FEE978D0B0485F9C41B54DDD7D022595594E1A469170414C76A4D9A4D207E29CF43ECE46F218070CC6BECC4078ACAA135ACF422C856C0E68EA1BF5669944DDD7BCDE7B1F8E415D77AECB980613C2E4AC91FC167A2B244592486606FC29C8FD7F045B9A
310
EF7053A7E60B504B0304140006080800B670623BBC1638F5EC0000007C01000008000000636F72652E786D6C8D90416EC3201045AF82665B61836BE2D8C24471DB9CA01740401C94182C03558F5F9C3852BBEB6A467FFE9B197D7EF89E6EE8CB2CC17AD7032D0820E394D7D68D3DA478C67B4007C117EFE32F1B202727D3C3
310
2A83E0E3E2D3BC49CABB685CCCAAF3DA6CA20CC14440EA969B1E82BA98491632C5EC08D76296EA2A4753D06797E194AC468F2356E77DF66CCD02825543D50CACC62D39ED70FDC68EB8FD68F6F8787A6784342D1DDA1D2F5758F068A7E77DB518198D065111D2624A31A93E69DD11D6D5EC85EC3B4278B9DAFF4069D6FF8492
310
75F1B5DADE7D600104CD8FDC0782976B16B9DC83CA75CD4DFC00504B0304140006080800B670623B55019EA25F0000007C00000007000000636E782E786D6C4DCB3B0E80201045D1AD90E915ED2CF8AC45050C11660C8261F98AB1B07AC9C97D42D718D865D3E909258CFD00CCE24AC6E326A164D74DC0B4128928FF326038
310
472BA13128B1252AC747C6BAB984FC68F0B87FE8960A5C09FE86CFB69FBA01504B0304140006080800B670623B3586FFB671010000D40300000C0000006662782F636F72652E786D6CC553ED6E8320147D15C2DF4541A76D6D90A6DDD627D80B50A4CE54C120983EFEAE1F4DD7A55BBA5FF3879273EEE59E7310B6393735EA
310
95ED2AA3731C851423A5A5292A5DE6D8BB63B0C268C39935C67D29C3488B46E578803167A535BE9D2169B453DA01AA4DA16650749D7218C91A1639EEE4876A4428BC838AEE14B6429E44A9C228041AEA38EB9C0501681A32BC313F1ECE8C4C3867DE57C5CC56054CAB8E95B298A7F12E5EEED224C8E87E11242FE936C8DE96
310
AB60BB7F4D295D66D12E5B30323473E6AAE6A24E5A259C2A308F29CD82280A68FC1E256B9AAE93F489AED694323294DF34F9B678B0C957DA3DC7B3DCA9ADC33C022123F1CD2D44E450277AD04338234388F01913BE0D1A0281909D38D4171F27807A259DB1093085F157AA17B557309586747CD0CF0B46A64E983A6E0EAEEF
310
CE881F9EF1FB8E70D44297604238581EBC1B74B249C31C5AAB6CD0BB33D2C636A27ECCC62F0EFF445DC5DF95244D6DEC7F2922F30191F9F720C37DE49F504B0304140006080800B670623B4220A0FF7D0000009D0000000B0000006662782F636E782E786D6C4DCCD10A83201886E15B91FFDCE542CB0335D0EC3E6259C84A
310
C3E9D8E5AF46073BFAE0E1E315DD675BD1DBA5978F41C2FD4600B9F088930F8B849267CC01754AA418F3DF0D50183727E164506249B1EC174D6E1ECB9A0F5D7D785E68DB8151CD286E5A5363CA6B8A39E90D36D40E96B086F55A43A544F52B1D7B86D517504B0304140006080800B670623B2FA3FEDE290100001202000031
310
0000006662782F45374635344235342D363743322D343832342D383044432D4334454645303536354442422F636F72652E786D6C8D515B6EC32010BC0AE22B55850D2E386E848994D7097A0117488A1283C5A3CAF10BB523B57FF961D1ECCCECC0F2ED7DBC816FED8371B687A4C210682B9D32F6D2C314CFA883602BB8772E
310
FEA141608751F7B0C050F08B77695A20E96CD43666D43AA5177008414708E42D5F7A18E4971E876A483133C2B59A06791D2EBA22556E679EE021FA1C00CC43CA09C5717D6274C7286AD7FB06D1AEA1A8C3873DDAD3E3E98859CB0EBB1DAF67A1E02919B5C88DCA71CCD968FFAC49110B1ECDF8882FBD1EA256503418BF2342
310
106E3E08DD60B6A1EC15771B8C795DE8FF4469524F8A92B1F1AD59E2CEB20005E1F5DC105CB9F4797B84D1F7C9F908CABC55D0F2050A5C61CC1AD2F27A26E6E767C7962E8E213A9FBF7775FDCC5CC266DB960A5E970DE5F2BBBE5CCB36C50F504B0304140006080800B670623B1B8617914E01000033030000300000006662
310
782F45374635344235342D363743322D343832342D383044432D4334454645303536354442422F636E782E786D6CD593C16EC32010447F0571AD6CE3D489D20813A9877E410FBD62D82434182CC055F3F75D1292E692438FBD206B7698593D61BEFD1E2DF982108D773D6D6B460938E5B571FB9ECE6957AD29D90A1EBC4F77
310
364A9C1CA1A759A682EF839FA72269D8C9D92654AD71C72206887E0E0A22CAF926B15E498B01E0AA19451807D01A34B919F16B070157417138917400F2F6FA41FCF0092A45DEE414C19BDC21783E4BD39D891265658C3D8DEA00A3ACE59CBC8678ACB54CB26EEB6BD7839D7E9348BE70AD9C8321B9BCA7F9A4A26C542347DE
310
E050F09802D22BA6749A800A394DD62899107273365E3C82CFC6A55557BC06C10774B7ABE7AEC3B0F34CF06446280E154026D0542C187BA9DAB6628BF7B6DBB0E5A65B3EB1F58631DE64BBE083F7B65CC218087E22CABB042E51D1F2268F1FE12B3EA24D40D63E9CFE00120194D60B9D5BC67FE6D39CDF37E20AF817881F50
310
4B0304140006080800B670623B29652116630500003C100000340000006662782F45374635344235342D363743322D343832342D383044432D4334454645303536354442422F6F626A656374732E786D6CAD575D739B3814FD2B0CFB0C989834C90EA1639B24E3E9A6EDD4D3CE3E64C623834CD8006224913AFDF57B040203
310
B65BEF871F0C12D2FD3CF7E8CA7FBFCB33E3957291B2E2D674ED8969D02262715A24B76625B7D6B569BC0F7CCE98EC2D338D82E4F4D654D366E0279C55A59E8AE99654991CCDDECFFF3444440B6A1A514684B83545F44C7362934AB2988A173B2692D8C97667BB76B3702836E1A47C1E092D09A78584A5982F20C5688C7287
310
C389E904BEA3BE07BEFAD7ABA6A75739B53F43FD69212429A20365233153D70BEF2E2E6FAC4BCF9B5ADEBB0BD79ADFCF43CBBD9A4E16EF168B9BD9DD0D140BC921495BC2E9D60C1E101B9E46BED37CEA2CD6861F3329624541A3DA7F7858DBAC25C6B4A4458C3CA654405BCFEBC970E8AAD8F43E4FD558ABEC4F9FE7557F47
310
4F506B7BFBEC5BCA367FC105710E2AB8A00A554D7CB4A30DFE26FBA86D18CBF4B75418399194A72433B274C3097F33032C554B027F2046A1932B842B0FCCC0DDCBEBDB8AD2F835768F59B9ADB24C41D30C6A64AF817F2A456D59FA83F2E3DA60137255A585BCD60EC9B7929AC18DEFD49381AF1ED30BFDB109A4B1CD488294
310
C3CDE6EBC8D185AABD6568061FEE37BB95AAC7E3CA4BCE4ACAA5820FA0D526AE7DAA2869B5EE5999531BE0CC20E6FBA07C41E43FA27CF7A6206F3CDD793B4F6B919C1462CB788EDCD893FA674CDA17AB7B3B7C019F8D561FAEE966FED562DFE98C1D12C6A9FC015C2A35D7FF3D7FC398F591DA4B5FE0BFA2C0189FEA50AE22
310
92817A1ED3020951A03432862970F976B33383259812CC8E5D240BBA801CBCF8CE2BBEE3BF910DB6AAD5F79E05123AE2DB33981FB1ACCB02B69D00CB014FD68AB573A7627EF9BFD4CC2C5C7D58557C4B22FAA88925A4DBB44825CECE3D78FB060D1231F0E885BE7D673C86A3874958F593906B5502D1563157814FDAC3420D
310
F69A070A22EC4B98E23CFF171A1E5311D12C23056555ABA53B8614563B92D17D02AAB009E8F46284624E5F53D5490C560CCCC2591FF1B45421EB0EBD8EA7ED13BE7C5D7E0428CD60FEF60779EB13E6664FF711CB185F6FDED60D139A001FF60CD1FD6D086F1D51474901E26B2CB794A343BC8ED3EDB612E0DD2351FCB65CF4
310
33D511C9E14B5B40ADC6A6263DB0336A8F700DDF56271A024E70B0B3629DE21847591E55DED73D56206AB927E46FAABC5C939C55853C274C93D69FD6FA4E78BF8B11DF898C9ECD60553FAD39283BA6F18984AA23E8884F83F45C5F5F859797B31B2B9C84A1E5B9DE9D35BFF25C6B76152E422F9C5DCC3D847F5801ED09D5AF
310
41441327A25FF15487F9EB725FB666F048A4701E9A827292E6F97569A32DF61DEC01C0BB8DCBBCCC684E0B49147C1FD54BF685A0AB18C868E6973949E819523E3DAC463660E68C7D9F55A9D1EFA3BD7A76A16AE1A810F95CE59B82A4D968A376DC2E8B44BBDD86B27B368CDE0ED548C7137DA860591A83706223A12CA712B4
310
7306DBF39C0A20A6DF95C7FAF670C6EED7A61F946493D1D6926782963813403548A78AE470DEF80D2D9CEAA26E4D1C76F60BFE74219A06527D6B82DF641A51616F703CAAC6A7160E08A00BEB4810A0274592A1B36E3675E36E978A0DE80727A0D6DF2D39A75BD27E0D8837276589537B40ABB56D5A41F48F1C6FCD3188C4EB
310
A6929D2FFB89CE995A4D00AE813BDD032DC48B56BD437DFDDC2DD7AED70C2272D63DE9A72068A45A92F0A4BE17A8A06B9366E16707AD80B1FC649459952097E74BB23805982B55E0401150A165964402AA8BDF9F3E7386BB686EDCA780C0D382E5392BF460A6EFB2C6EA1937D3F809B440D5F5435C4C5CF7A9EEFAF54564BD
310
2182DA24162F98680B4E7930C21A0079709CEAEB99A372305ABE0C0D7D6078105A83F6A0296DAEE1068A47DD1C55A9F4C9B2FC69E3EFD44B81028E963DF81B504B0304140006080000B670623B000000000000000000000000350000006662782F45374635344235342D363743322D343832342D383044432D433445464530
310
3536354442422F76657274696365732E62696E504B0304140006080800B670623BF270F1330600000004000000360000006662782F45374635344235342D363743322D343832342D383044432D4334454645303536354442422F747269616E676C65732E62696E636660600000504B0304140006080000B670623B00000000
310
0000000000000000370000006662782F45374635344235342D363743322D343832342D383044432D4334454645303536354442422F617474726962757465732E62696E504B0304140006080800B670623B08DA0BD19000000041010000360000006662782F45374635344235342D363743322D343832342D383044432D4334
310
454645303536354442422F6469726563746F72792E786D6C858F410AC3201045AF22B36F53E9A60B35CBEEBAE80D244E44489C6234F4F835464A48035D0DF398FF9F8AF63D0E6CC63039F212F8F9020C7D47C6792B21C5FE7403D62A1188E2E60C98D7234A5830286103A55745067B9D86B8A3CF9C7F90C11DE607FB144396
310
D7B6A82D282E9A152AD114D5EF2CB866EEE831B8EEA07A7BB5A8D7D61A2BAAEB7FD5F70921FF497D00504B0304140006080800B670623B6378F24DFF000000A00100003B0000006662782F45374635344235342D363743322D343832342D383044432D4334454645303536354442422F7265736F75726365732F636F72652E
310
786D6C8D504B6E833010BD0A9A6D65B0094E42641C85B639412F6099496225D8C89FAAC7AF09546A77DDCC8CDE47F3F4C4F16B7C149FE88371B603565228D06A37187BED20C50BD9437194C23B177FC9A0B06AC40E6618A4B87A97A615D2CE46B431A3D60DB8822A048C50E8473E3A08FA86A32A558A5911EEE5A4F45D5DB1
310
6465A6B34E8A107D0E502C4FE609D26370C96B0CA25A58295232C3AA3143FE692E063D485EF7F5AEE71BD2D2F39634AFFC44DAF7DD9E9CCE6F9CD25DCBFA762BAAD92C4534E34F46ED51451C40D694B6843142EB0FD61C283F34FC85EE0F948A6A96FF31A569F8A729191B37F51A77B105902C0779125254735F793DCBCC7B
310
EE567E03504B010214000A0000080000B670623B3DEE336E79000000790000001B00000000000000000000000000000000006175746F6465736B2D64657369676E2D7061636B6167652E786D6C504B01021400140006080800B670623BD486FD9CA0000000F40000001300000000000000000000000000B20000005B436F6E
310
74656E745F54797065735D2E786D6C504B01021400140006080800B670623BBC1638F5EC0000007C010000080000000000000000000000000083010000636F72652E786D6C504B01021400140006080800B670623B55019EA25F0000007C000000070000000000000000000000000095020000636E782E786D6C504B010214
310
00140006080800B670623B3586FFB671010000D40300000C00000000000000000000000000190300006662782F636F72652E786D6C504B01021400140006080800B670623B4220A0FF7D0000009D0000000B00000000000000000000000000B40400006662782F636E782E786D6C504B01021400140006080800B670623B2F
310
A3FEDE290100001202000031000000000000000000000000005A0500006662782F45374635344235342D363743322D343832342D383044432D4334454645303536354442422F636F72652E786D6C504B01021400140006080800B670623B1B8617914E010000330300003000000000000000000000000000D2060000666278
310
2F45374635344235342D363743322D343832342D383044432D4334454645303536354442422F636E782E786D6C504B01021400140006080800B670623B29652116630500003C10000034000000000000000000000000006E0800006662782F45374635344235342D363743322D343832342D383044432D4334454645303536
310
354442422F6F626A656374732E786D6C504B01021400140006080000B670623B0000000000000000000000003500000000000000000000000000230E00006662782F45374635344235342D363743322D343832342D383044432D4334454645303536354442422F76657274696365732E62696E504B01021400140006080800
310
B670623BF270F13306000000040000003600000000000000000000000000760E00006662782F45374635344235342D363743322D343832342D383044432D4334454645303536354442422F747269616E676C65732E62696E504B01021400140006080000B670623B0000000000000000000000003700000000000000000000
310
000000D00E00006662782F45374635344235342D363743322D343832342D383044432D4334454645303536354442422F617474726962757465732E62696E504B01021400140006080800B670623B08DA0BD190000000410100003600000000000000000000000000250F00006662782F45374635344235342D363743322D34
310
3832342D383044432D4334454645303536354442422F6469726563746F72792E786D6C504B01021400140006080800B670623B6378F24DFF000000A00100003B00000000000000000000000000091000006662782F45374635344235342D363743322D343832342D383044432D4334454645303536354442422F7265736F75
310
726365732F636F72652E786D6C504B0506000000000E000E0080040000611100000000
  0
XRECORD
  5
112
102
{ACAD_REACTORS
330
110
102
}
330
110
100
AcDbXrecord
280
     1
270
     1
271
     1
  0
XRECORD
  5
111
102
{ACAD_REACTORS
330
110
102
}
330
110
100
AcDbXrecord
280
     1
270
     1
271
     1
  0
XRECORD
  5
18A
102
{ACAD_REACTORS
330
110
102
}
330
110
100
AcDbXrecord
280
     1
 70
     0
 90
1778669749
  1
9BF507EE-FAF7-4A99-A33D-4EE51894BC40
310
504B03040A0000080000B670623B3DEE336E79000000790000001B0000006175746F6465736B2D64657369676E2D7061636B6167652E786D6C3C3F786D6C2076657273696F6E3D22312E302220656E636F64696E673D227574662D3822203F3E3C666F726D6174733E3C666F726D61743E687474703A2F2F736368656D612E
310
6175746F6465736B2E636F6D2F64657369676E2D7061636B6167652F323030393C2F666F726D61743E3C2F666F726D6174733E504B0304140006080800B670623BD486FD9CA0000000F4000000130000005B436F6E74656E745F54797065735D2E786D6C7D8EC10E82300C865F65E91D8A1E8C310C0EEA1BF002731658846E
310
D98AC1B77784ABF1D8FE5FBFBF75BBCE937A534CCEB38643598122B6FEE978D0B0485F9C41B54DDD7D022595594E1A469170414C76A4D9A4D207E29CF43ECE46F218070CC6BECC4078ACAA135ACF422C856C0E68EA1BF5669944DDD7BCDE7B1F8E415D77AECB980613C2E4AC91FC167A2B244592486606FC29C8FD7F045B9A
310
EF7053A7E60B504B0304140006080800B670623BCA089DFFEC0000007C01000008000000636F72652E786D6C8D90416E83301045AF62CDB632D8402020E32882F604BD80653BC44AB011B6AB1EBF262152BBEB6A467FFE9B197D76FA9EEFE84BAFDE38DB03CD08206DA553C64E3DC470C1474027CE56E7C22F1B202B66DDC3
310
260367D3EAE2B24BD2D9A06D48AA754AEFA2F05E0740F29E9A1EBCBCEA59642286E4F0B76C11F226269DD15797E0188D42CF2346A57DE662F40ABCAEC77628C6120F654571D50C04B7F5B9C1E3997CD4F550BE3745C3F20DE62C98F9755FAE5A04AD801784B498524C8A4F5A75E4D055873772EC0861F966FF03C545FD138A
310
C686B2D8DF7D621E384D8F3C069CE55B16A93C824A75CB8DFF00504B0304140006080800B670623B55019EA25F0000007C00000007000000636E782E786D6C4DCB3B0E80201045D1AD90E915ED2CF8AC45050C11660C8261F98AB1B07AC9C97D42D718D865D3E909258CFD00CCE24AC6E326A164D74DC0B4128928FF326038
310
472BA13128B1252AC747C6BAB984FC68F0B87FE8960A5C09FE86CFB69FBA01504B0304140006080800B670623B68FC0B7272010000D40300000C0000006662782F636F72652E786D6CC5535B6E833010BC8AE5DF0A6C1E8124328E22D29EA01770C0A128602363A31CBFCB234A53A555FA553EC09AD9F5CE8C31DB5DDA060D
310
D2F4B556190E7C8A9154852E6B5565D8D993B7C668C799D1DA7E29C3488956667884316795D1AE5BA0422B2B950554E9522EA0E87B69312A1A5864B82F3E642B7CE12C54F467BF13C55954D20F7CA0A18EB3DE1A1080E621E31BF3D3F1C2C88C73E65C5D2E6C5DC2B4FA544B8379921C36797888BC3C8A032F4E73EA6D927D
310
EA1DF6F42D49F2E8350D5346C666CE6CDD5ED515460A2B4BCC434A375E1078347C0FE22D5D6DE3D50B5D6F2965642CBF6B725DF96493AB958DC245EEDCD6631E809089F8E61622B2A81703E8219C913144F84C09DF070D8140C8561C9BAB8F3340832CAC363130A576376A108D933095FA747AD0CF0B46E64E983A6D0EAE1F
310
CE089F9EF1FB8E70D44255604258581E9D1D75B259C3125A278D37D80B52DAB4A279CEC62F0EFF44DDC43F9454E8469BFF5244960322CBEF41C6FBC83F01504B0304140006080800B670623B0F71DDB67E0000009D0000000B0000006662782F636E782E786D6C4DCCD10A83201886E15B91FFDCA54DB73F502386BB8F5816
310
32D3703976F9ABD1C18E3E78F87855FB990379BBFCF2296AE02706C4C5471A7C9C349475A408A4352AA7B4FEDD80C47E761A7606A3A69CCA72D0E0C6BE8475D3E0E3F3409428EA6B27A84079A782899AA2EC1A7AE3ECCC2FD858CB2D544655BFD2B67BD87C01504B0304140006080800B670623BE134B4FB28010000120200
310
00310000006662782F38353834323741342D343835462D343034322D383541392D4331303331363839454531452F636F72652E786D6C8D515B6EC32010BC0AE22B55850D0EA424C24451959EA0172086A42831583CAA1CBF503B52FB971F16CDCECC0EACD8DFC71BF836215AEF7A481A0C817183D7D65D7A98D3197108F652
310
04EFD31F1A044E8DA6871586525C82CFD3020DDE25E352419DD76601558C264130DCCAA58771F832A36A544E8511AFCDA486ABBA988634A55D7852C4144A00300FA927949C71DABD1D28A29C7D208A6987383B6CD13BC16BB2E1DBE3911C453B0BA5C8D9EA456E758963CFD684674DAA588A64C747FC2118958C86B2C3788B
310
0841B8FB247487D98EB257CC77188BB6D2FF89F2A49F1465EBD2BA5BE2CEB2082511EDDC9042FB7CBA3DC298FBE4430275DE2A9AE1054ADC60CC08E3A29D89E5F9C5714317C7987C28DFBBBA9E0A97B0D97643A568EB864AF95D5FA9759BF207504B0304140006080800B670623B1B8617914E010000330300003000000066
310
62782F38353834323741342D343835462D343034322D383541392D4331303331363839454531452F636E782E786D6CD593C16EC32010447F0571AD6CE3D489D20813A9877E410FBD62D82434182CC055F3F75D1292E692438FBD206B7698593D61BEFD1E2DF982108D773D6D6B460938E5B571FB9ECE6957AD29D90A1EBC4F
310
77364A9C1CA1A759A682EF839FA72269D8C9D92654AD71C72206887E0E0A22CAF926B15E498B01E0AA19451807D01A34B919F16B070157417138917400F2F6FA41FCF0092A45DEE414C19BDC21783E4BD39D891265658C3D8DEA00A3ACE59CBC8678ACB54CB26EEB6BD7839D7E9348BE70AD9C8321B9BCA7F9A4A26C542347
310
DEE050F09802D22BA6749A800A394DD62899107273365E3C82CFC6A55557BC06C10774B7ABE7AEC3B0F34CF06446280E154026D0542C187BA9DAB6628BF7B6DBB0E5A65B3EB1F58631DE64BBE083F7B65CC218087E22CABB042E51D1F2268F1FE12B3EA24D40D63E9CFE00120194D60B9D5BC67FE6D39CDF37E20AF817881F
310
504B0304140006080800B670623B5933D422630500003B100000340000006662782F38353834323741342D343835462D343034322D383541392D4331303331363839454531452F6F626A656374732E786D6CAD575B6FA33814FE2B887D0642934E9B156594264D158D3A534DD4D13E548A0C38942D60649B4EBABF7E3F8321
310
40924EF6928780CDF1B97EE762EFF32E4B8D37CA45C2F21BD3B547A641F39045491EDF98A5DC5AD7A6F1D9F73863B243661A39C9E88DA9B64DDF8B392B0BBD15D12D295339D85DDEFE618890E6D434C2940871638AF08566C426A5641115AF764424B1E3EDCE76ED9AB0CF36E6A47819302D08A7B984A6D8CFC1C5A89572FB
310
CB91E9F89EA3BEFB9EFAD754E3D3544E654F5F7E920B49F2F040D880CDD89D2CEE2E2EA7D6E56432B6269F2E5CEB7679BBB0DCABF168FE693E9FCEEEA6102C240727AD09A75BD3BF876F78127A4EFDA9D5582B7E4CA590E5390D2BFB6161A5B3E618D182E611E2985001691DAB47FDA5AB7CD3F93C566B2DB2BB7D9E55DD13
310
1D468DEECDB3AB290BFE8409E21C54704115AA6AFF68436BFC8DF65E0B184BF5B74418199194272435D224E084BF9B3E481589EFF5D828747285706581E9BB7B7E5D5D911ABFC6EE312DB7659A2A689A7E85EC0DF04FA5A8344BFEA2FCB834E8845895492EAFB541F2BDA0A63FF59C6AD3F7D4637CA13FD68E34B629891172
310
98597F1D183A57B9B75A98FE9765B05BAB7C3C2EBCE0ACA05C2AF8005A4DE09AA7F29216EB9E15397500C6F47CBE77CA7778FE2BD277AF0AE2C693DD6437D1522427B9D8329E2136F6A8FA19A3E6C56ADF0E5F50CF06D48734EDCEBF22F69C56D97EC138153F804B85E6FABFC7AFEFB32E523BE1F3BD372418E363EDCA7548
310
52949E8724474014288D94610BB57C1BEC4C7F854A89CA8E5324F55B871CBC78CE1BBEE3BFE68D6A5589EF3C730474506FCFA8FCF0659516D0ED04580EEA6425581B77CAE797FF4BCECC16EB2FEB926F49481F746159D06D922712BD730FDEAE42BD40F42C7AA5EF3F198F60E86110D6DD20645A9480B795CF95E3E3A659A8
310
C55E724F408873315335CFFB8584874484344D494E59D94869DB90C26A5B64F49C802CAC1D3ABE18A098D3B7444D123D8A9E5AE8F5214F0AE5B2B6E9B575DA3E61CBD3EA2B4009FA940524DD1305FB6A1FB294F14DF0BEA90BA109ECE1481FDC3FFAE8D60E75141700BE82725371B4873751B2DD960265F788137FACE6DD40
310
B575E4F0A5C99F46629D92131467A41EE11ABD8D4CCC039CA0AFB37C93A08B232B8F0AEFCA1E0A1015DF13FC83322B362463652ECF71D3A8B1A7D1BE65DE1D62C44F22C317D35F574FEB16153BA2D13E543D10A80E74C4A65E78A6B7CBCBD1D5DD9DB59C2DAFACC96C3AB566E3F1C29ADCDD5DBAD7D3C9ED7C822ED74F80A6
310
41755310DE4443F44A9E68373FADF6596BFA0F440AE7BECE2727AE9F4F2B1B53B1E7E00CF0DD1E5C65454A339A4BA2D0FBA05ED2EF0443458F47BDBFCA484CCFE0F2ED7E3DD0013B679C7B5499467F0ECEEADDB9CA85A34CE44B99053949D2C1416DB85DE4B136BB7165FBAC0B7AB3542BED4F8CA182A549847A1319316519
310
95A83A67147B9E5101C47487F2485F1ECE38FD568F839204296D3479219888530154036E6528FBFBC66F98E0D4107563A2D7D9AFF8D389681A08F58D89F22693900A3B407754734FC51C10C010D6D640809EE4718AC1BA3ED4AEDB53CA37283F68805A7E4B72CEB0A4EDEAD5DD8C14059A76AFAA56BA6901E13F32BC51C720
310
12AF41295B5BF61BAD3195181FB506E6B40F4C10AF5AF40EF9F5B159AE5DD1F43C72D635E94310D45C2D49785C5D0B94D3B54AB3C5A38349C0587D338AB48C11CBF339599C02CCA54A70A008A8D03C0B2201D5F9EFCF8F9CE12A9A19CB0410789EB32C63B95ECCF455D658BFE0621A3DA32C5075FB101723D77DAE867E7D0F
310
D90444509B44E2151B4DC2290B065803200FBAA9BE9D392A0603F2D5C2D00D6302A615680F66D2FA166E2079D4C551A54AB758161FCEFD4E450A14704CECFEDF504B0304140006080000B670623B000000000000000000000000350000006662782F38353834323741342D343835462D343034322D383541392D4331303331
310
363839454531452F76657274696365732E62696E504B0304140006080800B670623BF270F1330600000004000000360000006662782F38353834323741342D343835462D343034322D383541392D4331303331363839454531452F747269616E676C65732E62696E636660600000504B0304140006080000B670623B000000
310
000000000000000000370000006662782F38353834323741342D343835462D343034322D383541392D4331303331363839454531452F617474726962757465732E62696E504B0304140006080800B670623B08DA0BD19000000041010000360000006662782F38353834323741342D343835462D343034322D383541392D43
310
31303331363839454531452F6469726563746F72792E786D6C858F410AC3201045AF22B36F53E9A60B35CBEEBAE80D244E44489C6234F4F835464A48035D0DF398FF9F8AF63D0E6CC63039F212F8F9020C7D47C6792B21C5FE7403D62A1188E2E60C98D7234A5830286103A55745067B9D86B8A3CF9C7F90C11DE607FB1443
310
96D7B6A82D282E9A152AD114D5EF2CB866EEE831B8EEA07A7BB5A8D7D61A2BAAEB7FD5F70921FF497D00504B0304140006080800B670623BD9A3B367FE000000A00100003B0000006662782F38353834323741342D343835462D343034322D383541392D4331303331363839454531452F7265736F75726365732F636F7265
310
2E786D6C8D504B6E833010BD0A9A6D65B01D0201194711694FD00B586642AD043BF2A7EAF16B122AB5BB6E6646EFA3797AE2F8B5DC8A4FF4C1383B002B291468B59B8C9D0748F1420E501CA5F0CEC55F3228AC5A708015062966EFD27D83B4B3116DCCA875136EA00A012314FA968F0182FEC045952AC5AC08D7F2AEF455CD
310
58B232D3592745883E07289E4FD609D26370C96B0CA27AB252A464A64D63A6FCD35C0C7A904D73EE467EE664DCD58CD4ED4849D79C5A723ED1B7A61977AF2D6F45B59AA58866F9C9A83DAA8813484E6947182394BFB3BAA7FBBEDEBFD0434FA9A856F91F53BA4FFF342563E38E6F719FB60092E5200F428A6AED2BAF479979
310
AFDDCA6F504B010214000A0000080000B670623B3DEE336E79000000790000001B00000000000000000000000000000000006175746F6465736B2D64657369676E2D7061636B6167652E786D6C504B01021400140006080800B670623BD486FD9CA0000000F40000001300000000000000000000000000B20000005B436F6E
310
74656E745F54797065735D2E786D6C504B01021400140006080800B670623BCA089DFFEC0000007C010000080000000000000000000000000083010000636F72652E786D6C504B01021400140006080800B670623B55019EA25F0000007C000000070000000000000000000000000095020000636E782E786D6C504B010214
310
00140006080800B670623B68FC0B7272010000D40300000C00000000000000000000000000190300006662782F636F72652E786D6C504B01021400140006080800B670623B0F71DDB67E0000009D0000000B00000000000000000000000000B50400006662782F636E782E786D6C504B01021400140006080800B670623BE1
310
34B4FB280100001202000031000000000000000000000000005C0500006662782F38353834323741342D343835462D343034322D383541392D4331303331363839454531452F636F72652E786D6C504B01021400140006080800B670623B1B8617914E010000330300003000000000000000000000000000D3060000666278
310
2F38353834323741342D343835462D343034322D383541392D4331303331363839454531452F636E782E786D6C504B01021400140006080800B670623B5933D422630500003B10000034000000000000000000000000006F0800006662782F38353834323741342D343835462D343034322D383541392D4331303331363839
310
454531452F6F626A656374732E786D6C504B01021400140006080000B670623B0000000000000000000000003500000000000000000000000000240E00006662782F38353834323741342D343835462D343034322D383541392D4331303331363839454531452F76657274696365732E62696E504B01021400140006080800
310
B670623BF270F13306000000040000003600000000000000000000000000770E00006662782F38353834323741342D343835462D343034322D383541392D4331303331363839454531452F747269616E676C65732E62696E504B01021400140006080000B670623B0000000000000000000000003700000000000000000000
310
000000D10E00006662782F38353834323741342D343835462D343034322D383541392D4331303331363839454531452F617474726962757465732E62696E504B01021400140006080800B670623B08DA0BD190000000410100003600000000000000000000000000260F00006662782F38353834323741342D343835462D34
310
3034322D383541392D4331303331363839454531452F6469726563746F72792E786D6C504B01021400140006080800B670623BD9A3B367FE000000A00100003B000000000000000000000000000A1000006662782F38353834323741342D343835462D343034322D383541392D4331303331363839454531452F7265736F75
310
726365732F636F72652E786D6C504B0506000000000E000E0080040000611100000000
  0
XRECORD
  5
113
102
{ACAD_REACTORS
330
110
102
}
330
110
100
AcDbXrecord
280
     1
270
     1
271
     1
  0
XRECORD
  5
114
102
{ACAD_REACTORS
330
110
102
}
330
110
100
AcDbXrecord
280
     1
270
     1
271
     1
  0
CELLSTYLEMAP
  5
44B
102
{ACAD_REACTORS
330
104
102
}
330
104
100
AcDbCellStyleMap
 90
        3
300
CELLSTYLE
  1
TABLEFORMAT_BEGIN
 90
        5
170
     1
 91
        0
 92
    32768
 62
   257
 93
        1
300
CONTENTFORMAT
  1
CONTENTFORMAT_BEGIN
 90
        0
 91
        0
 92
      512
 93
        0
300

 40
0.0
140
1.0
 94
        5
 62
     0
340
11
144
0.25
309
CONTENTFORMAT_END
171
     1
301
MARGIN
  1
CELLMARGIN_BEGIN
 40
0.06
 40
0.06
 40
0.06
 40
0.06
 40
0.18
 40
0.18
309
CELLMARGIN_END
 94
        6
 95
        1
302
GRIDFORMAT
  1
GRIDFORMAT_BEGIN
 90
        0
 91
        1
 62
     0
 92
       -2
340
0
 93
        0
 40
0.045
309
GRIDFORMAT_END
 95
        2
302
GRIDFORMAT
  1
GRIDFORMAT_BEGIN
 90
        0
 91
        1
 62
     0
 92
       -2
340
0
 93
        0
 40
0.045
309
GRIDFORMAT_END
 95
        4
302
GRIDFORMAT
  1
GRIDFORMAT_BEGIN
 90
        0
 91
        1
 62
     0
 92
       -2
340
0
 93
        0
 40
0.045
309
GRIDFORMAT_END
 95
        8
302
GRIDFORMAT
  1
GRIDFORMAT_BEGIN
 90
        0
 91
        1
 62
     0
 92
       -2
340
0
 93
        0
 40
0.045
309
GRIDFORMAT_END
 95
       16
302
GRIDFORMAT
  1
GRIDFORMAT_BEGIN
 90
        0
 91
        1
 62
     0
 92
       -2
340
0
 93
        0
 40
0.045
309
GRIDFORMAT_END
 95
       32
302
GRIDFORMAT
  1
GRIDFORMAT_BEGIN
 90
        0
 91
        1
 62
     0
 92
       -2
340
0
 93
        0
 40
0.045
309
GRIDFORMAT_END
309
TABLEFORMAT_END
  1
CELLSTYLE_BEGIN
 90
        1
 91
        1
300
_TITLE
309
CELLSTYLE_END
300
CELLSTYLE
  1
TABLEFORMAT_BEGIN
 90
        5
170
     1
 91
        0
 92
        0
 62
   257
 93
        1
300
CONTENTFORMAT
  1
CONTENTFORMAT_BEGIN
 90
        0
 91
        0
 92
      512
 93
        0
300

 40
0.0
140
1.0
 94
        5
 62
     0
340
11
144
0.18
309
CONTENTFORMAT_END
171
     1
301
MARGIN
  1
CELLMARGIN_BEGIN
 40
0.06
 40
0.06
 40
0.06
 40
0.06
 40
0.18
 40
0.18
309
CELLMARGIN_END
 94
        6
 95
        1
302
GRIDFORMAT
  1
GRIDFORMAT_BEGIN
 90
        0
 91
        1
 62
     0
 92
       -2
340
0
 93
        0
 40
0.045
309
GRIDFORMAT_END
 95
        2
302
GRIDFORMAT
  1
GRIDFORMAT_BEGIN
 90
        0
 91
        1
 62
     0
 92
       -2
340
0
 93
        0
 40
0.045
309
GRIDFORMAT_END
 95
        4
302
GRIDFORMAT
  1
GRIDFORMAT_BEGIN
 90
        0
 91
        1
 62
     0
 92
       -2
340
0
 93
        0
 40
0.045
309
GRIDFORMAT_END
 95
        8
302
GRIDFORMAT
  1
GRIDFORMAT_BEGIN
 90
        0
 91
        1
 62
     0
 92
       -2
340
0
 93
        0
 40
0.045
309
GRIDFORMAT_END
 95
       16
302
GRIDFORMAT
  1
GRIDFORMAT_BEGIN
 90
        0
 91
        1
 62
     0
 92
       -2
340
0
 93
        0
 40
0.045
309
GRIDFORMAT_END
 95
       32
302
GRIDFORMAT
  1
GRIDFORMAT_BEGIN
 90
        0
 91
        1
 62
     0
 92
       -2
340
0
 93
        0
 40
0.045
309
GRIDFORMAT_END
309
TABLEFORMAT_END
  1
CELLSTYLE_BEGIN
 90
        2
 91
        1
300
_HEADER
309
CELLSTYLE_END
300
CELLSTYLE
  1
TABLEFORMAT_BEGIN
 90
        5
170
     1
 91
        0
 92
        0
 62
   257
 93
        1
300
CONTENTFORMAT
  1
CONTENTFORMAT_BEGIN
 90
        0
 91
        0
 92
      512
 93
        0
300

 40
0.0
140
1.0
 94
        2
 62
     0
340
11
144
0.18
309
CONTENTFORMAT_END
171
     1
301
MARGIN
  1
CELLMARGIN_BEGIN
 40
0.06
 40
0.06
 40
0.06
 40
0.06
 40
0.18
 40
0.18
309
CELLMARGIN_END
 94
        6
 95
        1
302
GRIDFORMAT
  1
GRIDFORMAT_BEGIN
 90
        0
 91
        1
 62
     0
 92
       -2
340
0
 93
        0
 40
0.045
309
GRIDFORMAT_END
 95
        2
302
GRIDFORMAT
  1
GRIDFORMAT_BEGIN
 90
        0
 91
        1
 62
     0
 92
       -2
340
0
 93
        0
 40
0.045
309
GRIDFORMAT_END
 95
        4
302
GRIDFORMAT
  1
GRIDFORMAT_BEGIN
 90
        0
 91
        1
 62
     0
 92
       -2
340
0
 93
        0
 40
0.045
309
GRIDFORMAT_END
 95
        8
302
GRIDFORMAT
  1
GRIDFORMAT_BEGIN
 90
        0
 91
        1
 62
     0
 92
       -2
340
0
 93
        0
 40
0.045
309
GRIDFORMAT_END
 95
       16
302
GRIDFORMAT
  1
GRIDFORMAT_BEGIN
 90
        0
 91
        1
 62
     0
 92
       -2
340
0
 93
        0
 40
0.045
309
GRIDFORMAT_END
 95
       32
302
GRIDFORMAT
  1
GRIDFORMAT_BEGIN
 90
        0
 91
        1
 62
     0
 92
       -2
340
0
 93
        0
 40
0.045
309
GRIDFORMAT_END
309
TABLEFORMAT_END
  1
CELLSTYLE_BEGIN
 90
        3
 91
        2
300
_DATA
309
CELLSTYLE_END
  0
ENDSEC
  0
SECTION
  2
ACDSDATA
 70
     2
 71
     8
  0
ACDSSCHEMA
 90
        0
  1
AcDb_Thumbnail_Schema
  2
AcDbDs::ID
280
    10
 91
        8
  2
Thumbnail_Data
280
    15
 91
        0
101
ACDSRECORD
 95
        0
 90
        1
  2
AcDbDs::TreatedAsObjectData
280
     1
291
     1
101
ACDSRECORD
 95
        0
 90
        2
  2
AcDbDs::Legacy
280
     1
291
     1
101
ACDSRECORD
  1
AcDbDs::ID
 90
        3
  2
AcDs:Indexable
280
     1
291
     1
101
ACDSRECORD
  1
AcDbDs::ID
 90
        4
  2
AcDbDs::HandleAttribute
280
     7
282
     1
  0
ACDSSCHEMA
 90
        1
  1
AcDbDs::TreatedAsObjectDataSchema
  2
AcDbDs::TreatedAsObjectData
280
     1
 91
        0
  0
ACDSSCHEMA
 90
        2
  1
AcDbDs::LegacySchema
  2
AcDbDs::Legacy
280
     1
 91
        0
  0
ACDSSCHEMA
 90
        3
  1
AcDbDs::IndexedPropertySchema
  2
AcDs:Indexable
280
     1
 91
        0
  0
ACDSSCHEMA
 90
        4
  1
AcDbDs::HandleAttributeSchema
  2
AcDbDs::HandleAttribute
280
     7
 91
        1
284
     1
  0
ACDSRECORD
 90
        0
  2
AcDbDs::ID
280
    10
320
22
  2
Thumbnail_Data
280
    15
 94
     2013
310
89504E470D0A1A0A0000000D494844520000011D000001000803000000B9FC520C00000300504C5445212830FFFFFF2128300000000000000000000000000000000000000000000000000000330000660000990000CC0000FF0033000033330033660033990033CC0033FF0066000066330066660066990066CC0066FF0099
310
000099330099660099990099CC0099FF00CC0000CC3300CC6600CC9900CCCC00CCFF00FF0000FF3300FF6600FF9900FFCC00FFFF3300003300333300663300993300CC3300FF3333003333333333663333993333CC3333FF3366003366333366663366993366CC3366FF3399003399333399663399993399CC3399FF33CC00
310
33CC3333CC6633CC9933CCCC33CCFF33FF0033FF3333FF6633FF9933FFCC33FFFF6600006600336600666600996600CC6600FF6633006633336633666633996633CC6633FF6666006666336666666666996666CC6666FF6699006699336699666699996699CC6699FF66CC0066CC3366CC6666CC9966CCCC66CCFF66FF0066
310
FF3366FF6666FF9966FFCC66FFFF9900009900339900669900999900CC9900FF9933009933339933669933999933CC9933FF9966009966339966669966999966CC9966FF9999009999339999669999999999CC9999FF99CC0099CC3399CC6699CC9999CCCC99CCFF99FF0099FF3399FF6699FF9999FFCC99FFFFCC0000CC00
310
33CC0066CC0099CC00CCCC00FFCC3300CC3333CC3366CC3399CC33CCCC33FFCC6600CC6633CC6666CC6699CC66CCCC66FFCC9900CC9933CC9966CC9999CC99CCCC99FFCCCC00CCCC33CCCC66CCCC99CCCCCCCCCCFFCCFF00CCFF33CCFF66CCFF99CCFFCCCCFFFFFF0000FF0033FF0066FF0099FF00CCFF00FFFF3300FF3333
310
FF3366FF3399FF33CCFF33FFFF6600FF6633FF6666FF6699FF66CCFF66FFFF9900FF9933FF9966FF9999FF99CCFF99FFFFCC00FFCC33FFCC66FFCC99FFCCCCFFCCFFFFFF00FFFF33FFFF66FFFF99FFFFCCFFFFFF0000000D0D0D1A1A1A2828283535354343435050505D5D5D6B6B6B787878868686939393A1A1A1AEAEAEBB
310
BBBBC9C9C9D6D6D6E4E4E4F1F1F1FFFFFF0000000000000000000000000000000000000000000000000000000000002E4550F1000003A94944415478DAEDDB5B92DB2010856196C3CBD9FFF63265CB984B0B90134DAADBFFF790A43C8E129F82E6EA9400000000000000000000000000000000000000000000000000000000
310
00000000000000000000000000000000DF4D377A3CDD773AB73EFA271CD7F9DC9D8E6EFD273CA753FA17E9D8E9940E463A433A47CFF2DB7C74BBA3F9784DE7DE873FE3713A76DD9E4EF2DC7CEE4FA7FCEA309ECD7486776DFDB5D7C39FBF796C3BDBE3CF07E994C77B5D51FC4E3A5EE3F985F1FCF68995E7748CA418B3AA11
310
BD5E57908E35DF61440F98CEFD635699F3900EE95C4B47C9713AF78FE88EA73C32F61CAA1F96A2FDAAAF5A3594DCAF4153A874648E683B333AD53DAE6CED044B477679D1AAE9BCCA6FAA0B8D52AC74ECE26B6D61F52D49FD13357DBBC731ABFD0C7DDB693FFC2A9DFE6111D2997EBC66D96DA533C923423AD39ED5D4A58BE9
310
B8DF1BD4A22AAB2ECDC310A6E1A560E94CEA4E350CA99B07574538F7EFF73C5536D299D6E83A1E2B9DAADBBD7B62DBE4E2A67324A3A4D374548E69A47A4CF779DA77319D239E630135F6AC66CBB44A475F91CEAB8B589D45DD4FAB078438B1D94AA70460BEB91DEF4B51767A2671B9EEA412CFFCCDF9A8507E4F243E4AA78A
310
673217D67101438ECBCE47E99478A6E9341DCAE90D9E613767279DD22626C79DC3B2C2FD9835D607C9DE1BABC72673DD65ACD723F4ACD97E46EA93681BC8908EF76556D264EB6B968ED9B3D4ECB4FA6F3A4927ABC6653AEFA32A991D33B745DBFF6C50CB7456035C775AE33F1D5D693BC94AA32B45716EEFB47396E72AF25A
310
3AEF4FAEFA026E9074FEE961685973F69978FEA684C63F364D6A767BCBBC0837DC16749C8E8CA0645F871CC66F55F54A3ACB33C67790AAE9CA599FB872CD2D403A9A4CF64ED291F64B9AE305FA3A1DEBDE8EF6FB6CF474D2626DB1D5B352F07472CE9FA5E3786370339D67344740523ABDCF7E928EDF11EBF4CAC47BB4791F
310
6FE6C72BB93F3ECFF3B942947D650D776FF46C342FCF2CBA348617EC355CAC745E57B772D576F2A2ED4CFA5C805DF7716A5387F38867EC241A6F1736E9E490E9D8070997EBCED1F1C2A59364CD062FD79DA06DC73AE0FDE92EB9EF3F79BDBE0D998E7507F5CA6CB0D4F2081BCBABCEF5C8E66A3A9EEBCE3A9D6123747B6217
310
BFED983FFFE48B3941BF72FD793CFEC7AC8DFFB5667B13DF5D77CEDF62EC2B0F53E62F683BF3E5C6F44CC27DDDD98B67B7D0C8683B5F90CEC5513CC8FECEEE61E8DF3C2E01000000000000000000000000000000000000000000000000000000000000C07FF40782FE4E0762B4ADF80000000049454E44AE4260826787D839
310
CA377F9FB57BCE9A7C8FBB7EBC57EF6C62C7BFAB323DFB4A55CB60A07AA75DFDBBE7176F8C186255D66C88B9E7CA2276D2BD43DD46F0F6881BD8F9DC29C69E76EC43BF391EAADEB9F1AF6A46CFA35F6189512BBFAF67E68AD4B9290E512BCB3EA0E7FAFEE916A375171AA81ABC372DA64AA3D13DFAAE766E2FC1831E8CF577
310
12FA8732ADF3BB0821CE95F99F5A3E39590000000000000000000000000000000000000000000000000000000000000000000000000000000060557E01DCC47FEF0F4BF0540000000049454E44AE42608200000000BFFC03B702EC14CB3DDE3B0000000049454E44AE426082
  0
ENDSEC
  0
EOF
