0
SECTION
2
HEADER
9
$INSUNITS
70
4
9
$ACADVER
1
AC1014
9
$HANDSEED
5
FFFF
0
ENDSEC
0
SECTION
2
TABLES
0
TABLE
2
VPORT
5
8
100
AcDbSymbolTable
0
ENDTAB
0
TABLE
2
LTYPE
5
5
100
AcDbSymbolTable
0
LTYPE
5
14
100
AcDbSymbolTableRecord
100
AcDbLinetypeTableRecord
2
BYBLOCK
70
0
0
LTYPE
5
15
100
AcDbSymbolTableRecord
100
AcDbLinetypeTableRecord
2
BYLAYER
70
0
0
ENDTAB
0
TABLE
2
LAYER
5
2
100
AcDbSymbolTable
70
2
0
LAYER
5
50
100
AcDbSymbolTableRecord
100
AcDbLayerTableRecord
2
0
70
0
6
CONTINUOUS
0
ENDTAB
0
TABLE
2
STYLE
5
3
100
AcDbSymbolTable
70
1
0
STYLE
5
11
100
AcDbSymbolTableRecord
100
AcDbTextStyleTableRecord
2
STANDARD
70
0
0
ENDTAB
0
TABLE
2
VIEW
5
6
100
AcDbSymbolTable
70
0
0
ENDTAB
0
TABLE
2
UCS
5
7
100
AcDbSymbolTable
70
0
0
ENDTAB
0
TABLE
2
APPID
5
9
100
AcDbSymbolTable
70
2
0
APPID
5
12
100
AcDbSymbolTableRecord
100
AcDbRegAppTableRecord
2
ACAD
70
0
0
ENDTAB
0
TABLE
2
DIMSTYLE
5
A
100
AcDbSymbolTable
70
1
0
ENDTAB
0
TABLE
2
BLOCK_RECORD
5
1
100
AcDbSymbolTable
70
1
0
BLOCK_RECORD
5
1F
100
AcDbSymbolTableRecord
100
AcDbBlockTableRecord
2
*MODEL_SPACE
0
BLOCK_RECORD
5
1B
100
AcDbSymbolTableRecord
100
AcDbBlockTableRecord
2
*PAPER_SPACE
0
ENDTAB
0
ENDSEC
0
SECTION
2
BLOCKS
0
BLOCK
5
20
100
AcDbEntity
100
AcDbBlockBegin
2
*MODEL_SPACE
0
ENDBLK
5
21
100
AcDbEntity
100
AcDbBlockEnd
0
BLOCK
5
1C
100
AcDbEntity
100
AcDbBlockBegin
2
*PAPER_SPACE
0
ENDBLK
5
1D
100
AcDbEntity
100
AcDbBlockEnd
0
ENDSEC
0
SECTION
2
ENTITIES
0
CIRCLE
5
100
100
AcDbEntity
8
0
100
AcDbCircle
10
5
20
-39.727515642239695
30
0
40
1.5500000000000003
210
0
220
0
230
1
0
CIRCLE
5
101
100
AcDbEntity
8
0
100
AcDbCircle
10
-5
20
-39.727515642239695
30
0
40
1.5500000000000003
210
0
220
0
230
1
0
CIRCLE
5
102
100
AcDbEntity
8
0
100
AcDbCircle
10
5
20
-87.657515642239687
30
0
40
1.5500000000000003
210
0
220
0
230
1
0
CIRCLE
5
103
100
AcDbEntity
8
0
100
AcDbCircle
10
-5
20
-87.657515642239687
30
0
40
1.5500000000000003
210
0
220
0
230
1
0
LWPOLYLINE
5
104
100
AcDbEntity
8
0
100
AcDbPolyline
90
12
70
1
43
0.0
10
-0.74999999999999845
20
-43.59251564223969
10
-0.75000000000000611
20
-39.592515642239704
10
0.7500000000000091
20
-39.592515642239697
10
0.75000000000000067
20
-43.59251564223969
10
9.8650000000000002
20
-43.59251564223969
10
9.8650000000000002
20
-83.792515642239692
10
0.75000000000000067
20
-83.792515642239692
10
0.75000000000000555
20
-87.792515642239692
10
-0.75000000000000966
20
-87.792515642239678
10
-0.749999999999998
20
-83.792515642239692
10
-9.8650000000000002
20
-83.792515642239692
10
-9.8650000000000002
20
-43.59251564223969
0
LWPOLYLINE
5
105
100
AcDbEntity
8
0
100
AcDbPolyline
90
52
70
1
43
0.0
10
-37.500000000000341
20
-117.21516537305
42
0.26794919243106935
10
-38.5
20
-118.94721618061868
10
-38.5
20
-153.79251564223969
10
-35.270064030266049
20
-153.79251564223966
10
-35.270064030266049
20
-133.79251564223966
10
-27.904935969719592
20
-133.79251564223966
10
-27.904935969719592
20
-153.79251564223966
10
-1.4374999999999982
20
-153.79251564223955
10
-1.4375000000000075
20
-113.79251564223951
10
1.4374999999999927
20
-113.79251564223952
10
1.4375000000000049
20
-153.79251564223955
10
27.904935969719595
20
-153.79251564223966
10
27.904935969719592
20
-133.79251564223966
10
35.270064030266049
20
-133.79251564223966
10
35.270064030266049
20
-153.79251564223966
10
38.5
20
-153.79251564223969
10
38.5
20
-118.94721618061868
42
0.26794919243107035
10
37.500000000000334
20
-117.21516537305
10
30.999999999999389
20
-113.46238862331519
42
-0.26794919243107385
10
29.999999999999716
20
-111.73033781574651
10
29.999999999999755
20
-107.7925156422296
10
27.899999999999757
20
-107.79251564222959
10
27.899999999999778
20
-105.79251564222956
10
29.99999999999978
20
-105.79251564222957
10
29.999999999999837
20
-100.2925156422296
10
27.899999999999835
20
-100.29251564222959
10
27.899999999999853
20
-98.292515642229546
10
29.999999999999854
20
-98.29251564222956
10
29.999999999999911
20
-92.792515642229588
10
27.899999999999913
20
-92.792515642229574
10
27.899999999999935
20
-90.792515642229546
10
29.999999999999932
20
-90.79251564222956
10
30
20
-83.79251564223965
10
24.999999999999993
20
-48.722726338330759
42
0.37331714084699813
10
9.8649999999999984
20
-35.592515642239682
10
-9.865000000000002
20
-35.592515642239675
42
0.3733171408469978
10
-25
20
-48.722726338330737
10
-30
20
-83.79251564223965
10
-29.999999999999932
20
-90.79251564222956
10
-27.899999999999935
20
-90.792515642229546
10
-27.899999999999913
20
-92.792515642229574
10
-29.999999999999911
20
-92.792515642229588
10
-29.999999999999854
20
-98.29251564222956
10
-27.899999999999853
20
-98.292515642229546
10
-27.899999999999835
20
-100.29251564222959
10
-29.999999999999837
20
-100.2925156422296
10
-29.99999999999978
20
-105.79251564222957
10
-27.899999999999778
20
-105.79251564222956
10
-27.899999999999757
20
-107.79251564222959
10
-29.999999999999755
20
-107.7925156422296
10
-29.999999999999716
20
-111.73033781574651
42
-0.26794919243107473
10
-30.999999999999392
20
-113.46238862331521
0
ENDSEC
0
SECTION
2
OBJECTS
0
DICTIONARY
5
C
100
AcDbDictionary
3
ACAD_GROUP
350
D
3
ACAD_MLINESTYLE
350
17
0
DICTIONARY
5
D
100
AcDbDictionary
0
DICTIONARY
5
1A
330
C
100
AcDbDictionary
0
DICTIONARY
5
17
100
AcDbDictionary
0
ENDSEC
0
EOF
