0
SECTION
2
HEADER
9
$INSUNITS
70
4
9
$ACADVER
1
AC1014
9
$HANDSEED
5
FFFF
0
ENDSEC
0
SECTION
2
TABLES
0
TABLE
2
VPORT
5
8
100
AcDbSymbolTable
0
ENDTAB
0
TABLE
2
LTYPE
5
5
100
AcDbSymbolTable
0
LTYPE
5
14
100
AcDbSymbolTableRecord
100
AcDbLinetypeTableRecord
2
BYBLOCK
70
0
0
LTYPE
5
15
100
AcDbSymbolTableRecord
100
AcDbLinetypeTableRecord
2
BYLAYER
70
0
0
ENDTAB
0
TABLE
2
LAYER
5
2
100
AcDbSymbolTable
70
2
0
LAYER
5
50
100
AcDbSymbolTableRecord
100
AcDbLayerTableRecord
2
0
70
0
6
CONTINUOUS
0
ENDTAB
0
TABLE
2
STYLE
5
3
100
AcDbSymbolTable
70
1
0
STYLE
5
11
100
AcDbSymbolTableRecord
100
AcDbTextStyleTableRecord
2
STANDARD
70
0
0
ENDTAB
0
TABLE
2
VIEW
5
6
100
AcDbSymbolTable
70
0
0
ENDTAB
0
TABLE
2
UCS
5
7
100
AcDbSymbolTable
70
0
0
ENDTAB
0
TABLE
2
APPID
5
9
100
AcDbSymbolTable
70
2
0
APPID
5
12
100
AcDbSymbolTableRecord
100
AcDbRegAppTableRecord
2
ACAD
70
0
0
ENDTAB
0
TABLE
2
DIMSTYLE
5
A
100
AcDbSymbolTable
70
1
0
ENDTAB
0
TABLE
2
BLOCK_RECORD
5
1
100
AcDbSymbolTable
70
1
0
BLOCK_RECORD
5
1F
100
AcDbSymbolTableRecord
100
AcDbBlockTableRecord
2
*MODEL_SPACE
0
BLOCK_RECORD
5
1B
100
AcDbSymbolTableRecord
100
AcDbBlockTableRecord
2
*PAPER_SPACE
0
ENDTAB
0
ENDSEC
0
SECTION
2
BLOCKS
0
BLOCK
5
20
100
AcDbEntity
100
AcDbBlockBegin
2
*MODEL_SPACE
0
ENDBLK
5
21
100
AcDbEntity
100
AcDbBlockEnd
0
BLOCK
5
1C
100
AcDbEntity
100
AcDbBlockBegin
2
*PAPER_SPACE
0
ENDBLK
5
1D
100
AcDbEntity
100
AcDbBlockEnd
0
ENDSEC
0
SECTION
2
ENTITIES
0
LWPOLYLINE
5
100
100
AcDbEntity
8
0
100
AcDbPolyline
90
4
70
1
43
0.0
10
1.527500000000098
20
-60
10
-1.5274999999999086
20
-60
10
-1.5274999999999062
20
-50
10
1.527500000000096
20
-50
0
CIRCLE
5
101
100
AcDbEntity
8
0
100
AcDbCircle
10
9.6619719703514564e-14
20
-1.7748754570413534e-29
30
0
40
120
210
2.6813994984148256e-63
220
1.459685900338351e-47
230
1
0
LWPOLYLINE
5
102
100
AcDbEntity
8
0
100
AcDbPolyline
90
6
70
1
43
0.0
10
15.00000000000002
20
-103.07764064044153
10
15.000000000000092
20
-20
42
-0.41421356237309509
10
20.000000000000092
20
-15
10
103.07764064044162
20
-14.999999999999986
42
-0.47152701455803964
10
107.98609971855791
20
-20.952380952380928
42
-0.30591604687870472
10
20.95238095238097
20
-107.98609971855781
42
-0.47152701455803969
0
LWPOLYLINE
5
103
100
AcDbEntity
8
0
100
AcDbPolyline
90
4
70
1
43
0.0
10
60.000000000000099
20
1.5274999999999976
10
60.000000000000099
20
-1.5275000000000087
10
50.000000000000099
20
-1.5275000000000059
10
50.000000000000099
20
1.5274999999999963
0
LWPOLYLINE
5
104
100
AcDbEntity
8
0
100
AcDbPolyline
90
6
70
1
43
0.0
10
103.07764064044163
20
14.999999999999915
10
20.000000000000089
20
14.999999999999998
42
-0.4142135623730942
10
15.000000000000103
20
19.999999999999996
10
15.000000000000089
20
103.07764064044152
42
-0.47152701455803964
10
20.952380952381048
20
107.98609971855781
42
-0.30591604687870466
10
107.9860997185579
20
20.952380952380874
42
-0.47152701455803997
0
LWPOLYLINE
5
105
100
AcDbEntity
8
0
100
AcDbPolyline
90
4
70
1
43
0.0
10
-59.999999999999901
20
-1.527500000000005
10
-59.999999999999901
20
1.5275000000000161
10
-49.999999999999901
20
1.5275000000000118
10
-49.999999999999901
20
-1.5275000000000025
0
LWPOLYLINE
5
106
100
AcDbEntity
8
0
100
AcDbPolyline
90
6
70
1
43
0.0
10
-103.07764064044144
20
-14.999999999999929
10
-19.999999999999911
20
-15
42
-0.41421356237309553
10
-14.999999999999902
20
-20
10
-14.999999999999885
20
-103.07764064044152
42
-0.4715270145580398
10
-20.952380952380842
20
-107.98609971855781
42
-0.30591604687870466
10
-107.98609971855771
20
-20.952380952380885
42
-0.47152701455803991
0
LWPOLYLINE
5
107
100
AcDbEntity
8
0
100
AcDbPolyline
90
6
70
1
43
0.0
10
-14.999999999999812
20
103.07764064044153
10
-14.999999999999897
20
20
42
-0.41421356237309476
10
-19.999999999999897
20
15.000000000000004
10
-103.07764064044142
20
15.000000000000002
42
-0.47152701455804069
10
-107.9860997185577
20
20.952380952380956
42
-0.30591604687870466
10
-20.952380952380768
20
107.98609971855781
42
-0.47152701455803986
0
LWPOLYLINE
5
108
100
AcDbEntity
8
0
100
AcDbPolyline
90
4
70
1
43
0.0
10
-1.5274999999998973
20
60
10
1.5275000000001087
20
60
10
1.5275000000001056
20
50
10
-1.5274999999998968
20
50
0
ENDSEC
0
SECTION
2
OBJECTS
0
DICTIONARY
5
C
100
AcDbDictionary
3
ACAD_GROUP
350
D
3
ACAD_MLINESTYLE
350
17
0
DICTIONARY
5
D
100
AcDbDictionary
0
DICTIONARY
5
1A
330
C
100
AcDbDictionary
0
DICTIONARY
5
17
100
AcDbDictionary
0
ENDSEC
0
EOF
