0
SECTION
2
HEADER
9
$INSUNITS
70
4
9
$ACADVER
1
AC1014
9
$HANDSEED
5
FFFF
0
ENDSEC
0
SECTION
2
TABLES
0
TABLE
2
VPORT
5
8
100
AcDbSymbolTable
0
ENDTAB
0
TABLE
2
LTYPE
5
5
100
AcDbSymbolTable
0
LTYPE
5
14
100
AcDbSymbolTableRecord
100
AcDbLinetypeTableRecord
2
BYBLOCK
70
0
0
LTYPE
5
15
100
AcDbSymbolTableRecord
100
AcDbLinetypeTableRecord
2
BYLAYER
70
0
0
ENDTAB
0
TABLE
2
LAYER
5
2
100
AcDbSymbolTable
70
2
0
LAYER
5
50
100
AcDbSymbolTableRecord
100
AcDbLayerTableRecord
2
0
70
0
6
CONTINUOUS
0
ENDTAB
0
TABLE
2
STYLE
5
3
100
AcDbSymbolTable
70
1
0
STYLE
5
11
100
AcDbSymbolTableRecord
100
AcDbTextStyleTableRecord
2
STANDARD
70
0
0
ENDTAB
0
TABLE
2
VIEW
5
6
100
AcDbSymbolTable
70
0
0
ENDTAB
0
TABLE
2
UCS
5
7
100
AcDbSymbolTable
70
0
0
ENDTAB
0
TABLE
2
APPID
5
9
100
AcDbSymbolTable
70
2
0
APPID
5
12
100
AcDbSymbolTableRecord
100
AcDbRegAppTableRecord
2
ACAD
70
0
0
ENDTAB
0
TABLE
2
DIMSTYLE
5
A
100
AcDbSymbolTable
70
1
0
ENDTAB
0
TABLE
2
BLOCK_RECORD
5
1
100
AcDbSymbolTable
70
1
0
BLOCK_RECORD
5
1F
100
AcDbSymbolTableRecord
100
AcDbBlockTableRecord
2
*MODEL_SPACE
0
BLOCK_RECORD
5
1B
100
AcDbSymbolTableRecord
100
AcDbBlockTableRecord
2
*PAPER_SPACE
0
ENDTAB
0
ENDSEC
0
SECTION
2
BLOCKS
0
BLOCK
5
20
100
AcDbEntity
100
AcDbBlockBegin
2
*MODEL_SPACE
0
ENDBLK
5
21
100
AcDbEntity
100
AcDbBlockEnd
0
BLOCK
5
1C
100
AcDbEntity
100
AcDbBlockBegin
2
*PAPER_SPACE
0
ENDBLK
5
1D
100
AcDbEntity
100
AcDbBlockEnd
0
ENDSEC
0
SECTION
2
ENTITIES
0
LWPOLYLINE
5
100
100
AcDbEntity
8
0
100
AcDbPolyline
90
16
70
1
43
0.0
10
0
20
-200
10
0
20
-20
42
-0.99999999999999989
10
0
20
20
10
0
20
200
42
0.026304539705507085
10
-21.000000005274217
20
198.89444436629816
10
-21.000000005274341
20
194.5
10
-46.580575350675986
20
194.5
42
0.28233031072794851
10
-194.5
20
46.580575350676085
10
-194.5
20
21.000000005274355
10
-198.89444436629816
20
21.000000005274355
42
0.052645506353531484
10
-198.89444436629816
20
-21.000000005274266
10
-194.5
20
-21.00000000527433
10
-194.5
20
-46.580575350675979
42
0.28233031072794851
10
-46.580575350676085
20
-194.5
10
-21.000000005274341
20
-194.5
10
-21.000000005274345
20
-198.89444436629816
42
0.026304539705507616
0
LWPOLYLINE
5
101
100
AcDbEntity
8
0
100
AcDbPolyline
90
4
70
1
43
0.0
10
-13.560000000000166
20
-187
10
-16.615000000000165
20
-187
10
-16.615000000000155
20
-172
10
-13.560000000000107
20
-172
0
LWPOLYLINE
5
102
100
AcDbEntity
8
0
100
AcDbPolyline
90
4
70
1
43
0.0
10
-13.560000000000139
20
187.00000000000003
10
-13.56000000000008
20
172
10
-16.61500000000013
20
172
10
-16.615000000000137
20
187.00000000000003
0
LWPOLYLINE
5
103
100
AcDbEntity
8
0
100
AcDbPolyline
90
4
70
1
43
0.0
10
-84.089608313124955
20
167.57628523673992
10
-78.349356827648535
20
153.71809224907065
10
-81.171808799470583
20
152.54899436319528
10
-86.912060284946932
20
166.4071873508646
0
LWPOLYLINE
5
104
100
AcDbEntity
8
0
100
AcDbPolyline
90
4
70
1
43
0.0
10
-59.033995391418557
20
177.95465992248128
10
-56.211543419596595
20
179.12375780835669
10
-50.471291934120231
20
165.2655648206873
10
-53.293743905942264
20
164.09646693481196
0
LWPOLYLINE
5
105
100
AcDbEntity
8
0
100
AcDbPolyline
90
4
70
1
43
0.0
10
-141.81733603477409
20
122.64060012899471
10
-131.21073431697582
20
112.03399841119655
10
-133.37094553350079
20
109.87378719467159
10
-143.97754725129897
20
120.48038891246981
0
LWPOLYLINE
5
106
100
AcDbEntity
8
0
100
AcDbPolyline
90
4
70
1
43
0.0
10
-122.64060012899465
20
141.81733603477409
10
-120.48038891246976
20
143.977547251299
10
-109.87378719467159
20
133.37094553350082
10
-112.03399841119651
20
131.21073431697587
0
LWPOLYLINE
5
107
100
AcDbEntity
8
0
100
AcDbPolyline
90
4
70
1
43
0.0
10
-177.9546599224812
20
59.033995391418664
10
-164.0964669348119
20
53.293743905942378
10
-165.26556482068727
20
50.471291934120345
10
-179.12375780835652
20
56.211543419596701
0
LWPOLYLINE
5
108
100
AcDbEntity
8
0
100
AcDbPolyline
90
4
70
1
43
0.0
10
-167.57628523673986
20
84.089608313125098
10
-166.40718735086449
20
86.912060284947046
10
-152.54899436319519
20
81.171808799470682
10
-153.71809224907057
20
78.349356827648677
0
LWPOLYLINE
5
109
100
AcDbEntity
8
0
100
AcDbPolyline
90
4
70
1
43
0.0
10
-186.99999999999994
20
-13.56000000000013
10
-171.99999999999991
20
-13.560000000000073
10
-171.99999999999991
20
-16.615000000000119
10
-186.99999999999994
20
-16.615000000000126
0
LWPOLYLINE
5
110
100
AcDbEntity
8
0
100
AcDbPolyline
90
4
70
1
43
0.0
10
-186.99999999999991
20
13.560000000000198
10
-186.99999999999991
20
16.615000000000201
10
-171.99999999999991
20
16.615000000000187
10
-171.99999999999991
20
13.560000000000139
0
LWPOLYLINE
5
111
100
AcDbEntity
8
0
100
AcDbPolyline
90
4
70
1
43
0.0
10
-167.57628523673992
20
-84.089608313125041
10
-153.71809224907065
20
-78.349356827648634
10
-152.54899436319528
20
-81.171808799470639
10
-166.4071873508646
20
-86.912060284947017
0
LWPOLYLINE
5
112
100
AcDbEntity
8
0
100
AcDbPolyline
90
4
70
1
43
0.0
10
-177.95465992248128
20
-59.033995391418642
10
-179.12375780835669
20
-56.211543419596659
10
-165.26556482068727
20
-50.471291934120273
10
-164.09646693481193
20
-53.293743905942321
0
LWPOLYLINE
5
113
100
AcDbEntity
8
0
100
AcDbPolyline
90
4
70
1
43
0.0
10
-122.64060012899472
20
-141.81733603477403
10
-112.03399841119654
20
-131.21073431697576
10
-109.87378719467158
20
-133.37094553350073
10
-120.48038891246981
20
-143.97754725129894
0
LWPOLYLINE
5
114
100
AcDbEntity
8
0
100
AcDbPolyline
90
4
70
1
43
0.0
10
-141.81733603477409
20
-122.64060012899462
10
-143.977547251299
20
-120.48038891246972
10
-133.37094553350079
20
-109.87378719467152
10
-131.21073431697585
20
-112.03399841119648
0
LWPOLYLINE
5
115
100
AcDbEntity
8
0
100
AcDbPolyline
90
4
70
1
43
0.0
10
-59.033995391418713
20
-177.95465992248126
10
-53.293743905942392
20
-164.0964669348119
10
-50.471291934120366
20
-165.26556482068727
10
-56.211543419596737
20
-179.1237578083566
0
LWPOLYLINE
5
116
100
AcDbEntity
8
0
100
AcDbPolyline
90
4
70
1
43
0.0
10
-84.089608313125126
20
-167.57628523673986
10
-86.912060284947074
20
-166.40718735086452
10
-81.17180879947071
20
-152.54899436319522
10
-78.349356827648705
20
-153.71809224907057
0
ENDSEC
0
SECTION
2
OBJECTS
0
DICTIONARY
5
C
100
AcDbDictionary
3
ACAD_GROUP
350
D
3
ACAD_MLINESTYLE
350
17
0
DICTIONARY
5
D
100
AcDbDictionary
0
DICTIONARY
5
1A
330
C
100
AcDbDictionary
0
DICTIONARY
5
17
100
AcDbDictionary
0
ENDSEC
0
EOF
