0
SECTION
2
HEADER
9
$INSUNITS
70
4
9
$ACADVER
1
AC1014
9
$HANDSEED
5
FFFF
0
ENDSEC
0
SECTION
2
TABLES
0
TABLE
2
VPORT
5
8
100
AcDbSymbolTable
0
ENDTAB
0
TABLE
2
LTYPE
5
5
100
AcDbSymbolTable
0
LTYPE
5
14
100
AcDbSymbolTableRecord
100
AcDbLinetypeTableRecord
2
BYBLOCK
70
0
0
LTYPE
5
15
100
AcDbSymbolTableRecord
100
AcDbLinetypeTableRecord
2
BYLAYER
70
0
0
ENDTAB
0
TABLE
2
LAYER
5
2
100
AcDbSymbolTable
70
2
0
LAYER
5
50
100
AcDbSymbolTableRecord
100
AcDbLayerTableRecord
2
0
70
0
6
CONTINUOUS
0
ENDTAB
0
TABLE
2
STYLE
5
3
100
AcDbSymbolTable
70
1
0
STYLE
5
11
100
AcDbSymbolTableRecord
100
AcDbTextStyleTableRecord
2
STANDARD
70
0
0
ENDTAB
0
TABLE
2
VIEW
5
6
100
AcDbSymbolTable
70
0
0
ENDTAB
0
TABLE
2
UCS
5
7
100
AcDbSymbolTable
70
0
0
ENDTAB
0
TABLE
2
APPID
5
9
100
AcDbSymbolTable
70
2
0
APPID
5
12
100
AcDbSymbolTableRecord
100
AcDbRegAppTableRecord
2
ACAD
70
0
0
ENDTAB
0
TABLE
2
DIMSTYLE
5
A
100
AcDbSymbolTable
70
1
0
ENDTAB
0
TABLE
2
BLOCK_RECORD
5
1
100
AcDbSymbolTable
70
1
0
BLOCK_RECORD
5
1F
100
AcDbSymbolTableRecord
100
AcDbBlockTableRecord
2
*MODEL_SPACE
0
BLOCK_RECORD
5
1B
100
AcDbSymbolTableRecord
100
AcDbBlockTableRecord
2
*PAPER_SPACE
0
ENDTAB
0
ENDSEC
0
SECTION
2
BLOCKS
0
BLOCK
5
20
100
AcDbEntity
100
AcDbBlockBegin
2
*MODEL_SPACE
0
ENDBLK
5
21
100
AcDbEntity
100
AcDbBlockEnd
0
BLOCK
5
1C
100
AcDbEntity
100
AcDbBlockBegin
2
*PAPER_SPACE
0
ENDBLK
5
1D
100
AcDbEntity
100
AcDbBlockEnd
0
ENDSEC
0
SECTION
2
ENTITIES
0
LWPOLYLINE
5
100
100
AcDbEntity
8
0
100
AcDbPolyline
90
12
70
1
43
0.0
10
0.50000000000000544
20
-91.175600060010652
10
-0.49999999999999101
20
-91.175600060010652
10
-0.49999999999999323
20
-83.175600060010666
10
-9.8499999999999908
20
-83.175600060010666
10
-9.8499999999999925
20
-43.175600060010673
10
-0.49999999999999156
20
-43.175600060010673
10
-0.49999999999999178
20
-35.17560006001068
10
0.50000000000000622
20
-35.17560006001068
10
0.50000000000000666
20
-43.175600060010673
10
9.8500000000000085
20
-43.175600060010673
10
9.850000000000005
20
-83.175600060010666
10
0.50000000000000822
20
-83.175600060010666
0
CIRCLE
5
101
100
AcDbEntity
8
0
100
AcDbCircle
10
5.0000000000000098
20
-87.17560006001068
30
0
40
1.5500000000000003
210
1.9470192682957015e-49
220
1.197511005550964e-81
230
1
0
CIRCLE
5
102
100
AcDbEntity
8
0
100
AcDbCircle
10
5.0000000000000071
20
-39.175600060010666
30
0
40
1.5500000000000003
210
1.9470192682957015e-49
220
1.197511005550964e-81
230
1
0
LWPOLYLINE
5
103
100
AcDbEntity
8
0
100
AcDbPolyline
90
14
70
1
43
0.0
10
-30.060000000000009
20
-93.17560006001068
10
30.060000000000031
20
-93.17560006001068
10
30.060000000000091
20
-78.175600060010666
10
33.115000000000073
20
-78.175600060010666
10
33.11500000000003
20
-93.175000000000026
42
0.42008402520839738
10
36.175000000000054
20
-90.175600060010623
10
36.175000000000075
20
-48.175600060010666
42
0.41421356237309515
10
21.175000000000072
20
-33.175600060010666
10
-21.175000000000061
20
-33.175600060010666
42
0.41421356237309509
10
-36.175000000000061
20
-48.175600060010666
10
-36.175000000000026
20
-90.175600060010623
42
0.42008402520839611
10
-33.115000000000038
20
-93.174999999998676
10
-33.115000000000052
20
-78.175600060010666
10
-30.060000000000073
20
-78.175600060010666
0
CIRCLE
5
104
100
AcDbEntity
8
0
100
AcDbCircle
10
-4.999999999999992
20
-39.175600060010666
30
0
40
1.5500000000000003
210
1.9470192682957015e-49
220
1.197511005550964e-81
230
1
0
CIRCLE
5
105
100
AcDbEntity
8
0
100
AcDbCircle
10
-4.9999999999999947
20
-87.17560006001068
30
4.4408920985006262e-15
40
1.5500000000000003
210
1.9470192682957015e-49
220
1.197511005550964e-81
230
1
0
ENDSEC
0
SECTION
2
OBJECTS
0
DICTIONARY
5
C
100
AcDbDictionary
3
ACAD_GROUP
350
D
3
ACAD_MLINESTYLE
350
17
0
DICTIONARY
5
D
100
AcDbDictionary
0
DICTIONARY
5
1A
330
C
100
AcDbDictionary
0
DICTIONARY
5
17
100
AcDbDictionary
0
ENDSEC
0
EOF
